G75*
%MOIN*%
%OFA0B0*%
%FSLAX25Y25*%
%IPPOS*%
%LPD*%
%AMOC8*
5,1,8,0,0,1.08239X$1,22.5*
%
%ADD10C,0.00004*%
%ADD11C,0.05200*%
%ADD12C,0.07400*%
%ADD13R,0.02362X0.08661*%
%ADD14C,0.05600*%
%ADD15R,0.05118X0.05906*%
%ADD16R,0.03937X0.05512*%
%ADD17OC8,0.05628*%
%ADD18C,0.05200*%
%ADD19R,0.02600X0.08000*%
%ADD20R,0.04724X0.04724*%
%ADD21C,0.01600*%
%ADD22C,0.00800*%
%ADD23C,0.02775*%
D10*
X0092644Y0010874D02*
X0092644Y0203787D01*
X0092646Y0203977D01*
X0092653Y0204167D01*
X0092665Y0204357D01*
X0092681Y0204547D01*
X0092701Y0204736D01*
X0092727Y0204925D01*
X0092756Y0205113D01*
X0092791Y0205300D01*
X0092830Y0205486D01*
X0092873Y0205671D01*
X0092921Y0205856D01*
X0092973Y0206039D01*
X0093029Y0206220D01*
X0093090Y0206400D01*
X0093156Y0206579D01*
X0093225Y0206756D01*
X0093299Y0206932D01*
X0093377Y0207105D01*
X0093460Y0207277D01*
X0093546Y0207446D01*
X0093636Y0207614D01*
X0093731Y0207779D01*
X0093829Y0207942D01*
X0093932Y0208102D01*
X0094038Y0208260D01*
X0094148Y0208415D01*
X0094261Y0208568D01*
X0094379Y0208718D01*
X0094500Y0208864D01*
X0094624Y0209008D01*
X0094752Y0209149D01*
X0094883Y0209287D01*
X0095018Y0209422D01*
X0095156Y0209553D01*
X0095297Y0209681D01*
X0095441Y0209805D01*
X0095587Y0209926D01*
X0095737Y0210044D01*
X0095890Y0210157D01*
X0096045Y0210267D01*
X0096203Y0210373D01*
X0096363Y0210476D01*
X0096526Y0210574D01*
X0096691Y0210669D01*
X0096859Y0210759D01*
X0097028Y0210845D01*
X0097200Y0210928D01*
X0097373Y0211006D01*
X0097549Y0211080D01*
X0097726Y0211149D01*
X0097905Y0211215D01*
X0098085Y0211276D01*
X0098266Y0211332D01*
X0098449Y0211384D01*
X0098634Y0211432D01*
X0098819Y0211475D01*
X0099005Y0211514D01*
X0099192Y0211549D01*
X0099380Y0211578D01*
X0099569Y0211604D01*
X0099758Y0211624D01*
X0099948Y0211640D01*
X0100138Y0211652D01*
X0100328Y0211659D01*
X0100518Y0211661D01*
X0281620Y0211661D01*
X0281810Y0211659D01*
X0282000Y0211652D01*
X0282190Y0211640D01*
X0282380Y0211624D01*
X0282569Y0211604D01*
X0282758Y0211578D01*
X0282946Y0211549D01*
X0283133Y0211514D01*
X0283319Y0211475D01*
X0283504Y0211432D01*
X0283689Y0211384D01*
X0283872Y0211332D01*
X0284053Y0211276D01*
X0284233Y0211215D01*
X0284412Y0211149D01*
X0284589Y0211080D01*
X0284765Y0211006D01*
X0284938Y0210928D01*
X0285110Y0210845D01*
X0285279Y0210759D01*
X0285447Y0210669D01*
X0285612Y0210574D01*
X0285775Y0210476D01*
X0285935Y0210373D01*
X0286093Y0210267D01*
X0286248Y0210157D01*
X0286401Y0210044D01*
X0286551Y0209926D01*
X0286697Y0209805D01*
X0286841Y0209681D01*
X0286982Y0209553D01*
X0287120Y0209422D01*
X0287255Y0209287D01*
X0287386Y0209149D01*
X0287514Y0209008D01*
X0287638Y0208864D01*
X0287759Y0208718D01*
X0287877Y0208568D01*
X0287990Y0208415D01*
X0288100Y0208260D01*
X0288206Y0208102D01*
X0288309Y0207942D01*
X0288407Y0207779D01*
X0288502Y0207614D01*
X0288592Y0207446D01*
X0288678Y0207277D01*
X0288761Y0207105D01*
X0288839Y0206932D01*
X0288913Y0206756D01*
X0288982Y0206579D01*
X0289048Y0206400D01*
X0289109Y0206220D01*
X0289165Y0206039D01*
X0289217Y0205856D01*
X0289265Y0205671D01*
X0289308Y0205486D01*
X0289347Y0205300D01*
X0289382Y0205113D01*
X0289411Y0204925D01*
X0289437Y0204736D01*
X0289457Y0204547D01*
X0289473Y0204357D01*
X0289485Y0204167D01*
X0289492Y0203977D01*
X0289494Y0203787D01*
X0289494Y0010874D01*
X0289492Y0010684D01*
X0289485Y0010494D01*
X0289473Y0010304D01*
X0289457Y0010114D01*
X0289437Y0009925D01*
X0289411Y0009736D01*
X0289382Y0009548D01*
X0289347Y0009361D01*
X0289308Y0009175D01*
X0289265Y0008990D01*
X0289217Y0008805D01*
X0289165Y0008622D01*
X0289109Y0008441D01*
X0289048Y0008261D01*
X0288982Y0008082D01*
X0288913Y0007905D01*
X0288839Y0007729D01*
X0288761Y0007556D01*
X0288678Y0007384D01*
X0288592Y0007215D01*
X0288502Y0007047D01*
X0288407Y0006882D01*
X0288309Y0006719D01*
X0288206Y0006559D01*
X0288100Y0006401D01*
X0287990Y0006246D01*
X0287877Y0006093D01*
X0287759Y0005943D01*
X0287638Y0005797D01*
X0287514Y0005653D01*
X0287386Y0005512D01*
X0287255Y0005374D01*
X0287120Y0005239D01*
X0286982Y0005108D01*
X0286841Y0004980D01*
X0286697Y0004856D01*
X0286551Y0004735D01*
X0286401Y0004617D01*
X0286248Y0004504D01*
X0286093Y0004394D01*
X0285935Y0004288D01*
X0285775Y0004185D01*
X0285612Y0004087D01*
X0285447Y0003992D01*
X0285279Y0003902D01*
X0285110Y0003816D01*
X0284938Y0003733D01*
X0284765Y0003655D01*
X0284589Y0003581D01*
X0284412Y0003512D01*
X0284233Y0003446D01*
X0284053Y0003385D01*
X0283872Y0003329D01*
X0283689Y0003277D01*
X0283504Y0003229D01*
X0283319Y0003186D01*
X0283133Y0003147D01*
X0282946Y0003112D01*
X0282758Y0003083D01*
X0282569Y0003057D01*
X0282380Y0003037D01*
X0282190Y0003021D01*
X0282000Y0003009D01*
X0281810Y0003002D01*
X0281620Y0003000D01*
X0100518Y0003000D01*
X0100328Y0003002D01*
X0100138Y0003009D01*
X0099948Y0003021D01*
X0099758Y0003037D01*
X0099569Y0003057D01*
X0099380Y0003083D01*
X0099192Y0003112D01*
X0099005Y0003147D01*
X0098819Y0003186D01*
X0098634Y0003229D01*
X0098449Y0003277D01*
X0098266Y0003329D01*
X0098085Y0003385D01*
X0097905Y0003446D01*
X0097726Y0003512D01*
X0097549Y0003581D01*
X0097373Y0003655D01*
X0097200Y0003733D01*
X0097028Y0003816D01*
X0096859Y0003902D01*
X0096691Y0003992D01*
X0096526Y0004087D01*
X0096363Y0004185D01*
X0096203Y0004288D01*
X0096045Y0004394D01*
X0095890Y0004504D01*
X0095737Y0004617D01*
X0095587Y0004735D01*
X0095441Y0004856D01*
X0095297Y0004980D01*
X0095156Y0005108D01*
X0095018Y0005239D01*
X0094883Y0005374D01*
X0094752Y0005512D01*
X0094624Y0005653D01*
X0094500Y0005797D01*
X0094379Y0005943D01*
X0094261Y0006093D01*
X0094148Y0006246D01*
X0094038Y0006401D01*
X0093932Y0006559D01*
X0093829Y0006719D01*
X0093731Y0006882D01*
X0093636Y0007047D01*
X0093546Y0007215D01*
X0093460Y0007384D01*
X0093377Y0007556D01*
X0093299Y0007729D01*
X0093225Y0007905D01*
X0093156Y0008082D01*
X0093090Y0008261D01*
X0093029Y0008441D01*
X0092973Y0008622D01*
X0092921Y0008805D01*
X0092873Y0008990D01*
X0092830Y0009175D01*
X0092791Y0009361D01*
X0092756Y0009548D01*
X0092727Y0009736D01*
X0092701Y0009925D01*
X0092681Y0010114D01*
X0092665Y0010304D01*
X0092653Y0010494D01*
X0092646Y0010684D01*
X0092644Y0010874D01*
D11*
X0099729Y0056515D02*
X0104929Y0056515D01*
X0104929Y0066515D02*
X0099729Y0066515D01*
X0099729Y0076515D02*
X0104929Y0076515D01*
X0104929Y0086515D02*
X0099729Y0086515D01*
X0099729Y0096515D02*
X0104929Y0096515D01*
X0104929Y0106515D02*
X0099729Y0106515D01*
X0099729Y0116515D02*
X0104929Y0116515D01*
X0104929Y0126515D02*
X0099729Y0126515D01*
X0099729Y0136515D02*
X0104929Y0136515D01*
X0104929Y0146515D02*
X0099729Y0146515D01*
X0099729Y0156515D02*
X0104929Y0156515D01*
X0104929Y0166515D02*
X0099729Y0166515D01*
X0099729Y0176515D02*
X0104929Y0176515D01*
X0104929Y0186515D02*
X0099729Y0186515D01*
X0129729Y0186515D02*
X0134929Y0186515D01*
X0145989Y0186500D02*
X0151189Y0186500D01*
X0151189Y0176500D02*
X0145989Y0176500D01*
X0134929Y0176515D02*
X0129729Y0176515D01*
X0129729Y0166515D02*
X0134929Y0166515D01*
X0134929Y0156515D02*
X0129729Y0156515D01*
X0129729Y0146515D02*
X0134929Y0146515D01*
X0145989Y0146500D02*
X0151189Y0146500D01*
X0151189Y0136500D02*
X0145989Y0136500D01*
X0145989Y0126500D02*
X0151189Y0126500D01*
X0134929Y0126515D02*
X0129729Y0126515D01*
X0129729Y0136515D02*
X0134929Y0136515D01*
X0134929Y0116515D02*
X0129729Y0116515D01*
X0129729Y0106515D02*
X0134929Y0106515D01*
X0145989Y0106500D02*
X0151189Y0106500D01*
X0151189Y0096500D02*
X0145989Y0096500D01*
X0134929Y0096515D02*
X0129729Y0096515D01*
X0129729Y0086515D02*
X0134929Y0086515D01*
X0134929Y0076515D02*
X0129729Y0076515D01*
X0129729Y0066515D02*
X0134929Y0066515D01*
X0134929Y0056515D02*
X0129729Y0056515D01*
X0145989Y0076500D02*
X0151189Y0076500D01*
X0151189Y0086500D02*
X0145989Y0086500D01*
X0175989Y0086500D02*
X0181189Y0086500D01*
X0181189Y0076500D02*
X0175989Y0076500D01*
X0175989Y0096500D02*
X0181189Y0096500D01*
X0181189Y0106500D02*
X0175989Y0106500D01*
X0195989Y0106500D02*
X0201189Y0106500D01*
X0201189Y0116500D02*
X0195989Y0116500D01*
X0195989Y0126500D02*
X0201189Y0126500D01*
X0201189Y0136500D02*
X0195989Y0136500D01*
X0195989Y0146500D02*
X0201189Y0146500D01*
X0201189Y0156500D02*
X0195989Y0156500D01*
X0195989Y0166500D02*
X0201189Y0166500D01*
X0201189Y0176500D02*
X0195989Y0176500D01*
X0195989Y0186500D02*
X0201189Y0186500D01*
X0181189Y0186500D02*
X0175989Y0186500D01*
X0175989Y0176500D02*
X0181189Y0176500D01*
X0181189Y0166500D02*
X0175989Y0166500D01*
X0175989Y0156500D02*
X0181189Y0156500D01*
X0181189Y0146500D02*
X0175989Y0146500D01*
X0175989Y0136500D02*
X0181189Y0136500D01*
X0181189Y0126500D02*
X0175989Y0126500D01*
X0195989Y0096500D02*
X0201189Y0096500D01*
X0225989Y0096500D02*
X0231189Y0096500D01*
X0231189Y0106500D02*
X0225989Y0106500D01*
X0225989Y0116500D02*
X0231189Y0116500D01*
X0231189Y0126500D02*
X0225989Y0126500D01*
X0225989Y0136500D02*
X0231189Y0136500D01*
X0231189Y0146500D02*
X0225989Y0146500D01*
X0225989Y0156500D02*
X0231189Y0156500D01*
X0231189Y0166500D02*
X0225989Y0166500D01*
X0225989Y0176500D02*
X0231189Y0176500D01*
X0231189Y0186500D02*
X0225989Y0186500D01*
X0245989Y0186500D02*
X0251189Y0186500D01*
X0251189Y0176500D02*
X0245989Y0176500D01*
X0245989Y0166500D02*
X0251189Y0166500D01*
X0251189Y0156500D02*
X0245989Y0156500D01*
X0245989Y0146500D02*
X0251189Y0146500D01*
X0251189Y0136500D02*
X0245989Y0136500D01*
X0245989Y0126500D02*
X0251189Y0126500D01*
X0251189Y0116500D02*
X0245989Y0116500D01*
X0245989Y0106500D02*
X0251189Y0106500D01*
X0251189Y0096500D02*
X0245989Y0096500D01*
X0275989Y0096500D02*
X0281189Y0096500D01*
X0281189Y0106500D02*
X0275989Y0106500D01*
X0275989Y0116500D02*
X0281189Y0116500D01*
X0281189Y0126500D02*
X0275989Y0126500D01*
X0275989Y0136500D02*
X0281189Y0136500D01*
X0281189Y0146500D02*
X0275989Y0146500D01*
X0275989Y0156500D02*
X0281189Y0156500D01*
X0281189Y0166500D02*
X0275989Y0166500D01*
X0275989Y0176500D02*
X0281189Y0176500D01*
X0281189Y0186500D02*
X0275989Y0186500D01*
X0151189Y0166500D02*
X0145989Y0166500D01*
X0145989Y0156500D02*
X0151189Y0156500D01*
D12*
X0152524Y0201785D03*
X0162524Y0201785D03*
X0172524Y0201785D03*
X0182524Y0201785D03*
X0192524Y0201785D03*
X0207524Y0201785D03*
X0217524Y0201785D03*
X0227524Y0201785D03*
X0237524Y0201785D03*
X0247524Y0201785D03*
X0257524Y0201785D03*
X0267524Y0201785D03*
X0277524Y0201785D03*
X0142524Y0201785D03*
X0132524Y0201785D03*
X0122524Y0201785D03*
X0112524Y0201785D03*
X0102524Y0201785D03*
X0137524Y0011785D03*
X0147524Y0011785D03*
X0157524Y0011785D03*
X0167524Y0011785D03*
X0177524Y0011785D03*
X0187524Y0011785D03*
X0197524Y0011785D03*
X0207524Y0011785D03*
X0227524Y0011785D03*
X0237524Y0011785D03*
X0247524Y0011785D03*
X0257524Y0011785D03*
X0267524Y0011785D03*
X0277524Y0011785D03*
D13*
X0257959Y0037764D03*
X0252959Y0037764D03*
X0247959Y0037764D03*
X0242959Y0037764D03*
X0242959Y0058236D03*
X0247959Y0058236D03*
X0252959Y0058236D03*
X0257959Y0058236D03*
D14*
X0178644Y0057015D02*
X0178644Y0062615D01*
X0168644Y0062615D02*
X0168644Y0057015D01*
X0158644Y0057015D02*
X0158644Y0062615D01*
X0158644Y0045115D02*
X0158644Y0039515D01*
X0168644Y0039515D02*
X0168644Y0045115D01*
X0178644Y0045115D02*
X0178644Y0039515D01*
D15*
X0191089Y0025500D03*
X0198569Y0025500D03*
X0237719Y0025500D03*
X0245199Y0025500D03*
X0256219Y0025500D03*
X0263699Y0025500D03*
X0266719Y0060500D03*
X0274199Y0060500D03*
X0126384Y0038000D03*
X0118904Y0038000D03*
X0118904Y0025500D03*
X0126384Y0025500D03*
X0126384Y0013000D03*
X0118904Y0013000D03*
D16*
X0273589Y0071669D03*
X0281069Y0071669D03*
X0277329Y0080331D03*
D17*
X0253144Y0075815D03*
X0232144Y0075815D03*
X0145459Y0032500D03*
D18*
X0145459Y0024500D03*
X0240144Y0075815D03*
X0261144Y0075815D03*
D19*
X0230144Y0060415D03*
X0225144Y0060415D03*
X0220144Y0060415D03*
X0215144Y0060415D03*
X0210144Y0060415D03*
X0205144Y0060415D03*
X0200144Y0060415D03*
X0195144Y0060415D03*
X0195144Y0036215D03*
X0200144Y0036215D03*
X0205144Y0036215D03*
X0210144Y0036215D03*
X0215144Y0036215D03*
X0220144Y0036215D03*
X0225144Y0036215D03*
X0230144Y0036215D03*
D20*
X0109278Y0038000D03*
X0101010Y0038000D03*
X0101010Y0025500D03*
X0109278Y0025500D03*
X0109278Y0013000D03*
X0101010Y0013000D03*
D21*
X0100629Y0013381D02*
X0100629Y0012619D01*
X0096848Y0012619D01*
X0096848Y0010401D01*
X0096971Y0009943D01*
X0097208Y0009533D01*
X0097543Y0009197D01*
X0097953Y0008960D01*
X0098411Y0008838D01*
X0100629Y0008838D01*
X0100629Y0012619D01*
X0101391Y0012619D01*
X0101391Y0008838D01*
X0103609Y0008838D01*
X0104067Y0008960D01*
X0104478Y0009197D01*
X0104813Y0009533D01*
X0105050Y0009943D01*
X0105172Y0010401D01*
X0105172Y0012619D01*
X0101391Y0012619D01*
X0101391Y0013381D01*
X0100629Y0013381D01*
X0096848Y0013381D01*
X0096848Y0015599D01*
X0096971Y0016057D01*
X0097208Y0016467D01*
X0097543Y0016803D01*
X0097953Y0017040D01*
X0098411Y0017162D01*
X0100629Y0017162D01*
X0100629Y0013381D01*
X0101391Y0013381D02*
X0101391Y0017162D01*
X0103609Y0017162D01*
X0104067Y0017040D01*
X0104478Y0016803D01*
X0104813Y0016467D01*
X0105050Y0016057D01*
X0105172Y0015599D01*
X0105172Y0013381D01*
X0101391Y0013381D01*
X0101391Y0012591D02*
X0100629Y0012591D01*
X0100629Y0010993D02*
X0101391Y0010993D01*
X0101391Y0009394D02*
X0100629Y0009394D01*
X0097346Y0009394D02*
X0094693Y0009394D01*
X0094521Y0009924D02*
X0094446Y0010874D01*
X0094446Y0203787D01*
X0094521Y0204737D01*
X0095108Y0206544D01*
X0096225Y0208081D01*
X0097761Y0209198D01*
X0099568Y0209785D01*
X0100518Y0209859D01*
X0281620Y0209859D01*
X0282570Y0209785D01*
X0284377Y0209198D01*
X0285914Y0208081D01*
X0287031Y0206544D01*
X0287618Y0204737D01*
X0287693Y0203787D01*
X0287693Y0169913D01*
X0285249Y0175327D01*
X0285389Y0175665D01*
X0285389Y0177335D01*
X0284750Y0178879D01*
X0283568Y0180061D01*
X0282024Y0180700D01*
X0275154Y0180700D01*
X0274806Y0180556D01*
X0273674Y0182743D01*
X0273683Y0182737D01*
X0274300Y0182422D01*
X0274959Y0182208D01*
X0275643Y0182100D01*
X0278589Y0182100D01*
X0281535Y0182100D01*
X0282219Y0182208D01*
X0282878Y0182422D01*
X0283495Y0182737D01*
X0284055Y0183144D01*
X0284545Y0183634D01*
X0284952Y0184194D01*
X0285267Y0184811D01*
X0285481Y0185470D01*
X0285589Y0186154D01*
X0285589Y0186500D01*
X0285589Y0186846D01*
X0285481Y0187530D01*
X0285267Y0188189D01*
X0284952Y0188806D01*
X0284545Y0189366D01*
X0284055Y0189856D01*
X0283495Y0190263D01*
X0282878Y0190578D01*
X0282219Y0190792D01*
X0281535Y0190900D01*
X0278589Y0190900D01*
X0278589Y0186500D01*
X0285589Y0186500D01*
X0278589Y0186500D01*
X0278589Y0186500D01*
X0278589Y0186500D01*
X0278589Y0182100D01*
X0278589Y0186500D01*
X0278589Y0186500D01*
X0278589Y0190900D01*
X0275643Y0190900D01*
X0274959Y0190792D01*
X0274300Y0190578D01*
X0273683Y0190263D01*
X0273123Y0189856D01*
X0272633Y0189366D01*
X0272226Y0188806D01*
X0271911Y0188189D01*
X0271697Y0187530D01*
X0271589Y0186846D01*
X0271589Y0186773D01*
X0266565Y0196485D01*
X0268578Y0196485D01*
X0270526Y0197292D01*
X0272017Y0198782D01*
X0272524Y0200006D01*
X0273030Y0198782D01*
X0274521Y0197292D01*
X0276469Y0196485D01*
X0278578Y0196485D01*
X0280526Y0197292D01*
X0282017Y0198782D01*
X0282824Y0200730D01*
X0282824Y0202839D01*
X0282017Y0204787D01*
X0280526Y0206278D01*
X0278578Y0207085D01*
X0276469Y0207085D01*
X0274521Y0206278D01*
X0273030Y0204787D01*
X0272524Y0203563D01*
X0272017Y0204787D01*
X0270526Y0206278D01*
X0268578Y0207085D01*
X0266469Y0207085D01*
X0264521Y0206278D01*
X0263656Y0205413D01*
X0260382Y0208687D01*
X0169665Y0208687D01*
X0168493Y0207515D01*
X0166391Y0205413D01*
X0165526Y0206278D01*
X0163578Y0207085D01*
X0161469Y0207085D01*
X0159521Y0206278D01*
X0158030Y0204787D01*
X0157524Y0203563D01*
X0157017Y0204787D01*
X0155526Y0206278D01*
X0153578Y0207085D01*
X0151469Y0207085D01*
X0149521Y0206278D01*
X0148030Y0204787D01*
X0147524Y0203563D01*
X0147017Y0204787D01*
X0145526Y0206278D01*
X0143578Y0207085D01*
X0141469Y0207085D01*
X0139521Y0206278D01*
X0138030Y0204787D01*
X0137639Y0203841D01*
X0137621Y0203896D01*
X0137228Y0204667D01*
X0136719Y0205368D01*
X0136107Y0205980D01*
X0135406Y0206489D01*
X0134635Y0206882D01*
X0133812Y0207149D01*
X0132956Y0207285D01*
X0132724Y0207285D01*
X0132724Y0201985D01*
X0132324Y0201985D01*
X0132324Y0207285D01*
X0132091Y0207285D01*
X0131236Y0207149D01*
X0130412Y0206882D01*
X0129641Y0206489D01*
X0128941Y0205980D01*
X0128328Y0205368D01*
X0127820Y0204667D01*
X0127427Y0203896D01*
X0127409Y0203841D01*
X0127017Y0204787D01*
X0125526Y0206278D01*
X0123578Y0207085D01*
X0121469Y0207085D01*
X0119521Y0206278D01*
X0118030Y0204787D01*
X0117524Y0203563D01*
X0117017Y0204787D01*
X0115526Y0206278D01*
X0113578Y0207085D01*
X0111469Y0207085D01*
X0109521Y0206278D01*
X0108030Y0204787D01*
X0107524Y0203563D01*
X0107017Y0204787D01*
X0105526Y0206278D01*
X0103578Y0207085D01*
X0101469Y0207085D01*
X0099521Y0206278D01*
X0098030Y0204787D01*
X0097224Y0202839D01*
X0097224Y0200730D01*
X0098030Y0198782D01*
X0099521Y0197292D01*
X0101469Y0196485D01*
X0103578Y0196485D01*
X0105526Y0197292D01*
X0107017Y0198782D01*
X0107524Y0200006D01*
X0108030Y0198782D01*
X0109521Y0197292D01*
X0111469Y0196485D01*
X0113578Y0196485D01*
X0115526Y0197292D01*
X0117017Y0198782D01*
X0117524Y0200006D01*
X0118030Y0198782D01*
X0119521Y0197292D01*
X0121469Y0196485D01*
X0123578Y0196485D01*
X0125526Y0197292D01*
X0127017Y0198782D01*
X0127409Y0199729D01*
X0127427Y0199673D01*
X0127820Y0198902D01*
X0128328Y0198202D01*
X0128941Y0197589D01*
X0129641Y0197081D01*
X0130412Y0196688D01*
X0131236Y0196420D01*
X0132091Y0196285D01*
X0132324Y0196285D01*
X0132324Y0201585D01*
X0132724Y0201585D01*
X0132724Y0196285D01*
X0132956Y0196285D01*
X0133812Y0196420D01*
X0134635Y0196688D01*
X0135406Y0197081D01*
X0136107Y0197589D01*
X0136719Y0198202D01*
X0137228Y0198902D01*
X0137621Y0199673D01*
X0137639Y0199729D01*
X0138030Y0198782D01*
X0139521Y0197292D01*
X0141469Y0196485D01*
X0143578Y0196485D01*
X0145526Y0197292D01*
X0147017Y0198782D01*
X0147524Y0200006D01*
X0148030Y0198782D01*
X0149521Y0197292D01*
X0150523Y0196877D01*
X0142544Y0192302D01*
X0142249Y0192302D01*
X0141851Y0191905D01*
X0141364Y0191625D01*
X0141286Y0191339D01*
X0139610Y0189663D01*
X0139110Y0189363D01*
X0139044Y0189097D01*
X0138850Y0188903D01*
X0138850Y0188320D01*
X0138804Y0188136D01*
X0138490Y0188894D01*
X0137308Y0190076D01*
X0135765Y0190715D01*
X0128894Y0190715D01*
X0127350Y0190076D01*
X0126169Y0188894D01*
X0125529Y0187350D01*
X0125529Y0185680D01*
X0126169Y0184136D01*
X0126230Y0184075D01*
X0125813Y0183903D01*
X0125517Y0183940D01*
X0125423Y0183867D01*
X0125286Y0183858D01*
X0125051Y0183588D01*
X0124557Y0183384D01*
X0124443Y0183109D01*
X0107435Y0169948D01*
X0107308Y0170076D01*
X0105765Y0170715D01*
X0098894Y0170715D01*
X0097350Y0170076D01*
X0096169Y0168894D01*
X0095529Y0167350D01*
X0095529Y0165680D01*
X0096169Y0164136D01*
X0097350Y0162954D01*
X0098894Y0162315D01*
X0105765Y0162315D01*
X0107308Y0162954D01*
X0108490Y0164136D01*
X0109129Y0165680D01*
X0109129Y0166201D01*
X0117122Y0172386D01*
X0106833Y0160272D01*
X0105765Y0160715D01*
X0098894Y0160715D01*
X0097350Y0160076D01*
X0096169Y0158894D01*
X0095529Y0157350D01*
X0095529Y0155680D01*
X0096169Y0154136D01*
X0097350Y0152954D01*
X0098894Y0152315D01*
X0105765Y0152315D01*
X0107308Y0152954D01*
X0108490Y0154136D01*
X0109129Y0155680D01*
X0109129Y0156796D01*
X0125529Y0176106D01*
X0125529Y0175680D01*
X0126169Y0174136D01*
X0126230Y0174075D01*
X0125787Y0173892D01*
X0125286Y0173858D01*
X0125281Y0173852D01*
X0125258Y0173852D01*
X0124954Y0173548D01*
X0124557Y0173384D01*
X0124391Y0172985D01*
X0122114Y0170708D01*
X0121956Y0170685D01*
X0121542Y0170136D01*
X0121056Y0169649D01*
X0121056Y0169489D01*
X0106649Y0150349D01*
X0105765Y0150715D01*
X0098894Y0150715D01*
X0097350Y0150076D01*
X0096169Y0148894D01*
X0095529Y0147350D01*
X0095529Y0145680D01*
X0096169Y0144136D01*
X0097350Y0142954D01*
X0098894Y0142315D01*
X0105765Y0142315D01*
X0107308Y0142954D01*
X0108490Y0144136D01*
X0109129Y0145680D01*
X0109129Y0146993D01*
X0122487Y0164739D01*
X0122590Y0164510D01*
X0122590Y0164112D01*
X0122918Y0163784D01*
X0125669Y0157688D01*
X0125529Y0157350D01*
X0125529Y0155680D01*
X0126169Y0154136D01*
X0126726Y0153578D01*
X0126378Y0153722D01*
X0125190Y0153722D01*
X0124092Y0153268D01*
X0123251Y0152427D01*
X0122796Y0151329D01*
X0122796Y0150141D01*
X0123048Y0149534D01*
X0122918Y0149246D01*
X0122590Y0148918D01*
X0122590Y0148520D01*
X0122426Y0148157D01*
X0122590Y0147724D01*
X0122590Y0145306D01*
X0122426Y0144873D01*
X0122590Y0144510D01*
X0122590Y0144112D01*
X0122918Y0143784D01*
X0125669Y0137688D01*
X0125529Y0137350D01*
X0125529Y0135680D01*
X0126169Y0134136D01*
X0127350Y0132954D01*
X0128894Y0132315D01*
X0135765Y0132315D01*
X0137308Y0132954D01*
X0138490Y0134136D01*
X0138809Y0134907D01*
X0138835Y0128541D01*
X0138692Y0128821D01*
X0138285Y0129381D01*
X0137796Y0129871D01*
X0137235Y0130278D01*
X0136618Y0130593D01*
X0135959Y0130807D01*
X0135275Y0130915D01*
X0132329Y0130915D01*
X0129383Y0130915D01*
X0128699Y0130807D01*
X0128040Y0130593D01*
X0127423Y0130278D01*
X0126863Y0129871D01*
X0126373Y0129381D01*
X0125966Y0128821D01*
X0125651Y0128204D01*
X0125437Y0127545D01*
X0125329Y0126861D01*
X0125329Y0126515D01*
X0132329Y0126515D01*
X0132329Y0126515D01*
X0132329Y0130915D01*
X0132329Y0126515D01*
X0132329Y0126515D01*
X0125329Y0126515D01*
X0125329Y0126169D01*
X0125437Y0125485D01*
X0125651Y0124826D01*
X0125966Y0124209D01*
X0126373Y0123649D01*
X0126863Y0123159D01*
X0127423Y0122752D01*
X0128040Y0122437D01*
X0128699Y0122223D01*
X0129383Y0122115D01*
X0132329Y0122115D01*
X0132329Y0126515D01*
X0132329Y0126515D01*
X0132329Y0122115D01*
X0135275Y0122115D01*
X0135959Y0122223D01*
X0136618Y0122437D01*
X0137235Y0122752D01*
X0137796Y0123159D01*
X0138285Y0123649D01*
X0138692Y0124209D01*
X0138829Y0124477D01*
X0138817Y0124182D01*
X0138853Y0124143D01*
X0138853Y0124089D01*
X0139408Y0123538D01*
X0151201Y0110700D01*
X0145154Y0110700D01*
X0143610Y0110061D01*
X0142428Y0108879D01*
X0141789Y0107335D01*
X0141789Y0105665D01*
X0142428Y0104121D01*
X0143610Y0102939D01*
X0145154Y0102300D01*
X0152024Y0102300D01*
X0153568Y0102939D01*
X0154750Y0104121D01*
X0155107Y0104984D01*
X0161035Y0083520D01*
X0158328Y0088577D01*
X0158328Y0088903D01*
X0157951Y0089280D01*
X0157700Y0089749D01*
X0157387Y0089844D01*
X0155667Y0091564D01*
X0155335Y0092080D01*
X0155100Y0092132D01*
X0154929Y0092302D01*
X0154316Y0092302D01*
X0152816Y0092628D01*
X0153568Y0092939D01*
X0154750Y0094121D01*
X0155389Y0095665D01*
X0155389Y0097335D01*
X0154750Y0098879D01*
X0153568Y0100061D01*
X0152024Y0100700D01*
X0145154Y0100700D01*
X0143610Y0100061D01*
X0142428Y0098879D01*
X0141789Y0097335D01*
X0141789Y0095713D01*
X0139129Y0097203D01*
X0139129Y0097350D01*
X0138490Y0098894D01*
X0137308Y0100076D01*
X0135765Y0100715D01*
X0128894Y0100715D01*
X0127350Y0100076D01*
X0126590Y0099316D01*
X0126590Y0103714D01*
X0127350Y0102954D01*
X0128894Y0102315D01*
X0135765Y0102315D01*
X0137308Y0102954D01*
X0138490Y0104136D01*
X0139129Y0105680D01*
X0139129Y0107350D01*
X0138490Y0108894D01*
X0137308Y0110076D01*
X0135765Y0110715D01*
X0128894Y0110715D01*
X0128339Y0110485D01*
X0128409Y0110601D01*
X0128432Y0110748D01*
X0129136Y0112315D01*
X0135765Y0112315D01*
X0137308Y0112954D01*
X0138490Y0114136D01*
X0139129Y0115680D01*
X0139129Y0117350D01*
X0138490Y0118894D01*
X0137308Y0120076D01*
X0135765Y0120715D01*
X0128894Y0120715D01*
X0128103Y0120387D01*
X0124383Y0124455D01*
X0124361Y0124506D01*
X0124062Y0124806D01*
X0123776Y0125118D01*
X0123725Y0125142D01*
X0122525Y0126342D01*
X0122464Y0126454D01*
X0122190Y0126677D01*
X0121941Y0126927D01*
X0121823Y0126976D01*
X0109129Y0137282D01*
X0109129Y0137350D01*
X0108490Y0138894D01*
X0107308Y0140076D01*
X0105765Y0140715D01*
X0098894Y0140715D01*
X0097350Y0140076D01*
X0096169Y0138894D01*
X0095529Y0137350D01*
X0095529Y0135680D01*
X0096169Y0134136D01*
X0097350Y0132954D01*
X0098894Y0132315D01*
X0105765Y0132315D01*
X0107001Y0132827D01*
X0118972Y0123107D01*
X0120592Y0121487D01*
X0122838Y0119032D01*
X0122398Y0118849D01*
X0121557Y0118009D01*
X0121102Y0116911D01*
X0121102Y0116818D01*
X0120432Y0116818D01*
X0119334Y0116363D01*
X0118493Y0115523D01*
X0118121Y0114623D01*
X0107851Y0109533D01*
X0107308Y0110076D01*
X0105765Y0110715D01*
X0098894Y0110715D01*
X0097350Y0110076D01*
X0096169Y0108894D01*
X0095529Y0107350D01*
X0095529Y0105680D01*
X0096169Y0104136D01*
X0097350Y0102954D01*
X0098894Y0102315D01*
X0105765Y0102315D01*
X0107308Y0102954D01*
X0108490Y0104136D01*
X0109129Y0105680D01*
X0109129Y0105702D01*
X0119861Y0111021D01*
X0107307Y0100076D01*
X0105765Y0100715D01*
X0098894Y0100715D01*
X0097350Y0100076D01*
X0096169Y0098894D01*
X0095529Y0097350D01*
X0095529Y0095680D01*
X0096169Y0094136D01*
X0097350Y0092954D01*
X0098894Y0092315D01*
X0105765Y0092315D01*
X0107308Y0092954D01*
X0108490Y0094136D01*
X0109129Y0095680D01*
X0109129Y0096358D01*
X0121790Y0107396D01*
X0121790Y0084297D01*
X0122156Y0083415D01*
X0122831Y0082740D01*
X0124836Y0080735D01*
X0125022Y0080487D01*
X0125170Y0080400D01*
X0125292Y0080278D01*
X0125578Y0080160D01*
X0125845Y0080003D01*
X0126015Y0079979D01*
X0126174Y0079913D01*
X0126484Y0079913D01*
X0127101Y0079826D01*
X0126169Y0078894D01*
X0125529Y0077350D01*
X0125529Y0075680D01*
X0126169Y0074136D01*
X0127350Y0072954D01*
X0128894Y0072315D01*
X0135765Y0072315D01*
X0137308Y0072954D01*
X0138490Y0074136D01*
X0139129Y0075680D01*
X0139129Y0077162D01*
X0141896Y0075407D01*
X0142428Y0074121D01*
X0143610Y0072939D01*
X0145154Y0072300D01*
X0152024Y0072300D01*
X0152892Y0072660D01*
X0158328Y0067015D01*
X0157769Y0067015D01*
X0156152Y0066345D01*
X0154914Y0065107D01*
X0154244Y0063490D01*
X0154244Y0056140D01*
X0154914Y0054523D01*
X0156152Y0053285D01*
X0156654Y0053077D01*
X0156553Y0053054D01*
X0156341Y0053053D01*
X0156091Y0052950D01*
X0155827Y0052890D01*
X0155655Y0052768D01*
X0130032Y0042126D01*
X0129606Y0042553D01*
X0123162Y0042553D01*
X0122644Y0042034D01*
X0122126Y0042553D01*
X0115682Y0042553D01*
X0114745Y0041615D01*
X0114745Y0040000D01*
X0113240Y0040000D01*
X0113240Y0041025D01*
X0112303Y0041962D01*
X0106253Y0041962D01*
X0105316Y0041025D01*
X0105316Y0034975D01*
X0106253Y0034038D01*
X0112303Y0034038D01*
X0113240Y0034975D01*
X0113240Y0036000D01*
X0114745Y0036000D01*
X0114745Y0034384D01*
X0115682Y0033447D01*
X0122126Y0033447D01*
X0122644Y0033966D01*
X0123162Y0033447D01*
X0129606Y0033447D01*
X0130543Y0034384D01*
X0130543Y0037141D01*
X0130966Y0037316D01*
X0130967Y0037317D01*
X0154742Y0047192D01*
X0154244Y0045990D01*
X0154244Y0038640D01*
X0154914Y0037023D01*
X0156152Y0035785D01*
X0157769Y0035115D01*
X0159519Y0035115D01*
X0161136Y0035785D01*
X0162374Y0037023D01*
X0163044Y0038640D01*
X0163044Y0045990D01*
X0162374Y0047607D01*
X0161136Y0048845D01*
X0160634Y0049053D01*
X0160655Y0049058D01*
X0160784Y0049049D01*
X0161117Y0049162D01*
X0161461Y0049240D01*
X0161566Y0049314D01*
X0161594Y0049324D01*
X0164538Y0046699D01*
X0164244Y0045990D01*
X0164244Y0038640D01*
X0164914Y0037023D01*
X0166152Y0035785D01*
X0167769Y0035115D01*
X0169519Y0035115D01*
X0171136Y0035785D01*
X0172374Y0037023D01*
X0173044Y0038640D01*
X0173044Y0045990D01*
X0172374Y0047607D01*
X0171136Y0048845D01*
X0169519Y0049515D01*
X0168591Y0049515D01*
X0164892Y0052814D01*
X0165296Y0054141D01*
X0166152Y0053285D01*
X0167769Y0052615D01*
X0169519Y0052615D01*
X0171136Y0053285D01*
X0172374Y0054523D01*
X0172502Y0054830D01*
X0172642Y0054043D01*
X0172642Y0053392D01*
X0172784Y0053251D01*
X0172819Y0053054D01*
X0173353Y0052681D01*
X0175282Y0050752D01*
X0175437Y0050365D01*
X0175844Y0050190D01*
X0176158Y0049876D01*
X0176576Y0049876D01*
X0177590Y0049441D01*
X0176152Y0048845D01*
X0174914Y0047607D01*
X0174244Y0045990D01*
X0174244Y0038640D01*
X0174914Y0037023D01*
X0176152Y0035785D01*
X0177769Y0035115D01*
X0179519Y0035115D01*
X0181136Y0035785D01*
X0182374Y0037023D01*
X0183044Y0038640D01*
X0183044Y0045990D01*
X0182485Y0047341D01*
X0189902Y0044158D01*
X0190216Y0043844D01*
X0190634Y0043844D01*
X0191017Y0043680D01*
X0191429Y0043844D01*
X0199343Y0043844D01*
X0199098Y0043664D01*
X0199084Y0043641D01*
X0199062Y0043624D01*
X0198838Y0043233D01*
X0198240Y0042244D01*
X0198109Y0042113D01*
X0197996Y0041839D01*
X0197843Y0041585D01*
X0197823Y0041457D01*
X0197644Y0041278D01*
X0197107Y0041815D01*
X0193181Y0041815D01*
X0192244Y0040878D01*
X0192244Y0031552D01*
X0193181Y0030615D01*
X0197107Y0030615D01*
X0197518Y0031027D01*
X0197283Y0030053D01*
X0195347Y0030053D01*
X0194971Y0029676D01*
X0194753Y0029893D01*
X0194343Y0030130D01*
X0193885Y0030253D01*
X0191569Y0030253D01*
X0191569Y0025980D01*
X0190609Y0025980D01*
X0190609Y0030253D01*
X0188293Y0030253D01*
X0187835Y0030130D01*
X0187425Y0029893D01*
X0187090Y0029558D01*
X0186853Y0029148D01*
X0186730Y0028690D01*
X0186730Y0025980D01*
X0190609Y0025980D01*
X0190609Y0025020D01*
X0191569Y0025020D01*
X0191569Y0020747D01*
X0193885Y0020747D01*
X0194343Y0020870D01*
X0194352Y0020875D01*
X0191392Y0015694D01*
X0191107Y0015980D01*
X0190406Y0016489D01*
X0189635Y0016882D01*
X0188812Y0017149D01*
X0187956Y0017285D01*
X0187724Y0017285D01*
X0187724Y0011985D01*
X0187324Y0011985D01*
X0187324Y0017285D01*
X0187091Y0017285D01*
X0186236Y0017149D01*
X0185412Y0016882D01*
X0184641Y0016489D01*
X0183941Y0015980D01*
X0183328Y0015368D01*
X0182820Y0014667D01*
X0182427Y0013896D01*
X0182409Y0013841D01*
X0182017Y0014787D01*
X0180526Y0016278D01*
X0178578Y0017085D01*
X0176469Y0017085D01*
X0174521Y0016278D01*
X0173030Y0014787D01*
X0172524Y0013563D01*
X0172017Y0014787D01*
X0170526Y0016278D01*
X0168578Y0017085D01*
X0166469Y0017085D01*
X0164521Y0016278D01*
X0163030Y0014787D01*
X0162524Y0013563D01*
X0162017Y0014787D01*
X0160526Y0016278D01*
X0158578Y0017085D01*
X0156469Y0017085D01*
X0154521Y0016278D01*
X0153030Y0014787D01*
X0152524Y0013563D01*
X0152017Y0014787D01*
X0150526Y0016278D01*
X0148578Y0017085D01*
X0146469Y0017085D01*
X0144521Y0016278D01*
X0143030Y0014787D01*
X0142524Y0013563D01*
X0142017Y0014787D01*
X0140526Y0016278D01*
X0138578Y0017085D01*
X0136469Y0017085D01*
X0134521Y0016278D01*
X0133030Y0014787D01*
X0132224Y0012839D01*
X0132224Y0010730D01*
X0133030Y0008782D01*
X0134521Y0007292D01*
X0136469Y0006485D01*
X0138578Y0006485D01*
X0140526Y0007292D01*
X0142017Y0008782D01*
X0142524Y0010006D01*
X0143030Y0008782D01*
X0144521Y0007292D01*
X0146469Y0006485D01*
X0148578Y0006485D01*
X0150526Y0007292D01*
X0152017Y0008782D01*
X0152524Y0010006D01*
X0153030Y0008782D01*
X0154521Y0007292D01*
X0156469Y0006485D01*
X0158578Y0006485D01*
X0160526Y0007292D01*
X0162017Y0008782D01*
X0162524Y0010006D01*
X0163030Y0008782D01*
X0164521Y0007292D01*
X0166469Y0006485D01*
X0168578Y0006485D01*
X0170526Y0007292D01*
X0172017Y0008782D01*
X0172524Y0010006D01*
X0173030Y0008782D01*
X0174521Y0007292D01*
X0176469Y0006485D01*
X0178578Y0006485D01*
X0180526Y0007292D01*
X0180711Y0007476D01*
X0184245Y0005302D01*
X0184665Y0004883D01*
X0184927Y0004883D01*
X0185059Y0004802D01*
X0100518Y0004802D01*
X0099568Y0004877D01*
X0097761Y0005464D01*
X0096225Y0006580D01*
X0095108Y0008117D01*
X0094521Y0009924D01*
X0094446Y0010993D02*
X0096848Y0010993D01*
X0096848Y0012591D02*
X0094446Y0012591D01*
X0094446Y0014190D02*
X0096848Y0014190D01*
X0096899Y0015788D02*
X0094446Y0015788D01*
X0094446Y0017387D02*
X0115516Y0017387D01*
X0115682Y0017553D02*
X0114745Y0016615D01*
X0114745Y0015000D01*
X0113240Y0015000D01*
X0113240Y0016025D01*
X0112303Y0016962D01*
X0106253Y0016962D01*
X0105316Y0016025D01*
X0105316Y0009975D01*
X0106253Y0009038D01*
X0112303Y0009038D01*
X0113240Y0009975D01*
X0113240Y0011000D01*
X0114745Y0011000D01*
X0114745Y0009384D01*
X0115682Y0008447D01*
X0122126Y0008447D01*
X0122644Y0008966D01*
X0123162Y0008447D01*
X0129606Y0008447D01*
X0130543Y0009384D01*
X0130543Y0016615D01*
X0130288Y0016871D01*
X0135114Y0025311D01*
X0135275Y0025383D01*
X0135515Y0026011D01*
X0135849Y0026595D01*
X0135802Y0026766D01*
X0137164Y0030341D01*
X0137777Y0030595D01*
X0138618Y0031436D01*
X0139072Y0032534D01*
X0139072Y0033722D01*
X0138618Y0034820D01*
X0137777Y0035661D01*
X0136679Y0036115D01*
X0135491Y0036115D01*
X0134393Y0035661D01*
X0133552Y0034820D01*
X0133098Y0033722D01*
X0133098Y0032534D01*
X0133421Y0031753D01*
X0132900Y0030384D01*
X0132813Y0030470D01*
X0131715Y0030925D01*
X0130527Y0030925D01*
X0129429Y0030470D01*
X0129012Y0030053D01*
X0123162Y0030053D01*
X0122644Y0029534D01*
X0122126Y0030053D01*
X0115682Y0030053D01*
X0114745Y0029115D01*
X0114745Y0027500D01*
X0113240Y0027500D01*
X0113240Y0028525D01*
X0112303Y0029462D01*
X0106253Y0029462D01*
X0105316Y0028525D01*
X0105316Y0022475D01*
X0106253Y0021538D01*
X0112303Y0021538D01*
X0113240Y0022475D01*
X0113240Y0023500D01*
X0114745Y0023500D01*
X0114745Y0021884D01*
X0115682Y0020947D01*
X0122126Y0020947D01*
X0122644Y0021466D01*
X0123162Y0020947D01*
X0128011Y0020947D01*
X0126140Y0017675D01*
X0126018Y0017553D01*
X0123162Y0017553D01*
X0122644Y0017034D01*
X0122126Y0017553D01*
X0115682Y0017553D01*
X0114745Y0015788D02*
X0113240Y0015788D01*
X0113240Y0010993D02*
X0114745Y0010993D01*
X0114745Y0009394D02*
X0112659Y0009394D01*
X0105897Y0009394D02*
X0104674Y0009394D01*
X0105172Y0010993D02*
X0105316Y0010993D01*
X0105316Y0012591D02*
X0105172Y0012591D01*
X0105172Y0014190D02*
X0105316Y0014190D01*
X0105316Y0015788D02*
X0105122Y0015788D01*
X0101391Y0015788D02*
X0100629Y0015788D01*
X0100629Y0014190D02*
X0101391Y0014190D01*
X0094446Y0018985D02*
X0126889Y0018985D01*
X0127803Y0020584D02*
X0094446Y0020584D01*
X0094446Y0022182D02*
X0097121Y0022182D01*
X0097208Y0022033D02*
X0097543Y0021697D01*
X0097953Y0021460D01*
X0098411Y0021338D01*
X0100629Y0021338D01*
X0100629Y0025119D01*
X0096848Y0025119D01*
X0096848Y0022901D01*
X0096971Y0022443D01*
X0097208Y0022033D01*
X0096848Y0023781D02*
X0094446Y0023781D01*
X0094446Y0025379D02*
X0100629Y0025379D01*
X0100629Y0025119D02*
X0100629Y0025881D01*
X0096848Y0025881D01*
X0096848Y0028099D01*
X0096971Y0028557D01*
X0097208Y0028967D01*
X0097543Y0029303D01*
X0097953Y0029540D01*
X0098411Y0029662D01*
X0100629Y0029662D01*
X0100629Y0025881D01*
X0101391Y0025881D01*
X0101391Y0029662D01*
X0103609Y0029662D01*
X0104067Y0029540D01*
X0104478Y0029303D01*
X0104813Y0028967D01*
X0105050Y0028557D01*
X0105172Y0028099D01*
X0105172Y0025881D01*
X0101391Y0025881D01*
X0101391Y0025119D01*
X0101391Y0021338D01*
X0103609Y0021338D01*
X0104067Y0021460D01*
X0104478Y0021697D01*
X0104813Y0022033D01*
X0105050Y0022443D01*
X0105172Y0022901D01*
X0105172Y0025119D01*
X0101391Y0025119D01*
X0100629Y0025119D01*
X0101391Y0025379D02*
X0105316Y0025379D01*
X0105316Y0023781D02*
X0105172Y0023781D01*
X0104899Y0022182D02*
X0105609Y0022182D01*
X0101391Y0022182D02*
X0100629Y0022182D01*
X0100629Y0023781D02*
X0101391Y0023781D01*
X0101391Y0026978D02*
X0100629Y0026978D01*
X0100629Y0028576D02*
X0101391Y0028576D01*
X0105039Y0028576D02*
X0105367Y0028576D01*
X0105316Y0026978D02*
X0105172Y0026978D01*
X0112947Y0022182D02*
X0114745Y0022182D01*
X0122292Y0017387D02*
X0122996Y0017387D01*
X0130583Y0017387D02*
X0192359Y0017387D01*
X0193272Y0018985D02*
X0131497Y0018985D01*
X0132411Y0020584D02*
X0143939Y0020584D01*
X0144624Y0020300D02*
X0143080Y0020939D01*
X0141898Y0022121D01*
X0141259Y0023665D01*
X0141259Y0025335D01*
X0141898Y0026879D01*
X0143080Y0028061D01*
X0143287Y0028147D01*
X0140845Y0030589D01*
X0140845Y0032500D01*
X0145459Y0032500D01*
X0145459Y0032500D01*
X0140845Y0032500D01*
X0140845Y0034411D01*
X0143548Y0037114D01*
X0145459Y0037114D01*
X0145459Y0032500D01*
X0145459Y0032500D01*
X0145459Y0037114D01*
X0147370Y0037114D01*
X0150073Y0034411D01*
X0150073Y0032500D01*
X0145459Y0032500D01*
X0145459Y0032500D01*
X0150073Y0032500D01*
X0150073Y0030589D01*
X0147631Y0028147D01*
X0147838Y0028061D01*
X0149020Y0026879D01*
X0149659Y0025335D01*
X0149659Y0023665D01*
X0149020Y0022121D01*
X0147838Y0020939D01*
X0146294Y0020300D01*
X0144624Y0020300D01*
X0146979Y0020584D02*
X0194185Y0020584D01*
X0191569Y0022182D02*
X0190609Y0022182D01*
X0190609Y0020747D02*
X0188293Y0020747D01*
X0187835Y0020870D01*
X0187425Y0021107D01*
X0187090Y0021442D01*
X0186853Y0021852D01*
X0186730Y0022310D01*
X0186730Y0025020D01*
X0190609Y0025020D01*
X0190609Y0020747D01*
X0190609Y0023781D02*
X0191569Y0023781D01*
X0190609Y0025379D02*
X0149641Y0025379D01*
X0149659Y0023781D02*
X0186730Y0023781D01*
X0186764Y0022182D02*
X0149045Y0022182D01*
X0148921Y0026978D02*
X0186730Y0026978D01*
X0186730Y0028576D02*
X0148060Y0028576D01*
X0149659Y0030175D02*
X0188002Y0030175D01*
X0190609Y0030175D02*
X0191569Y0030175D01*
X0191569Y0028576D02*
X0190609Y0028576D01*
X0190609Y0026978D02*
X0191569Y0026978D01*
X0194176Y0030175D02*
X0197313Y0030175D01*
X0199526Y0029116D02*
X0199526Y0027653D01*
X0198569Y0025500D01*
X0202728Y0025379D02*
X0209262Y0025379D01*
X0211056Y0023781D02*
X0202728Y0023781D01*
X0202728Y0022182D02*
X0212850Y0022182D01*
X0214643Y0020584D02*
X0198792Y0020584D01*
X0199000Y0020947D02*
X0201791Y0020947D01*
X0202728Y0021884D01*
X0202728Y0029115D01*
X0202138Y0029706D01*
X0202433Y0030931D01*
X0202440Y0030948D01*
X0202644Y0031152D01*
X0203181Y0030615D01*
X0203516Y0030615D01*
X0203993Y0030137D01*
X0203997Y0030071D01*
X0204573Y0029558D01*
X0205118Y0029013D01*
X0205184Y0029013D01*
X0222523Y0013562D01*
X0222224Y0012839D01*
X0222224Y0010730D01*
X0223030Y0008782D01*
X0224521Y0007292D01*
X0226469Y0006485D01*
X0228578Y0006485D01*
X0230526Y0007292D01*
X0232017Y0008782D01*
X0232524Y0010006D01*
X0233030Y0008782D01*
X0234521Y0007292D01*
X0236469Y0006485D01*
X0238578Y0006485D01*
X0240526Y0007292D01*
X0242017Y0008782D01*
X0242524Y0010006D01*
X0243030Y0008782D01*
X0244521Y0007292D01*
X0246469Y0006485D01*
X0248578Y0006485D01*
X0250526Y0007292D01*
X0252017Y0008782D01*
X0252524Y0010006D01*
X0253030Y0008782D01*
X0254521Y0007292D01*
X0256469Y0006485D01*
X0258578Y0006485D01*
X0260526Y0007292D01*
X0262017Y0008782D01*
X0262524Y0010006D01*
X0263030Y0008782D01*
X0264521Y0007292D01*
X0266469Y0006485D01*
X0268578Y0006485D01*
X0270526Y0007292D01*
X0272017Y0008782D01*
X0272524Y0010006D01*
X0273030Y0008782D01*
X0274521Y0007292D01*
X0276469Y0006485D01*
X0278578Y0006485D01*
X0280526Y0007292D01*
X0282017Y0008782D01*
X0282824Y0010730D01*
X0282824Y0012839D01*
X0282017Y0014787D01*
X0280526Y0016278D01*
X0280092Y0016458D01*
X0286134Y0067403D01*
X0286169Y0067432D01*
X0286230Y0068219D01*
X0286323Y0069002D01*
X0286295Y0069038D01*
X0287693Y0086780D01*
X0287693Y0010874D01*
X0287618Y0009924D01*
X0287031Y0008117D01*
X0285914Y0006580D01*
X0284377Y0005464D01*
X0282570Y0004877D01*
X0281620Y0004802D01*
X0185390Y0004802D01*
X0185728Y0004883D01*
X0190382Y0004883D01*
X0191554Y0006054D01*
X0193515Y0008015D01*
X0193941Y0007589D01*
X0194641Y0007081D01*
X0195412Y0006688D01*
X0196236Y0006420D01*
X0197091Y0006285D01*
X0197324Y0006285D01*
X0197324Y0011585D01*
X0197724Y0011585D01*
X0197724Y0006285D01*
X0197956Y0006285D01*
X0198812Y0006420D01*
X0199635Y0006688D01*
X0200406Y0007081D01*
X0201107Y0007589D01*
X0201719Y0008202D01*
X0202228Y0008902D01*
X0202621Y0009673D01*
X0202639Y0009729D01*
X0203030Y0008782D01*
X0204521Y0007292D01*
X0206469Y0006485D01*
X0208578Y0006485D01*
X0210526Y0007292D01*
X0212017Y0008782D01*
X0212824Y0010730D01*
X0212824Y0012839D01*
X0212017Y0014787D01*
X0210526Y0016278D01*
X0208578Y0017085D01*
X0206469Y0017085D01*
X0204521Y0016278D01*
X0203030Y0014787D01*
X0202639Y0013841D01*
X0202621Y0013896D01*
X0202228Y0014667D01*
X0201719Y0015368D01*
X0201107Y0015980D01*
X0200406Y0016489D01*
X0199635Y0016882D01*
X0198812Y0017149D01*
X0197956Y0017285D01*
X0197724Y0017285D01*
X0197724Y0011985D01*
X0197324Y0011985D01*
X0197324Y0017285D01*
X0197091Y0017285D01*
X0196889Y0017253D01*
X0199000Y0020947D01*
X0197879Y0018985D02*
X0216437Y0018985D01*
X0218231Y0017387D02*
X0196965Y0017387D01*
X0197324Y0015788D02*
X0197724Y0015788D01*
X0197724Y0014190D02*
X0197324Y0014190D01*
X0197324Y0012591D02*
X0197724Y0012591D01*
X0197724Y0010993D02*
X0197324Y0010993D01*
X0197324Y0009394D02*
X0197724Y0009394D01*
X0197724Y0007796D02*
X0197324Y0007796D01*
X0193735Y0007796D02*
X0193295Y0007796D01*
X0191697Y0006197D02*
X0285386Y0006197D01*
X0286797Y0007796D02*
X0281030Y0007796D01*
X0282270Y0009394D02*
X0287446Y0009394D01*
X0287693Y0010993D02*
X0282824Y0010993D01*
X0282824Y0012591D02*
X0287693Y0012591D01*
X0287693Y0014190D02*
X0282264Y0014190D01*
X0281015Y0015788D02*
X0287693Y0015788D01*
X0287693Y0017387D02*
X0280202Y0017387D01*
X0280392Y0018985D02*
X0287693Y0018985D01*
X0287693Y0020584D02*
X0280581Y0020584D01*
X0280771Y0022182D02*
X0287693Y0022182D01*
X0287693Y0023781D02*
X0280960Y0023781D01*
X0281150Y0025379D02*
X0287693Y0025379D01*
X0287693Y0026978D02*
X0281339Y0026978D01*
X0281529Y0028576D02*
X0287693Y0028576D01*
X0287693Y0030175D02*
X0281719Y0030175D01*
X0281908Y0031773D02*
X0287693Y0031773D01*
X0287693Y0033372D02*
X0282098Y0033372D01*
X0282287Y0034970D02*
X0287693Y0034970D01*
X0287693Y0036569D02*
X0282477Y0036569D01*
X0282666Y0038167D02*
X0287693Y0038167D01*
X0287693Y0039766D02*
X0282856Y0039766D01*
X0283046Y0041364D02*
X0287693Y0041364D01*
X0287693Y0042963D02*
X0283235Y0042963D01*
X0283425Y0044561D02*
X0287693Y0044561D01*
X0287693Y0046160D02*
X0283614Y0046160D01*
X0283804Y0047758D02*
X0287693Y0047758D01*
X0287693Y0049357D02*
X0283994Y0049357D01*
X0284183Y0050955D02*
X0287693Y0050955D01*
X0287693Y0052554D02*
X0284373Y0052554D01*
X0284562Y0054152D02*
X0287693Y0054152D01*
X0287693Y0055751D02*
X0284752Y0055751D01*
X0284941Y0057349D02*
X0287693Y0057349D01*
X0287693Y0058948D02*
X0285131Y0058948D01*
X0285321Y0060546D02*
X0287693Y0060546D01*
X0287693Y0062145D02*
X0285510Y0062145D01*
X0285700Y0063743D02*
X0287693Y0063743D01*
X0287693Y0065342D02*
X0285889Y0065342D01*
X0286079Y0066940D02*
X0287693Y0066940D01*
X0287693Y0068539D02*
X0286268Y0068539D01*
X0286382Y0070137D02*
X0287693Y0070137D01*
X0287693Y0071736D02*
X0286507Y0071736D01*
X0286633Y0073334D02*
X0287693Y0073334D01*
X0287693Y0074933D02*
X0286759Y0074933D01*
X0286885Y0076532D02*
X0287693Y0076532D01*
X0287693Y0078130D02*
X0287011Y0078130D01*
X0287137Y0079729D02*
X0287693Y0079729D01*
X0287693Y0081327D02*
X0287263Y0081327D01*
X0287389Y0082926D02*
X0287693Y0082926D01*
X0287693Y0084524D02*
X0287515Y0084524D01*
X0287641Y0086123D02*
X0287693Y0086123D01*
X0283628Y0086123D02*
X0279959Y0086123D01*
X0279959Y0084687D02*
X0279959Y0092300D01*
X0282024Y0092300D01*
X0283568Y0092939D01*
X0284216Y0093588D01*
X0282833Y0076025D01*
X0280011Y0076025D01*
X0280898Y0076912D01*
X0280898Y0083749D01*
X0279960Y0084687D01*
X0279959Y0084687D01*
X0280123Y0084524D02*
X0283502Y0084524D01*
X0283377Y0082926D02*
X0280898Y0082926D01*
X0280898Y0081327D02*
X0283251Y0081327D01*
X0283125Y0079729D02*
X0280898Y0079729D01*
X0280898Y0078130D02*
X0282999Y0078130D01*
X0282873Y0076532D02*
X0280517Y0076532D01*
X0281069Y0071669D02*
X0280703Y0069713D01*
X0280703Y0068913D01*
X0280703Y0068250D01*
X0278360Y0056884D01*
X0277422Y0055945D01*
X0270459Y0055645D01*
X0267472Y0055751D02*
X0260740Y0055751D01*
X0260740Y0056968D02*
X0260740Y0053243D01*
X0260305Y0052807D01*
X0259994Y0052057D01*
X0259064Y0051127D01*
X0258855Y0050862D01*
X0258729Y0050792D01*
X0258627Y0050690D01*
X0258316Y0050561D01*
X0245243Y0043254D01*
X0245459Y0043038D01*
X0246115Y0043694D01*
X0249803Y0043694D01*
X0250459Y0043038D01*
X0251115Y0043694D01*
X0254803Y0043694D01*
X0255459Y0043038D01*
X0256115Y0043694D01*
X0259803Y0043694D01*
X0260740Y0042757D01*
X0260740Y0036359D01*
X0261481Y0035618D01*
X0261887Y0035445D01*
X0262043Y0035056D01*
X0262340Y0034759D01*
X0262340Y0034317D01*
X0264045Y0030076D01*
X0264069Y0030053D01*
X0266921Y0030053D01*
X0267858Y0029115D01*
X0267858Y0021884D01*
X0266921Y0020947D01*
X0260477Y0020947D01*
X0259959Y0021466D01*
X0259441Y0020947D01*
X0252997Y0020947D01*
X0252060Y0021884D01*
X0252060Y0029115D01*
X0252403Y0029458D01*
X0251301Y0031773D01*
X0249668Y0031773D01*
X0249689Y0031833D02*
X0249803Y0031833D01*
X0250459Y0032489D01*
X0251115Y0031833D01*
X0251241Y0031833D01*
X0251301Y0031773D01*
X0249689Y0031833D02*
X0248897Y0029576D01*
X0249358Y0029115D01*
X0249358Y0021884D01*
X0248421Y0020947D01*
X0241977Y0020947D01*
X0241459Y0021466D01*
X0240941Y0020947D01*
X0238272Y0020947D01*
X0244651Y0016332D01*
X0246469Y0017085D01*
X0248578Y0017085D01*
X0250526Y0016278D01*
X0252017Y0014787D01*
X0252524Y0013563D01*
X0253030Y0014787D01*
X0254521Y0016278D01*
X0256469Y0017085D01*
X0258578Y0017085D01*
X0260526Y0016278D01*
X0262017Y0014787D01*
X0262524Y0013563D01*
X0263030Y0014787D01*
X0264521Y0016278D01*
X0266469Y0017085D01*
X0268578Y0017085D01*
X0270526Y0016278D01*
X0272017Y0014787D01*
X0272524Y0013563D01*
X0273030Y0014787D01*
X0274521Y0016278D01*
X0276121Y0016940D01*
X0280923Y0057427D01*
X0280760Y0056639D01*
X0280760Y0056406D01*
X0280665Y0056176D01*
X0280614Y0055932D01*
X0280484Y0055739D01*
X0280395Y0055524D01*
X0280219Y0055348D01*
X0280079Y0055142D01*
X0279884Y0055014D01*
X0279155Y0054285D01*
X0278867Y0053971D01*
X0278819Y0053948D01*
X0278781Y0053911D01*
X0278388Y0053748D01*
X0278002Y0053568D01*
X0277948Y0053566D01*
X0277899Y0053545D01*
X0277473Y0053545D01*
X0272364Y0053325D01*
X0272151Y0053113D01*
X0271053Y0052658D01*
X0269865Y0052658D01*
X0268767Y0053113D01*
X0267926Y0053953D01*
X0267472Y0055051D01*
X0267472Y0055947D01*
X0263497Y0055947D01*
X0262560Y0056884D01*
X0262560Y0056968D01*
X0260740Y0056968D01*
X0257959Y0058236D02*
X0258340Y0059368D01*
X0264960Y0059368D01*
X0266719Y0060500D01*
X0265762Y0062653D01*
X0265762Y0064116D01*
X0261144Y0075815D01*
X0260016Y0071736D02*
X0255590Y0071736D01*
X0255055Y0071201D02*
X0253144Y0071201D01*
X0253144Y0075815D01*
X0253144Y0080429D01*
X0252966Y0080429D01*
X0260542Y0091669D01*
X0260751Y0091756D01*
X0260991Y0092335D01*
X0261342Y0092856D01*
X0261321Y0092964D01*
X0261434Y0093404D01*
X0261697Y0094039D01*
X0261635Y0094187D01*
X0272102Y0134910D01*
X0272428Y0134121D01*
X0273610Y0132939D01*
X0275154Y0132300D01*
X0282024Y0132300D01*
X0282195Y0132371D01*
X0283162Y0130229D01*
X0282024Y0130700D01*
X0275154Y0130700D01*
X0273610Y0130061D01*
X0272428Y0128879D01*
X0271789Y0127335D01*
X0271789Y0125665D01*
X0272428Y0124121D01*
X0273610Y0122939D01*
X0275154Y0122300D01*
X0282024Y0122300D01*
X0283568Y0122939D01*
X0284328Y0123699D01*
X0284328Y0119301D01*
X0283568Y0120061D01*
X0282024Y0120700D01*
X0275154Y0120700D01*
X0273610Y0120061D01*
X0272428Y0118879D01*
X0271789Y0117335D01*
X0271789Y0115665D01*
X0272428Y0114121D01*
X0273610Y0112939D01*
X0275154Y0112300D01*
X0282024Y0112300D01*
X0283568Y0112939D01*
X0284328Y0113699D01*
X0284328Y0109301D01*
X0283568Y0110061D01*
X0282024Y0110700D01*
X0275154Y0110700D01*
X0273610Y0110061D01*
X0272428Y0108879D01*
X0271789Y0107335D01*
X0271789Y0105665D01*
X0272428Y0104121D01*
X0273610Y0102939D01*
X0275154Y0102300D01*
X0282024Y0102300D01*
X0283568Y0102939D01*
X0284328Y0103699D01*
X0284328Y0099301D01*
X0283568Y0100061D01*
X0282024Y0100700D01*
X0275154Y0100700D01*
X0273610Y0100061D01*
X0272428Y0098879D01*
X0271789Y0097335D01*
X0271789Y0095665D01*
X0272428Y0094121D01*
X0273610Y0092939D01*
X0275154Y0092300D01*
X0275959Y0092300D01*
X0275959Y0084687D01*
X0274698Y0084687D01*
X0273761Y0083749D01*
X0273761Y0076912D01*
X0274648Y0076025D01*
X0270958Y0076025D01*
X0270020Y0075088D01*
X0270020Y0068251D01*
X0270958Y0067313D01*
X0271894Y0067313D01*
X0271894Y0065053D01*
X0270977Y0065053D01*
X0270459Y0064534D01*
X0269941Y0065053D01*
X0267972Y0065053D01*
X0264675Y0073406D01*
X0264705Y0073436D01*
X0265344Y0074980D01*
X0265344Y0076650D01*
X0264705Y0078194D01*
X0263523Y0079376D01*
X0261980Y0080015D01*
X0260309Y0080015D01*
X0258765Y0079376D01*
X0257584Y0078194D01*
X0257498Y0077987D01*
X0255055Y0080429D01*
X0253144Y0080429D01*
X0253144Y0075815D01*
X0253144Y0075815D01*
X0253144Y0075815D01*
X0253144Y0071201D01*
X0251233Y0071201D01*
X0249451Y0072983D01*
X0247571Y0066753D01*
X0247530Y0064367D01*
X0247959Y0064367D01*
X0247959Y0058236D01*
X0247959Y0058236D01*
X0247959Y0052106D01*
X0246873Y0052106D01*
X0246744Y0051981D01*
X0246352Y0051589D01*
X0246207Y0051212D01*
X0245790Y0051027D01*
X0245467Y0050704D01*
X0245063Y0050704D01*
X0229971Y0043996D01*
X0230178Y0043789D01*
X0230181Y0043782D01*
X0230224Y0043764D01*
X0230598Y0043639D01*
X0230663Y0043583D01*
X0230742Y0043550D01*
X0231021Y0043271D01*
X0231318Y0043013D01*
X0231356Y0042935D01*
X0232179Y0042113D01*
X0232414Y0041544D01*
X0239524Y0045555D01*
X0239527Y0045559D01*
X0239940Y0045789D01*
X0240351Y0046021D01*
X0240356Y0046022D01*
X0251599Y0052306D01*
X0251115Y0052306D01*
X0250595Y0052826D01*
X0250581Y0052800D01*
X0250245Y0052465D01*
X0249835Y0052228D01*
X0249377Y0052106D01*
X0247959Y0052106D01*
X0247959Y0058236D01*
X0247959Y0058236D01*
X0247959Y0064367D01*
X0249377Y0064367D01*
X0249835Y0064244D01*
X0250245Y0064007D01*
X0250468Y0063785D01*
X0250316Y0064151D01*
X0250316Y0065339D01*
X0250771Y0066437D01*
X0251611Y0067277D01*
X0252709Y0067732D01*
X0253898Y0067732D01*
X0254996Y0067277D01*
X0255836Y0066437D01*
X0256291Y0065339D01*
X0256291Y0064167D01*
X0259803Y0064167D01*
X0260740Y0063230D01*
X0260740Y0061768D01*
X0262560Y0061768D01*
X0262560Y0064115D01*
X0263006Y0064561D01*
X0260205Y0071658D01*
X0258765Y0072254D01*
X0257584Y0073436D01*
X0257498Y0073643D01*
X0255055Y0071201D01*
X0253144Y0071736D02*
X0253144Y0071736D01*
X0253144Y0073334D02*
X0253144Y0073334D01*
X0253144Y0074933D02*
X0253144Y0074933D01*
X0253144Y0076532D02*
X0253144Y0076532D01*
X0253144Y0078130D02*
X0253144Y0078130D01*
X0253144Y0079729D02*
X0253144Y0079729D01*
X0253571Y0081327D02*
X0273761Y0081327D01*
X0273761Y0079729D02*
X0262671Y0079729D01*
X0264731Y0078130D02*
X0273761Y0078130D01*
X0274141Y0076532D02*
X0265344Y0076532D01*
X0265325Y0074933D02*
X0270020Y0074933D01*
X0270020Y0073334D02*
X0264703Y0073334D01*
X0265334Y0071736D02*
X0270020Y0071736D01*
X0270020Y0070137D02*
X0265965Y0070137D01*
X0266596Y0068539D02*
X0270020Y0068539D01*
X0271894Y0066940D02*
X0267227Y0066940D01*
X0267858Y0065342D02*
X0271894Y0065342D01*
X0262698Y0065342D02*
X0256290Y0065342D01*
X0255333Y0066940D02*
X0262067Y0066940D01*
X0261436Y0068539D02*
X0248110Y0068539D01*
X0248592Y0070137D02*
X0260805Y0070137D01*
X0257685Y0073334D02*
X0257189Y0073334D01*
X0250698Y0071736D02*
X0249074Y0071736D01*
X0244135Y0069212D02*
X0243812Y0068141D01*
X0243590Y0067927D01*
X0243581Y0067377D01*
X0243422Y0066850D01*
X0243567Y0066578D01*
X0243526Y0064167D01*
X0241115Y0064167D01*
X0240178Y0063230D01*
X0240178Y0056964D01*
X0233044Y0055892D01*
X0233044Y0061487D01*
X0233228Y0061671D01*
X0243074Y0068478D01*
X0243278Y0068478D01*
X0243736Y0068936D01*
X0244135Y0069212D01*
X0243932Y0068539D02*
X0243339Y0068539D01*
X0243449Y0066940D02*
X0240850Y0066940D01*
X0238538Y0065342D02*
X0243546Y0065342D01*
X0240692Y0063743D02*
X0236226Y0063743D01*
X0233914Y0062145D02*
X0240178Y0062145D01*
X0240178Y0060546D02*
X0233044Y0060546D01*
X0233044Y0058948D02*
X0240178Y0058948D01*
X0240178Y0057349D02*
X0233044Y0057349D01*
X0237747Y0052554D02*
X0239377Y0052554D01*
X0240210Y0052924D02*
X0226162Y0046681D01*
X0225768Y0046685D01*
X0225434Y0046358D01*
X0225008Y0046168D01*
X0224866Y0045800D01*
X0224214Y0045161D01*
X0217156Y0049667D01*
X0220096Y0049946D01*
X0220147Y0049908D01*
X0220912Y0050023D01*
X0221682Y0050096D01*
X0221723Y0050145D01*
X0240210Y0052924D01*
X0235780Y0050955D02*
X0227113Y0050955D01*
X0228586Y0047758D02*
X0220146Y0047758D01*
X0222649Y0046160D02*
X0225004Y0046160D01*
X0227645Y0042097D02*
X0229383Y0041515D01*
X0230144Y0040754D01*
X0230144Y0036215D01*
X0230644Y0038615D01*
X0232107Y0038615D01*
X0241115Y0043696D01*
X0257267Y0052724D01*
X0257959Y0053416D01*
X0257959Y0058236D01*
X0260740Y0062145D02*
X0262560Y0062145D01*
X0262560Y0063743D02*
X0260226Y0063743D01*
X0253304Y0064745D02*
X0252959Y0063056D01*
X0252959Y0062567D01*
X0252959Y0061767D01*
X0252959Y0058236D01*
X0247959Y0058948D02*
X0247959Y0058948D01*
X0247959Y0060546D02*
X0247959Y0060546D01*
X0247959Y0062145D02*
X0247959Y0062145D01*
X0247959Y0063743D02*
X0247959Y0063743D01*
X0247547Y0065342D02*
X0250317Y0065342D01*
X0251274Y0066940D02*
X0247627Y0066940D01*
X0237542Y0072477D02*
X0225557Y0067615D01*
X0225118Y0067615D01*
X0224819Y0067316D01*
X0224427Y0067157D01*
X0224257Y0066753D01*
X0223518Y0066015D01*
X0223181Y0066015D01*
X0222644Y0065478D01*
X0222107Y0066015D01*
X0218181Y0066015D01*
X0217644Y0065478D01*
X0217289Y0065833D01*
X0219098Y0103475D01*
X0221903Y0097611D01*
X0221789Y0097335D01*
X0221789Y0095665D01*
X0222428Y0094121D01*
X0223610Y0092939D01*
X0225154Y0092300D01*
X0232024Y0092300D01*
X0233568Y0092939D01*
X0234750Y0094121D01*
X0235389Y0095665D01*
X0235389Y0097335D01*
X0234750Y0098879D01*
X0233568Y0100061D01*
X0232024Y0100700D01*
X0225154Y0100700D01*
X0224908Y0100598D01*
X0223832Y0102847D01*
X0225154Y0102300D01*
X0232024Y0102300D01*
X0233568Y0102939D01*
X0234750Y0104121D01*
X0235389Y0105665D01*
X0235389Y0106836D01*
X0238190Y0110248D01*
X0238291Y0110003D01*
X0238121Y0108890D01*
X0238050Y0108718D01*
X0238050Y0108423D01*
X0238005Y0108131D01*
X0238050Y0107950D01*
X0238050Y0105140D01*
X0238020Y0105049D01*
X0238050Y0104666D01*
X0238050Y0104282D01*
X0238087Y0104193D01*
X0238094Y0104097D01*
X0238269Y0103755D01*
X0238415Y0103400D01*
X0238484Y0103332D01*
X0241789Y0096835D01*
X0241789Y0095665D01*
X0242428Y0094121D01*
X0243610Y0092939D01*
X0245154Y0092300D01*
X0251885Y0092300D01*
X0244807Y0082778D01*
X0244479Y0082606D01*
X0244331Y0082138D01*
X0244039Y0081745D01*
X0244093Y0081379D01*
X0243239Y0078660D01*
X0242523Y0079376D01*
X0240980Y0080015D01*
X0239309Y0080015D01*
X0237765Y0079376D01*
X0236584Y0078194D01*
X0236498Y0077987D01*
X0234055Y0080429D01*
X0232144Y0080429D01*
X0230233Y0080429D01*
X0227530Y0077726D01*
X0227530Y0075815D01*
X0232144Y0075815D01*
X0232144Y0075815D01*
X0232144Y0080429D01*
X0232144Y0075815D01*
X0232144Y0075815D01*
X0227530Y0075815D01*
X0227530Y0073904D01*
X0230233Y0071201D01*
X0232144Y0071201D01*
X0232144Y0075815D01*
X0232144Y0075815D01*
X0232144Y0071201D01*
X0234055Y0071201D01*
X0236498Y0073643D01*
X0236584Y0073436D01*
X0237542Y0072477D01*
X0236685Y0073334D02*
X0236189Y0073334D01*
X0235716Y0071736D02*
X0234590Y0071736D01*
X0232144Y0071736D02*
X0232144Y0071736D01*
X0232144Y0073334D02*
X0232144Y0073334D01*
X0232144Y0074933D02*
X0232144Y0074933D01*
X0232144Y0076532D02*
X0232144Y0076532D01*
X0232144Y0078130D02*
X0232144Y0078130D01*
X0232144Y0079729D02*
X0232144Y0079729D01*
X0229533Y0079729D02*
X0217957Y0079729D01*
X0218033Y0081327D02*
X0244077Y0081327D01*
X0243574Y0079729D02*
X0241671Y0079729D01*
X0238617Y0079729D02*
X0234756Y0079729D01*
X0236354Y0078130D02*
X0236557Y0078130D01*
X0227934Y0078130D02*
X0217880Y0078130D01*
X0217803Y0076532D02*
X0227530Y0076532D01*
X0227530Y0074933D02*
X0217726Y0074933D01*
X0217649Y0073334D02*
X0228099Y0073334D01*
X0229698Y0071736D02*
X0217572Y0071736D01*
X0217496Y0070137D02*
X0231775Y0070137D01*
X0227834Y0068539D02*
X0217419Y0068539D01*
X0217342Y0066940D02*
X0224336Y0066940D01*
X0213491Y0070137D02*
X0211321Y0070137D01*
X0212482Y0068539D02*
X0213414Y0068539D01*
X0213356Y0067335D02*
X0195228Y0092300D01*
X0202024Y0092300D01*
X0203568Y0092939D01*
X0204750Y0094121D01*
X0205389Y0095665D01*
X0205389Y0097119D01*
X0209172Y0102572D01*
X0209395Y0102665D01*
X0209521Y0102969D01*
X0209653Y0103046D01*
X0209746Y0103400D01*
X0209978Y0103735D01*
X0209935Y0103973D01*
X0210095Y0104359D01*
X0210036Y0104500D01*
X0220347Y0143597D01*
X0220431Y0143657D01*
X0220554Y0144385D01*
X0220743Y0145100D01*
X0220691Y0145189D01*
X0222272Y0154499D01*
X0222428Y0154121D01*
X0223610Y0152939D01*
X0225154Y0152300D01*
X0232024Y0152300D01*
X0233568Y0152939D01*
X0234750Y0154121D01*
X0235389Y0155665D01*
X0235389Y0157335D01*
X0234750Y0158879D01*
X0233568Y0160061D01*
X0232816Y0160372D01*
X0234316Y0160698D01*
X0234929Y0160698D01*
X0235100Y0160868D01*
X0235335Y0160920D01*
X0235667Y0161436D01*
X0237501Y0163270D01*
X0237940Y0163480D01*
X0238064Y0163833D01*
X0238328Y0164097D01*
X0238328Y0164584D01*
X0241153Y0172618D01*
X0241176Y0172630D01*
X0241426Y0173397D01*
X0241693Y0174157D01*
X0241682Y0174180D01*
X0242000Y0175155D01*
X0242428Y0174121D01*
X0243610Y0172939D01*
X0245154Y0172300D01*
X0252024Y0172300D01*
X0253568Y0172939D01*
X0254750Y0174121D01*
X0255389Y0175665D01*
X0255389Y0177335D01*
X0254750Y0178879D01*
X0253568Y0180061D01*
X0252816Y0180372D01*
X0254316Y0180698D01*
X0254929Y0180698D01*
X0255100Y0180868D01*
X0255335Y0180920D01*
X0255667Y0181436D01*
X0257692Y0183461D01*
X0258264Y0183957D01*
X0258270Y0184039D01*
X0258328Y0184097D01*
X0258328Y0184854D01*
X0259170Y0196730D01*
X0260526Y0197292D01*
X0261263Y0198028D01*
X0271869Y0177528D01*
X0271789Y0177335D01*
X0271789Y0175665D01*
X0272428Y0174121D01*
X0273610Y0172939D01*
X0275154Y0172300D01*
X0282024Y0172300D01*
X0282195Y0172371D01*
X0283162Y0170229D01*
X0282024Y0170700D01*
X0275154Y0170700D01*
X0273610Y0170061D01*
X0272428Y0168879D01*
X0271789Y0167335D01*
X0271789Y0166219D01*
X0255389Y0146909D01*
X0255389Y0147335D01*
X0254750Y0148879D01*
X0253568Y0150061D01*
X0252024Y0150700D01*
X0245154Y0150700D01*
X0243610Y0150061D01*
X0242428Y0148879D01*
X0241789Y0147335D01*
X0241789Y0145665D01*
X0242428Y0144121D01*
X0243610Y0142939D01*
X0244362Y0142628D01*
X0242862Y0142302D01*
X0242249Y0142302D01*
X0242078Y0142132D01*
X0241843Y0142080D01*
X0241511Y0141564D01*
X0239891Y0139945D01*
X0239710Y0139915D01*
X0239321Y0139374D01*
X0238850Y0138903D01*
X0238850Y0138719D01*
X0232840Y0130362D01*
X0232024Y0130700D01*
X0225154Y0130700D01*
X0223610Y0130061D01*
X0222428Y0128879D01*
X0221789Y0127335D01*
X0221789Y0125665D01*
X0221929Y0125327D01*
X0219322Y0119550D01*
X0219221Y0119501D01*
X0218987Y0118808D01*
X0218686Y0118142D01*
X0218726Y0118037D01*
X0215564Y0108691D01*
X0215334Y0108483D01*
X0215308Y0107935D01*
X0215132Y0107416D01*
X0215270Y0107138D01*
X0213356Y0067335D01*
X0213568Y0071736D02*
X0210161Y0071736D01*
X0209000Y0073334D02*
X0213645Y0073334D01*
X0213721Y0074933D02*
X0207839Y0074933D01*
X0206678Y0076532D02*
X0213798Y0076532D01*
X0213875Y0078130D02*
X0205518Y0078130D01*
X0204357Y0079729D02*
X0213952Y0079729D01*
X0214029Y0081327D02*
X0203196Y0081327D01*
X0202035Y0082926D02*
X0214106Y0082926D01*
X0214183Y0084524D02*
X0200874Y0084524D01*
X0199714Y0086123D02*
X0214259Y0086123D01*
X0214336Y0087721D02*
X0198553Y0087721D01*
X0197392Y0089320D02*
X0214413Y0089320D01*
X0214490Y0090918D02*
X0196231Y0090918D01*
X0192449Y0089320D02*
X0189092Y0089320D01*
X0189360Y0090918D02*
X0191288Y0090918D01*
X0190127Y0092517D02*
X0189628Y0092517D01*
X0189722Y0093075D02*
X0188383Y0085086D01*
X0189277Y0084715D01*
X0190118Y0083875D01*
X0190572Y0082777D01*
X0190572Y0082422D01*
X0205975Y0070692D01*
X0189722Y0093075D01*
X0188824Y0087721D02*
X0193610Y0087721D01*
X0194770Y0086123D02*
X0188557Y0086123D01*
X0189468Y0084524D02*
X0195931Y0084524D01*
X0197092Y0082926D02*
X0190511Y0082926D01*
X0192010Y0081327D02*
X0198253Y0081327D01*
X0199413Y0079729D02*
X0194109Y0079729D01*
X0196208Y0078130D02*
X0200574Y0078130D01*
X0201735Y0076532D02*
X0198307Y0076532D01*
X0200406Y0074933D02*
X0202896Y0074933D01*
X0202505Y0073334D02*
X0204057Y0073334D01*
X0204605Y0071736D02*
X0205217Y0071736D01*
X0202200Y0068539D02*
X0184611Y0068539D01*
X0185261Y0067889D02*
X0182759Y0070391D01*
X0182594Y0070788D01*
X0182196Y0070953D01*
X0182125Y0071024D01*
X0182047Y0071144D01*
X0181995Y0071155D01*
X0181892Y0071258D01*
X0181502Y0071258D01*
X0181419Y0071275D01*
X0180827Y0071521D01*
X0180632Y0071440D01*
X0176521Y0072300D01*
X0182024Y0072300D01*
X0183568Y0072939D01*
X0184750Y0074121D01*
X0185389Y0075665D01*
X0185389Y0077335D01*
X0185105Y0078020D01*
X0185686Y0079856D01*
X0185893Y0079650D01*
X0186991Y0079195D01*
X0188179Y0079195D01*
X0188197Y0079203D01*
X0205515Y0066015D01*
X0203181Y0066015D01*
X0202644Y0065478D01*
X0202107Y0066015D01*
X0198181Y0066015D01*
X0197786Y0065619D01*
X0197549Y0065855D01*
X0197139Y0066092D01*
X0196681Y0066215D01*
X0195144Y0066215D01*
X0193607Y0066215D01*
X0193149Y0066092D01*
X0192739Y0065855D01*
X0192404Y0065520D01*
X0192167Y0065110D01*
X0192044Y0064652D01*
X0192044Y0060415D01*
X0195144Y0060415D01*
X0195144Y0060415D01*
X0195144Y0066215D01*
X0195144Y0060415D01*
X0195144Y0060415D01*
X0192044Y0060415D01*
X0192044Y0056178D01*
X0192167Y0055720D01*
X0192404Y0055310D01*
X0192739Y0054975D01*
X0193149Y0054738D01*
X0193607Y0054615D01*
X0194658Y0054615D01*
X0194658Y0053939D01*
X0195113Y0052841D01*
X0195178Y0052775D01*
X0193513Y0052676D01*
X0193162Y0052830D01*
X0191675Y0054317D01*
X0186150Y0066600D01*
X0186150Y0067000D01*
X0185824Y0067326D01*
X0185634Y0067747D01*
X0185261Y0067889D01*
X0186150Y0066940D02*
X0204300Y0066940D01*
X0200101Y0070137D02*
X0183012Y0070137D01*
X0183963Y0073334D02*
X0195903Y0073334D01*
X0198002Y0071736D02*
X0179217Y0071736D01*
X0185086Y0074933D02*
X0193804Y0074933D01*
X0191705Y0076532D02*
X0185389Y0076532D01*
X0185140Y0078130D02*
X0189606Y0078130D01*
X0185814Y0079729D02*
X0185646Y0079729D01*
X0186716Y0065342D02*
X0192301Y0065342D01*
X0192044Y0063743D02*
X0187435Y0063743D01*
X0188154Y0062145D02*
X0192044Y0062145D01*
X0192044Y0060546D02*
X0188873Y0060546D01*
X0189592Y0058948D02*
X0192044Y0058948D01*
X0192044Y0057349D02*
X0190311Y0057349D01*
X0191030Y0055751D02*
X0192159Y0055751D01*
X0191839Y0054152D02*
X0194658Y0054152D01*
X0195144Y0060546D02*
X0195144Y0060546D01*
X0195144Y0062145D02*
X0195144Y0062145D01*
X0195144Y0063743D02*
X0195144Y0063743D01*
X0195144Y0065342D02*
X0195144Y0065342D01*
X0175079Y0050955D02*
X0166976Y0050955D01*
X0165184Y0052554D02*
X0173480Y0052554D01*
X0172623Y0054152D02*
X0172004Y0054152D01*
X0169901Y0049357D02*
X0177387Y0049357D01*
X0175065Y0047758D02*
X0172223Y0047758D01*
X0172974Y0046160D02*
X0174314Y0046160D01*
X0174244Y0044561D02*
X0173044Y0044561D01*
X0173044Y0042963D02*
X0174244Y0042963D01*
X0174244Y0041364D02*
X0173044Y0041364D01*
X0173044Y0039766D02*
X0174244Y0039766D01*
X0174440Y0038167D02*
X0172848Y0038167D01*
X0171920Y0036569D02*
X0175368Y0036569D01*
X0181920Y0036569D02*
X0192244Y0036569D01*
X0192244Y0038167D02*
X0182848Y0038167D01*
X0183044Y0039766D02*
X0192244Y0039766D01*
X0192731Y0041364D02*
X0183044Y0041364D01*
X0183044Y0042963D02*
X0198674Y0042963D01*
X0197731Y0041364D02*
X0197558Y0041364D01*
X0200144Y0040754D02*
X0200144Y0036215D01*
X0200144Y0031676D01*
X0199526Y0029116D01*
X0202251Y0030175D02*
X0203956Y0030175D01*
X0202728Y0028576D02*
X0205674Y0028576D01*
X0207468Y0026978D02*
X0202728Y0026978D01*
X0192244Y0031773D02*
X0150073Y0031773D01*
X0150073Y0033372D02*
X0192244Y0033372D01*
X0192244Y0034970D02*
X0149514Y0034970D01*
X0147915Y0036569D02*
X0155368Y0036569D01*
X0154440Y0038167D02*
X0133014Y0038167D01*
X0130543Y0036569D02*
X0143003Y0036569D01*
X0141404Y0034970D02*
X0138468Y0034970D01*
X0139072Y0033372D02*
X0140845Y0033372D01*
X0140845Y0031773D02*
X0138757Y0031773D01*
X0137100Y0030175D02*
X0141259Y0030175D01*
X0142858Y0028576D02*
X0136492Y0028576D01*
X0135883Y0026978D02*
X0141997Y0026978D01*
X0141277Y0025379D02*
X0135267Y0025379D01*
X0134239Y0023781D02*
X0141259Y0023781D01*
X0141873Y0022182D02*
X0133325Y0022182D01*
X0134032Y0015788D02*
X0130543Y0015788D01*
X0130543Y0014190D02*
X0132783Y0014190D01*
X0132224Y0012591D02*
X0130543Y0012591D01*
X0130543Y0010993D02*
X0132224Y0010993D01*
X0132777Y0009394D02*
X0130543Y0009394D01*
X0134017Y0007796D02*
X0095342Y0007796D01*
X0096752Y0006197D02*
X0182791Y0006197D01*
X0187324Y0012591D02*
X0187724Y0012591D01*
X0187724Y0014190D02*
X0187324Y0014190D01*
X0187324Y0015788D02*
X0187724Y0015788D01*
X0191298Y0015788D02*
X0191446Y0015788D01*
X0183749Y0015788D02*
X0181015Y0015788D01*
X0182264Y0014190D02*
X0182576Y0014190D01*
X0174032Y0015788D02*
X0171015Y0015788D01*
X0172264Y0014190D02*
X0172783Y0014190D01*
X0172777Y0009394D02*
X0172270Y0009394D01*
X0171030Y0007796D02*
X0174017Y0007796D01*
X0164017Y0007796D02*
X0161030Y0007796D01*
X0162270Y0009394D02*
X0162777Y0009394D01*
X0162783Y0014190D02*
X0162264Y0014190D01*
X0161015Y0015788D02*
X0164032Y0015788D01*
X0154032Y0015788D02*
X0151015Y0015788D01*
X0152264Y0014190D02*
X0152783Y0014190D01*
X0152777Y0009394D02*
X0152270Y0009394D01*
X0151030Y0007796D02*
X0154017Y0007796D01*
X0144017Y0007796D02*
X0141030Y0007796D01*
X0142270Y0009394D02*
X0142777Y0009394D01*
X0142783Y0014190D02*
X0142264Y0014190D01*
X0141015Y0015788D02*
X0144032Y0015788D01*
X0129134Y0030175D02*
X0094446Y0030175D01*
X0094446Y0031773D02*
X0133413Y0031773D01*
X0133098Y0033372D02*
X0094446Y0033372D01*
X0094446Y0034970D02*
X0096963Y0034970D01*
X0096971Y0034943D02*
X0097208Y0034533D01*
X0097543Y0034197D01*
X0097953Y0033960D01*
X0098411Y0033838D01*
X0100629Y0033838D01*
X0100629Y0037619D01*
X0096848Y0037619D01*
X0096848Y0035401D01*
X0096971Y0034943D01*
X0096848Y0036569D02*
X0094446Y0036569D01*
X0094446Y0038167D02*
X0100629Y0038167D01*
X0100629Y0038381D02*
X0100629Y0037619D01*
X0101391Y0037619D01*
X0101391Y0033838D01*
X0103609Y0033838D01*
X0104067Y0033960D01*
X0104478Y0034197D01*
X0104813Y0034533D01*
X0105050Y0034943D01*
X0105172Y0035401D01*
X0105172Y0037619D01*
X0101391Y0037619D01*
X0101391Y0038381D01*
X0100629Y0038381D01*
X0096848Y0038381D01*
X0096848Y0040599D01*
X0096971Y0041057D01*
X0097208Y0041467D01*
X0097543Y0041803D01*
X0097953Y0042040D01*
X0098411Y0042162D01*
X0100629Y0042162D01*
X0100629Y0038381D01*
X0101391Y0038381D02*
X0101391Y0042162D01*
X0103609Y0042162D01*
X0104067Y0042040D01*
X0104478Y0041803D01*
X0104813Y0041467D01*
X0105050Y0041057D01*
X0105172Y0040599D01*
X0105172Y0038381D01*
X0101391Y0038381D01*
X0101391Y0038167D02*
X0105316Y0038167D01*
X0105316Y0036569D02*
X0105172Y0036569D01*
X0105057Y0034970D02*
X0105321Y0034970D01*
X0101391Y0034970D02*
X0100629Y0034970D01*
X0100629Y0036569D02*
X0101391Y0036569D01*
X0101391Y0039766D02*
X0100629Y0039766D01*
X0100629Y0041364D02*
X0101391Y0041364D01*
X0104872Y0041364D02*
X0105655Y0041364D01*
X0105316Y0039766D02*
X0105172Y0039766D01*
X0112901Y0041364D02*
X0114745Y0041364D01*
X0114745Y0034970D02*
X0113235Y0034970D01*
X0113189Y0028576D02*
X0114745Y0028576D01*
X0126384Y0038000D02*
X0128143Y0039351D01*
X0128943Y0039351D01*
X0129607Y0039351D01*
X0156821Y0050654D01*
X0160467Y0051476D01*
X0162149Y0052044D01*
X0168644Y0046252D01*
X0168644Y0042315D01*
X0164244Y0042963D02*
X0163044Y0042963D01*
X0163044Y0044561D02*
X0164244Y0044561D01*
X0164314Y0046160D02*
X0162974Y0046160D01*
X0163349Y0047758D02*
X0162223Y0047758D01*
X0162149Y0052044D02*
X0163046Y0054993D01*
X0163046Y0058639D01*
X0163046Y0065575D01*
X0152526Y0076500D01*
X0148589Y0076500D01*
X0144652Y0076500D01*
X0138007Y0080717D01*
X0126652Y0082313D01*
X0124190Y0084774D01*
X0124190Y0088256D01*
X0124190Y0108256D01*
X0126108Y0111433D01*
X0128392Y0116515D01*
X0132329Y0116515D01*
X0128392Y0116515D01*
X0122327Y0123146D01*
X0120581Y0124892D01*
X0106266Y0136515D01*
X0102329Y0136515D01*
X0098497Y0132479D02*
X0094446Y0132479D01*
X0094446Y0130881D02*
X0109398Y0130881D01*
X0108101Y0129282D02*
X0111366Y0129282D01*
X0113335Y0127684D02*
X0108991Y0127684D01*
X0109129Y0127350D02*
X0108490Y0128894D01*
X0107308Y0130076D01*
X0105765Y0130715D01*
X0098894Y0130715D01*
X0097350Y0130076D01*
X0096169Y0128894D01*
X0095529Y0127350D01*
X0095529Y0125680D01*
X0096169Y0124136D01*
X0097350Y0122954D01*
X0098894Y0122315D01*
X0105765Y0122315D01*
X0107308Y0122954D01*
X0108490Y0124136D01*
X0109129Y0125680D01*
X0109129Y0127350D01*
X0109129Y0126085D02*
X0115304Y0126085D01*
X0117273Y0124487D02*
X0108635Y0124487D01*
X0107149Y0122888D02*
X0119191Y0122888D01*
X0120772Y0121290D02*
X0094446Y0121290D01*
X0094446Y0122888D02*
X0097509Y0122888D01*
X0096023Y0124487D02*
X0094446Y0124487D01*
X0094446Y0126085D02*
X0095529Y0126085D01*
X0095667Y0127684D02*
X0094446Y0127684D01*
X0094446Y0129282D02*
X0096557Y0129282D01*
X0096226Y0134078D02*
X0094446Y0134078D01*
X0094446Y0135676D02*
X0095530Y0135676D01*
X0095529Y0137275D02*
X0094446Y0137275D01*
X0094446Y0138873D02*
X0096160Y0138873D01*
X0094446Y0140472D02*
X0098307Y0140472D01*
X0094446Y0142070D02*
X0123691Y0142070D01*
X0124412Y0140472D02*
X0106351Y0140472D01*
X0108498Y0138873D02*
X0125134Y0138873D01*
X0125529Y0137275D02*
X0109138Y0137275D01*
X0111106Y0135676D02*
X0125530Y0135676D01*
X0126226Y0134078D02*
X0113075Y0134078D01*
X0115044Y0132479D02*
X0128497Y0132479D01*
X0129168Y0130881D02*
X0117013Y0130881D01*
X0118981Y0129282D02*
X0126301Y0129282D01*
X0125483Y0127684D02*
X0120950Y0127684D01*
X0122782Y0126085D02*
X0125342Y0126085D01*
X0125824Y0124487D02*
X0124369Y0124487D01*
X0125815Y0122888D02*
X0127235Y0122888D01*
X0127277Y0121290D02*
X0141474Y0121290D01*
X0142942Y0119691D02*
X0137692Y0119691D01*
X0138822Y0118093D02*
X0144410Y0118093D01*
X0145879Y0116494D02*
X0139129Y0116494D01*
X0138804Y0114896D02*
X0147347Y0114896D01*
X0148815Y0113297D02*
X0137651Y0113297D01*
X0137249Y0110100D02*
X0143706Y0110100D01*
X0142272Y0108502D02*
X0138652Y0108502D01*
X0139129Y0106903D02*
X0141789Y0106903D01*
X0141938Y0105305D02*
X0138974Y0105305D01*
X0138060Y0103706D02*
X0142843Y0103706D01*
X0144693Y0100509D02*
X0136261Y0100509D01*
X0138473Y0098911D02*
X0142460Y0098911D01*
X0141789Y0097312D02*
X0139129Y0097312D01*
X0141787Y0095714D02*
X0141789Y0095714D01*
X0152485Y0100509D02*
X0156343Y0100509D01*
X0156784Y0098911D02*
X0154718Y0098911D01*
X0155389Y0097312D02*
X0157226Y0097312D01*
X0157667Y0095714D02*
X0155389Y0095714D01*
X0154744Y0094115D02*
X0158109Y0094115D01*
X0158550Y0092517D02*
X0153328Y0092517D01*
X0156313Y0090918D02*
X0158992Y0090918D01*
X0159433Y0089320D02*
X0157930Y0089320D01*
X0158786Y0087721D02*
X0159875Y0087721D01*
X0159642Y0086123D02*
X0160317Y0086123D01*
X0160498Y0084524D02*
X0160758Y0084524D01*
X0164466Y0086123D02*
X0165856Y0086123D01*
X0165814Y0087721D02*
X0164025Y0087721D01*
X0163583Y0089320D02*
X0165771Y0089320D01*
X0165729Y0090918D02*
X0163142Y0090918D01*
X0162700Y0092517D02*
X0165686Y0092517D01*
X0165668Y0093188D02*
X0166005Y0080552D01*
X0158339Y0108304D01*
X0158361Y0108818D01*
X0158127Y0109072D01*
X0158035Y0109406D01*
X0157588Y0109659D01*
X0146161Y0122100D01*
X0148589Y0122100D01*
X0151535Y0122100D01*
X0152219Y0122208D01*
X0152878Y0122422D01*
X0153495Y0122737D01*
X0154055Y0123144D01*
X0154545Y0123634D01*
X0154952Y0124194D01*
X0155267Y0124811D01*
X0155481Y0125470D01*
X0155589Y0126154D01*
X0155589Y0126500D01*
X0155589Y0126846D01*
X0155481Y0127530D01*
X0155267Y0128189D01*
X0154952Y0128806D01*
X0154545Y0129366D01*
X0154055Y0129856D01*
X0153495Y0130263D01*
X0152878Y0130578D01*
X0152219Y0130792D01*
X0151535Y0130900D01*
X0148589Y0130900D01*
X0148589Y0126500D01*
X0155589Y0126500D01*
X0148589Y0126500D01*
X0148589Y0126500D01*
X0148589Y0126500D01*
X0148589Y0122100D01*
X0148589Y0126500D01*
X0148589Y0126500D01*
X0148589Y0130900D01*
X0145643Y0130900D01*
X0144959Y0130792D01*
X0144300Y0130578D01*
X0143683Y0130263D01*
X0143123Y0129856D01*
X0142831Y0129565D01*
X0142815Y0133451D01*
X0143123Y0133144D01*
X0143683Y0132737D01*
X0144300Y0132422D01*
X0144959Y0132208D01*
X0145643Y0132100D01*
X0148589Y0132100D01*
X0151535Y0132100D01*
X0152219Y0132208D01*
X0152878Y0132422D01*
X0153495Y0132737D01*
X0154055Y0133144D01*
X0154545Y0133634D01*
X0154952Y0134194D01*
X0155267Y0134811D01*
X0155481Y0135470D01*
X0155589Y0136154D01*
X0155589Y0136500D01*
X0155589Y0136846D01*
X0155481Y0137530D01*
X0155267Y0138189D01*
X0154952Y0138806D01*
X0154545Y0139366D01*
X0154055Y0139856D01*
X0153495Y0140263D01*
X0152878Y0140578D01*
X0152219Y0140792D01*
X0151535Y0140900D01*
X0148589Y0140900D01*
X0148589Y0136500D01*
X0155589Y0136500D01*
X0148589Y0136500D01*
X0148589Y0136500D01*
X0148589Y0136500D01*
X0148589Y0132100D01*
X0148589Y0136500D01*
X0148589Y0136500D01*
X0148589Y0140900D01*
X0145643Y0140900D01*
X0144959Y0140792D01*
X0144300Y0140578D01*
X0143683Y0140263D01*
X0143123Y0139856D01*
X0142791Y0139524D01*
X0142774Y0143492D01*
X0143123Y0143144D01*
X0143683Y0142737D01*
X0144300Y0142422D01*
X0144959Y0142208D01*
X0145643Y0142100D01*
X0148589Y0142100D01*
X0151535Y0142100D01*
X0152219Y0142208D01*
X0152878Y0142422D01*
X0153495Y0142737D01*
X0154055Y0143144D01*
X0154545Y0143634D01*
X0154952Y0144194D01*
X0155267Y0144811D01*
X0155481Y0145470D01*
X0155589Y0146154D01*
X0155589Y0146500D01*
X0155589Y0146846D01*
X0155481Y0147530D01*
X0155267Y0148189D01*
X0154952Y0148806D01*
X0154545Y0149366D01*
X0154055Y0149856D01*
X0153495Y0150263D01*
X0152878Y0150578D01*
X0152219Y0150792D01*
X0151535Y0150900D01*
X0148589Y0150900D01*
X0148589Y0146500D01*
X0155589Y0146500D01*
X0148589Y0146500D01*
X0148589Y0146500D01*
X0148589Y0146500D01*
X0148589Y0142100D01*
X0148589Y0146500D01*
X0148589Y0146500D01*
X0148589Y0150900D01*
X0145643Y0150900D01*
X0144959Y0150792D01*
X0144300Y0150578D01*
X0143683Y0150263D01*
X0143123Y0149856D01*
X0142750Y0149484D01*
X0142733Y0153533D01*
X0143123Y0153144D01*
X0143683Y0152737D01*
X0144300Y0152422D01*
X0144959Y0152208D01*
X0145643Y0152100D01*
X0148589Y0152100D01*
X0151535Y0152100D01*
X0152219Y0152208D01*
X0152878Y0152422D01*
X0153495Y0152737D01*
X0154055Y0153144D01*
X0154545Y0153634D01*
X0154952Y0154194D01*
X0155267Y0154811D01*
X0155481Y0155470D01*
X0155589Y0156154D01*
X0155589Y0156500D01*
X0155589Y0156846D01*
X0155481Y0157530D01*
X0155267Y0158189D01*
X0154952Y0158806D01*
X0154545Y0159366D01*
X0154055Y0159856D01*
X0153495Y0160263D01*
X0152878Y0160578D01*
X0152219Y0160792D01*
X0151535Y0160900D01*
X0148589Y0160900D01*
X0148589Y0156500D01*
X0155589Y0156500D01*
X0148589Y0156500D01*
X0148589Y0156500D01*
X0148589Y0156500D01*
X0148589Y0152100D01*
X0148589Y0156500D01*
X0148589Y0156500D01*
X0148589Y0160900D01*
X0145643Y0160900D01*
X0144959Y0160792D01*
X0144300Y0160578D01*
X0143683Y0160263D01*
X0143123Y0159856D01*
X0142709Y0159443D01*
X0142699Y0161942D01*
X0143223Y0162466D01*
X0143475Y0163074D01*
X0143610Y0162939D01*
X0145154Y0162300D01*
X0152024Y0162300D01*
X0153568Y0162939D01*
X0154750Y0164121D01*
X0155389Y0165665D01*
X0155389Y0167335D01*
X0154750Y0168879D01*
X0153568Y0170061D01*
X0152455Y0170521D01*
X0154202Y0170698D01*
X0154929Y0170698D01*
X0155011Y0170780D01*
X0155126Y0170792D01*
X0155586Y0171355D01*
X0157440Y0173209D01*
X0157816Y0173353D01*
X0158003Y0173772D01*
X0158328Y0174097D01*
X0158328Y0174499D01*
X0168826Y0197987D01*
X0169521Y0197292D01*
X0169939Y0197118D01*
X0168956Y0189062D01*
X0168898Y0189011D01*
X0168857Y0188250D01*
X0168764Y0187495D01*
X0168812Y0187434D01*
X0167293Y0159516D01*
X0167248Y0159472D01*
X0167248Y0158698D01*
X0167206Y0157924D01*
X0167248Y0157878D01*
X0167226Y0111683D01*
X0165747Y0099891D01*
X0165646Y0099790D01*
X0165646Y0099086D01*
X0165559Y0098388D01*
X0165646Y0098276D01*
X0165646Y0094836D01*
X0165625Y0094813D01*
X0165646Y0094012D01*
X0165646Y0093210D01*
X0165668Y0093188D01*
X0165643Y0094115D02*
X0162259Y0094115D01*
X0161817Y0095714D02*
X0165646Y0095714D01*
X0165646Y0097312D02*
X0161376Y0097312D01*
X0160934Y0098911D02*
X0165624Y0098911D01*
X0165824Y0100509D02*
X0160493Y0100509D01*
X0160051Y0102108D02*
X0166025Y0102108D01*
X0166225Y0103706D02*
X0159609Y0103706D01*
X0159168Y0105305D02*
X0166426Y0105305D01*
X0166626Y0106903D02*
X0158726Y0106903D01*
X0158348Y0108502D02*
X0166827Y0108502D01*
X0167027Y0110100D02*
X0157183Y0110100D01*
X0155715Y0111699D02*
X0167226Y0111699D01*
X0167226Y0113297D02*
X0154247Y0113297D01*
X0152778Y0114896D02*
X0167227Y0114896D01*
X0167228Y0116494D02*
X0151310Y0116494D01*
X0149842Y0118093D02*
X0167229Y0118093D01*
X0167229Y0119691D02*
X0148373Y0119691D01*
X0146905Y0121290D02*
X0167230Y0121290D01*
X0167231Y0122888D02*
X0153704Y0122888D01*
X0155101Y0124487D02*
X0167232Y0124487D01*
X0167233Y0126085D02*
X0155578Y0126085D01*
X0155431Y0127684D02*
X0167233Y0127684D01*
X0167234Y0129282D02*
X0154606Y0129282D01*
X0151656Y0130881D02*
X0167235Y0130881D01*
X0167236Y0132479D02*
X0152990Y0132479D01*
X0154868Y0134078D02*
X0167236Y0134078D01*
X0167237Y0135676D02*
X0155513Y0135676D01*
X0155521Y0137275D02*
X0167238Y0137275D01*
X0167239Y0138873D02*
X0154903Y0138873D01*
X0153085Y0140472D02*
X0167239Y0140472D01*
X0167240Y0142070D02*
X0142780Y0142070D01*
X0142787Y0140472D02*
X0144093Y0140472D01*
X0148589Y0140472D02*
X0148589Y0140472D01*
X0148589Y0138873D02*
X0148589Y0138873D01*
X0148589Y0137275D02*
X0148589Y0137275D01*
X0148589Y0135676D02*
X0148589Y0135676D01*
X0148589Y0134078D02*
X0148589Y0134078D01*
X0148589Y0132479D02*
X0148589Y0132479D01*
X0148589Y0130881D02*
X0148589Y0130881D01*
X0148589Y0129282D02*
X0148589Y0129282D01*
X0148589Y0127684D02*
X0148589Y0127684D01*
X0148589Y0126085D02*
X0148589Y0126085D01*
X0148589Y0124487D02*
X0148589Y0124487D01*
X0148589Y0122888D02*
X0148589Y0122888D01*
X0140005Y0122888D02*
X0137423Y0122888D01*
X0132329Y0122888D02*
X0132329Y0122888D01*
X0132329Y0124487D02*
X0132329Y0124487D01*
X0132329Y0126085D02*
X0132329Y0126085D01*
X0132329Y0127684D02*
X0132329Y0127684D01*
X0132329Y0129282D02*
X0132329Y0129282D01*
X0132329Y0130881D02*
X0132329Y0130881D01*
X0135490Y0130881D02*
X0138826Y0130881D01*
X0138819Y0132479D02*
X0136162Y0132479D01*
X0138432Y0134078D02*
X0138813Y0134078D01*
X0142819Y0132479D02*
X0144188Y0132479D01*
X0145522Y0130881D02*
X0142826Y0130881D01*
X0138832Y0129282D02*
X0138357Y0129282D01*
X0122234Y0119691D02*
X0107975Y0119691D01*
X0107796Y0119871D02*
X0107235Y0120278D01*
X0106618Y0120593D01*
X0105959Y0120807D01*
X0105275Y0120915D01*
X0102329Y0120915D01*
X0099383Y0120915D01*
X0098699Y0120807D01*
X0098040Y0120593D01*
X0097423Y0120278D01*
X0096863Y0119871D01*
X0096373Y0119381D01*
X0095966Y0118821D01*
X0095651Y0118204D01*
X0095437Y0117545D01*
X0095329Y0116861D01*
X0095329Y0116515D01*
X0102329Y0116515D01*
X0102329Y0116515D01*
X0102329Y0120915D01*
X0102329Y0116515D01*
X0102329Y0116515D01*
X0095329Y0116515D01*
X0095329Y0116169D01*
X0095437Y0115485D01*
X0095651Y0114826D01*
X0095966Y0114209D01*
X0096373Y0113649D01*
X0096863Y0113159D01*
X0097423Y0112752D01*
X0098040Y0112437D01*
X0098699Y0112223D01*
X0099383Y0112115D01*
X0102329Y0112115D01*
X0102329Y0116515D01*
X0102329Y0116515D01*
X0102329Y0112115D01*
X0105275Y0112115D01*
X0105959Y0112223D01*
X0106618Y0112437D01*
X0107235Y0112752D01*
X0107796Y0113159D01*
X0108285Y0113649D01*
X0108692Y0114209D01*
X0109007Y0114826D01*
X0109221Y0115485D01*
X0109329Y0116169D01*
X0109329Y0116515D01*
X0109329Y0116861D01*
X0109221Y0117545D01*
X0109007Y0118204D01*
X0108692Y0118821D01*
X0108285Y0119381D01*
X0107796Y0119871D01*
X0109043Y0118093D02*
X0121641Y0118093D01*
X0119650Y0116494D02*
X0109329Y0116494D01*
X0109329Y0116515D02*
X0102329Y0116515D01*
X0109329Y0116515D01*
X0109029Y0114896D02*
X0118234Y0114896D01*
X0115446Y0113297D02*
X0107934Y0113297D01*
X0112221Y0111699D02*
X0094446Y0111699D01*
X0094446Y0113297D02*
X0096724Y0113297D01*
X0095629Y0114896D02*
X0094446Y0114896D01*
X0094446Y0116494D02*
X0095329Y0116494D01*
X0095615Y0118093D02*
X0094446Y0118093D01*
X0094446Y0119691D02*
X0096683Y0119691D01*
X0102329Y0119691D02*
X0102329Y0119691D01*
X0102329Y0118093D02*
X0102329Y0118093D01*
X0102329Y0116515D02*
X0102329Y0116515D01*
X0102329Y0116494D02*
X0102329Y0116494D01*
X0102329Y0114896D02*
X0102329Y0114896D01*
X0102329Y0113297D02*
X0102329Y0113297D01*
X0097410Y0110100D02*
X0094446Y0110100D01*
X0094446Y0108502D02*
X0096006Y0108502D01*
X0095529Y0106903D02*
X0094446Y0106903D01*
X0094446Y0105305D02*
X0095684Y0105305D01*
X0096598Y0103706D02*
X0094446Y0103706D01*
X0094446Y0102108D02*
X0109638Y0102108D01*
X0108060Y0103706D02*
X0111471Y0103706D01*
X0113305Y0105305D02*
X0108974Y0105305D01*
X0111553Y0106903D02*
X0115138Y0106903D01*
X0114778Y0108502D02*
X0116971Y0108502D01*
X0118003Y0110100D02*
X0118805Y0110100D01*
X0121225Y0106903D02*
X0121790Y0106903D01*
X0121790Y0105305D02*
X0119391Y0105305D01*
X0117558Y0103706D02*
X0121790Y0103706D01*
X0121790Y0102108D02*
X0115724Y0102108D01*
X0113891Y0100509D02*
X0121790Y0100509D01*
X0121790Y0098911D02*
X0112057Y0098911D01*
X0110224Y0097312D02*
X0121790Y0097312D01*
X0121790Y0095714D02*
X0109129Y0095714D01*
X0108469Y0094115D02*
X0121790Y0094115D01*
X0121790Y0092517D02*
X0106251Y0092517D01*
X0105765Y0090715D02*
X0098894Y0090715D01*
X0097350Y0090076D01*
X0096169Y0088894D01*
X0095529Y0087350D01*
X0095529Y0085680D01*
X0096169Y0084136D01*
X0097350Y0082954D01*
X0098894Y0082315D01*
X0105765Y0082315D01*
X0107308Y0082954D01*
X0108490Y0084136D01*
X0109129Y0085680D01*
X0109129Y0087350D01*
X0108490Y0088894D01*
X0107308Y0090076D01*
X0105765Y0090715D01*
X0108064Y0089320D02*
X0121790Y0089320D01*
X0121790Y0090918D02*
X0094446Y0090918D01*
X0094446Y0089320D02*
X0096594Y0089320D01*
X0095683Y0087721D02*
X0094446Y0087721D01*
X0094446Y0086123D02*
X0095529Y0086123D01*
X0096008Y0084524D02*
X0094446Y0084524D01*
X0094446Y0082926D02*
X0097420Y0082926D01*
X0098894Y0080715D02*
X0097350Y0080076D01*
X0096169Y0078894D01*
X0095529Y0077350D01*
X0095529Y0075680D01*
X0096169Y0074136D01*
X0097350Y0072954D01*
X0098894Y0072315D01*
X0105765Y0072315D01*
X0107308Y0072954D01*
X0108490Y0074136D01*
X0109129Y0075680D01*
X0109129Y0077350D01*
X0108490Y0078894D01*
X0107308Y0080076D01*
X0105765Y0080715D01*
X0098894Y0080715D01*
X0097003Y0079729D02*
X0094446Y0079729D01*
X0094446Y0081327D02*
X0124243Y0081327D01*
X0122645Y0082926D02*
X0107239Y0082926D01*
X0108651Y0084524D02*
X0121790Y0084524D01*
X0121790Y0086123D02*
X0109129Y0086123D01*
X0108976Y0087721D02*
X0121790Y0087721D01*
X0127003Y0079729D02*
X0107655Y0079729D01*
X0108806Y0078130D02*
X0125852Y0078130D01*
X0125529Y0076532D02*
X0109129Y0076532D01*
X0108820Y0074933D02*
X0125838Y0074933D01*
X0126970Y0073334D02*
X0107688Y0073334D01*
X0107159Y0070137D02*
X0127500Y0070137D01*
X0127350Y0070076D02*
X0126169Y0068894D01*
X0125529Y0067350D01*
X0125529Y0065680D01*
X0126169Y0064136D01*
X0127350Y0062954D01*
X0128894Y0062315D01*
X0135765Y0062315D01*
X0137308Y0062954D01*
X0138490Y0064136D01*
X0139129Y0065680D01*
X0139129Y0067350D01*
X0138490Y0068894D01*
X0137308Y0070076D01*
X0135765Y0070715D01*
X0128894Y0070715D01*
X0127350Y0070076D01*
X0126021Y0068539D02*
X0108637Y0068539D01*
X0108490Y0068894D02*
X0107308Y0070076D01*
X0105765Y0070715D01*
X0098894Y0070715D01*
X0097350Y0070076D01*
X0096169Y0068894D01*
X0095529Y0067350D01*
X0095529Y0065680D01*
X0096169Y0064136D01*
X0097350Y0062954D01*
X0098894Y0062315D01*
X0105765Y0062315D01*
X0107308Y0062954D01*
X0108490Y0064136D01*
X0109129Y0065680D01*
X0109129Y0067350D01*
X0108490Y0068894D01*
X0109129Y0066940D02*
X0125529Y0066940D01*
X0125669Y0065342D02*
X0108989Y0065342D01*
X0108097Y0063743D02*
X0126561Y0063743D01*
X0127350Y0060076D02*
X0128894Y0060715D01*
X0135765Y0060715D01*
X0137308Y0060076D01*
X0138490Y0058894D01*
X0139129Y0057350D01*
X0139129Y0055680D01*
X0138490Y0054136D01*
X0137308Y0052954D01*
X0135765Y0052315D01*
X0128894Y0052315D01*
X0127350Y0052954D01*
X0126169Y0054136D01*
X0125529Y0055680D01*
X0125529Y0057350D01*
X0126169Y0058894D01*
X0127350Y0060076D01*
X0128487Y0060546D02*
X0106171Y0060546D01*
X0105765Y0060715D02*
X0098894Y0060715D01*
X0097350Y0060076D01*
X0096169Y0058894D01*
X0095529Y0057350D01*
X0095529Y0055680D01*
X0096169Y0054136D01*
X0097350Y0052954D01*
X0098894Y0052315D01*
X0105765Y0052315D01*
X0107308Y0052954D01*
X0108490Y0054136D01*
X0109129Y0055680D01*
X0109129Y0057350D01*
X0108490Y0058894D01*
X0107308Y0060076D01*
X0105765Y0060715D01*
X0108436Y0058948D02*
X0126222Y0058948D01*
X0125529Y0057349D02*
X0109129Y0057349D01*
X0109129Y0055751D02*
X0125529Y0055751D01*
X0126162Y0054152D02*
X0108497Y0054152D01*
X0106341Y0052554D02*
X0128317Y0052554D01*
X0136341Y0052554D02*
X0155138Y0052554D01*
X0155284Y0054152D02*
X0138497Y0054152D01*
X0139129Y0055751D02*
X0154405Y0055751D01*
X0154244Y0057349D02*
X0139129Y0057349D01*
X0138436Y0058948D02*
X0154244Y0058948D01*
X0154244Y0060546D02*
X0136171Y0060546D01*
X0138097Y0063743D02*
X0154349Y0063743D01*
X0154244Y0062145D02*
X0094446Y0062145D01*
X0094446Y0063743D02*
X0096561Y0063743D01*
X0095669Y0065342D02*
X0094446Y0065342D01*
X0094446Y0066940D02*
X0095529Y0066940D01*
X0096021Y0068539D02*
X0094446Y0068539D01*
X0094446Y0070137D02*
X0097500Y0070137D01*
X0096970Y0073334D02*
X0094446Y0073334D01*
X0094446Y0071736D02*
X0153782Y0071736D01*
X0155321Y0070137D02*
X0137159Y0070137D01*
X0138637Y0068539D02*
X0156860Y0068539D01*
X0157589Y0066940D02*
X0139129Y0066940D01*
X0138989Y0065342D02*
X0155149Y0065342D01*
X0143215Y0073334D02*
X0137688Y0073334D01*
X0138820Y0074933D02*
X0142092Y0074933D01*
X0140123Y0076532D02*
X0139129Y0076532D01*
X0165349Y0082926D02*
X0165942Y0082926D01*
X0165899Y0084524D02*
X0164908Y0084524D01*
X0165791Y0081327D02*
X0165984Y0081327D01*
X0169770Y0099823D02*
X0171125Y0110628D01*
X0171225Y0110728D01*
X0171226Y0111432D01*
X0171313Y0112131D01*
X0171226Y0112243D01*
X0171239Y0139201D01*
X0171929Y0137673D01*
X0171789Y0137335D01*
X0171789Y0135665D01*
X0172428Y0134121D01*
X0173610Y0132939D01*
X0175154Y0132300D01*
X0182024Y0132300D01*
X0182195Y0132371D01*
X0183162Y0130229D01*
X0182024Y0130700D01*
X0175154Y0130700D01*
X0173610Y0130061D01*
X0172428Y0128879D01*
X0171789Y0127335D01*
X0171789Y0125665D01*
X0172428Y0124121D01*
X0173610Y0122939D01*
X0175154Y0122300D01*
X0182024Y0122300D01*
X0183568Y0122939D01*
X0184549Y0123921D01*
X0184614Y0122717D01*
X0184614Y0120652D01*
X0184411Y0109501D01*
X0184055Y0109856D01*
X0183495Y0110263D01*
X0182878Y0110578D01*
X0182219Y0110792D01*
X0181535Y0110900D01*
X0178589Y0110900D01*
X0178589Y0106500D01*
X0178589Y0106500D01*
X0178589Y0110900D01*
X0175643Y0110900D01*
X0174959Y0110792D01*
X0174300Y0110578D01*
X0173683Y0110263D01*
X0173123Y0109856D01*
X0172633Y0109366D01*
X0172226Y0108806D01*
X0171911Y0108189D01*
X0171697Y0107530D01*
X0171589Y0106846D01*
X0171589Y0106500D01*
X0178589Y0106500D01*
X0178589Y0106500D01*
X0171589Y0106500D01*
X0171589Y0106154D01*
X0171697Y0105470D01*
X0171911Y0104811D01*
X0172226Y0104194D01*
X0172633Y0103634D01*
X0173123Y0103144D01*
X0173683Y0102737D01*
X0174036Y0102557D01*
X0172862Y0102302D01*
X0172249Y0102302D01*
X0172078Y0102132D01*
X0171843Y0102080D01*
X0171511Y0101564D01*
X0169770Y0099823D01*
X0169856Y0100509D02*
X0170456Y0100509D01*
X0170056Y0102108D02*
X0171969Y0102108D01*
X0172580Y0103706D02*
X0170257Y0103706D01*
X0170457Y0105305D02*
X0171751Y0105305D01*
X0171598Y0106903D02*
X0170658Y0106903D01*
X0170858Y0108502D02*
X0172071Y0108502D01*
X0171059Y0110100D02*
X0173459Y0110100D01*
X0171259Y0111699D02*
X0184451Y0111699D01*
X0184480Y0113297D02*
X0171226Y0113297D01*
X0171227Y0114896D02*
X0184509Y0114896D01*
X0184538Y0116494D02*
X0171228Y0116494D01*
X0171229Y0118093D02*
X0184568Y0118093D01*
X0184597Y0119691D02*
X0171229Y0119691D01*
X0171230Y0121290D02*
X0184614Y0121290D01*
X0184605Y0122888D02*
X0183445Y0122888D01*
X0173733Y0122888D02*
X0171231Y0122888D01*
X0171232Y0124487D02*
X0172277Y0124487D01*
X0171789Y0126085D02*
X0171233Y0126085D01*
X0171233Y0127684D02*
X0171933Y0127684D01*
X0171234Y0129282D02*
X0172832Y0129282D01*
X0171235Y0130881D02*
X0182867Y0130881D01*
X0174720Y0132479D02*
X0171236Y0132479D01*
X0171236Y0134078D02*
X0172471Y0134078D01*
X0171789Y0135676D02*
X0171237Y0135676D01*
X0171238Y0137275D02*
X0171789Y0137275D01*
X0171387Y0138873D02*
X0171239Y0138873D01*
X0167241Y0143669D02*
X0154571Y0143669D01*
X0155415Y0145268D02*
X0167242Y0145268D01*
X0167242Y0146866D02*
X0155586Y0146866D01*
X0155126Y0148465D02*
X0167243Y0148465D01*
X0167244Y0150063D02*
X0153771Y0150063D01*
X0154172Y0153260D02*
X0167245Y0153260D01*
X0167245Y0151662D02*
X0142741Y0151662D01*
X0142735Y0153260D02*
X0143006Y0153260D01*
X0142748Y0150063D02*
X0143407Y0150063D01*
X0148589Y0150063D02*
X0148589Y0150063D01*
X0148589Y0148465D02*
X0148589Y0148465D01*
X0148589Y0146866D02*
X0148589Y0146866D01*
X0148589Y0145268D02*
X0148589Y0145268D01*
X0148589Y0143669D02*
X0148589Y0143669D01*
X0148589Y0153260D02*
X0148589Y0153260D01*
X0148589Y0154859D02*
X0148589Y0154859D01*
X0148589Y0156457D02*
X0148589Y0156457D01*
X0148589Y0158056D02*
X0148589Y0158056D01*
X0148589Y0159654D02*
X0148589Y0159654D01*
X0154257Y0159654D02*
X0167300Y0159654D01*
X0167213Y0158056D02*
X0155310Y0158056D01*
X0155589Y0156457D02*
X0167247Y0156457D01*
X0167246Y0154859D02*
X0155282Y0154859D01*
X0153355Y0162851D02*
X0167474Y0162851D01*
X0167387Y0161253D02*
X0142702Y0161253D01*
X0142709Y0159654D02*
X0142921Y0159654D01*
X0143382Y0162851D02*
X0143823Y0162851D01*
X0154886Y0164450D02*
X0167561Y0164450D01*
X0167648Y0166048D02*
X0155389Y0166048D01*
X0155260Y0167647D02*
X0167735Y0167647D01*
X0167822Y0169245D02*
X0154383Y0169245D01*
X0155169Y0170844D02*
X0167909Y0170844D01*
X0167996Y0172442D02*
X0156673Y0172442D01*
X0158272Y0174041D02*
X0168083Y0174041D01*
X0168170Y0175639D02*
X0158838Y0175639D01*
X0159552Y0177238D02*
X0168257Y0177238D01*
X0168344Y0178836D02*
X0160267Y0178836D01*
X0160981Y0180435D02*
X0168431Y0180435D01*
X0168518Y0182033D02*
X0161696Y0182033D01*
X0162410Y0183632D02*
X0168605Y0183632D01*
X0168692Y0185230D02*
X0163125Y0185230D01*
X0163839Y0186829D02*
X0168779Y0186829D01*
X0168866Y0188427D02*
X0164554Y0188427D01*
X0165268Y0190026D02*
X0169073Y0190026D01*
X0169268Y0191624D02*
X0165982Y0191624D01*
X0166697Y0193223D02*
X0169464Y0193223D01*
X0169659Y0194821D02*
X0167411Y0194821D01*
X0168126Y0196420D02*
X0169854Y0196420D01*
X0173884Y0196420D02*
X0184227Y0196420D01*
X0184028Y0196671D02*
X0191789Y0186890D01*
X0191789Y0185665D01*
X0191929Y0185327D01*
X0189324Y0179555D01*
X0189228Y0179509D01*
X0188989Y0178813D01*
X0188686Y0178142D01*
X0188724Y0178043D01*
X0185199Y0167793D01*
X0184750Y0168879D01*
X0183568Y0170061D01*
X0182024Y0170700D01*
X0175154Y0170700D01*
X0173610Y0170061D01*
X0172428Y0168879D01*
X0171789Y0167335D01*
X0171789Y0165665D01*
X0172428Y0164121D01*
X0173610Y0162939D01*
X0174362Y0162628D01*
X0172862Y0162302D01*
X0172249Y0162302D01*
X0172078Y0162132D01*
X0171843Y0162080D01*
X0171511Y0161564D01*
X0171404Y0161457D01*
X0172132Y0174836D01*
X0172428Y0174121D01*
X0173610Y0172939D01*
X0175154Y0172300D01*
X0182024Y0172300D01*
X0183568Y0172939D01*
X0184750Y0174121D01*
X0185389Y0175665D01*
X0185389Y0177335D01*
X0184750Y0178879D01*
X0183568Y0180061D01*
X0182024Y0180700D01*
X0175154Y0180700D01*
X0173610Y0180061D01*
X0172428Y0178879D01*
X0172341Y0178668D01*
X0172627Y0183922D01*
X0173610Y0182939D01*
X0175154Y0182300D01*
X0182024Y0182300D01*
X0183568Y0182939D01*
X0184750Y0184121D01*
X0185389Y0185665D01*
X0185389Y0187335D01*
X0184750Y0188879D01*
X0183568Y0190061D01*
X0182024Y0190700D01*
X0175154Y0190700D01*
X0173610Y0190061D01*
X0173037Y0189488D01*
X0173908Y0196621D01*
X0175526Y0197292D01*
X0177017Y0198782D01*
X0177524Y0200006D01*
X0178030Y0198782D01*
X0179521Y0197292D01*
X0181469Y0196485D01*
X0183578Y0196485D01*
X0184028Y0196671D01*
X0185496Y0194821D02*
X0173688Y0194821D01*
X0173493Y0193223D02*
X0186764Y0193223D01*
X0188033Y0191624D02*
X0173298Y0191624D01*
X0173103Y0190026D02*
X0173575Y0190026D01*
X0172917Y0183632D02*
X0172611Y0183632D01*
X0172524Y0182033D02*
X0190442Y0182033D01*
X0189721Y0180435D02*
X0182665Y0180435D01*
X0184767Y0178836D02*
X0188997Y0178836D01*
X0188447Y0177238D02*
X0185389Y0177238D01*
X0185378Y0175639D02*
X0187897Y0175639D01*
X0187348Y0174041D02*
X0184669Y0174041D01*
X0186798Y0172442D02*
X0182368Y0172442D01*
X0184383Y0169245D02*
X0185699Y0169245D01*
X0186248Y0170844D02*
X0171915Y0170844D01*
X0172002Y0172442D02*
X0174810Y0172442D01*
X0172509Y0174041D02*
X0172089Y0174041D01*
X0172350Y0178836D02*
X0172411Y0178836D01*
X0172437Y0180435D02*
X0174513Y0180435D01*
X0184260Y0183632D02*
X0191163Y0183632D01*
X0191885Y0185230D02*
X0185209Y0185230D01*
X0185389Y0186829D02*
X0191789Y0186829D01*
X0190569Y0188427D02*
X0184937Y0188427D01*
X0183603Y0190026D02*
X0189301Y0190026D01*
X0193139Y0191624D02*
X0213528Y0191624D01*
X0213220Y0190026D02*
X0203603Y0190026D01*
X0203568Y0190061D02*
X0202024Y0190700D01*
X0195154Y0190700D01*
X0194189Y0190301D01*
X0187168Y0199149D01*
X0187524Y0200006D01*
X0188030Y0198782D01*
X0189521Y0197292D01*
X0191469Y0196485D01*
X0193578Y0196485D01*
X0195526Y0197292D01*
X0197017Y0198782D01*
X0197824Y0200730D01*
X0197824Y0202839D01*
X0197058Y0204687D01*
X0202989Y0204687D01*
X0202224Y0202839D01*
X0202224Y0200730D01*
X0203030Y0198782D01*
X0204521Y0197292D01*
X0206469Y0196485D01*
X0208578Y0196485D01*
X0210526Y0197292D01*
X0212017Y0198782D01*
X0212524Y0200006D01*
X0213030Y0198782D01*
X0214521Y0197292D01*
X0214613Y0197253D01*
X0208432Y0165187D01*
X0208341Y0167744D01*
X0208492Y0168142D01*
X0208313Y0168539D01*
X0208297Y0168974D01*
X0207985Y0169264D01*
X0205249Y0175327D01*
X0205389Y0175665D01*
X0205389Y0177335D01*
X0204750Y0178879D01*
X0203568Y0180061D01*
X0202024Y0180700D01*
X0195154Y0180700D01*
X0194016Y0180229D01*
X0194983Y0182371D01*
X0195154Y0182300D01*
X0202024Y0182300D01*
X0203568Y0182939D01*
X0204750Y0184121D01*
X0205389Y0185665D01*
X0205389Y0187335D01*
X0204750Y0188879D01*
X0203568Y0190061D01*
X0204937Y0188427D02*
X0212912Y0188427D01*
X0212604Y0186829D02*
X0205389Y0186829D01*
X0205209Y0185230D02*
X0212296Y0185230D01*
X0211988Y0183632D02*
X0204260Y0183632D01*
X0202665Y0180435D02*
X0211371Y0180435D01*
X0211679Y0182033D02*
X0194830Y0182033D01*
X0194513Y0180435D02*
X0194109Y0180435D01*
X0191979Y0175207D02*
X0192428Y0174121D01*
X0193610Y0172939D01*
X0195154Y0172300D01*
X0202024Y0172300D01*
X0202195Y0172371D01*
X0203162Y0170229D01*
X0202024Y0170700D01*
X0195154Y0170700D01*
X0193610Y0170061D01*
X0192428Y0168879D01*
X0191789Y0167335D01*
X0191789Y0165665D01*
X0192428Y0164121D01*
X0193610Y0162939D01*
X0195149Y0162302D01*
X0192249Y0162302D01*
X0189493Y0159546D01*
X0185940Y0156525D01*
X0185889Y0156527D01*
X0185389Y0156062D01*
X0185389Y0157335D01*
X0184750Y0158879D01*
X0183568Y0160061D01*
X0182816Y0160372D01*
X0184316Y0160698D01*
X0184929Y0160698D01*
X0185100Y0160868D01*
X0185335Y0160920D01*
X0185667Y0161436D01*
X0187506Y0163275D01*
X0187950Y0163491D01*
X0188069Y0163838D01*
X0188328Y0164097D01*
X0188328Y0164591D01*
X0191979Y0175207D01*
X0191578Y0174041D02*
X0192509Y0174041D01*
X0191028Y0172442D02*
X0194810Y0172442D01*
X0192794Y0169245D02*
X0189928Y0169245D01*
X0189379Y0167647D02*
X0191918Y0167647D01*
X0191789Y0166048D02*
X0188829Y0166048D01*
X0188328Y0164450D02*
X0192292Y0164450D01*
X0193823Y0162851D02*
X0187082Y0162851D01*
X0185549Y0161253D02*
X0191199Y0161253D01*
X0189601Y0159654D02*
X0183975Y0159654D01*
X0185091Y0158056D02*
X0187740Y0158056D01*
X0185814Y0156457D02*
X0185389Y0156457D01*
X0173823Y0162851D02*
X0171480Y0162851D01*
X0171567Y0164450D02*
X0172292Y0164450D01*
X0171789Y0166048D02*
X0171654Y0166048D01*
X0171741Y0167647D02*
X0171918Y0167647D01*
X0171828Y0169245D02*
X0172794Y0169245D01*
X0190478Y0170844D02*
X0202884Y0170844D01*
X0206551Y0172442D02*
X0209831Y0172442D01*
X0209523Y0170844D02*
X0207273Y0170844D01*
X0208006Y0169245D02*
X0209214Y0169245D01*
X0208906Y0167647D02*
X0208344Y0167647D01*
X0208401Y0166048D02*
X0208598Y0166048D01*
X0210139Y0174041D02*
X0205830Y0174041D01*
X0205378Y0175639D02*
X0210447Y0175639D01*
X0210755Y0177238D02*
X0205389Y0177238D01*
X0204767Y0178836D02*
X0211063Y0178836D01*
X0213836Y0193223D02*
X0191871Y0193223D01*
X0190602Y0194821D02*
X0214145Y0194821D01*
X0214453Y0196420D02*
X0189334Y0196420D01*
X0188795Y0198018D02*
X0188065Y0198018D01*
X0187685Y0199617D02*
X0187362Y0199617D01*
X0178795Y0198018D02*
X0176253Y0198018D01*
X0177362Y0199617D02*
X0177685Y0199617D01*
X0168588Y0207609D02*
X0095882Y0207609D01*
X0094935Y0206011D02*
X0099255Y0206011D01*
X0097875Y0204412D02*
X0094495Y0204412D01*
X0094446Y0202814D02*
X0097224Y0202814D01*
X0097224Y0201215D02*
X0094446Y0201215D01*
X0094446Y0199617D02*
X0097685Y0199617D01*
X0098795Y0198018D02*
X0094446Y0198018D01*
X0094446Y0196420D02*
X0131237Y0196420D01*
X0132324Y0196420D02*
X0132724Y0196420D01*
X0133810Y0196420D02*
X0149726Y0196420D01*
X0148795Y0198018D02*
X0146253Y0198018D01*
X0147362Y0199617D02*
X0147685Y0199617D01*
X0147875Y0204412D02*
X0147172Y0204412D01*
X0145793Y0206011D02*
X0149255Y0206011D01*
X0155793Y0206011D02*
X0159255Y0206011D01*
X0157875Y0204412D02*
X0157172Y0204412D01*
X0165793Y0206011D02*
X0166989Y0206011D01*
X0161469Y0196485D02*
X0159521Y0197292D01*
X0159337Y0197476D01*
X0156277Y0195594D01*
X0156267Y0195560D01*
X0155575Y0195163D01*
X0154896Y0194745D01*
X0154861Y0194753D01*
X0147792Y0190700D01*
X0152024Y0190700D01*
X0153568Y0190061D01*
X0154750Y0188879D01*
X0155389Y0187335D01*
X0155389Y0185665D01*
X0154750Y0184121D01*
X0153568Y0182939D01*
X0152024Y0182300D01*
X0145154Y0182300D01*
X0143617Y0182936D01*
X0140240Y0179981D01*
X0140101Y0179646D01*
X0139641Y0179456D01*
X0139551Y0179377D01*
X0139372Y0179172D01*
X0139312Y0179168D01*
X0139266Y0179128D01*
X0138990Y0179146D01*
X0138871Y0179138D01*
X0138429Y0178955D01*
X0138490Y0178894D01*
X0139129Y0177350D01*
X0139129Y0175718D01*
X0141789Y0177196D01*
X0141789Y0177335D01*
X0142428Y0178879D01*
X0143610Y0180061D01*
X0145154Y0180700D01*
X0152024Y0180700D01*
X0153568Y0180061D01*
X0154750Y0178879D01*
X0155305Y0177538D01*
X0163818Y0196584D01*
X0163578Y0196485D01*
X0161469Y0196485D01*
X0163745Y0196420D02*
X0157619Y0196420D01*
X0155020Y0194821D02*
X0163030Y0194821D01*
X0162316Y0193223D02*
X0152192Y0193223D01*
X0149404Y0191624D02*
X0161601Y0191624D01*
X0160887Y0190026D02*
X0153603Y0190026D01*
X0154937Y0188427D02*
X0160172Y0188427D01*
X0159458Y0186829D02*
X0155389Y0186829D01*
X0155209Y0185230D02*
X0158743Y0185230D01*
X0158029Y0183632D02*
X0154260Y0183632D01*
X0157314Y0182033D02*
X0142585Y0182033D01*
X0140759Y0180435D02*
X0144513Y0180435D01*
X0142411Y0178836D02*
X0138514Y0178836D01*
X0139129Y0177238D02*
X0141789Y0177238D01*
X0152665Y0180435D02*
X0156600Y0180435D01*
X0155885Y0178836D02*
X0154767Y0178836D01*
X0139973Y0190026D02*
X0137358Y0190026D01*
X0138683Y0188427D02*
X0138850Y0188427D01*
X0141363Y0191624D02*
X0094446Y0191624D01*
X0094446Y0190026D02*
X0097300Y0190026D01*
X0097350Y0190076D02*
X0096169Y0188894D01*
X0095529Y0187350D01*
X0095529Y0185680D01*
X0096169Y0184136D01*
X0097350Y0182954D01*
X0098894Y0182315D01*
X0105765Y0182315D01*
X0107308Y0182954D01*
X0108490Y0184136D01*
X0109129Y0185680D01*
X0109129Y0187350D01*
X0108490Y0188894D01*
X0107308Y0190076D01*
X0105765Y0190715D01*
X0098894Y0190715D01*
X0097350Y0190076D01*
X0095975Y0188427D02*
X0094446Y0188427D01*
X0094446Y0186829D02*
X0095529Y0186829D01*
X0095715Y0185230D02*
X0094446Y0185230D01*
X0094446Y0183632D02*
X0096673Y0183632D01*
X0094446Y0182033D02*
X0123053Y0182033D01*
X0125089Y0183632D02*
X0107986Y0183632D01*
X0108943Y0185230D02*
X0125715Y0185230D01*
X0125529Y0186829D02*
X0109129Y0186829D01*
X0108683Y0188427D02*
X0125975Y0188427D01*
X0127300Y0190026D02*
X0107358Y0190026D01*
X0106253Y0198018D02*
X0108795Y0198018D01*
X0107685Y0199617D02*
X0107362Y0199617D01*
X0107172Y0204412D02*
X0107875Y0204412D01*
X0109255Y0206011D02*
X0105793Y0206011D01*
X0097793Y0209208D02*
X0284345Y0209208D01*
X0286257Y0207609D02*
X0261460Y0207609D01*
X0263058Y0206011D02*
X0264255Y0206011D01*
X0270793Y0206011D02*
X0274255Y0206011D01*
X0272875Y0204412D02*
X0272172Y0204412D01*
X0272362Y0199617D02*
X0272685Y0199617D01*
X0273795Y0198018D02*
X0271253Y0198018D01*
X0266598Y0196420D02*
X0287693Y0196420D01*
X0287693Y0198018D02*
X0281253Y0198018D01*
X0282362Y0199617D02*
X0287693Y0199617D01*
X0287693Y0201215D02*
X0282824Y0201215D01*
X0282824Y0202814D02*
X0287693Y0202814D01*
X0287643Y0204412D02*
X0282172Y0204412D01*
X0280793Y0206011D02*
X0287204Y0206011D01*
X0287693Y0194821D02*
X0267425Y0194821D01*
X0268252Y0193223D02*
X0287693Y0193223D01*
X0287693Y0191624D02*
X0269079Y0191624D01*
X0269906Y0190026D02*
X0273356Y0190026D01*
X0272033Y0188427D02*
X0270733Y0188427D01*
X0271560Y0186829D02*
X0271589Y0186829D01*
X0267884Y0185230D02*
X0258355Y0185230D01*
X0258468Y0186829D02*
X0267057Y0186829D01*
X0266230Y0188427D02*
X0258581Y0188427D01*
X0258695Y0190026D02*
X0265403Y0190026D01*
X0264576Y0191624D02*
X0258808Y0191624D01*
X0258921Y0193223D02*
X0263749Y0193223D01*
X0262922Y0194821D02*
X0259035Y0194821D01*
X0259148Y0196420D02*
X0262095Y0196420D01*
X0261268Y0198018D02*
X0261253Y0198018D01*
X0255181Y0197018D02*
X0254613Y0189016D01*
X0253568Y0190061D01*
X0252024Y0190700D01*
X0245154Y0190700D01*
X0244150Y0190284D01*
X0247168Y0196485D01*
X0248578Y0196485D01*
X0250526Y0197292D01*
X0252017Y0198782D01*
X0252524Y0200006D01*
X0253030Y0198782D01*
X0254521Y0197292D01*
X0255181Y0197018D01*
X0255138Y0196420D02*
X0247137Y0196420D01*
X0246358Y0194821D02*
X0255025Y0194821D01*
X0254911Y0193223D02*
X0245580Y0193223D01*
X0244802Y0191624D02*
X0254798Y0191624D01*
X0254685Y0190026D02*
X0253603Y0190026D01*
X0257889Y0183632D02*
X0268711Y0183632D01*
X0269538Y0182033D02*
X0256264Y0182033D01*
X0254767Y0178836D02*
X0271192Y0178836D01*
X0271789Y0177238D02*
X0255389Y0177238D01*
X0255378Y0175639D02*
X0271799Y0175639D01*
X0272509Y0174041D02*
X0254669Y0174041D01*
X0252368Y0172442D02*
X0274810Y0172442D01*
X0272794Y0169245D02*
X0254383Y0169245D01*
X0254750Y0168879D02*
X0253568Y0170061D01*
X0252024Y0170700D01*
X0245154Y0170700D01*
X0243610Y0170061D01*
X0242428Y0168879D01*
X0241789Y0167335D01*
X0241789Y0165665D01*
X0242428Y0164121D01*
X0243610Y0162939D01*
X0245154Y0162300D01*
X0252024Y0162300D01*
X0253568Y0162939D01*
X0254750Y0164121D01*
X0255389Y0165665D01*
X0255389Y0167335D01*
X0254750Y0168879D01*
X0255260Y0167647D02*
X0271918Y0167647D01*
X0271644Y0166048D02*
X0255389Y0166048D01*
X0254886Y0164450D02*
X0270287Y0164450D01*
X0268929Y0162851D02*
X0253355Y0162851D01*
X0252024Y0160700D02*
X0245154Y0160700D01*
X0243610Y0160061D01*
X0242428Y0158879D01*
X0241789Y0157335D01*
X0241789Y0155665D01*
X0242428Y0154121D01*
X0243610Y0152939D01*
X0245154Y0152300D01*
X0252024Y0152300D01*
X0253568Y0152939D01*
X0254750Y0154121D01*
X0255389Y0155665D01*
X0255389Y0157335D01*
X0254750Y0158879D01*
X0253568Y0160061D01*
X0252024Y0160700D01*
X0253975Y0159654D02*
X0266214Y0159654D01*
X0267571Y0161253D02*
X0235549Y0161253D01*
X0237082Y0162851D02*
X0243823Y0162851D01*
X0242292Y0164450D02*
X0238328Y0164450D01*
X0238843Y0166048D02*
X0241789Y0166048D01*
X0241918Y0167647D02*
X0239405Y0167647D01*
X0239967Y0169245D02*
X0242794Y0169245D01*
X0240529Y0170844D02*
X0282884Y0170844D01*
X0286551Y0172442D02*
X0287693Y0172442D01*
X0287693Y0170844D02*
X0287273Y0170844D01*
X0287693Y0174041D02*
X0285830Y0174041D01*
X0285378Y0175639D02*
X0287693Y0175639D01*
X0287693Y0177238D02*
X0285389Y0177238D01*
X0284767Y0178836D02*
X0287693Y0178836D01*
X0287693Y0180435D02*
X0282665Y0180435D01*
X0284543Y0183632D02*
X0287693Y0183632D01*
X0287693Y0185230D02*
X0285403Y0185230D01*
X0285589Y0186829D02*
X0287693Y0186829D01*
X0287693Y0188427D02*
X0285145Y0188427D01*
X0283822Y0190026D02*
X0287693Y0190026D01*
X0278589Y0190026D02*
X0278589Y0190026D01*
X0278589Y0188427D02*
X0278589Y0188427D01*
X0278589Y0186829D02*
X0278589Y0186829D01*
X0278589Y0185230D02*
X0278589Y0185230D01*
X0278589Y0183632D02*
X0278589Y0183632D01*
X0274041Y0182033D02*
X0287693Y0182033D01*
X0270365Y0180435D02*
X0253104Y0180435D01*
X0242509Y0174041D02*
X0241653Y0174041D01*
X0241091Y0172442D02*
X0244810Y0172442D01*
X0243203Y0159654D02*
X0233975Y0159654D01*
X0235091Y0158056D02*
X0242087Y0158056D01*
X0241789Y0156457D02*
X0235389Y0156457D01*
X0235055Y0154859D02*
X0242123Y0154859D01*
X0243289Y0153260D02*
X0233889Y0153260D01*
X0232878Y0150578D02*
X0232219Y0150792D01*
X0231535Y0150900D01*
X0228589Y0150900D01*
X0228589Y0146500D01*
X0235589Y0146500D01*
X0235589Y0146846D01*
X0235481Y0147530D01*
X0235267Y0148189D01*
X0234952Y0148806D01*
X0234545Y0149366D01*
X0234055Y0149856D01*
X0233495Y0150263D01*
X0232878Y0150578D01*
X0233771Y0150063D02*
X0243616Y0150063D01*
X0242257Y0148465D02*
X0235126Y0148465D01*
X0235586Y0146866D02*
X0241789Y0146866D01*
X0241953Y0145268D02*
X0235415Y0145268D01*
X0235481Y0145470D02*
X0235267Y0144811D01*
X0234952Y0144194D01*
X0234545Y0143634D01*
X0234055Y0143144D01*
X0233495Y0142737D01*
X0232878Y0142422D01*
X0232219Y0142208D01*
X0231535Y0142100D01*
X0228589Y0142100D01*
X0228589Y0146500D01*
X0228589Y0146500D01*
X0228589Y0146500D01*
X0235589Y0146500D01*
X0235589Y0146154D01*
X0235481Y0145470D01*
X0234571Y0143669D02*
X0242880Y0143669D01*
X0241836Y0142070D02*
X0219944Y0142070D01*
X0219522Y0140472D02*
X0224603Y0140472D01*
X0225154Y0140700D02*
X0223610Y0140061D01*
X0222428Y0138879D01*
X0221789Y0137335D01*
X0221789Y0135665D01*
X0222428Y0134121D01*
X0223610Y0132939D01*
X0225154Y0132300D01*
X0232024Y0132300D01*
X0233568Y0132939D01*
X0234750Y0134121D01*
X0235389Y0135665D01*
X0235389Y0137335D01*
X0234750Y0138879D01*
X0233568Y0140061D01*
X0232024Y0140700D01*
X0225154Y0140700D01*
X0225643Y0142100D02*
X0228589Y0142100D01*
X0228589Y0146500D01*
X0228589Y0146500D01*
X0228589Y0150900D01*
X0225643Y0150900D01*
X0224959Y0150792D01*
X0224300Y0150578D01*
X0223683Y0150263D01*
X0223123Y0149856D01*
X0222633Y0149366D01*
X0222226Y0148806D01*
X0221911Y0148189D01*
X0221697Y0147530D01*
X0221589Y0146846D01*
X0221589Y0146500D01*
X0228589Y0146500D01*
X0228589Y0146500D01*
X0221589Y0146500D01*
X0221589Y0146154D01*
X0221697Y0145470D01*
X0221911Y0144811D01*
X0222226Y0144194D01*
X0222633Y0143634D01*
X0223123Y0143144D01*
X0223683Y0142737D01*
X0224300Y0142422D01*
X0224959Y0142208D01*
X0225643Y0142100D01*
X0228589Y0143669D02*
X0228589Y0143669D01*
X0228589Y0145268D02*
X0228589Y0145268D01*
X0228589Y0146866D02*
X0228589Y0146866D01*
X0228589Y0148465D02*
X0228589Y0148465D01*
X0228589Y0150063D02*
X0228589Y0150063D01*
X0223407Y0150063D02*
X0221518Y0150063D01*
X0221247Y0148465D02*
X0222052Y0148465D01*
X0221592Y0146866D02*
X0220976Y0146866D01*
X0220704Y0145268D02*
X0221763Y0145268D01*
X0222607Y0143669D02*
X0220433Y0143669D01*
X0219101Y0138873D02*
X0222426Y0138873D01*
X0221789Y0137275D02*
X0218679Y0137275D01*
X0218258Y0135676D02*
X0221789Y0135676D01*
X0222471Y0134078D02*
X0217836Y0134078D01*
X0217415Y0132479D02*
X0224720Y0132479D01*
X0222832Y0129282D02*
X0216571Y0129282D01*
X0216150Y0127684D02*
X0221933Y0127684D01*
X0221789Y0126085D02*
X0215728Y0126085D01*
X0215307Y0124487D02*
X0221549Y0124487D01*
X0220828Y0122888D02*
X0214885Y0122888D01*
X0214464Y0121290D02*
X0220107Y0121290D01*
X0219385Y0119691D02*
X0214042Y0119691D01*
X0213621Y0118093D02*
X0218705Y0118093D01*
X0218204Y0116494D02*
X0213199Y0116494D01*
X0212777Y0114896D02*
X0217663Y0114896D01*
X0217122Y0113297D02*
X0212356Y0113297D01*
X0211934Y0111699D02*
X0216581Y0111699D01*
X0216040Y0110100D02*
X0211513Y0110100D01*
X0211091Y0108502D02*
X0215355Y0108502D01*
X0215258Y0106903D02*
X0210670Y0106903D01*
X0210248Y0105305D02*
X0215181Y0105305D01*
X0215105Y0103706D02*
X0209958Y0103706D01*
X0208849Y0102108D02*
X0215028Y0102108D01*
X0214951Y0100509D02*
X0207741Y0100509D01*
X0206632Y0098911D02*
X0214874Y0098911D01*
X0214797Y0097312D02*
X0205523Y0097312D01*
X0205389Y0095714D02*
X0214720Y0095714D01*
X0214644Y0094115D02*
X0204744Y0094115D01*
X0202547Y0092517D02*
X0214567Y0092517D01*
X0218571Y0092517D02*
X0224631Y0092517D01*
X0222434Y0094115D02*
X0218648Y0094115D01*
X0218725Y0095714D02*
X0221789Y0095714D01*
X0221789Y0097312D02*
X0218802Y0097312D01*
X0218879Y0098911D02*
X0221282Y0098911D01*
X0220517Y0100509D02*
X0218956Y0100509D01*
X0219032Y0102108D02*
X0219752Y0102108D01*
X0224186Y0102108D02*
X0239106Y0102108D01*
X0239920Y0100509D02*
X0232485Y0100509D01*
X0234718Y0098911D02*
X0240733Y0098911D01*
X0241546Y0097312D02*
X0235389Y0097312D01*
X0235389Y0095714D02*
X0241789Y0095714D01*
X0242434Y0094115D02*
X0234744Y0094115D01*
X0232547Y0092517D02*
X0244631Y0092517D01*
X0244652Y0096500D02*
X0240450Y0104759D01*
X0240450Y0108241D01*
X0240936Y0111425D01*
X0243621Y0110100D02*
X0243706Y0110100D01*
X0243610Y0110061D02*
X0243600Y0110051D01*
X0243923Y0110831D01*
X0243923Y0112019D01*
X0243494Y0113055D01*
X0243610Y0112939D01*
X0245154Y0112300D01*
X0252024Y0112300D01*
X0253568Y0112939D01*
X0254750Y0114121D01*
X0255389Y0115665D01*
X0255389Y0117335D01*
X0254750Y0118879D01*
X0253568Y0120061D01*
X0252024Y0120700D01*
X0245154Y0120700D01*
X0243610Y0120061D01*
X0242428Y0118879D01*
X0241898Y0117598D01*
X0240272Y0116984D01*
X0244338Y0122638D01*
X0245154Y0122300D01*
X0252024Y0122300D01*
X0253568Y0122939D01*
X0254750Y0124121D01*
X0255389Y0125665D01*
X0255389Y0127335D01*
X0254750Y0128879D01*
X0253568Y0130061D01*
X0252024Y0130700D01*
X0245154Y0130700D01*
X0243610Y0130061D01*
X0242428Y0128879D01*
X0241789Y0127335D01*
X0241789Y0125944D01*
X0235389Y0117045D01*
X0235389Y0117335D01*
X0234750Y0118879D01*
X0233568Y0120061D01*
X0232024Y0120700D01*
X0225154Y0120700D01*
X0224016Y0120229D01*
X0224983Y0122371D01*
X0225154Y0122300D01*
X0232024Y0122300D01*
X0233568Y0122939D01*
X0234750Y0124121D01*
X0235389Y0125665D01*
X0235389Y0127056D01*
X0241789Y0135955D01*
X0241789Y0135665D01*
X0242428Y0134121D01*
X0243610Y0132939D01*
X0245154Y0132300D01*
X0252024Y0132300D01*
X0253568Y0132939D01*
X0254750Y0134121D01*
X0255389Y0135665D01*
X0255389Y0137335D01*
X0254750Y0138879D01*
X0253568Y0140061D01*
X0252816Y0140372D01*
X0254316Y0140698D01*
X0254929Y0140698D01*
X0255100Y0140868D01*
X0255335Y0140920D01*
X0255667Y0141436D01*
X0257223Y0142991D01*
X0257316Y0142999D01*
X0257800Y0143569D01*
X0258328Y0144097D01*
X0258328Y0144190D01*
X0268307Y0155940D01*
X0255030Y0098203D01*
X0254750Y0098879D01*
X0253568Y0100061D01*
X0252024Y0100700D01*
X0245208Y0100700D01*
X0244191Y0102699D01*
X0245154Y0102300D01*
X0252024Y0102300D01*
X0253568Y0102939D01*
X0254750Y0104121D01*
X0255389Y0105665D01*
X0255389Y0107335D01*
X0254750Y0108879D01*
X0253568Y0110061D01*
X0252024Y0110700D01*
X0245154Y0110700D01*
X0243610Y0110061D01*
X0243923Y0111699D02*
X0258133Y0111699D01*
X0258501Y0113297D02*
X0253926Y0113297D01*
X0255071Y0114896D02*
X0258868Y0114896D01*
X0259236Y0116494D02*
X0255389Y0116494D01*
X0255075Y0118093D02*
X0259603Y0118093D01*
X0259971Y0119691D02*
X0253937Y0119691D01*
X0253445Y0122888D02*
X0260706Y0122888D01*
X0260339Y0121290D02*
X0243369Y0121290D01*
X0243241Y0119691D02*
X0242219Y0119691D01*
X0242103Y0118093D02*
X0241069Y0118093D01*
X0237292Y0119691D02*
X0233937Y0119691D01*
X0235075Y0118093D02*
X0236142Y0118093D01*
X0238442Y0121290D02*
X0224495Y0121290D01*
X0233445Y0122888D02*
X0239591Y0122888D01*
X0240741Y0124487D02*
X0234901Y0124487D01*
X0235389Y0126085D02*
X0241789Y0126085D01*
X0241933Y0127684D02*
X0235841Y0127684D01*
X0236990Y0129282D02*
X0242832Y0129282D01*
X0244720Y0132479D02*
X0239290Y0132479D01*
X0238140Y0130881D02*
X0262544Y0130881D01*
X0262912Y0132479D02*
X0252458Y0132479D01*
X0254707Y0134078D02*
X0263279Y0134078D01*
X0263647Y0135676D02*
X0255389Y0135676D01*
X0255389Y0137275D02*
X0264015Y0137275D01*
X0264382Y0138873D02*
X0254752Y0138873D01*
X0253276Y0140472D02*
X0264750Y0140472D01*
X0265117Y0142070D02*
X0256302Y0142070D01*
X0257900Y0143669D02*
X0265485Y0143669D01*
X0265853Y0145268D02*
X0259243Y0145268D01*
X0260600Y0146866D02*
X0266220Y0146866D01*
X0266588Y0148465D02*
X0261958Y0148465D01*
X0263316Y0150063D02*
X0266955Y0150063D01*
X0267323Y0151662D02*
X0264673Y0151662D01*
X0266031Y0153260D02*
X0267691Y0153260D01*
X0267389Y0154859D02*
X0268058Y0154859D01*
X0264856Y0158056D02*
X0255091Y0158056D01*
X0255389Y0156457D02*
X0263498Y0156457D01*
X0262141Y0154859D02*
X0255055Y0154859D01*
X0253889Y0153260D02*
X0260783Y0153260D01*
X0259425Y0151662D02*
X0221790Y0151662D01*
X0222061Y0153260D02*
X0223289Y0153260D01*
X0210733Y0154171D02*
X0210222Y0147120D01*
X0205513Y0137326D01*
X0205481Y0137530D01*
X0205267Y0138189D01*
X0204952Y0138806D01*
X0204545Y0139366D01*
X0204055Y0139856D01*
X0203495Y0140263D01*
X0202878Y0140578D01*
X0202219Y0140792D01*
X0201535Y0140900D01*
X0198589Y0140900D01*
X0198589Y0136500D01*
X0198589Y0136500D01*
X0198589Y0132100D01*
X0201535Y0132100D01*
X0202219Y0132208D01*
X0202878Y0132422D01*
X0203245Y0132609D01*
X0202276Y0130596D01*
X0202024Y0130700D01*
X0195154Y0130700D01*
X0193610Y0130061D01*
X0192498Y0128949D01*
X0192678Y0133589D01*
X0193123Y0133144D01*
X0193683Y0132737D01*
X0194300Y0132422D01*
X0194959Y0132208D01*
X0195643Y0132100D01*
X0198589Y0132100D01*
X0198589Y0136500D01*
X0198589Y0136500D01*
X0198589Y0140900D01*
X0195643Y0140900D01*
X0194959Y0140792D01*
X0194300Y0140578D01*
X0193683Y0140263D01*
X0193123Y0139856D01*
X0192922Y0139656D01*
X0192922Y0139797D01*
X0192955Y0140584D01*
X0192922Y0140619D01*
X0192922Y0141175D01*
X0192942Y0141196D01*
X0192922Y0142000D01*
X0192922Y0142804D01*
X0192902Y0142824D01*
X0192881Y0143668D01*
X0193610Y0142939D01*
X0195154Y0142300D01*
X0202024Y0142300D01*
X0203568Y0142939D01*
X0204750Y0144121D01*
X0205389Y0145665D01*
X0205389Y0147335D01*
X0204750Y0148879D01*
X0203568Y0150061D01*
X0202188Y0150632D01*
X0203771Y0150686D01*
X0204174Y0150534D01*
X0204566Y0150713D01*
X0204996Y0150727D01*
X0205290Y0151042D01*
X0208805Y0152639D01*
X0209200Y0152639D01*
X0209530Y0152968D01*
X0209954Y0153160D01*
X0210092Y0153531D01*
X0210733Y0154171D01*
X0210667Y0153260D02*
X0209991Y0153260D01*
X0210551Y0151662D02*
X0206655Y0151662D01*
X0203562Y0150063D02*
X0210436Y0150063D01*
X0210320Y0148465D02*
X0204921Y0148465D01*
X0205389Y0146866D02*
X0210100Y0146866D01*
X0209332Y0145268D02*
X0205224Y0145268D01*
X0204298Y0143669D02*
X0208563Y0143669D01*
X0207794Y0142070D02*
X0192922Y0142070D01*
X0192950Y0140472D02*
X0194093Y0140472D01*
X0198589Y0140472D02*
X0198589Y0140472D01*
X0198589Y0138873D02*
X0198589Y0138873D01*
X0198589Y0137275D02*
X0198589Y0137275D01*
X0198589Y0135676D02*
X0198589Y0135676D01*
X0198589Y0134078D02*
X0198589Y0134078D01*
X0198589Y0132479D02*
X0198589Y0132479D01*
X0202413Y0130881D02*
X0192573Y0130881D01*
X0192635Y0132479D02*
X0194188Y0132479D01*
X0192832Y0129282D02*
X0192511Y0129282D01*
X0202990Y0132479D02*
X0203182Y0132479D01*
X0204903Y0138873D02*
X0206257Y0138873D01*
X0207026Y0140472D02*
X0203085Y0140472D01*
X0216993Y0130881D02*
X0233213Y0130881D01*
X0232458Y0132479D02*
X0234363Y0132479D01*
X0234707Y0134078D02*
X0235512Y0134078D01*
X0235389Y0135676D02*
X0236662Y0135676D01*
X0237811Y0137275D02*
X0235389Y0137275D01*
X0234752Y0138873D02*
X0238850Y0138873D01*
X0240419Y0140472D02*
X0232575Y0140472D01*
X0241589Y0135676D02*
X0241789Y0135676D01*
X0242471Y0134078D02*
X0240439Y0134078D01*
X0254346Y0129282D02*
X0262177Y0129282D01*
X0261809Y0127684D02*
X0255245Y0127684D01*
X0255389Y0126085D02*
X0261441Y0126085D01*
X0261074Y0124487D02*
X0254901Y0124487D01*
X0268601Y0121290D02*
X0284328Y0121290D01*
X0284328Y0122888D02*
X0283445Y0122888D01*
X0283937Y0119691D02*
X0284328Y0119691D01*
X0284328Y0113297D02*
X0283926Y0113297D01*
X0284328Y0111699D02*
X0266136Y0111699D01*
X0266547Y0113297D02*
X0273252Y0113297D01*
X0272107Y0114896D02*
X0266958Y0114896D01*
X0267368Y0116494D02*
X0271789Y0116494D01*
X0272103Y0118093D02*
X0267779Y0118093D01*
X0268190Y0119691D02*
X0273241Y0119691D01*
X0273733Y0122888D02*
X0269012Y0122888D01*
X0269423Y0124487D02*
X0272277Y0124487D01*
X0271789Y0126085D02*
X0269833Y0126085D01*
X0270244Y0127684D02*
X0271933Y0127684D01*
X0272832Y0129282D02*
X0270655Y0129282D01*
X0271066Y0130881D02*
X0282867Y0130881D01*
X0286535Y0132479D02*
X0287693Y0132479D01*
X0287693Y0130881D02*
X0287256Y0130881D01*
X0287693Y0129913D02*
X0287693Y0163461D01*
X0287156Y0162925D01*
X0285667Y0161436D01*
X0285335Y0160920D01*
X0285100Y0160868D01*
X0284929Y0160698D01*
X0284316Y0160698D01*
X0282816Y0160372D01*
X0283568Y0160061D01*
X0284750Y0158879D01*
X0285389Y0157335D01*
X0285389Y0155665D01*
X0284750Y0154121D01*
X0283568Y0152939D01*
X0282024Y0152300D01*
X0275154Y0152300D01*
X0274983Y0152371D01*
X0274016Y0150229D01*
X0275154Y0150700D01*
X0282024Y0150700D01*
X0283568Y0150061D01*
X0284750Y0148879D01*
X0285389Y0147335D01*
X0285389Y0145665D01*
X0284750Y0144121D01*
X0283568Y0142939D01*
X0282024Y0142300D01*
X0275154Y0142300D01*
X0274983Y0142371D01*
X0274016Y0140229D01*
X0275154Y0140700D01*
X0282024Y0140700D01*
X0283568Y0140061D01*
X0284750Y0138879D01*
X0285389Y0137335D01*
X0285389Y0135665D01*
X0285249Y0135327D01*
X0287693Y0129913D01*
X0287693Y0134078D02*
X0285813Y0134078D01*
X0285389Y0135676D02*
X0287693Y0135676D01*
X0287693Y0137275D02*
X0285389Y0137275D01*
X0284752Y0138873D02*
X0287693Y0138873D01*
X0287693Y0140472D02*
X0282575Y0140472D01*
X0287693Y0142070D02*
X0274847Y0142070D01*
X0274603Y0140472D02*
X0274126Y0140472D01*
X0272471Y0134078D02*
X0271888Y0134078D01*
X0271477Y0132479D02*
X0274720Y0132479D01*
X0284298Y0143669D02*
X0287693Y0143669D01*
X0287693Y0145268D02*
X0285224Y0145268D01*
X0285389Y0146866D02*
X0287693Y0146866D01*
X0287693Y0148465D02*
X0284921Y0148465D01*
X0283562Y0150063D02*
X0287693Y0150063D01*
X0287693Y0151662D02*
X0274663Y0151662D01*
X0283889Y0153260D02*
X0287693Y0153260D01*
X0287693Y0154859D02*
X0285055Y0154859D01*
X0285389Y0156457D02*
X0287693Y0156457D01*
X0287693Y0158056D02*
X0285091Y0158056D01*
X0283975Y0159654D02*
X0287693Y0159654D01*
X0287693Y0161253D02*
X0285549Y0161253D01*
X0287082Y0162851D02*
X0287693Y0162851D01*
X0258068Y0150063D02*
X0253562Y0150063D01*
X0254921Y0148465D02*
X0256710Y0148465D01*
X0257765Y0110100D02*
X0253472Y0110100D01*
X0254906Y0108502D02*
X0257398Y0108502D01*
X0257030Y0106903D02*
X0255389Y0106903D01*
X0255240Y0105305D02*
X0256663Y0105305D01*
X0256295Y0103706D02*
X0254335Y0103706D01*
X0255927Y0102108D02*
X0244492Y0102108D01*
X0238289Y0103706D02*
X0234335Y0103706D01*
X0235240Y0105305D02*
X0238050Y0105305D01*
X0238050Y0106903D02*
X0235444Y0106903D01*
X0236756Y0108502D02*
X0238050Y0108502D01*
X0238068Y0110100D02*
X0238251Y0110100D01*
X0252485Y0100509D02*
X0255560Y0100509D01*
X0255192Y0098911D02*
X0254718Y0098911D01*
X0248589Y0096500D02*
X0244652Y0096500D01*
X0250857Y0090918D02*
X0218494Y0090918D01*
X0218418Y0089320D02*
X0249669Y0089320D01*
X0248481Y0087721D02*
X0218341Y0087721D01*
X0218264Y0086123D02*
X0247293Y0086123D01*
X0246105Y0084524D02*
X0218187Y0084524D01*
X0218110Y0082926D02*
X0244917Y0082926D01*
X0254648Y0082926D02*
X0273761Y0082926D01*
X0274535Y0084524D02*
X0255726Y0084524D01*
X0256803Y0086123D02*
X0275959Y0086123D01*
X0275959Y0087721D02*
X0257881Y0087721D01*
X0258958Y0089320D02*
X0275959Y0089320D01*
X0275959Y0090918D02*
X0260036Y0090918D01*
X0261113Y0092517D02*
X0274631Y0092517D01*
X0272434Y0094115D02*
X0261665Y0094115D01*
X0262027Y0095714D02*
X0271789Y0095714D01*
X0271789Y0097312D02*
X0262438Y0097312D01*
X0262849Y0098911D02*
X0272460Y0098911D01*
X0274693Y0100509D02*
X0263260Y0100509D01*
X0263671Y0102108D02*
X0284328Y0102108D01*
X0284328Y0100509D02*
X0282485Y0100509D01*
X0272843Y0103706D02*
X0264082Y0103706D01*
X0264492Y0105305D02*
X0271938Y0105305D01*
X0271789Y0106903D02*
X0264903Y0106903D01*
X0265314Y0108502D02*
X0272272Y0108502D01*
X0273706Y0110100D02*
X0265725Y0110100D01*
X0283472Y0110100D02*
X0284328Y0110100D01*
X0284132Y0092517D02*
X0282547Y0092517D01*
X0284006Y0090918D02*
X0279959Y0090918D01*
X0279959Y0089320D02*
X0283880Y0089320D01*
X0283754Y0087721D02*
X0279959Y0087721D01*
X0259617Y0079729D02*
X0255756Y0079729D01*
X0257354Y0078130D02*
X0257557Y0078130D01*
X0247959Y0057349D02*
X0247959Y0057349D01*
X0247959Y0055751D02*
X0247959Y0055751D01*
X0247959Y0054152D02*
X0247959Y0054152D01*
X0247959Y0052554D02*
X0247959Y0052554D01*
X0249183Y0050955D02*
X0245718Y0050955D01*
X0246323Y0049357D02*
X0242032Y0049357D01*
X0243463Y0047758D02*
X0238435Y0047758D01*
X0240603Y0046160D02*
X0234838Y0046160D01*
X0237763Y0044561D02*
X0231242Y0044561D01*
X0231343Y0042963D02*
X0234929Y0042963D01*
X0236198Y0038167D02*
X0240178Y0038167D01*
X0240178Y0036569D02*
X0233438Y0036569D01*
X0233466Y0036580D02*
X0233572Y0036686D01*
X0240178Y0040413D01*
X0240178Y0036359D01*
X0239372Y0035553D01*
X0238902Y0035301D01*
X0238808Y0034989D01*
X0238578Y0034759D01*
X0238578Y0034225D01*
X0237319Y0030053D01*
X0234497Y0030053D01*
X0233560Y0029115D01*
X0233560Y0024357D01*
X0224911Y0030615D01*
X0227107Y0030615D01*
X0227644Y0031152D01*
X0228181Y0030615D01*
X0232107Y0030615D01*
X0233044Y0031552D01*
X0233044Y0036388D01*
X0233159Y0036453D01*
X0233466Y0036580D01*
X0233044Y0034970D02*
X0238789Y0034970D01*
X0238320Y0033372D02*
X0233044Y0033372D01*
X0233044Y0031773D02*
X0237838Y0031773D01*
X0237356Y0030175D02*
X0225520Y0030175D01*
X0227729Y0028576D02*
X0233560Y0028576D01*
X0233560Y0026978D02*
X0229938Y0026978D01*
X0232147Y0025379D02*
X0233560Y0025379D01*
X0238775Y0020584D02*
X0276553Y0020584D01*
X0276743Y0022182D02*
X0267858Y0022182D01*
X0267858Y0023781D02*
X0276932Y0023781D01*
X0277122Y0025379D02*
X0267858Y0025379D01*
X0267858Y0026978D02*
X0277311Y0026978D01*
X0277501Y0028576D02*
X0267858Y0028576D01*
X0264006Y0030175D02*
X0277691Y0030175D01*
X0277880Y0031773D02*
X0263363Y0031773D01*
X0262720Y0033372D02*
X0278070Y0033372D01*
X0278259Y0034970D02*
X0262129Y0034970D01*
X0260740Y0036569D02*
X0278449Y0036569D01*
X0278638Y0038167D02*
X0260740Y0038167D01*
X0260740Y0039766D02*
X0278828Y0039766D01*
X0279018Y0041364D02*
X0260740Y0041364D01*
X0260535Y0042963D02*
X0279207Y0042963D01*
X0279397Y0044561D02*
X0247581Y0044561D01*
X0250441Y0046160D02*
X0279586Y0046160D01*
X0279776Y0047758D02*
X0253301Y0047758D01*
X0256161Y0049357D02*
X0279966Y0049357D01*
X0280155Y0050955D02*
X0258928Y0050955D01*
X0260200Y0052554D02*
X0280345Y0052554D01*
X0280534Y0054152D02*
X0279034Y0054152D01*
X0280492Y0055751D02*
X0280724Y0055751D01*
X0280907Y0057349D02*
X0280913Y0057349D01*
X0267844Y0054152D02*
X0260740Y0054152D01*
X0250867Y0052554D02*
X0250334Y0052554D01*
X0240178Y0039766D02*
X0239031Y0039766D01*
X0232183Y0049357D02*
X0217643Y0049357D01*
X0215217Y0046160D02*
X0206672Y0046160D01*
X0205852Y0045427D02*
X0205394Y0045617D01*
X0207710Y0046600D01*
X0213853Y0047031D01*
X0222021Y0041815D01*
X0218181Y0041815D01*
X0217786Y0041419D01*
X0217549Y0041655D01*
X0217139Y0041892D01*
X0216681Y0042015D01*
X0215144Y0042015D01*
X0213607Y0042015D01*
X0213149Y0041892D01*
X0212739Y0041655D01*
X0212503Y0041419D01*
X0212107Y0041815D01*
X0208181Y0041815D01*
X0207644Y0041278D01*
X0207107Y0041815D01*
X0206946Y0041815D01*
X0207147Y0042300D01*
X0207147Y0043489D01*
X0206692Y0044587D01*
X0205852Y0045427D01*
X0206703Y0044561D02*
X0217721Y0044561D01*
X0220224Y0042963D02*
X0207147Y0042963D01*
X0207558Y0041364D02*
X0207731Y0041364D01*
X0204160Y0042894D02*
X0200906Y0042015D01*
X0200144Y0040754D01*
X0188963Y0044561D02*
X0183044Y0044561D01*
X0182974Y0046160D02*
X0185237Y0046160D01*
X0164244Y0041364D02*
X0163044Y0041364D01*
X0163044Y0039766D02*
X0164244Y0039766D01*
X0164440Y0038167D02*
X0162848Y0038167D01*
X0161920Y0036569D02*
X0165368Y0036569D01*
X0154244Y0039766D02*
X0136863Y0039766D01*
X0140711Y0041364D02*
X0154244Y0041364D01*
X0154244Y0042963D02*
X0144560Y0042963D01*
X0148409Y0044561D02*
X0154244Y0044561D01*
X0154314Y0046160D02*
X0152257Y0046160D01*
X0151290Y0050955D02*
X0094446Y0050955D01*
X0094446Y0049357D02*
X0147441Y0049357D01*
X0143592Y0047758D02*
X0094446Y0047758D01*
X0094446Y0046160D02*
X0139744Y0046160D01*
X0135895Y0044561D02*
X0094446Y0044561D01*
X0094446Y0042963D02*
X0132046Y0042963D01*
X0130543Y0034970D02*
X0133702Y0034970D01*
X0145459Y0034970D02*
X0145459Y0034970D01*
X0145459Y0033372D02*
X0145459Y0033372D01*
X0145459Y0036569D02*
X0145459Y0036569D01*
X0098317Y0052554D02*
X0094446Y0052554D01*
X0094446Y0054152D02*
X0096162Y0054152D01*
X0095529Y0055751D02*
X0094446Y0055751D01*
X0094446Y0057349D02*
X0095529Y0057349D01*
X0096222Y0058948D02*
X0094446Y0058948D01*
X0094446Y0060546D02*
X0098487Y0060546D01*
X0095838Y0074933D02*
X0094446Y0074933D01*
X0094446Y0076532D02*
X0095529Y0076532D01*
X0095852Y0078130D02*
X0094446Y0078130D01*
X0094446Y0092517D02*
X0098407Y0092517D01*
X0096189Y0094115D02*
X0094446Y0094115D01*
X0094446Y0095714D02*
X0095529Y0095714D01*
X0095529Y0097312D02*
X0094446Y0097312D01*
X0094446Y0098911D02*
X0096185Y0098911D01*
X0094446Y0100509D02*
X0098397Y0100509D01*
X0106261Y0100509D02*
X0107804Y0100509D01*
X0107249Y0110100D02*
X0108996Y0110100D01*
X0126590Y0103706D02*
X0126598Y0103706D01*
X0126590Y0102108D02*
X0155901Y0102108D01*
X0155460Y0103706D02*
X0154335Y0103706D01*
X0150283Y0111699D02*
X0128859Y0111699D01*
X0128397Y0100509D02*
X0126590Y0100509D01*
X0107429Y0132479D02*
X0106162Y0132479D01*
X0108023Y0143669D02*
X0122970Y0143669D01*
X0122576Y0145268D02*
X0108958Y0145268D01*
X0109129Y0146866D02*
X0122590Y0146866D01*
X0122565Y0148465D02*
X0110237Y0148465D01*
X0111440Y0150063D02*
X0122829Y0150063D01*
X0122934Y0151662D02*
X0112643Y0151662D01*
X0113846Y0153260D02*
X0124084Y0153260D01*
X0125869Y0154859D02*
X0115049Y0154859D01*
X0116253Y0156457D02*
X0125529Y0156457D01*
X0125503Y0158056D02*
X0117456Y0158056D01*
X0118659Y0159654D02*
X0124781Y0159654D01*
X0124060Y0161253D02*
X0119862Y0161253D01*
X0121065Y0162851D02*
X0123339Y0162851D01*
X0122590Y0164450D02*
X0122269Y0164450D01*
X0118465Y0166048D02*
X0116987Y0166048D01*
X0117262Y0164450D02*
X0115629Y0164450D01*
X0116059Y0162851D02*
X0114272Y0162851D01*
X0114856Y0161253D02*
X0112914Y0161253D01*
X0113653Y0159654D02*
X0111556Y0159654D01*
X0112449Y0158056D02*
X0110199Y0158056D01*
X0111246Y0156457D02*
X0109129Y0156457D01*
X0108789Y0154859D02*
X0110043Y0154859D01*
X0108840Y0153260D02*
X0107614Y0153260D01*
X0107637Y0151662D02*
X0094446Y0151662D01*
X0094446Y0153260D02*
X0097044Y0153260D01*
X0095869Y0154859D02*
X0094446Y0154859D01*
X0094446Y0156457D02*
X0095529Y0156457D01*
X0095821Y0158056D02*
X0094446Y0158056D01*
X0094446Y0159654D02*
X0096929Y0159654D01*
X0094446Y0161253D02*
X0107666Y0161253D01*
X0107059Y0162851D02*
X0109024Y0162851D01*
X0108620Y0164450D02*
X0110381Y0164450D01*
X0109129Y0166048D02*
X0111739Y0166048D01*
X0110997Y0167647D02*
X0113097Y0167647D01*
X0113063Y0169245D02*
X0114454Y0169245D01*
X0115128Y0170844D02*
X0115812Y0170844D01*
X0118345Y0167647D02*
X0119668Y0167647D01*
X0119702Y0169245D02*
X0120872Y0169245D01*
X0121060Y0170844D02*
X0122250Y0170844D01*
X0122418Y0172442D02*
X0123848Y0172442D01*
X0123775Y0174041D02*
X0126147Y0174041D01*
X0125546Y0175639D02*
X0125133Y0175639D01*
X0120987Y0180435D02*
X0106441Y0180435D01*
X0105765Y0180715D02*
X0098894Y0180715D01*
X0097350Y0180076D01*
X0096169Y0178894D01*
X0095529Y0177350D01*
X0095529Y0175680D01*
X0096169Y0174136D01*
X0097350Y0172954D01*
X0098894Y0172315D01*
X0105765Y0172315D01*
X0107308Y0172954D01*
X0108490Y0174136D01*
X0109129Y0175680D01*
X0109129Y0177350D01*
X0108490Y0178894D01*
X0107308Y0180076D01*
X0105765Y0180715D01*
X0108514Y0178836D02*
X0118921Y0178836D01*
X0116855Y0177238D02*
X0109129Y0177238D01*
X0109112Y0175639D02*
X0114790Y0175639D01*
X0112724Y0174041D02*
X0108395Y0174041D01*
X0110658Y0172442D02*
X0106072Y0172442D01*
X0108592Y0170844D02*
X0094446Y0170844D01*
X0094446Y0172442D02*
X0098587Y0172442D01*
X0096264Y0174041D02*
X0094446Y0174041D01*
X0094446Y0175639D02*
X0095546Y0175639D01*
X0095529Y0177238D02*
X0094446Y0177238D01*
X0094446Y0178836D02*
X0096145Y0178836D01*
X0094446Y0180435D02*
X0098217Y0180435D01*
X0096520Y0169245D02*
X0094446Y0169245D01*
X0094446Y0167647D02*
X0095652Y0167647D01*
X0095529Y0166048D02*
X0094446Y0166048D01*
X0094446Y0164450D02*
X0096039Y0164450D01*
X0097599Y0162851D02*
X0094446Y0162851D01*
X0094446Y0150063D02*
X0097338Y0150063D01*
X0095991Y0148465D02*
X0094446Y0148465D01*
X0094446Y0146866D02*
X0095529Y0146866D01*
X0095700Y0145268D02*
X0094446Y0145268D01*
X0094446Y0143669D02*
X0096635Y0143669D01*
X0094446Y0193223D02*
X0144150Y0193223D01*
X0146938Y0194821D02*
X0094446Y0194821D01*
X0115793Y0206011D02*
X0119255Y0206011D01*
X0117875Y0204412D02*
X0117172Y0204412D01*
X0117362Y0199617D02*
X0117685Y0199617D01*
X0118795Y0198018D02*
X0116253Y0198018D01*
X0126253Y0198018D02*
X0128512Y0198018D01*
X0127455Y0199617D02*
X0127362Y0199617D01*
X0127172Y0204412D02*
X0127690Y0204412D01*
X0128983Y0206011D02*
X0125793Y0206011D01*
X0132324Y0206011D02*
X0132724Y0206011D01*
X0132724Y0204412D02*
X0132324Y0204412D01*
X0132324Y0202814D02*
X0132724Y0202814D01*
X0132724Y0201215D02*
X0132324Y0201215D01*
X0132324Y0199617D02*
X0132724Y0199617D01*
X0132724Y0198018D02*
X0132324Y0198018D01*
X0136536Y0198018D02*
X0138795Y0198018D01*
X0137685Y0199617D02*
X0137592Y0199617D01*
X0137357Y0204412D02*
X0137875Y0204412D01*
X0139255Y0206011D02*
X0136064Y0206011D01*
X0196253Y0198018D02*
X0203795Y0198018D01*
X0202685Y0199617D02*
X0197362Y0199617D01*
X0197824Y0201215D02*
X0202224Y0201215D01*
X0202224Y0202814D02*
X0197824Y0202814D01*
X0197172Y0204412D02*
X0202875Y0204412D01*
X0211253Y0198018D02*
X0213795Y0198018D01*
X0212685Y0199617D02*
X0212362Y0199617D01*
X0251253Y0198018D02*
X0253795Y0198018D01*
X0252685Y0199617D02*
X0252362Y0199617D01*
X0184422Y0110100D02*
X0183719Y0110100D01*
X0178589Y0110100D02*
X0178589Y0110100D01*
X0178589Y0108502D02*
X0178589Y0108502D01*
X0178589Y0106903D02*
X0178589Y0106903D01*
X0215144Y0042015D02*
X0215144Y0036215D01*
X0215144Y0036215D01*
X0215144Y0042015D01*
X0215144Y0041364D02*
X0215144Y0041364D01*
X0215144Y0039766D02*
X0215144Y0039766D01*
X0215144Y0038167D02*
X0215144Y0038167D01*
X0215144Y0036569D02*
X0215144Y0036569D01*
X0240984Y0018985D02*
X0276364Y0018985D01*
X0276174Y0017387D02*
X0243193Y0017387D01*
X0249358Y0022182D02*
X0252060Y0022182D01*
X0252060Y0023781D02*
X0249358Y0023781D01*
X0249358Y0025379D02*
X0252060Y0025379D01*
X0252060Y0026978D02*
X0249358Y0026978D01*
X0249358Y0028576D02*
X0252060Y0028576D01*
X0252062Y0030175D02*
X0249107Y0030175D01*
X0251015Y0015788D02*
X0254032Y0015788D01*
X0252783Y0014190D02*
X0252264Y0014190D01*
X0252270Y0009394D02*
X0252777Y0009394D01*
X0254017Y0007796D02*
X0251030Y0007796D01*
X0244017Y0007796D02*
X0241030Y0007796D01*
X0242270Y0009394D02*
X0242777Y0009394D01*
X0234017Y0007796D02*
X0231030Y0007796D01*
X0232270Y0009394D02*
X0232777Y0009394D01*
X0224017Y0007796D02*
X0211030Y0007796D01*
X0212270Y0009394D02*
X0222777Y0009394D01*
X0222224Y0010993D02*
X0212824Y0010993D01*
X0212824Y0012591D02*
X0222224Y0012591D01*
X0221819Y0014190D02*
X0212264Y0014190D01*
X0211015Y0015788D02*
X0220025Y0015788D01*
X0204032Y0015788D02*
X0201298Y0015788D01*
X0202471Y0014190D02*
X0202783Y0014190D01*
X0202777Y0009394D02*
X0202478Y0009394D01*
X0201313Y0007796D02*
X0204017Y0007796D01*
X0261030Y0007796D02*
X0264017Y0007796D01*
X0262777Y0009394D02*
X0262270Y0009394D01*
X0262264Y0014190D02*
X0262783Y0014190D01*
X0264032Y0015788D02*
X0261015Y0015788D01*
X0271015Y0015788D02*
X0274032Y0015788D01*
X0272783Y0014190D02*
X0272264Y0014190D01*
X0272270Y0009394D02*
X0272777Y0009394D01*
X0274017Y0007796D02*
X0271030Y0007796D01*
X0096848Y0026978D02*
X0094446Y0026978D01*
X0094446Y0028576D02*
X0096982Y0028576D01*
X0096848Y0039766D02*
X0094446Y0039766D01*
X0094446Y0041364D02*
X0097148Y0041364D01*
D22*
X0109278Y0038000D02*
X0111240Y0038000D01*
X0111640Y0038000D01*
X0116345Y0038000D01*
X0116745Y0038000D01*
X0118904Y0038000D01*
X0128543Y0027253D02*
X0129441Y0027253D01*
X0131121Y0027937D01*
X0128543Y0027253D02*
X0126384Y0025500D01*
X0133701Y0026869D02*
X0136085Y0033128D01*
X0133701Y0026869D02*
X0127743Y0016450D01*
X0127743Y0015553D01*
X0126384Y0013000D01*
X0118904Y0013000D02*
X0116745Y0013000D01*
X0116345Y0013000D01*
X0111640Y0013000D01*
X0111240Y0013000D01*
X0109278Y0013000D01*
X0109278Y0025500D02*
X0111240Y0025500D01*
X0111640Y0025500D01*
X0116345Y0025500D01*
X0116745Y0025500D01*
X0118904Y0025500D01*
X0174642Y0054220D02*
X0176987Y0051876D01*
X0191044Y0045844D01*
X0201119Y0045844D01*
X0201682Y0046147D01*
X0203574Y0047017D01*
X0207236Y0048572D01*
X0214373Y0049072D01*
X0224478Y0042619D01*
X0226577Y0044677D01*
X0244638Y0052704D01*
X0245342Y0053407D01*
X0245576Y0067065D01*
X0248842Y0077890D01*
X0259220Y0093287D01*
X0259532Y0094039D01*
X0270850Y0138075D01*
X0274652Y0146500D01*
X0278589Y0146500D01*
X0270850Y0148075D02*
X0274652Y0156500D01*
X0278589Y0156500D01*
X0273077Y0160302D02*
X0270850Y0158075D01*
X0256328Y0094925D01*
X0246138Y0081217D01*
X0243946Y0074240D01*
X0241719Y0072013D01*
X0225947Y0065615D01*
X0225244Y0064912D01*
X0225244Y0064015D01*
X0225144Y0060415D01*
X0220144Y0060415D02*
X0220046Y0056815D01*
X0220046Y0055917D01*
X0219342Y0055213D01*
X0214546Y0055213D01*
X0213347Y0055215D01*
X0212644Y0055918D01*
X0212644Y0064912D01*
X0190850Y0094925D01*
X0190850Y0098075D01*
X0193077Y0100302D01*
X0204101Y0102698D01*
X0206328Y0104925D01*
X0216996Y0145128D01*
X0219164Y0160811D01*
X0220850Y0168075D01*
X0223077Y0170302D01*
X0234669Y0171096D01*
X0234832Y0171163D01*
X0237863Y0174194D01*
X0237930Y0174357D01*
X0239248Y0178643D01*
X0239315Y0178806D01*
X0244652Y0186500D01*
X0248589Y0186500D01*
X0254101Y0182698D02*
X0256328Y0184925D01*
X0257524Y0201785D01*
X0262426Y0203815D02*
X0262622Y0199754D01*
X0274652Y0176500D01*
X0278589Y0176500D01*
X0282526Y0176500D01*
X0286328Y0168075D01*
X0286328Y0164925D01*
X0284101Y0162698D01*
X0273077Y0160302D01*
X0274652Y0166500D02*
X0278589Y0166500D01*
X0274652Y0166500D02*
X0256328Y0144925D01*
X0254101Y0142698D01*
X0243077Y0140302D01*
X0240850Y0138075D01*
X0232526Y0126500D01*
X0228589Y0126500D01*
X0224652Y0126500D01*
X0220850Y0118075D01*
X0217292Y0107559D01*
X0215242Y0064913D01*
X0215242Y0064415D01*
X0215242Y0064015D01*
X0215144Y0060415D01*
X0210144Y0060415D02*
X0210044Y0064015D01*
X0210044Y0064912D01*
X0209341Y0065615D01*
X0187585Y0082183D01*
X0186328Y0084925D02*
X0184505Y0082751D01*
X0182526Y0076500D01*
X0178589Y0076500D01*
X0180827Y0069356D02*
X0172509Y0071096D01*
X0167164Y0072804D01*
X0165653Y0074315D01*
X0156328Y0108075D01*
X0140850Y0124925D01*
X0140690Y0164158D01*
X0138409Y0171111D02*
X0154101Y0172698D01*
X0156328Y0174925D01*
X0167426Y0199754D01*
X0167622Y0203815D01*
X0170493Y0206687D01*
X0259554Y0206687D01*
X0262426Y0203815D01*
X0247524Y0201785D02*
X0240850Y0188075D01*
X0239532Y0184039D01*
X0237646Y0178961D01*
X0236328Y0174925D01*
X0234101Y0172698D01*
X0222509Y0171904D01*
X0222346Y0171837D01*
X0219315Y0168806D01*
X0219248Y0168643D01*
X0216584Y0161880D01*
X0215394Y0145446D01*
X0206328Y0114925D01*
X0202526Y0106500D01*
X0198589Y0106500D01*
X0189532Y0104039D02*
X0190850Y0138075D01*
X0190922Y0139838D01*
X0190922Y0141975D01*
X0190850Y0144925D01*
X0190850Y0148075D01*
X0191326Y0152265D01*
X0204101Y0152698D01*
X0208372Y0154639D01*
X0210822Y0157088D01*
X0211778Y0163348D01*
X0217646Y0178961D01*
X0217957Y0179713D01*
X0224652Y0186500D01*
X0228589Y0186500D01*
X0234101Y0182698D02*
X0236328Y0184925D01*
X0236328Y0188075D01*
X0227524Y0201785D01*
X0237524Y0201785D02*
X0237930Y0188643D01*
X0237930Y0184357D01*
X0237863Y0184194D01*
X0234832Y0181163D01*
X0234669Y0181096D01*
X0223077Y0180302D01*
X0220850Y0178075D01*
X0214982Y0162544D01*
X0213792Y0145932D01*
X0206328Y0124925D01*
X0202526Y0116500D01*
X0198589Y0116500D01*
X0188216Y0119970D02*
X0187930Y0104357D01*
X0187863Y0104194D01*
X0182526Y0096500D01*
X0178589Y0096500D01*
X0173077Y0100302D02*
X0184101Y0102698D01*
X0186328Y0104925D01*
X0186614Y0120634D01*
X0186614Y0122771D01*
X0186328Y0128075D01*
X0182526Y0136500D01*
X0178589Y0136500D01*
X0174652Y0136500D01*
X0170850Y0144925D01*
X0170850Y0158075D01*
X0173077Y0160302D01*
X0184101Y0162698D01*
X0186328Y0164925D01*
X0190850Y0178075D01*
X0194652Y0186500D01*
X0198589Y0186500D01*
X0194652Y0186500D02*
X0182524Y0201785D01*
X0172524Y0201785D02*
X0170850Y0188075D01*
X0169248Y0158643D01*
X0169226Y0111557D01*
X0167646Y0098961D01*
X0167646Y0094039D01*
X0168133Y0075784D01*
X0164051Y0073652D02*
X0166500Y0071202D01*
X0172191Y0069494D01*
X0180302Y0067754D01*
X0182646Y0065409D01*
X0187900Y0051498D01*
X0192349Y0049048D01*
X0197814Y0049048D01*
X0199878Y0049851D01*
X0204783Y0052151D01*
X0205586Y0052276D01*
X0220006Y0053611D01*
X0229341Y0055215D01*
X0230044Y0055918D01*
X0230044Y0056815D01*
X0230144Y0060415D01*
X0231044Y0063213D01*
X0231942Y0063213D01*
X0242450Y0070478D01*
X0245481Y0073509D01*
X0247740Y0080053D01*
X0257863Y0094194D01*
X0257930Y0094357D01*
X0270850Y0148075D01*
X0278589Y0136500D02*
X0282526Y0136500D01*
X0286328Y0128075D01*
X0286328Y0094925D01*
X0284240Y0068415D01*
X0277524Y0011785D01*
X0263699Y0025500D02*
X0262342Y0028053D01*
X0262342Y0028453D01*
X0262342Y0028951D01*
X0260340Y0033930D01*
X0259637Y0034633D01*
X0259140Y0034633D01*
X0258740Y0034633D01*
X0257959Y0037764D01*
X0252959Y0037764D02*
X0252959Y0033833D01*
X0252959Y0033433D01*
X0252959Y0032944D01*
X0254860Y0028950D01*
X0254860Y0028453D01*
X0254860Y0028053D01*
X0256219Y0025500D01*
X0246558Y0028053D02*
X0245199Y0025500D01*
X0246558Y0028053D02*
X0246558Y0028453D01*
X0246558Y0028950D01*
X0247959Y0032944D01*
X0247959Y0033433D01*
X0247959Y0033833D01*
X0247959Y0037764D01*
X0242959Y0037764D02*
X0242178Y0034633D01*
X0241778Y0034633D01*
X0241281Y0034633D01*
X0240578Y0033930D01*
X0239076Y0028951D01*
X0239076Y0028453D01*
X0239076Y0028053D01*
X0237719Y0025500D01*
X0225144Y0036215D02*
X0225046Y0039815D01*
X0225046Y0040713D01*
X0224478Y0042619D01*
X0220144Y0036215D02*
X0220244Y0032615D01*
X0220244Y0032215D01*
X0220244Y0031718D01*
X0220947Y0031015D01*
X0247524Y0011785D01*
X0237524Y0011785D02*
X0210946Y0031013D01*
X0210242Y0031717D01*
X0210242Y0032215D01*
X0210242Y0032615D01*
X0210144Y0036215D01*
X0205144Y0036215D02*
X0205242Y0032615D01*
X0205242Y0032215D01*
X0205242Y0031717D01*
X0205946Y0031013D01*
X0227524Y0011785D01*
X0197610Y0022947D02*
X0198569Y0025500D01*
X0197610Y0022947D02*
X0197610Y0022547D01*
X0192622Y0013815D01*
X0192426Y0009754D01*
X0189554Y0006883D01*
X0185493Y0006883D01*
X0177524Y0011785D01*
X0188930Y0027251D02*
X0191089Y0025500D01*
X0215144Y0036215D02*
X0215044Y0039815D01*
X0206572Y0050674D02*
X0202167Y0048874D01*
X0200364Y0047749D01*
X0198800Y0047446D01*
X0191863Y0047446D01*
X0186060Y0050572D01*
X0178644Y0055878D01*
X0178644Y0059815D01*
X0174642Y0054220D02*
X0172646Y0065409D01*
X0170302Y0067754D01*
X0165711Y0069725D01*
X0154101Y0080302D01*
X0143077Y0082698D01*
X0136266Y0086515D01*
X0132329Y0086515D01*
X0136266Y0096515D02*
X0143077Y0092698D01*
X0154101Y0090302D01*
X0156328Y0088075D01*
X0164051Y0073652D01*
X0180827Y0069356D02*
X0181063Y0069258D01*
X0184150Y0066171D01*
X0190002Y0053162D01*
X0192013Y0051150D01*
X0193150Y0050650D01*
X0198214Y0050953D01*
X0201725Y0053965D01*
X0202644Y0055918D01*
X0202644Y0056912D01*
X0203347Y0057615D01*
X0204244Y0057615D01*
X0205144Y0060415D01*
X0200144Y0060415D02*
X0200046Y0056815D01*
X0200046Y0055917D01*
X0199342Y0055213D01*
X0197645Y0054533D01*
X0206572Y0050674D02*
X0220669Y0052009D01*
X0241280Y0055107D01*
X0242178Y0055107D01*
X0242959Y0058236D01*
X0273894Y0063053D02*
X0274199Y0060500D01*
X0273894Y0063053D02*
X0273894Y0063453D01*
X0273894Y0068913D01*
X0273894Y0069313D01*
X0273589Y0071669D01*
X0277329Y0080331D02*
X0277959Y0082687D01*
X0277959Y0096500D01*
X0278589Y0096500D01*
X0248589Y0116500D02*
X0244652Y0116500D01*
X0239367Y0114505D01*
X0237856Y0112994D01*
X0232526Y0106500D01*
X0228589Y0106500D01*
X0223077Y0110302D02*
X0220850Y0108075D01*
X0219872Y0106491D01*
X0224652Y0096500D01*
X0228589Y0096500D01*
X0223077Y0110302D02*
X0234101Y0112698D01*
X0236328Y0114925D01*
X0244652Y0126500D01*
X0248589Y0126500D01*
X0218598Y0144809D02*
X0220850Y0158075D01*
X0223077Y0160302D01*
X0234101Y0162698D01*
X0236328Y0164925D01*
X0239532Y0174039D01*
X0240850Y0178075D01*
X0243077Y0180302D01*
X0254101Y0182698D01*
X0234101Y0182698D02*
X0222509Y0181904D01*
X0222346Y0181837D01*
X0219315Y0178806D01*
X0219248Y0178643D01*
X0213380Y0163030D01*
X0212190Y0146596D01*
X0202526Y0126500D01*
X0198589Y0126500D01*
X0188216Y0123435D02*
X0188216Y0119970D01*
X0188216Y0123435D02*
X0187930Y0128643D01*
X0185828Y0137575D01*
X0184763Y0139338D01*
X0184763Y0141975D01*
X0186328Y0145925D01*
X0186644Y0154498D01*
X0190850Y0158075D01*
X0193077Y0160302D01*
X0203715Y0160302D01*
X0206640Y0159320D01*
X0206328Y0168075D01*
X0202526Y0176500D01*
X0198589Y0176500D01*
X0210176Y0163667D02*
X0217524Y0201785D01*
X0210176Y0163667D02*
X0209220Y0157752D01*
X0207708Y0156241D01*
X0202526Y0156500D01*
X0198589Y0156500D01*
X0194652Y0156500D01*
X0191257Y0155845D01*
X0188246Y0153334D01*
X0187843Y0140907D01*
X0218598Y0144809D02*
X0207930Y0104357D01*
X0207863Y0104194D01*
X0202526Y0096500D01*
X0198589Y0096500D01*
X0189532Y0104039D02*
X0186328Y0084925D01*
X0178589Y0086500D02*
X0174652Y0086500D01*
X0170850Y0094925D01*
X0170850Y0098075D01*
X0173077Y0100302D01*
X0136266Y0096515D02*
X0132329Y0096515D01*
X0122594Y0110751D02*
X0123606Y0111762D01*
X0124606Y0114399D01*
X0124090Y0116317D01*
X0121026Y0113831D02*
X0106266Y0106515D01*
X0102329Y0106515D01*
X0102329Y0096515D02*
X0106266Y0096515D01*
X0122594Y0110751D01*
X0128392Y0136515D02*
X0124590Y0144940D01*
X0124590Y0148090D01*
X0125784Y0150735D01*
X0128392Y0156515D02*
X0124590Y0164940D01*
X0124590Y0168090D01*
X0126817Y0170317D01*
X0138409Y0171111D01*
X0137841Y0172713D02*
X0144652Y0176500D01*
X0148589Y0176500D01*
X0144652Y0186500D02*
X0138572Y0181178D01*
X0138409Y0181111D01*
X0126817Y0180317D01*
X0124590Y0178090D01*
X0106266Y0156515D01*
X0102329Y0156515D01*
X0102329Y0166515D02*
X0106266Y0166515D01*
X0126086Y0181852D01*
X0126249Y0181919D01*
X0137841Y0182713D01*
X0140068Y0184940D01*
X0140850Y0188075D01*
X0143077Y0190302D01*
X0154554Y0196883D01*
X0162524Y0201785D01*
X0148589Y0186500D02*
X0144652Y0186500D01*
X0137841Y0172713D02*
X0126249Y0171919D01*
X0126086Y0171852D01*
X0123056Y0168821D01*
X0106266Y0146515D01*
X0102329Y0146515D01*
X0128392Y0156515D02*
X0132329Y0156515D01*
X0132329Y0136515D02*
X0128392Y0136515D01*
D23*
X0125784Y0150735D03*
X0140690Y0164158D03*
X0163304Y0166492D03*
X0163304Y0150992D03*
X0187843Y0140907D03*
X0191326Y0152265D03*
X0206640Y0159320D03*
X0219164Y0160811D03*
X0209610Y0148165D03*
X0192304Y0171492D03*
X0199804Y0194992D03*
X0177804Y0194492D03*
X0157804Y0194992D03*
X0097304Y0194992D03*
X0182534Y0121703D03*
X0163146Y0110626D03*
X0124090Y0116317D03*
X0121026Y0113831D03*
X0120347Y0119912D03*
X0168133Y0075784D03*
X0187585Y0082183D03*
X0200304Y0075992D03*
X0197645Y0054533D03*
X0194081Y0053730D03*
X0197304Y0042992D03*
X0204160Y0042894D03*
X0212804Y0045992D03*
X0223804Y0048492D03*
X0227645Y0042097D03*
X0236304Y0035492D03*
X0265304Y0047992D03*
X0270459Y0055645D03*
X0253304Y0064745D03*
X0236304Y0058492D03*
X0281304Y0089492D03*
X0240936Y0111425D03*
X0219872Y0106491D03*
X0258804Y0131492D03*
X0286304Y0153492D03*
X0282304Y0194992D03*
X0252804Y0195492D03*
X0136085Y0033128D03*
X0131121Y0027937D03*
X0113804Y0018992D03*
X0217304Y0011492D03*
X0284304Y0019492D03*
M02*
