M48
METRIC,TZ
T1C0.800
T2C1.000
%
G90
G05
T1
X165.227Y-85.13
X165.227Y-87.63
X140.407Y-85.09
X140.407Y-87.63
X140.407Y-90.17
X140.407Y-92.71
X140.407Y-95.25
X140.407Y-97.79
X140.407Y-100.33
X148.027Y-85.09
X148.027Y-87.63
X148.027Y-90.17
X148.027Y-92.71
X148.027Y-95.25
X148.027Y-97.79
X148.027Y-100.33
X126.634Y-85.09
X126.634Y-87.63
X126.634Y-90.17
X126.634Y-92.71
X134.254Y-85.09
X134.254Y-87.63
X134.254Y-90.17
X134.254Y-92.71
X121.92Y-82.59
X121.92Y-85.09
X137.287Y-85.09
X137.287Y-87.59
X154.69Y-85.09
X154.69Y-87.63
X154.69Y-90.17
X154.69Y-92.71
X154.69Y-95.25
X154.69Y-97.79
X154.69Y-100.33
X154.69Y-102.87
X154.69Y-105.41
X154.69Y-107.95
X162.31Y-85.09
X162.31Y-87.63
X162.31Y-90.17
X162.31Y-92.71
X162.31Y-95.25
X162.31Y-97.79
X162.31Y-100.33
X162.31Y-102.87
X162.31Y-105.41
X162.31Y-107.95
T2
X168.91Y-81.03
X168.91Y-83.57
X168.91Y-86.11
X168.91Y-88.65
X168.91Y-91.19
X168.91Y-93.73
X168.91Y-96.27
X168.91Y-98.81
X168.91Y-101.35
X168.91Y-103.89
X128.27Y-105.41
X128.27Y-107.95
X130.81Y-105.41
X130.81Y-107.95
X133.35Y-105.41
X133.35Y-107.95
X120.65Y-90.17
X120.65Y-92.71
X120.65Y-95.25
X120.65Y-97.79
X120.65Y-100.33
X120.65Y-102.87
X120.65Y-105.41
X120.65Y-107.95
T0
M30
