G75*
G70*
%OFA0B0*%
%FSLAX24Y24*%
%IPPOS*%
%LPD*%
%AMOC8*
5,1,8,0,0,1.08239X$1,22.5*
%
%ADD10C,0.0000*%
%ADD11R,0.0640X0.0640*%
%ADD12OC8,0.0640*%
%ADD13C,0.0640*%
%ADD14OC8,0.0520*%
%ADD15C,0.0520*%
%ADD16C,0.0560*%
%ADD17OC8,0.0560*%
D10*
X000247Y000180D02*
X000247Y022176D01*
X014117Y022176D01*
X014117Y000180D01*
X000247Y000180D01*
D11*
X011747Y017180D03*
D12*
X011747Y016180D03*
X011747Y015180D03*
X012747Y015180D03*
X012747Y016180D03*
X012747Y017180D03*
D13*
X008147Y020380D02*
X008147Y020980D01*
X007147Y020980D02*
X007147Y020380D01*
X006147Y020380D02*
X006147Y020980D01*
X005147Y020980D02*
X005147Y020380D01*
X004147Y020380D02*
X004147Y020980D01*
X003147Y020980D02*
X003147Y020380D01*
X002147Y020380D02*
X002147Y020980D01*
X001147Y020980D02*
X001147Y020380D01*
X004747Y001980D02*
X004747Y001380D01*
X005747Y001380D02*
X005747Y001980D01*
X006747Y001980D02*
X006747Y001380D01*
X007747Y001380D02*
X007747Y001980D01*
X008747Y001980D02*
X008747Y001380D01*
X009747Y001380D02*
X009747Y001980D01*
D14*
X002397Y001680D03*
D15*
X003097Y001680D03*
D16*
X003747Y004420D02*
X003747Y004940D01*
X004747Y004940D02*
X004747Y004420D01*
X005747Y004420D02*
X005747Y004940D01*
X006747Y004940D02*
X006747Y004420D01*
X007747Y004420D02*
X007747Y004940D01*
X008747Y004940D02*
X008747Y004420D01*
X009747Y004420D02*
X009747Y004940D01*
X010747Y004940D02*
X010747Y004420D01*
X011747Y004420D02*
X011747Y004940D01*
X012747Y004940D02*
X012747Y004420D01*
X012747Y007420D02*
X012747Y007940D01*
X011747Y007940D02*
X011747Y007420D01*
X010747Y007420D02*
X010747Y007940D01*
X009747Y007940D02*
X009747Y007420D01*
X008747Y007420D02*
X008747Y007940D01*
X007747Y007940D02*
X007747Y007420D01*
X006747Y007420D02*
X006747Y007940D01*
X005747Y007940D02*
X005747Y007420D01*
X004747Y007420D02*
X004747Y007940D01*
X003747Y007940D02*
X003747Y007420D01*
X003747Y009420D02*
X003747Y009940D01*
X004747Y009940D02*
X004747Y009420D01*
X005747Y009420D02*
X005747Y009940D01*
X006747Y009940D02*
X006747Y009420D01*
X007747Y009420D02*
X007747Y009940D01*
X008747Y009940D02*
X008747Y009420D01*
X009747Y009420D02*
X009747Y009940D01*
X009747Y012420D02*
X009747Y012940D01*
X008747Y012940D02*
X008747Y012420D01*
X007747Y012420D02*
X007747Y012940D01*
X006747Y012940D02*
X006747Y012420D01*
X005747Y012420D02*
X005747Y012940D01*
X004747Y012940D02*
X004747Y012420D01*
X003747Y012420D02*
X003747Y012940D01*
X003747Y014420D02*
X003747Y014940D01*
X004747Y014940D02*
X004747Y014420D01*
X005747Y014420D02*
X005747Y014940D01*
X006747Y014940D02*
X006747Y014420D01*
X006747Y017420D02*
X006747Y017940D01*
X005747Y017940D02*
X005747Y017420D01*
X004747Y017420D02*
X004747Y017940D01*
X003747Y017940D02*
X003747Y017420D01*
D17*
X010647Y020780D03*
X012647Y020780D03*
M02*
