G75*
%MOIN*%
%OFA0B0*%
%FSLAX25Y25*%
%IPPOS*%
%LPD*%
%AMOC8*
5,1,8,0,0,1.08239X$1,22.5*
%
%ADD10C,0.00004*%
%ADD11C,0.00400*%
%ADD12C,0.00600*%
D10*
X0092644Y0010874D02*
X0092644Y0203787D01*
X0092646Y0203977D01*
X0092653Y0204167D01*
X0092665Y0204357D01*
X0092681Y0204547D01*
X0092701Y0204736D01*
X0092727Y0204925D01*
X0092756Y0205113D01*
X0092791Y0205300D01*
X0092830Y0205486D01*
X0092873Y0205671D01*
X0092921Y0205856D01*
X0092973Y0206039D01*
X0093029Y0206220D01*
X0093090Y0206400D01*
X0093156Y0206579D01*
X0093225Y0206756D01*
X0093299Y0206932D01*
X0093377Y0207105D01*
X0093460Y0207277D01*
X0093546Y0207446D01*
X0093636Y0207614D01*
X0093731Y0207779D01*
X0093829Y0207942D01*
X0093932Y0208102D01*
X0094038Y0208260D01*
X0094148Y0208415D01*
X0094261Y0208568D01*
X0094379Y0208718D01*
X0094500Y0208864D01*
X0094624Y0209008D01*
X0094752Y0209149D01*
X0094883Y0209287D01*
X0095018Y0209422D01*
X0095156Y0209553D01*
X0095297Y0209681D01*
X0095441Y0209805D01*
X0095587Y0209926D01*
X0095737Y0210044D01*
X0095890Y0210157D01*
X0096045Y0210267D01*
X0096203Y0210373D01*
X0096363Y0210476D01*
X0096526Y0210574D01*
X0096691Y0210669D01*
X0096859Y0210759D01*
X0097028Y0210845D01*
X0097200Y0210928D01*
X0097373Y0211006D01*
X0097549Y0211080D01*
X0097726Y0211149D01*
X0097905Y0211215D01*
X0098085Y0211276D01*
X0098266Y0211332D01*
X0098449Y0211384D01*
X0098634Y0211432D01*
X0098819Y0211475D01*
X0099005Y0211514D01*
X0099192Y0211549D01*
X0099380Y0211578D01*
X0099569Y0211604D01*
X0099758Y0211624D01*
X0099948Y0211640D01*
X0100138Y0211652D01*
X0100328Y0211659D01*
X0100518Y0211661D01*
X0281620Y0211661D01*
X0281810Y0211659D01*
X0282000Y0211652D01*
X0282190Y0211640D01*
X0282380Y0211624D01*
X0282569Y0211604D01*
X0282758Y0211578D01*
X0282946Y0211549D01*
X0283133Y0211514D01*
X0283319Y0211475D01*
X0283504Y0211432D01*
X0283689Y0211384D01*
X0283872Y0211332D01*
X0284053Y0211276D01*
X0284233Y0211215D01*
X0284412Y0211149D01*
X0284589Y0211080D01*
X0284765Y0211006D01*
X0284938Y0210928D01*
X0285110Y0210845D01*
X0285279Y0210759D01*
X0285447Y0210669D01*
X0285612Y0210574D01*
X0285775Y0210476D01*
X0285935Y0210373D01*
X0286093Y0210267D01*
X0286248Y0210157D01*
X0286401Y0210044D01*
X0286551Y0209926D01*
X0286697Y0209805D01*
X0286841Y0209681D01*
X0286982Y0209553D01*
X0287120Y0209422D01*
X0287255Y0209287D01*
X0287386Y0209149D01*
X0287514Y0209008D01*
X0287638Y0208864D01*
X0287759Y0208718D01*
X0287877Y0208568D01*
X0287990Y0208415D01*
X0288100Y0208260D01*
X0288206Y0208102D01*
X0288309Y0207942D01*
X0288407Y0207779D01*
X0288502Y0207614D01*
X0288592Y0207446D01*
X0288678Y0207277D01*
X0288761Y0207105D01*
X0288839Y0206932D01*
X0288913Y0206756D01*
X0288982Y0206579D01*
X0289048Y0206400D01*
X0289109Y0206220D01*
X0289165Y0206039D01*
X0289217Y0205856D01*
X0289265Y0205671D01*
X0289308Y0205486D01*
X0289347Y0205300D01*
X0289382Y0205113D01*
X0289411Y0204925D01*
X0289437Y0204736D01*
X0289457Y0204547D01*
X0289473Y0204357D01*
X0289485Y0204167D01*
X0289492Y0203977D01*
X0289494Y0203787D01*
X0289494Y0010874D01*
X0289492Y0010684D01*
X0289485Y0010494D01*
X0289473Y0010304D01*
X0289457Y0010114D01*
X0289437Y0009925D01*
X0289411Y0009736D01*
X0289382Y0009548D01*
X0289347Y0009361D01*
X0289308Y0009175D01*
X0289265Y0008990D01*
X0289217Y0008805D01*
X0289165Y0008622D01*
X0289109Y0008441D01*
X0289048Y0008261D01*
X0288982Y0008082D01*
X0288913Y0007905D01*
X0288839Y0007729D01*
X0288761Y0007556D01*
X0288678Y0007384D01*
X0288592Y0007215D01*
X0288502Y0007047D01*
X0288407Y0006882D01*
X0288309Y0006719D01*
X0288206Y0006559D01*
X0288100Y0006401D01*
X0287990Y0006246D01*
X0287877Y0006093D01*
X0287759Y0005943D01*
X0287638Y0005797D01*
X0287514Y0005653D01*
X0287386Y0005512D01*
X0287255Y0005374D01*
X0287120Y0005239D01*
X0286982Y0005108D01*
X0286841Y0004980D01*
X0286697Y0004856D01*
X0286551Y0004735D01*
X0286401Y0004617D01*
X0286248Y0004504D01*
X0286093Y0004394D01*
X0285935Y0004288D01*
X0285775Y0004185D01*
X0285612Y0004087D01*
X0285447Y0003992D01*
X0285279Y0003902D01*
X0285110Y0003816D01*
X0284938Y0003733D01*
X0284765Y0003655D01*
X0284589Y0003581D01*
X0284412Y0003512D01*
X0284233Y0003446D01*
X0284053Y0003385D01*
X0283872Y0003329D01*
X0283689Y0003277D01*
X0283504Y0003229D01*
X0283319Y0003186D01*
X0283133Y0003147D01*
X0282946Y0003112D01*
X0282758Y0003083D01*
X0282569Y0003057D01*
X0282380Y0003037D01*
X0282190Y0003021D01*
X0282000Y0003009D01*
X0281810Y0003002D01*
X0281620Y0003000D01*
X0100518Y0003000D01*
X0100328Y0003002D01*
X0100138Y0003009D01*
X0099948Y0003021D01*
X0099758Y0003037D01*
X0099569Y0003057D01*
X0099380Y0003083D01*
X0099192Y0003112D01*
X0099005Y0003147D01*
X0098819Y0003186D01*
X0098634Y0003229D01*
X0098449Y0003277D01*
X0098266Y0003329D01*
X0098085Y0003385D01*
X0097905Y0003446D01*
X0097726Y0003512D01*
X0097549Y0003581D01*
X0097373Y0003655D01*
X0097200Y0003733D01*
X0097028Y0003816D01*
X0096859Y0003902D01*
X0096691Y0003992D01*
X0096526Y0004087D01*
X0096363Y0004185D01*
X0096203Y0004288D01*
X0096045Y0004394D01*
X0095890Y0004504D01*
X0095737Y0004617D01*
X0095587Y0004735D01*
X0095441Y0004856D01*
X0095297Y0004980D01*
X0095156Y0005108D01*
X0095018Y0005239D01*
X0094883Y0005374D01*
X0094752Y0005512D01*
X0094624Y0005653D01*
X0094500Y0005797D01*
X0094379Y0005943D01*
X0094261Y0006093D01*
X0094148Y0006246D01*
X0094038Y0006401D01*
X0093932Y0006559D01*
X0093829Y0006719D01*
X0093731Y0006882D01*
X0093636Y0007047D01*
X0093546Y0007215D01*
X0093460Y0007384D01*
X0093377Y0007556D01*
X0093299Y0007729D01*
X0093225Y0007905D01*
X0093156Y0008082D01*
X0093090Y0008261D01*
X0093029Y0008441D01*
X0092973Y0008622D01*
X0092921Y0008805D01*
X0092873Y0008990D01*
X0092830Y0009175D01*
X0092791Y0009361D01*
X0092756Y0009548D01*
X0092727Y0009736D01*
X0092701Y0009925D01*
X0092681Y0010114D01*
X0092665Y0010304D01*
X0092653Y0010494D01*
X0092646Y0010684D01*
X0092644Y0010874D01*
D11*
X0113487Y0061703D02*
X0112286Y0062904D01*
X0112886Y0064185D02*
X0115288Y0066587D01*
X0115889Y0065987D01*
X0115889Y0064786D01*
X0115288Y0064185D01*
X0112886Y0064185D01*
X0112286Y0064786D01*
X0112286Y0065987D01*
X0112886Y0066587D01*
X0115288Y0066587D01*
X0115288Y0067828D02*
X0115889Y0067828D01*
X0115889Y0068429D01*
X0115288Y0068429D01*
X0115288Y0067828D01*
X0115889Y0069710D02*
X0115889Y0072112D01*
X0113487Y0069710D01*
X0112886Y0069710D01*
X0112286Y0070310D01*
X0112286Y0071511D01*
X0112886Y0072112D01*
X0113487Y0077076D02*
X0115889Y0078277D01*
X0113487Y0079478D01*
X0114087Y0080759D02*
X0114688Y0080759D01*
X0114688Y0083161D01*
X0115288Y0083161D02*
X0114087Y0083161D01*
X0113487Y0082561D01*
X0113487Y0081360D01*
X0114087Y0080759D01*
X0115889Y0081360D02*
X0115889Y0082561D01*
X0115288Y0083161D01*
X0115889Y0084443D02*
X0114688Y0085644D01*
X0114688Y0085043D02*
X0114688Y0086845D01*
X0115889Y0086845D02*
X0112286Y0086845D01*
X0112286Y0085043D01*
X0112886Y0084443D01*
X0114087Y0084443D01*
X0114688Y0085043D01*
X0115889Y0088099D02*
X0114688Y0089300D01*
X0113487Y0089300D01*
X0112286Y0088099D01*
X0115889Y0062904D02*
X0114688Y0061703D01*
X0113487Y0061703D01*
X0211841Y0094578D02*
X0212442Y0093978D01*
X0214844Y0096380D01*
X0215444Y0095779D01*
X0215444Y0094578D01*
X0214844Y0093978D01*
X0212442Y0093978D01*
X0211841Y0094578D02*
X0211841Y0095779D01*
X0212442Y0096380D01*
X0214844Y0096380D01*
X0214844Y0097621D02*
X0215444Y0097621D01*
X0215444Y0098221D01*
X0214844Y0098221D01*
X0214844Y0097621D01*
X0214844Y0099502D02*
X0215444Y0100103D01*
X0215444Y0101304D01*
X0214844Y0101905D01*
X0213643Y0100704D02*
X0213643Y0100103D01*
X0214243Y0099502D01*
X0214844Y0099502D01*
X0213643Y0100103D02*
X0213042Y0099502D01*
X0212442Y0099502D01*
X0211841Y0100103D01*
X0211841Y0101304D01*
X0212442Y0101905D01*
X0213042Y0106869D02*
X0215444Y0106869D01*
X0213643Y0106869D02*
X0213643Y0109271D01*
X0213042Y0109271D02*
X0215444Y0109271D01*
X0214844Y0110552D02*
X0215444Y0111152D01*
X0215444Y0112353D01*
X0214844Y0112954D01*
X0213643Y0112353D02*
X0213643Y0111152D01*
X0214243Y0110552D01*
X0214844Y0110552D01*
X0213643Y0112353D02*
X0213042Y0112954D01*
X0212442Y0112954D01*
X0211841Y0112353D01*
X0211841Y0111152D01*
X0212442Y0110552D01*
X0213042Y0109271D02*
X0211841Y0108070D01*
X0213042Y0106869D01*
X0213643Y0114235D02*
X0213643Y0116637D01*
X0212442Y0117918D02*
X0211841Y0117918D01*
X0212442Y0117918D02*
X0213643Y0119119D01*
X0215444Y0119119D01*
X0213643Y0119119D02*
X0212442Y0120320D01*
X0211841Y0120320D01*
X0212442Y0121601D02*
X0213042Y0121601D01*
X0213643Y0122202D01*
X0213643Y0124003D01*
X0213643Y0125285D02*
X0213643Y0127687D01*
X0214844Y0128968D02*
X0215444Y0129568D01*
X0215444Y0130769D01*
X0214844Y0131370D01*
X0212442Y0131370D01*
X0211841Y0130769D01*
X0211841Y0129568D01*
X0212442Y0128968D01*
X0212442Y0132651D02*
X0211841Y0133251D01*
X0211841Y0134452D01*
X0212442Y0135053D01*
X0214844Y0135053D01*
X0215444Y0134452D01*
X0215444Y0133251D01*
X0214844Y0132651D01*
X0215444Y0124003D02*
X0211841Y0124003D01*
X0211841Y0122202D01*
X0212442Y0121601D01*
X0213643Y0122202D02*
X0214243Y0121601D01*
X0214844Y0121601D01*
X0215444Y0122202D01*
X0215444Y0124003D01*
X0213042Y0151053D02*
X0213042Y0151654D01*
X0214243Y0152855D01*
X0215444Y0152855D02*
X0213042Y0152855D01*
X0213643Y0154136D02*
X0213042Y0154736D01*
X0213042Y0155937D01*
X0213643Y0156538D01*
X0214844Y0156538D01*
X0215444Y0155937D01*
X0215444Y0154736D01*
X0214243Y0154136D02*
X0214243Y0156538D01*
X0213042Y0157819D02*
X0213042Y0159620D01*
X0213643Y0160221D01*
X0214844Y0160221D01*
X0215444Y0159620D01*
X0215444Y0157819D01*
X0211841Y0157819D01*
X0213643Y0154136D02*
X0214243Y0154136D01*
X0214243Y0161502D02*
X0214243Y0163304D01*
X0214844Y0163904D01*
X0215444Y0163304D01*
X0215444Y0161502D01*
X0213643Y0161502D01*
X0213042Y0162103D01*
X0213042Y0163304D01*
X0213042Y0165185D02*
X0213643Y0165786D01*
X0213643Y0167587D01*
X0215444Y0167587D02*
X0215444Y0165786D01*
X0214844Y0165185D01*
X0214243Y0165185D01*
X0213643Y0165786D01*
X0213042Y0165185D02*
X0212442Y0165185D01*
X0211841Y0165786D01*
X0211841Y0167587D01*
X0215444Y0167587D01*
X0215444Y0172511D02*
X0215444Y0173112D01*
X0214844Y0173112D01*
X0214844Y0172511D01*
X0215444Y0172511D01*
X0214844Y0174393D02*
X0215444Y0174994D01*
X0215444Y0176195D01*
X0214844Y0176795D01*
X0212442Y0176795D01*
X0211841Y0176195D01*
X0211841Y0174994D01*
X0212442Y0174393D01*
X0215444Y0181733D02*
X0215444Y0182934D01*
X0215444Y0182333D02*
X0213042Y0182333D01*
X0213042Y0182934D01*
X0211841Y0182333D02*
X0211241Y0182333D01*
X0213643Y0184215D02*
X0213042Y0184815D01*
X0213042Y0186016D01*
X0214243Y0186016D02*
X0214243Y0184215D01*
X0213643Y0184215D02*
X0215444Y0184215D01*
X0215444Y0186016D01*
X0214844Y0186617D01*
X0214243Y0186016D01*
X0215444Y0187898D02*
X0213643Y0189699D01*
X0214243Y0190300D02*
X0211841Y0187898D01*
X0211841Y0190300D02*
X0215444Y0190300D01*
D12*
X0119293Y0173263D02*
X0119293Y0171128D01*
X0119293Y0172195D02*
X0112888Y0172195D01*
X0112888Y0171128D02*
X0112888Y0173263D01*
X0113955Y0168966D02*
X0112888Y0167898D01*
X0112888Y0165763D01*
X0113955Y0164696D01*
X0116090Y0165763D02*
X0117158Y0164696D01*
X0118225Y0164696D01*
X0119293Y0165763D01*
X0119293Y0167898D01*
X0118225Y0168966D01*
X0116090Y0167898D02*
X0116090Y0165763D01*
X0116090Y0167898D02*
X0115023Y0168966D01*
X0113955Y0168966D01*
X0112888Y0162521D02*
X0112888Y0159318D01*
X0113955Y0158250D01*
X0116090Y0158250D01*
X0117158Y0159318D01*
X0117158Y0162521D01*
X0119293Y0162521D02*
X0112888Y0162521D01*
X0119293Y0156075D02*
X0112888Y0151805D01*
X0112888Y0149630D02*
X0119293Y0149630D01*
X0116090Y0149630D02*
X0116090Y0145359D01*
X0117158Y0143184D02*
X0112888Y0143184D01*
X0112888Y0145359D02*
X0119293Y0145359D01*
X0117158Y0143184D02*
X0119293Y0141049D01*
X0117158Y0138914D01*
X0112888Y0138914D01*
X0112888Y0136739D02*
X0112888Y0133536D01*
X0113955Y0132469D01*
X0116090Y0132469D01*
X0117158Y0133536D01*
X0117158Y0136739D01*
X0119293Y0136739D02*
X0112888Y0136739D01*
X0113955Y0123848D02*
X0115023Y0123848D01*
X0116090Y0122780D01*
X0116090Y0120645D01*
X0117158Y0119578D01*
X0118225Y0119578D01*
X0119293Y0120645D01*
X0119293Y0122780D01*
X0118225Y0123848D01*
X0113955Y0123848D02*
X0112888Y0122780D01*
X0112888Y0120645D01*
X0113955Y0119578D01*
X0112888Y0117403D02*
X0119293Y0117403D01*
X0116090Y0117403D02*
X0115023Y0116335D01*
X0115023Y0114200D01*
X0116090Y0113132D01*
X0119293Y0113132D01*
X0119293Y0110957D02*
X0119293Y0108822D01*
X0119293Y0109890D02*
X0115023Y0109890D01*
X0115023Y0110957D01*
X0112888Y0109890D02*
X0111820Y0109890D01*
X0116090Y0106660D02*
X0115023Y0105593D01*
X0115023Y0103457D01*
X0116090Y0102390D01*
X0117158Y0102390D01*
X0117158Y0106660D01*
X0118225Y0106660D02*
X0116090Y0106660D01*
X0118225Y0106660D02*
X0119293Y0105593D01*
X0119293Y0103457D01*
X0119293Y0100215D02*
X0119293Y0098080D01*
X0119293Y0099147D02*
X0112888Y0099147D01*
X0112888Y0100215D01*
X0116090Y0095918D02*
X0115023Y0094850D01*
X0115023Y0091648D01*
X0112888Y0091648D02*
X0119293Y0091648D01*
X0119293Y0094850D01*
X0118225Y0095918D01*
X0116090Y0095918D01*
M02*
