G75*
%MOIN*%
%OFA0B0*%
%FSLAX25Y25*%
%IPPOS*%
%LPD*%
%AMOC8*
5,1,8,0,0,1.08239X$1,22.5*
%
%ADD10C,0.00004*%
%ADD11C,0.05200*%
%ADD12C,0.07400*%
%ADD13C,0.05600*%
%ADD14OC8,0.05628*%
%ADD15C,0.05200*%
%ADD16C,0.01600*%
%ADD17C,0.00800*%
%ADD18C,0.02775*%
D10*
X0092644Y0010874D02*
X0092644Y0203787D01*
X0092646Y0203977D01*
X0092653Y0204167D01*
X0092665Y0204357D01*
X0092681Y0204547D01*
X0092701Y0204736D01*
X0092727Y0204925D01*
X0092756Y0205113D01*
X0092791Y0205300D01*
X0092830Y0205486D01*
X0092873Y0205671D01*
X0092921Y0205856D01*
X0092973Y0206039D01*
X0093029Y0206220D01*
X0093090Y0206400D01*
X0093156Y0206579D01*
X0093225Y0206756D01*
X0093299Y0206932D01*
X0093377Y0207105D01*
X0093460Y0207277D01*
X0093546Y0207446D01*
X0093636Y0207614D01*
X0093731Y0207779D01*
X0093829Y0207942D01*
X0093932Y0208102D01*
X0094038Y0208260D01*
X0094148Y0208415D01*
X0094261Y0208568D01*
X0094379Y0208718D01*
X0094500Y0208864D01*
X0094624Y0209008D01*
X0094752Y0209149D01*
X0094883Y0209287D01*
X0095018Y0209422D01*
X0095156Y0209553D01*
X0095297Y0209681D01*
X0095441Y0209805D01*
X0095587Y0209926D01*
X0095737Y0210044D01*
X0095890Y0210157D01*
X0096045Y0210267D01*
X0096203Y0210373D01*
X0096363Y0210476D01*
X0096526Y0210574D01*
X0096691Y0210669D01*
X0096859Y0210759D01*
X0097028Y0210845D01*
X0097200Y0210928D01*
X0097373Y0211006D01*
X0097549Y0211080D01*
X0097726Y0211149D01*
X0097905Y0211215D01*
X0098085Y0211276D01*
X0098266Y0211332D01*
X0098449Y0211384D01*
X0098634Y0211432D01*
X0098819Y0211475D01*
X0099005Y0211514D01*
X0099192Y0211549D01*
X0099380Y0211578D01*
X0099569Y0211604D01*
X0099758Y0211624D01*
X0099948Y0211640D01*
X0100138Y0211652D01*
X0100328Y0211659D01*
X0100518Y0211661D01*
X0281620Y0211661D01*
X0281810Y0211659D01*
X0282000Y0211652D01*
X0282190Y0211640D01*
X0282380Y0211624D01*
X0282569Y0211604D01*
X0282758Y0211578D01*
X0282946Y0211549D01*
X0283133Y0211514D01*
X0283319Y0211475D01*
X0283504Y0211432D01*
X0283689Y0211384D01*
X0283872Y0211332D01*
X0284053Y0211276D01*
X0284233Y0211215D01*
X0284412Y0211149D01*
X0284589Y0211080D01*
X0284765Y0211006D01*
X0284938Y0210928D01*
X0285110Y0210845D01*
X0285279Y0210759D01*
X0285447Y0210669D01*
X0285612Y0210574D01*
X0285775Y0210476D01*
X0285935Y0210373D01*
X0286093Y0210267D01*
X0286248Y0210157D01*
X0286401Y0210044D01*
X0286551Y0209926D01*
X0286697Y0209805D01*
X0286841Y0209681D01*
X0286982Y0209553D01*
X0287120Y0209422D01*
X0287255Y0209287D01*
X0287386Y0209149D01*
X0287514Y0209008D01*
X0287638Y0208864D01*
X0287759Y0208718D01*
X0287877Y0208568D01*
X0287990Y0208415D01*
X0288100Y0208260D01*
X0288206Y0208102D01*
X0288309Y0207942D01*
X0288407Y0207779D01*
X0288502Y0207614D01*
X0288592Y0207446D01*
X0288678Y0207277D01*
X0288761Y0207105D01*
X0288839Y0206932D01*
X0288913Y0206756D01*
X0288982Y0206579D01*
X0289048Y0206400D01*
X0289109Y0206220D01*
X0289165Y0206039D01*
X0289217Y0205856D01*
X0289265Y0205671D01*
X0289308Y0205486D01*
X0289347Y0205300D01*
X0289382Y0205113D01*
X0289411Y0204925D01*
X0289437Y0204736D01*
X0289457Y0204547D01*
X0289473Y0204357D01*
X0289485Y0204167D01*
X0289492Y0203977D01*
X0289494Y0203787D01*
X0289494Y0010874D01*
X0289492Y0010684D01*
X0289485Y0010494D01*
X0289473Y0010304D01*
X0289457Y0010114D01*
X0289437Y0009925D01*
X0289411Y0009736D01*
X0289382Y0009548D01*
X0289347Y0009361D01*
X0289308Y0009175D01*
X0289265Y0008990D01*
X0289217Y0008805D01*
X0289165Y0008622D01*
X0289109Y0008441D01*
X0289048Y0008261D01*
X0288982Y0008082D01*
X0288913Y0007905D01*
X0288839Y0007729D01*
X0288761Y0007556D01*
X0288678Y0007384D01*
X0288592Y0007215D01*
X0288502Y0007047D01*
X0288407Y0006882D01*
X0288309Y0006719D01*
X0288206Y0006559D01*
X0288100Y0006401D01*
X0287990Y0006246D01*
X0287877Y0006093D01*
X0287759Y0005943D01*
X0287638Y0005797D01*
X0287514Y0005653D01*
X0287386Y0005512D01*
X0287255Y0005374D01*
X0287120Y0005239D01*
X0286982Y0005108D01*
X0286841Y0004980D01*
X0286697Y0004856D01*
X0286551Y0004735D01*
X0286401Y0004617D01*
X0286248Y0004504D01*
X0286093Y0004394D01*
X0285935Y0004288D01*
X0285775Y0004185D01*
X0285612Y0004087D01*
X0285447Y0003992D01*
X0285279Y0003902D01*
X0285110Y0003816D01*
X0284938Y0003733D01*
X0284765Y0003655D01*
X0284589Y0003581D01*
X0284412Y0003512D01*
X0284233Y0003446D01*
X0284053Y0003385D01*
X0283872Y0003329D01*
X0283689Y0003277D01*
X0283504Y0003229D01*
X0283319Y0003186D01*
X0283133Y0003147D01*
X0282946Y0003112D01*
X0282758Y0003083D01*
X0282569Y0003057D01*
X0282380Y0003037D01*
X0282190Y0003021D01*
X0282000Y0003009D01*
X0281810Y0003002D01*
X0281620Y0003000D01*
X0100518Y0003000D01*
X0100328Y0003002D01*
X0100138Y0003009D01*
X0099948Y0003021D01*
X0099758Y0003037D01*
X0099569Y0003057D01*
X0099380Y0003083D01*
X0099192Y0003112D01*
X0099005Y0003147D01*
X0098819Y0003186D01*
X0098634Y0003229D01*
X0098449Y0003277D01*
X0098266Y0003329D01*
X0098085Y0003385D01*
X0097905Y0003446D01*
X0097726Y0003512D01*
X0097549Y0003581D01*
X0097373Y0003655D01*
X0097200Y0003733D01*
X0097028Y0003816D01*
X0096859Y0003902D01*
X0096691Y0003992D01*
X0096526Y0004087D01*
X0096363Y0004185D01*
X0096203Y0004288D01*
X0096045Y0004394D01*
X0095890Y0004504D01*
X0095737Y0004617D01*
X0095587Y0004735D01*
X0095441Y0004856D01*
X0095297Y0004980D01*
X0095156Y0005108D01*
X0095018Y0005239D01*
X0094883Y0005374D01*
X0094752Y0005512D01*
X0094624Y0005653D01*
X0094500Y0005797D01*
X0094379Y0005943D01*
X0094261Y0006093D01*
X0094148Y0006246D01*
X0094038Y0006401D01*
X0093932Y0006559D01*
X0093829Y0006719D01*
X0093731Y0006882D01*
X0093636Y0007047D01*
X0093546Y0007215D01*
X0093460Y0007384D01*
X0093377Y0007556D01*
X0093299Y0007729D01*
X0093225Y0007905D01*
X0093156Y0008082D01*
X0093090Y0008261D01*
X0093029Y0008441D01*
X0092973Y0008622D01*
X0092921Y0008805D01*
X0092873Y0008990D01*
X0092830Y0009175D01*
X0092791Y0009361D01*
X0092756Y0009548D01*
X0092727Y0009736D01*
X0092701Y0009925D01*
X0092681Y0010114D01*
X0092665Y0010304D01*
X0092653Y0010494D01*
X0092646Y0010684D01*
X0092644Y0010874D01*
D11*
X0099729Y0056515D02*
X0104929Y0056515D01*
X0104929Y0066515D02*
X0099729Y0066515D01*
X0099729Y0076515D02*
X0104929Y0076515D01*
X0104929Y0086515D02*
X0099729Y0086515D01*
X0099729Y0096515D02*
X0104929Y0096515D01*
X0104929Y0106515D02*
X0099729Y0106515D01*
X0099729Y0116515D02*
X0104929Y0116515D01*
X0104929Y0126515D02*
X0099729Y0126515D01*
X0099729Y0136515D02*
X0104929Y0136515D01*
X0104929Y0146515D02*
X0099729Y0146515D01*
X0099729Y0156515D02*
X0104929Y0156515D01*
X0104929Y0166515D02*
X0099729Y0166515D01*
X0099729Y0176515D02*
X0104929Y0176515D01*
X0104929Y0186515D02*
X0099729Y0186515D01*
X0129729Y0186515D02*
X0134929Y0186515D01*
X0145989Y0186500D02*
X0151189Y0186500D01*
X0151189Y0176500D02*
X0145989Y0176500D01*
X0134929Y0176515D02*
X0129729Y0176515D01*
X0129729Y0166515D02*
X0134929Y0166515D01*
X0134929Y0156515D02*
X0129729Y0156515D01*
X0129729Y0146515D02*
X0134929Y0146515D01*
X0145989Y0146500D02*
X0151189Y0146500D01*
X0151189Y0136500D02*
X0145989Y0136500D01*
X0145989Y0126500D02*
X0151189Y0126500D01*
X0134929Y0126515D02*
X0129729Y0126515D01*
X0129729Y0136515D02*
X0134929Y0136515D01*
X0134929Y0116515D02*
X0129729Y0116515D01*
X0129729Y0106515D02*
X0134929Y0106515D01*
X0145989Y0106500D02*
X0151189Y0106500D01*
X0151189Y0096500D02*
X0145989Y0096500D01*
X0134929Y0096515D02*
X0129729Y0096515D01*
X0129729Y0086515D02*
X0134929Y0086515D01*
X0134929Y0076515D02*
X0129729Y0076515D01*
X0129729Y0066515D02*
X0134929Y0066515D01*
X0134929Y0056515D02*
X0129729Y0056515D01*
X0145989Y0076500D02*
X0151189Y0076500D01*
X0151189Y0086500D02*
X0145989Y0086500D01*
X0175989Y0086500D02*
X0181189Y0086500D01*
X0181189Y0076500D02*
X0175989Y0076500D01*
X0175989Y0096500D02*
X0181189Y0096500D01*
X0181189Y0106500D02*
X0175989Y0106500D01*
X0195989Y0106500D02*
X0201189Y0106500D01*
X0201189Y0116500D02*
X0195989Y0116500D01*
X0195989Y0126500D02*
X0201189Y0126500D01*
X0201189Y0136500D02*
X0195989Y0136500D01*
X0195989Y0146500D02*
X0201189Y0146500D01*
X0201189Y0156500D02*
X0195989Y0156500D01*
X0195989Y0166500D02*
X0201189Y0166500D01*
X0201189Y0176500D02*
X0195989Y0176500D01*
X0195989Y0186500D02*
X0201189Y0186500D01*
X0181189Y0186500D02*
X0175989Y0186500D01*
X0175989Y0176500D02*
X0181189Y0176500D01*
X0181189Y0166500D02*
X0175989Y0166500D01*
X0175989Y0156500D02*
X0181189Y0156500D01*
X0181189Y0146500D02*
X0175989Y0146500D01*
X0175989Y0136500D02*
X0181189Y0136500D01*
X0181189Y0126500D02*
X0175989Y0126500D01*
X0195989Y0096500D02*
X0201189Y0096500D01*
X0225989Y0096500D02*
X0231189Y0096500D01*
X0231189Y0106500D02*
X0225989Y0106500D01*
X0225989Y0116500D02*
X0231189Y0116500D01*
X0231189Y0126500D02*
X0225989Y0126500D01*
X0225989Y0136500D02*
X0231189Y0136500D01*
X0231189Y0146500D02*
X0225989Y0146500D01*
X0225989Y0156500D02*
X0231189Y0156500D01*
X0231189Y0166500D02*
X0225989Y0166500D01*
X0225989Y0176500D02*
X0231189Y0176500D01*
X0231189Y0186500D02*
X0225989Y0186500D01*
X0245989Y0186500D02*
X0251189Y0186500D01*
X0251189Y0176500D02*
X0245989Y0176500D01*
X0245989Y0166500D02*
X0251189Y0166500D01*
X0251189Y0156500D02*
X0245989Y0156500D01*
X0245989Y0146500D02*
X0251189Y0146500D01*
X0251189Y0136500D02*
X0245989Y0136500D01*
X0245989Y0126500D02*
X0251189Y0126500D01*
X0251189Y0116500D02*
X0245989Y0116500D01*
X0245989Y0106500D02*
X0251189Y0106500D01*
X0251189Y0096500D02*
X0245989Y0096500D01*
X0275989Y0096500D02*
X0281189Y0096500D01*
X0281189Y0106500D02*
X0275989Y0106500D01*
X0275989Y0116500D02*
X0281189Y0116500D01*
X0281189Y0126500D02*
X0275989Y0126500D01*
X0275989Y0136500D02*
X0281189Y0136500D01*
X0281189Y0146500D02*
X0275989Y0146500D01*
X0275989Y0156500D02*
X0281189Y0156500D01*
X0281189Y0166500D02*
X0275989Y0166500D01*
X0275989Y0176500D02*
X0281189Y0176500D01*
X0281189Y0186500D02*
X0275989Y0186500D01*
X0151189Y0166500D02*
X0145989Y0166500D01*
X0145989Y0156500D02*
X0151189Y0156500D01*
D12*
X0152524Y0201785D03*
X0162524Y0201785D03*
X0172524Y0201785D03*
X0182524Y0201785D03*
X0192524Y0201785D03*
X0207524Y0201785D03*
X0217524Y0201785D03*
X0227524Y0201785D03*
X0237524Y0201785D03*
X0247524Y0201785D03*
X0257524Y0201785D03*
X0267524Y0201785D03*
X0277524Y0201785D03*
X0142524Y0201785D03*
X0132524Y0201785D03*
X0122524Y0201785D03*
X0112524Y0201785D03*
X0102524Y0201785D03*
X0137524Y0011785D03*
X0147524Y0011785D03*
X0157524Y0011785D03*
X0167524Y0011785D03*
X0177524Y0011785D03*
X0187524Y0011785D03*
X0197524Y0011785D03*
X0207524Y0011785D03*
X0227524Y0011785D03*
X0237524Y0011785D03*
X0247524Y0011785D03*
X0257524Y0011785D03*
X0267524Y0011785D03*
X0277524Y0011785D03*
D13*
X0178644Y0039515D02*
X0178644Y0045115D01*
X0168644Y0045115D02*
X0168644Y0039515D01*
X0158644Y0039515D02*
X0158644Y0045115D01*
X0158644Y0057015D02*
X0158644Y0062615D01*
X0168644Y0062615D02*
X0168644Y0057015D01*
X0178644Y0057015D02*
X0178644Y0062615D01*
D14*
X0145459Y0032500D03*
X0232144Y0075815D03*
X0253144Y0075815D03*
D15*
X0261144Y0075815D03*
X0240144Y0075815D03*
X0145459Y0024500D03*
D16*
X0149461Y0023187D02*
X0149659Y0023665D01*
X0149659Y0025335D01*
X0149020Y0026879D01*
X0147838Y0028061D01*
X0147631Y0028147D01*
X0150073Y0030589D01*
X0150073Y0032500D01*
X0150073Y0034411D01*
X0147370Y0037114D01*
X0146218Y0037114D01*
X0154244Y0044767D01*
X0154244Y0038640D01*
X0154914Y0037023D01*
X0156152Y0035785D01*
X0157769Y0035115D01*
X0158017Y0035115D01*
X0172816Y0014270D01*
X0172524Y0013563D01*
X0172017Y0014787D01*
X0170526Y0016278D01*
X0168578Y0017085D01*
X0166469Y0017085D01*
X0164521Y0016278D01*
X0163030Y0014787D01*
X0162524Y0013563D01*
X0162017Y0014787D01*
X0160526Y0016278D01*
X0158578Y0017085D01*
X0156469Y0017085D01*
X0155595Y0016723D01*
X0149461Y0023187D01*
X0149659Y0023781D02*
X0166064Y0023781D01*
X0164929Y0025379D02*
X0149641Y0025379D01*
X0148921Y0026978D02*
X0163794Y0026978D01*
X0162659Y0028576D02*
X0148060Y0028576D01*
X0149659Y0030175D02*
X0161525Y0030175D01*
X0160390Y0031773D02*
X0150073Y0031773D01*
X0150073Y0032500D02*
X0145459Y0032500D01*
X0150073Y0032500D01*
X0150073Y0033372D02*
X0159255Y0033372D01*
X0158120Y0034970D02*
X0149514Y0034970D01*
X0147915Y0036569D02*
X0155368Y0036569D01*
X0154440Y0038167D02*
X0147323Y0038167D01*
X0148999Y0039766D02*
X0154244Y0039766D01*
X0154244Y0041364D02*
X0150676Y0041364D01*
X0152352Y0042963D02*
X0154244Y0042963D01*
X0154244Y0044561D02*
X0154029Y0044561D01*
X0158644Y0042315D02*
X0158644Y0038378D01*
X0177524Y0011785D01*
X0182409Y0013841D02*
X0182017Y0014787D01*
X0180526Y0016278D01*
X0178578Y0017085D01*
X0176704Y0017085D01*
X0162439Y0037179D01*
X0163044Y0038640D01*
X0163044Y0045990D01*
X0162374Y0047607D01*
X0161684Y0048297D01*
X0161728Y0048341D01*
X0165999Y0048693D01*
X0164914Y0047607D01*
X0164244Y0045990D01*
X0164244Y0038640D01*
X0164914Y0037023D01*
X0166152Y0035785D01*
X0167769Y0035115D01*
X0169519Y0035115D01*
X0171136Y0035785D01*
X0172374Y0037023D01*
X0173044Y0038640D01*
X0173044Y0045990D01*
X0172374Y0047607D01*
X0171136Y0048845D01*
X0170592Y0049071D01*
X0179960Y0049841D01*
X0180253Y0049712D01*
X0180755Y0049907D01*
X0181291Y0049951D01*
X0181499Y0050195D01*
X0193388Y0054810D01*
X0194375Y0054810D01*
X0194658Y0054552D01*
X0194658Y0053939D01*
X0195113Y0052841D01*
X0195953Y0052000D01*
X0197051Y0051546D01*
X0198240Y0051546D01*
X0199337Y0052000D01*
X0200178Y0052841D01*
X0200633Y0053939D01*
X0200633Y0055127D01*
X0200178Y0056225D01*
X0199337Y0057066D01*
X0198240Y0057520D01*
X0197339Y0057520D01*
X0196532Y0058257D01*
X0195978Y0058810D01*
X0195925Y0058810D01*
X0195886Y0058846D01*
X0195104Y0058810D01*
X0193434Y0058810D01*
X0193062Y0058974D01*
X0192638Y0058810D01*
X0192185Y0058810D01*
X0191897Y0058522D01*
X0182524Y0054884D01*
X0183044Y0056140D01*
X0183044Y0063490D01*
X0182374Y0065107D01*
X0181136Y0066345D01*
X0179519Y0067015D01*
X0177769Y0067015D01*
X0176152Y0066345D01*
X0174914Y0065107D01*
X0174244Y0063490D01*
X0174244Y0056140D01*
X0174914Y0054523D01*
X0175915Y0053522D01*
X0170667Y0053090D01*
X0171136Y0053285D01*
X0172374Y0054523D01*
X0173044Y0056140D01*
X0173044Y0063490D01*
X0172374Y0065107D01*
X0171136Y0066345D01*
X0170525Y0066598D01*
X0170225Y0073651D01*
X0170665Y0074092D01*
X0171120Y0075190D01*
X0171120Y0075861D01*
X0171838Y0075547D01*
X0172428Y0074121D01*
X0173610Y0072939D01*
X0175154Y0072300D01*
X0182024Y0072300D01*
X0183568Y0072939D01*
X0184750Y0074121D01*
X0185063Y0074878D01*
X0188382Y0075406D01*
X0188441Y0075369D01*
X0189191Y0075535D01*
X0189950Y0075656D01*
X0189990Y0075712D01*
X0272561Y0093989D01*
X0273610Y0092939D01*
X0275154Y0092300D01*
X0282024Y0092300D01*
X0283568Y0092939D01*
X0283904Y0093276D01*
X0266672Y0017085D01*
X0266469Y0017085D01*
X0264521Y0016278D01*
X0263030Y0014787D01*
X0262524Y0013563D01*
X0262017Y0014787D01*
X0260526Y0016278D01*
X0258578Y0017085D01*
X0256469Y0017085D01*
X0254521Y0016278D01*
X0254337Y0016093D01*
X0251065Y0018105D01*
X0250931Y0018357D01*
X0250384Y0018524D01*
X0249896Y0018824D01*
X0249619Y0018758D01*
X0183044Y0039123D01*
X0183044Y0045990D01*
X0182374Y0047607D01*
X0181136Y0048845D01*
X0179519Y0049515D01*
X0177769Y0049515D01*
X0176152Y0048845D01*
X0174914Y0047607D01*
X0174244Y0045990D01*
X0174244Y0038640D01*
X0174914Y0037023D01*
X0176152Y0035785D01*
X0177769Y0035115D01*
X0179519Y0035115D01*
X0180774Y0035635D01*
X0244412Y0016168D01*
X0243030Y0014787D01*
X0242524Y0013563D01*
X0242017Y0014787D01*
X0240526Y0016278D01*
X0238578Y0017085D01*
X0236469Y0017085D01*
X0234521Y0016278D01*
X0233030Y0014787D01*
X0232524Y0013563D01*
X0232017Y0014787D01*
X0230526Y0016278D01*
X0228578Y0017085D01*
X0226469Y0017085D01*
X0224521Y0016278D01*
X0223030Y0014787D01*
X0222224Y0012839D01*
X0222224Y0010730D01*
X0223030Y0008782D01*
X0224521Y0007292D01*
X0226469Y0006485D01*
X0228578Y0006485D01*
X0230526Y0007292D01*
X0232017Y0008782D01*
X0232524Y0010006D01*
X0233030Y0008782D01*
X0234521Y0007292D01*
X0236469Y0006485D01*
X0238578Y0006485D01*
X0240526Y0007292D01*
X0242017Y0008782D01*
X0242524Y0010006D01*
X0243030Y0008782D01*
X0244521Y0007292D01*
X0246469Y0006485D01*
X0248578Y0006485D01*
X0250526Y0007292D01*
X0252017Y0008782D01*
X0252524Y0010006D01*
X0253030Y0008782D01*
X0254521Y0007292D01*
X0256469Y0006485D01*
X0258578Y0006485D01*
X0260526Y0007292D01*
X0262017Y0008782D01*
X0262524Y0010006D01*
X0263030Y0008782D01*
X0264521Y0007292D01*
X0266469Y0006485D01*
X0268578Y0006485D01*
X0270526Y0007292D01*
X0272017Y0008782D01*
X0272524Y0010006D01*
X0273030Y0008782D01*
X0274521Y0007292D01*
X0276469Y0006485D01*
X0278578Y0006485D01*
X0280526Y0007292D01*
X0282017Y0008782D01*
X0282824Y0010730D01*
X0282824Y0012839D01*
X0282017Y0014787D01*
X0280526Y0016278D01*
X0278578Y0017085D01*
X0276469Y0017085D01*
X0274521Y0016278D01*
X0273030Y0014787D01*
X0272524Y0013563D01*
X0272017Y0014787D01*
X0270578Y0016225D01*
X0287693Y0091892D01*
X0287693Y0010874D01*
X0287618Y0009924D01*
X0287031Y0008117D01*
X0285914Y0006580D01*
X0284377Y0005464D01*
X0282570Y0004877D01*
X0281620Y0004802D01*
X0100518Y0004802D01*
X0099568Y0004877D01*
X0097761Y0005464D01*
X0096225Y0006580D01*
X0095108Y0008117D01*
X0094521Y0009924D01*
X0094446Y0010874D01*
X0094446Y0203787D01*
X0094521Y0204737D01*
X0095108Y0206544D01*
X0096225Y0208081D01*
X0097761Y0209198D01*
X0099568Y0209785D01*
X0100518Y0209859D01*
X0281620Y0209859D01*
X0282570Y0209785D01*
X0284377Y0209198D01*
X0285914Y0208081D01*
X0287031Y0206544D01*
X0287618Y0204737D01*
X0287693Y0203787D01*
X0287693Y0149539D01*
X0287156Y0150075D01*
X0285667Y0151564D01*
X0285335Y0152080D01*
X0285100Y0152132D01*
X0284929Y0152302D01*
X0284316Y0152302D01*
X0282816Y0152628D01*
X0283568Y0152939D01*
X0284750Y0154121D01*
X0285389Y0155665D01*
X0285389Y0157335D01*
X0284750Y0158879D01*
X0283568Y0160061D01*
X0282024Y0160700D01*
X0275154Y0160700D01*
X0273610Y0160061D01*
X0272428Y0158879D01*
X0271789Y0157335D01*
X0271789Y0155665D01*
X0271936Y0155310D01*
X0255438Y0161921D01*
X0255335Y0162080D01*
X0254689Y0162221D01*
X0254076Y0162467D01*
X0253901Y0162392D01*
X0252816Y0162628D01*
X0253568Y0162939D01*
X0254750Y0164121D01*
X0255389Y0165665D01*
X0255389Y0167335D01*
X0254750Y0168879D01*
X0253568Y0170061D01*
X0252024Y0170700D01*
X0245154Y0170700D01*
X0244983Y0170629D01*
X0244016Y0172771D01*
X0245154Y0172300D01*
X0252024Y0172300D01*
X0253568Y0172939D01*
X0254750Y0174121D01*
X0255389Y0175665D01*
X0255389Y0177335D01*
X0254750Y0178879D01*
X0253568Y0180061D01*
X0252024Y0180700D01*
X0245154Y0180700D01*
X0244718Y0180520D01*
X0243105Y0183445D01*
X0243610Y0182939D01*
X0245154Y0182300D01*
X0252024Y0182300D01*
X0253568Y0182939D01*
X0254750Y0184121D01*
X0255389Y0185665D01*
X0255389Y0187335D01*
X0254750Y0188879D01*
X0253568Y0190061D01*
X0252024Y0190700D01*
X0245154Y0190700D01*
X0243610Y0190061D01*
X0242428Y0188879D01*
X0241789Y0187335D01*
X0241789Y0185829D01*
X0239922Y0189214D01*
X0239943Y0189404D01*
X0239532Y0189920D01*
X0239214Y0190497D01*
X0239030Y0190550D01*
X0232173Y0199159D01*
X0232524Y0200006D01*
X0233030Y0198782D01*
X0234521Y0197292D01*
X0236469Y0196485D01*
X0238578Y0196485D01*
X0240526Y0197292D01*
X0242017Y0198782D01*
X0242524Y0200006D01*
X0243030Y0198782D01*
X0244521Y0197292D01*
X0246469Y0196485D01*
X0248578Y0196485D01*
X0250526Y0197292D01*
X0252017Y0198782D01*
X0252524Y0200006D01*
X0253030Y0198782D01*
X0254521Y0197292D01*
X0256469Y0196485D01*
X0258578Y0196485D01*
X0260526Y0197292D01*
X0262017Y0198782D01*
X0262524Y0200006D01*
X0263030Y0198782D01*
X0264521Y0197292D01*
X0266469Y0196485D01*
X0268578Y0196485D01*
X0270526Y0197292D01*
X0272017Y0198782D01*
X0272524Y0200006D01*
X0273030Y0198782D01*
X0274521Y0197292D01*
X0276469Y0196485D01*
X0278578Y0196485D01*
X0280526Y0197292D01*
X0282017Y0198782D01*
X0282824Y0200730D01*
X0282824Y0202839D01*
X0282017Y0204787D01*
X0280526Y0206278D01*
X0278578Y0207085D01*
X0276469Y0207085D01*
X0274521Y0206278D01*
X0273030Y0204787D01*
X0272524Y0203563D01*
X0272017Y0204787D01*
X0270526Y0206278D01*
X0268578Y0207085D01*
X0266469Y0207085D01*
X0264521Y0206278D01*
X0263030Y0204787D01*
X0262524Y0203563D01*
X0262017Y0204787D01*
X0260526Y0206278D01*
X0258578Y0207085D01*
X0256469Y0207085D01*
X0254521Y0206278D01*
X0253030Y0204787D01*
X0252524Y0203563D01*
X0252017Y0204787D01*
X0250526Y0206278D01*
X0248578Y0207085D01*
X0246469Y0207085D01*
X0244521Y0206278D01*
X0243030Y0204787D01*
X0242524Y0203563D01*
X0242017Y0204787D01*
X0240526Y0206278D01*
X0238578Y0207085D01*
X0236469Y0207085D01*
X0234521Y0206278D01*
X0233030Y0204787D01*
X0232524Y0203563D01*
X0232017Y0204787D01*
X0230526Y0206278D01*
X0228578Y0207085D01*
X0226469Y0207085D01*
X0224521Y0206278D01*
X0223030Y0204787D01*
X0222524Y0203563D01*
X0222017Y0204787D01*
X0220526Y0206278D01*
X0218578Y0207085D01*
X0216469Y0207085D01*
X0214521Y0206278D01*
X0213030Y0204787D01*
X0212524Y0203563D01*
X0212017Y0204787D01*
X0210526Y0206278D01*
X0208578Y0207085D01*
X0206469Y0207085D01*
X0204521Y0206278D01*
X0203030Y0204787D01*
X0202224Y0202839D01*
X0202224Y0200730D01*
X0203030Y0198782D01*
X0204521Y0197292D01*
X0206469Y0196485D01*
X0206637Y0196485D01*
X0210934Y0176873D01*
X0203496Y0170091D01*
X0202024Y0170700D01*
X0195154Y0170700D01*
X0193610Y0170061D01*
X0192831Y0169282D01*
X0185257Y0172011D01*
X0185044Y0172250D01*
X0184506Y0172282D01*
X0183999Y0172464D01*
X0183710Y0172328D01*
X0182292Y0172411D01*
X0183568Y0172939D01*
X0184750Y0174121D01*
X0185389Y0175665D01*
X0185389Y0177335D01*
X0184750Y0178879D01*
X0183568Y0180061D01*
X0182024Y0180700D01*
X0175154Y0180700D01*
X0173610Y0180061D01*
X0172428Y0178879D01*
X0171789Y0177335D01*
X0171789Y0175665D01*
X0172428Y0174121D01*
X0173610Y0172939D01*
X0173670Y0172915D01*
X0154654Y0174025D01*
X0154750Y0174121D01*
X0155389Y0175665D01*
X0155389Y0177335D01*
X0154750Y0178879D01*
X0153568Y0180061D01*
X0152024Y0180700D01*
X0145154Y0180700D01*
X0144983Y0180629D01*
X0144016Y0182771D01*
X0145154Y0182300D01*
X0152024Y0182300D01*
X0153568Y0182939D01*
X0154750Y0184121D01*
X0155389Y0185665D01*
X0155389Y0187335D01*
X0154750Y0188879D01*
X0154524Y0189105D01*
X0154524Y0196876D01*
X0155526Y0197292D01*
X0157017Y0198782D01*
X0157524Y0200006D01*
X0158030Y0198782D01*
X0159521Y0197292D01*
X0161469Y0196485D01*
X0163578Y0196485D01*
X0164028Y0196671D01*
X0171789Y0186890D01*
X0171789Y0185665D01*
X0172428Y0184121D01*
X0173610Y0182939D01*
X0175154Y0182300D01*
X0182024Y0182300D01*
X0183568Y0182939D01*
X0184750Y0184121D01*
X0185389Y0185665D01*
X0185389Y0187335D01*
X0184750Y0188879D01*
X0183568Y0190061D01*
X0182024Y0190700D01*
X0175154Y0190700D01*
X0174189Y0190301D01*
X0167168Y0199149D01*
X0167524Y0200006D01*
X0168030Y0198782D01*
X0169521Y0197292D01*
X0171469Y0196485D01*
X0173578Y0196485D01*
X0175526Y0197292D01*
X0177017Y0198782D01*
X0177524Y0200006D01*
X0178030Y0198782D01*
X0179521Y0197292D01*
X0181469Y0196485D01*
X0183578Y0196485D01*
X0185526Y0197292D01*
X0187017Y0198782D01*
X0187524Y0200006D01*
X0188030Y0198782D01*
X0189521Y0197292D01*
X0189939Y0197118D01*
X0188948Y0189002D01*
X0188850Y0188903D01*
X0188850Y0188196D01*
X0188764Y0187495D01*
X0188850Y0187385D01*
X0188850Y0185291D01*
X0188686Y0184858D01*
X0188850Y0184495D01*
X0188850Y0184097D01*
X0189177Y0183769D01*
X0191929Y0177673D01*
X0191789Y0177335D01*
X0191789Y0175665D01*
X0192428Y0174121D01*
X0193610Y0172939D01*
X0195154Y0172300D01*
X0202024Y0172300D01*
X0203568Y0172939D01*
X0204750Y0174121D01*
X0205389Y0175665D01*
X0205389Y0177335D01*
X0204750Y0178879D01*
X0203568Y0180061D01*
X0202024Y0180700D01*
X0195154Y0180700D01*
X0194983Y0180629D01*
X0194016Y0182771D01*
X0195154Y0182300D01*
X0202024Y0182300D01*
X0203568Y0182939D01*
X0204750Y0184121D01*
X0205389Y0185665D01*
X0205389Y0187335D01*
X0204750Y0188879D01*
X0203568Y0190061D01*
X0202024Y0190700D01*
X0195154Y0190700D01*
X0193610Y0190061D01*
X0193037Y0189488D01*
X0193908Y0196621D01*
X0195526Y0197292D01*
X0197017Y0198782D01*
X0197824Y0200730D01*
X0197824Y0202839D01*
X0197017Y0204787D01*
X0195526Y0206278D01*
X0193578Y0207085D01*
X0191469Y0207085D01*
X0189521Y0206278D01*
X0189337Y0206093D01*
X0185802Y0208267D01*
X0185382Y0208687D01*
X0185120Y0208687D01*
X0184896Y0208824D01*
X0184319Y0208687D01*
X0129665Y0208687D01*
X0126391Y0205413D01*
X0125526Y0206278D01*
X0123578Y0207085D01*
X0121469Y0207085D01*
X0119521Y0206278D01*
X0118030Y0204787D01*
X0117524Y0203563D01*
X0117017Y0204787D01*
X0115526Y0206278D01*
X0113578Y0207085D01*
X0111469Y0207085D01*
X0109521Y0206278D01*
X0108030Y0204787D01*
X0107524Y0203563D01*
X0107017Y0204787D01*
X0105526Y0206278D01*
X0103578Y0207085D01*
X0101469Y0207085D01*
X0099521Y0206278D01*
X0098030Y0204787D01*
X0097224Y0202839D01*
X0097224Y0200730D01*
X0098030Y0198782D01*
X0099521Y0197292D01*
X0101469Y0196485D01*
X0103578Y0196485D01*
X0105526Y0197292D01*
X0107017Y0198782D01*
X0107524Y0200006D01*
X0108030Y0198782D01*
X0109521Y0197292D01*
X0111469Y0196485D01*
X0113578Y0196485D01*
X0115526Y0197292D01*
X0117017Y0198782D01*
X0117524Y0200006D01*
X0118030Y0198782D01*
X0119521Y0197292D01*
X0120503Y0196885D01*
X0107736Y0189647D01*
X0107308Y0190076D01*
X0105765Y0190715D01*
X0098894Y0190715D01*
X0097350Y0190076D01*
X0096169Y0188894D01*
X0095529Y0187350D01*
X0095529Y0185680D01*
X0096169Y0184136D01*
X0097350Y0182954D01*
X0098894Y0182315D01*
X0105765Y0182315D01*
X0107308Y0182954D01*
X0108490Y0184136D01*
X0109129Y0185680D01*
X0109129Y0185839D01*
X0125081Y0194883D01*
X0125382Y0194883D01*
X0125776Y0195277D01*
X0126261Y0195551D01*
X0126341Y0195841D01*
X0128515Y0198015D01*
X0128941Y0197589D01*
X0129641Y0197081D01*
X0130412Y0196688D01*
X0131236Y0196420D01*
X0132091Y0196285D01*
X0132324Y0196285D01*
X0132324Y0201585D01*
X0132724Y0201585D01*
X0132724Y0196285D01*
X0132956Y0196285D01*
X0133812Y0196420D01*
X0134635Y0196688D01*
X0135406Y0197081D01*
X0136107Y0197589D01*
X0136719Y0198202D01*
X0137228Y0198902D01*
X0137621Y0199673D01*
X0137639Y0199729D01*
X0138030Y0198782D01*
X0139521Y0197292D01*
X0139939Y0197118D01*
X0138948Y0189002D01*
X0138850Y0188903D01*
X0138850Y0188196D01*
X0138834Y0188063D01*
X0138490Y0188894D01*
X0137308Y0190076D01*
X0135765Y0190715D01*
X0128894Y0190715D01*
X0127350Y0190076D01*
X0126169Y0188894D01*
X0125529Y0187350D01*
X0125529Y0185680D01*
X0126169Y0184136D01*
X0127350Y0182954D01*
X0128894Y0182315D01*
X0135765Y0182315D01*
X0135935Y0182386D01*
X0136902Y0180244D01*
X0135765Y0180715D01*
X0128894Y0180715D01*
X0127350Y0180076D01*
X0126169Y0178894D01*
X0125529Y0177350D01*
X0125529Y0175680D01*
X0126169Y0174136D01*
X0127350Y0172954D01*
X0128894Y0172315D01*
X0135765Y0172315D01*
X0135935Y0172386D01*
X0136902Y0170244D01*
X0135765Y0170715D01*
X0128894Y0170715D01*
X0127350Y0170076D01*
X0126169Y0168894D01*
X0125529Y0167350D01*
X0125529Y0165680D01*
X0126169Y0164136D01*
X0127350Y0162954D01*
X0128894Y0162315D01*
X0135765Y0162315D01*
X0135986Y0162407D01*
X0136110Y0162143D01*
X0136110Y0161761D01*
X0136449Y0161422D01*
X0136652Y0160989D01*
X0137012Y0160860D01*
X0137622Y0160250D01*
X0138793Y0159078D01*
X0140962Y0159078D01*
X0140984Y0159056D01*
X0141785Y0159078D01*
X0142423Y0159078D01*
X0142226Y0158806D01*
X0141911Y0158189D01*
X0141697Y0157530D01*
X0141589Y0156846D01*
X0141589Y0156500D01*
X0148589Y0156500D01*
X0155589Y0156500D01*
X0155589Y0156846D01*
X0155481Y0157530D01*
X0155267Y0158189D01*
X0154952Y0158806D01*
X0154545Y0159366D01*
X0154492Y0159419D01*
X0166288Y0159736D01*
X0155457Y0155396D01*
X0155481Y0155470D01*
X0155589Y0156154D01*
X0155589Y0156500D01*
X0148589Y0156500D01*
X0148589Y0156500D01*
X0148589Y0156500D01*
X0141589Y0156500D01*
X0141589Y0156154D01*
X0141697Y0155470D01*
X0141911Y0154811D01*
X0142226Y0154194D01*
X0142437Y0153904D01*
X0142371Y0153899D01*
X0141546Y0153843D01*
X0141545Y0153841D01*
X0137944Y0153590D01*
X0138490Y0154136D01*
X0139129Y0155680D01*
X0139129Y0157350D01*
X0138490Y0158894D01*
X0137308Y0160076D01*
X0135765Y0160715D01*
X0128894Y0160715D01*
X0127350Y0160076D01*
X0126169Y0158894D01*
X0125529Y0157350D01*
X0125529Y0155680D01*
X0126169Y0154136D01*
X0126726Y0153578D01*
X0126378Y0153722D01*
X0125190Y0153722D01*
X0124092Y0153268D01*
X0123251Y0152427D01*
X0122962Y0151730D01*
X0109102Y0175613D01*
X0109129Y0175680D01*
X0109129Y0177350D01*
X0108490Y0178894D01*
X0107308Y0180076D01*
X0105765Y0180715D01*
X0098894Y0180715D01*
X0097350Y0180076D01*
X0096169Y0178894D01*
X0095529Y0177350D01*
X0095529Y0175680D01*
X0096169Y0174136D01*
X0097350Y0172954D01*
X0098894Y0172315D01*
X0105765Y0172315D01*
X0106270Y0172524D01*
X0108220Y0169164D01*
X0107308Y0170076D01*
X0105765Y0170715D01*
X0098894Y0170715D01*
X0097350Y0170076D01*
X0096169Y0168894D01*
X0095529Y0167350D01*
X0095529Y0165680D01*
X0096169Y0164136D01*
X0097350Y0162954D01*
X0098894Y0162315D01*
X0105765Y0162315D01*
X0105935Y0162386D01*
X0106902Y0160244D01*
X0105765Y0160715D01*
X0098894Y0160715D01*
X0097350Y0160076D01*
X0096169Y0158894D01*
X0095529Y0157350D01*
X0095529Y0155680D01*
X0096169Y0154136D01*
X0097350Y0152954D01*
X0098894Y0152315D01*
X0105765Y0152315D01*
X0105935Y0152386D01*
X0106902Y0150244D01*
X0105765Y0150715D01*
X0098894Y0150715D01*
X0097350Y0150076D01*
X0096169Y0148894D01*
X0095529Y0147350D01*
X0095529Y0145680D01*
X0096169Y0144136D01*
X0097350Y0142954D01*
X0098894Y0142315D01*
X0105765Y0142315D01*
X0105935Y0142386D01*
X0106902Y0140244D01*
X0105765Y0140715D01*
X0098894Y0140715D01*
X0097350Y0140076D01*
X0096169Y0138894D01*
X0095529Y0137350D01*
X0095529Y0135680D01*
X0096169Y0134136D01*
X0097350Y0132954D01*
X0098894Y0132315D01*
X0105765Y0132315D01*
X0107308Y0132954D01*
X0108490Y0134136D01*
X0108630Y0134475D01*
X0110970Y0120106D01*
X0110925Y0120033D01*
X0111101Y0119299D01*
X0111222Y0118555D01*
X0111292Y0118505D01*
X0113130Y0110841D01*
X0113081Y0110740D01*
X0113320Y0110050D01*
X0113491Y0109340D01*
X0113587Y0109281D01*
X0113790Y0108695D01*
X0113733Y0108446D01*
X0114053Y0107938D01*
X0114249Y0107371D01*
X0114479Y0107260D01*
X0122590Y0094364D01*
X0122590Y0094112D01*
X0123017Y0093685D01*
X0123338Y0093174D01*
X0123584Y0093118D01*
X0125251Y0091451D01*
X0125583Y0090935D01*
X0125818Y0090883D01*
X0125989Y0090713D01*
X0126602Y0090713D01*
X0128102Y0090387D01*
X0127350Y0090076D01*
X0126169Y0088894D01*
X0125529Y0087350D01*
X0125529Y0085680D01*
X0125841Y0084928D01*
X0108829Y0088075D01*
X0108490Y0088894D01*
X0107308Y0090076D01*
X0105765Y0090715D01*
X0098894Y0090715D01*
X0097350Y0090076D01*
X0096169Y0088894D01*
X0095529Y0087350D01*
X0095529Y0085680D01*
X0096169Y0084136D01*
X0097350Y0082954D01*
X0098894Y0082315D01*
X0105765Y0082315D01*
X0107308Y0082954D01*
X0108434Y0084080D01*
X0125827Y0080862D01*
X0125961Y0080725D01*
X0126620Y0080716D01*
X0127268Y0080596D01*
X0127426Y0080704D01*
X0128820Y0080685D01*
X0127350Y0080076D01*
X0126169Y0078894D01*
X0125529Y0077350D01*
X0125529Y0075680D01*
X0126169Y0074136D01*
X0127350Y0072954D01*
X0128894Y0072315D01*
X0135765Y0072315D01*
X0137308Y0072954D01*
X0138490Y0074136D01*
X0139129Y0075680D01*
X0139129Y0075818D01*
X0141789Y0077297D01*
X0141789Y0075665D01*
X0142428Y0074121D01*
X0143610Y0072939D01*
X0145154Y0072300D01*
X0152024Y0072300D01*
X0153568Y0072939D01*
X0154750Y0074121D01*
X0155389Y0075665D01*
X0155389Y0077335D01*
X0154989Y0078302D01*
X0163588Y0078302D01*
X0163530Y0078184D01*
X0163201Y0077890D01*
X0163178Y0077470D01*
X0158023Y0067015D01*
X0157769Y0067015D01*
X0156152Y0066345D01*
X0154914Y0065107D01*
X0154244Y0063490D01*
X0154244Y0058515D01*
X0138647Y0058515D01*
X0138490Y0058894D01*
X0137308Y0060076D01*
X0135765Y0060715D01*
X0128894Y0060715D01*
X0127350Y0060076D01*
X0126169Y0058894D01*
X0125529Y0057350D01*
X0125529Y0055680D01*
X0126169Y0054136D01*
X0127350Y0052954D01*
X0128894Y0052315D01*
X0135765Y0052315D01*
X0137308Y0052954D01*
X0138490Y0054136D01*
X0138647Y0054515D01*
X0154922Y0054515D01*
X0155604Y0053833D01*
X0155557Y0053785D01*
X0155475Y0053789D01*
X0155129Y0053469D01*
X0154694Y0053288D01*
X0154545Y0052928D01*
X0136369Y0036115D01*
X0135491Y0036115D01*
X0134393Y0035661D01*
X0133552Y0034820D01*
X0133098Y0033722D01*
X0133098Y0032534D01*
X0133552Y0031436D01*
X0134167Y0030821D01*
X0132822Y0030462D01*
X0132813Y0030470D01*
X0131715Y0030925D01*
X0130527Y0030925D01*
X0129429Y0030470D01*
X0128589Y0029630D01*
X0128134Y0028532D01*
X0128134Y0027343D01*
X0128589Y0026245D01*
X0129429Y0025405D01*
X0130527Y0024950D01*
X0131715Y0024950D01*
X0132813Y0025405D01*
X0133654Y0026245D01*
X0133793Y0026581D01*
X0137568Y0027589D01*
X0138283Y0027701D01*
X0138354Y0027798D01*
X0138470Y0027829D01*
X0138832Y0028456D01*
X0140845Y0031221D01*
X0140845Y0030589D01*
X0143287Y0028147D01*
X0143080Y0028061D01*
X0141898Y0026879D01*
X0141259Y0025335D01*
X0141259Y0023665D01*
X0141898Y0022121D01*
X0143080Y0020939D01*
X0144624Y0020300D01*
X0146294Y0020300D01*
X0146576Y0020417D01*
X0150489Y0016293D01*
X0148578Y0017085D01*
X0146469Y0017085D01*
X0144521Y0016278D01*
X0143030Y0014787D01*
X0142524Y0013563D01*
X0142017Y0014787D01*
X0140526Y0016278D01*
X0138578Y0017085D01*
X0136469Y0017085D01*
X0134521Y0016278D01*
X0133030Y0014787D01*
X0132224Y0012839D01*
X0132224Y0010730D01*
X0133030Y0008782D01*
X0134521Y0007292D01*
X0136469Y0006485D01*
X0138578Y0006485D01*
X0140526Y0007292D01*
X0142017Y0008782D01*
X0142524Y0010006D01*
X0143030Y0008782D01*
X0144521Y0007292D01*
X0146469Y0006485D01*
X0148578Y0006485D01*
X0150526Y0007292D01*
X0152017Y0008782D01*
X0152524Y0010006D01*
X0153030Y0008782D01*
X0154521Y0007292D01*
X0156469Y0006485D01*
X0158578Y0006485D01*
X0160526Y0007292D01*
X0162017Y0008782D01*
X0162524Y0010006D01*
X0163030Y0008782D01*
X0164521Y0007292D01*
X0166469Y0006485D01*
X0168578Y0006485D01*
X0170526Y0007292D01*
X0172017Y0008782D01*
X0172524Y0010006D01*
X0173030Y0008782D01*
X0174521Y0007292D01*
X0176469Y0006485D01*
X0178578Y0006485D01*
X0180526Y0007292D01*
X0182017Y0008782D01*
X0182409Y0009729D01*
X0182427Y0009673D01*
X0182820Y0008902D01*
X0183328Y0008202D01*
X0183941Y0007589D01*
X0184641Y0007081D01*
X0185412Y0006688D01*
X0186236Y0006420D01*
X0187091Y0006285D01*
X0187324Y0006285D01*
X0187324Y0011585D01*
X0187724Y0011585D01*
X0187724Y0011985D01*
X0187324Y0011985D01*
X0187324Y0017285D01*
X0187091Y0017285D01*
X0186236Y0017149D01*
X0185412Y0016882D01*
X0184641Y0016489D01*
X0183941Y0015980D01*
X0183328Y0015368D01*
X0182820Y0014667D01*
X0182427Y0013896D01*
X0182409Y0013841D01*
X0182264Y0014190D02*
X0182576Y0014190D01*
X0183749Y0015788D02*
X0181015Y0015788D01*
X0176490Y0017387D02*
X0240429Y0017387D01*
X0241015Y0015788D02*
X0244032Y0015788D01*
X0242783Y0014190D02*
X0242264Y0014190D01*
X0242270Y0009394D02*
X0242777Y0009394D01*
X0244017Y0007796D02*
X0241030Y0007796D01*
X0234017Y0007796D02*
X0231030Y0007796D01*
X0232270Y0009394D02*
X0232777Y0009394D01*
X0232783Y0014190D02*
X0232264Y0014190D01*
X0231015Y0015788D02*
X0234032Y0015788D01*
X0235203Y0018985D02*
X0175355Y0018985D01*
X0174220Y0020584D02*
X0229977Y0020584D01*
X0233200Y0023781D02*
X0268186Y0023781D01*
X0268548Y0025379D02*
X0227975Y0025379D01*
X0224752Y0022182D02*
X0173085Y0022182D01*
X0171951Y0023781D02*
X0219526Y0023781D01*
X0214301Y0025379D02*
X0170816Y0025379D01*
X0169681Y0026978D02*
X0209075Y0026978D01*
X0212298Y0030175D02*
X0269632Y0030175D01*
X0269994Y0031773D02*
X0207072Y0031773D01*
X0203849Y0028576D02*
X0168546Y0028576D01*
X0167411Y0030175D02*
X0198624Y0030175D01*
X0201847Y0033372D02*
X0270356Y0033372D01*
X0270717Y0034970D02*
X0196621Y0034970D01*
X0193398Y0031773D02*
X0166276Y0031773D01*
X0165141Y0033372D02*
X0188173Y0033372D01*
X0191396Y0036569D02*
X0271079Y0036569D01*
X0271440Y0038167D02*
X0186170Y0038167D01*
X0183044Y0039766D02*
X0225576Y0039766D01*
X0225758Y0039760D02*
X0205923Y0040433D01*
X0205852Y0040362D01*
X0204754Y0039907D01*
X0203566Y0039907D01*
X0202468Y0040362D01*
X0201627Y0041202D01*
X0201172Y0042300D01*
X0201172Y0043489D01*
X0201627Y0044587D01*
X0202468Y0045427D01*
X0203566Y0045882D01*
X0204754Y0045882D01*
X0205852Y0045427D01*
X0206047Y0045232D01*
X0225882Y0044558D01*
X0225953Y0044629D01*
X0227051Y0045084D01*
X0228240Y0045084D01*
X0229337Y0044629D01*
X0230178Y0043789D01*
X0230633Y0042691D01*
X0230633Y0041503D01*
X0230178Y0040405D01*
X0229337Y0039564D01*
X0228240Y0039109D01*
X0227051Y0039109D01*
X0225953Y0039564D01*
X0225758Y0039760D01*
X0227645Y0042097D02*
X0204160Y0042894D01*
X0201172Y0042963D02*
X0183044Y0042963D01*
X0183044Y0044561D02*
X0201617Y0044561D01*
X0201560Y0041364D02*
X0183044Y0041364D01*
X0182974Y0046160D02*
X0273248Y0046160D01*
X0273609Y0047758D02*
X0182223Y0047758D01*
X0179901Y0049357D02*
X0273971Y0049357D01*
X0274333Y0050955D02*
X0183457Y0050955D01*
X0187575Y0052554D02*
X0195400Y0052554D01*
X0194658Y0054152D02*
X0191693Y0054152D01*
X0188875Y0057349D02*
X0183044Y0057349D01*
X0183044Y0058948D02*
X0192993Y0058948D01*
X0193122Y0058948D02*
X0259111Y0058948D01*
X0262124Y0057349D02*
X0198653Y0057349D01*
X0200374Y0055751D02*
X0265138Y0055751D01*
X0267757Y0054362D02*
X0267926Y0053953D01*
X0268767Y0053113D01*
X0269865Y0052658D01*
X0271053Y0052658D01*
X0272151Y0053113D01*
X0272992Y0053953D01*
X0273446Y0055051D01*
X0273446Y0056240D01*
X0272992Y0057337D01*
X0272151Y0058178D01*
X0271053Y0058633D01*
X0269949Y0058633D01*
X0256005Y0066028D01*
X0255836Y0066437D01*
X0254996Y0067277D01*
X0253898Y0067732D01*
X0253480Y0067732D01*
X0244344Y0075418D01*
X0244344Y0076650D01*
X0243705Y0078194D01*
X0242523Y0079376D01*
X0240980Y0080015D01*
X0239309Y0080015D01*
X0237765Y0079376D01*
X0236584Y0078194D01*
X0236498Y0077987D01*
X0234055Y0080429D01*
X0232144Y0080429D01*
X0230233Y0080429D01*
X0227530Y0077726D01*
X0227530Y0075815D01*
X0232144Y0075815D01*
X0232144Y0075815D01*
X0232144Y0080429D01*
X0232144Y0075815D01*
X0232144Y0075815D01*
X0227530Y0075815D01*
X0227530Y0073904D01*
X0230233Y0071201D01*
X0232144Y0071201D01*
X0232144Y0075815D01*
X0232144Y0075815D01*
X0232144Y0071201D01*
X0234055Y0071201D01*
X0236498Y0073643D01*
X0236584Y0073436D01*
X0237765Y0072254D01*
X0239309Y0071615D01*
X0240980Y0071615D01*
X0241267Y0071734D01*
X0250335Y0064106D01*
X0250771Y0063053D01*
X0251611Y0062212D01*
X0252709Y0061757D01*
X0253814Y0061757D01*
X0267757Y0054362D01*
X0267844Y0054152D02*
X0200633Y0054152D01*
X0199891Y0052554D02*
X0274694Y0052554D01*
X0275056Y0054152D02*
X0273074Y0054152D01*
X0273446Y0055751D02*
X0275417Y0055751D01*
X0275779Y0057349D02*
X0272980Y0057349D01*
X0270459Y0055645D02*
X0253304Y0064745D01*
X0240144Y0075815D01*
X0239016Y0071736D02*
X0234590Y0071736D01*
X0236189Y0073334D02*
X0236685Y0073334D01*
X0232144Y0073334D02*
X0232144Y0073334D01*
X0232144Y0071736D02*
X0232144Y0071736D01*
X0229698Y0071736D02*
X0170307Y0071736D01*
X0170374Y0070137D02*
X0243165Y0070137D01*
X0245065Y0068539D02*
X0170442Y0068539D01*
X0170510Y0066940D02*
X0177589Y0066940D01*
X0179699Y0066940D02*
X0246965Y0066940D01*
X0248866Y0065342D02*
X0182140Y0065342D01*
X0182939Y0063743D02*
X0250485Y0063743D01*
X0251774Y0062145D02*
X0183044Y0062145D01*
X0183044Y0060546D02*
X0256097Y0060546D01*
X0260313Y0063743D02*
X0277225Y0063743D01*
X0276863Y0062145D02*
X0263327Y0062145D01*
X0266341Y0060546D02*
X0276502Y0060546D01*
X0276140Y0058948D02*
X0269354Y0058948D01*
X0277586Y0065342D02*
X0257300Y0065342D01*
X0255333Y0066940D02*
X0277948Y0066940D01*
X0278310Y0068539D02*
X0252522Y0068539D01*
X0250621Y0070137D02*
X0278671Y0070137D01*
X0279033Y0071736D02*
X0262272Y0071736D01*
X0261980Y0071615D02*
X0263523Y0072254D01*
X0264705Y0073436D01*
X0265344Y0074980D01*
X0265344Y0076650D01*
X0264705Y0078194D01*
X0263523Y0079376D01*
X0261980Y0080015D01*
X0260309Y0080015D01*
X0258765Y0079376D01*
X0257584Y0078194D01*
X0257498Y0077987D01*
X0255055Y0080429D01*
X0253144Y0080429D01*
X0251233Y0080429D01*
X0248530Y0077726D01*
X0248530Y0075815D01*
X0253144Y0075815D01*
X0253144Y0075815D01*
X0253144Y0080429D01*
X0253144Y0075815D01*
X0253144Y0075815D01*
X0248530Y0075815D01*
X0248530Y0073904D01*
X0251233Y0071201D01*
X0253144Y0071201D01*
X0253144Y0075815D01*
X0253144Y0075815D01*
X0253144Y0071201D01*
X0255055Y0071201D01*
X0257498Y0073643D01*
X0257584Y0073436D01*
X0258765Y0072254D01*
X0260309Y0071615D01*
X0261980Y0071615D01*
X0260016Y0071736D02*
X0255590Y0071736D01*
X0257189Y0073334D02*
X0257685Y0073334D01*
X0253144Y0073334D02*
X0253144Y0073334D01*
X0253144Y0071736D02*
X0253144Y0071736D01*
X0250698Y0071736D02*
X0248721Y0071736D01*
X0249099Y0073334D02*
X0246821Y0073334D01*
X0248530Y0074933D02*
X0244921Y0074933D01*
X0244344Y0076532D02*
X0248530Y0076532D01*
X0248934Y0078130D02*
X0243731Y0078130D01*
X0241671Y0079729D02*
X0250533Y0079729D01*
X0253144Y0079729D02*
X0253144Y0079729D01*
X0253144Y0078130D02*
X0253144Y0078130D01*
X0253144Y0076532D02*
X0253144Y0076532D01*
X0253144Y0074933D02*
X0253144Y0074933D01*
X0257354Y0078130D02*
X0257557Y0078130D01*
X0255756Y0079729D02*
X0259617Y0079729D01*
X0262671Y0079729D02*
X0280840Y0079729D01*
X0281202Y0081327D02*
X0215358Y0081327D01*
X0222580Y0082926D02*
X0281563Y0082926D01*
X0281925Y0084524D02*
X0229801Y0084524D01*
X0229533Y0079729D02*
X0208136Y0079729D01*
X0200914Y0078130D02*
X0227934Y0078130D01*
X0227530Y0076532D02*
X0193693Y0076532D01*
X0185406Y0074933D02*
X0227530Y0074933D01*
X0228099Y0073334D02*
X0183963Y0073334D01*
X0173215Y0073334D02*
X0170239Y0073334D01*
X0171014Y0074933D02*
X0172092Y0074933D01*
X0163470Y0078130D02*
X0155060Y0078130D01*
X0155389Y0076532D02*
X0162715Y0076532D01*
X0161927Y0074933D02*
X0155086Y0074933D01*
X0153963Y0073334D02*
X0161139Y0073334D01*
X0160351Y0071736D02*
X0094446Y0071736D01*
X0094446Y0073334D02*
X0096970Y0073334D01*
X0097350Y0072954D02*
X0096169Y0074136D01*
X0095529Y0075680D01*
X0095529Y0077350D01*
X0096169Y0078894D01*
X0097350Y0080076D01*
X0098894Y0080715D01*
X0105765Y0080715D01*
X0107308Y0080076D01*
X0108490Y0078894D01*
X0109129Y0077350D01*
X0109129Y0075680D01*
X0108490Y0074136D01*
X0107308Y0072954D01*
X0105765Y0072315D01*
X0098894Y0072315D01*
X0097350Y0072954D01*
X0095838Y0074933D02*
X0094446Y0074933D01*
X0094446Y0076532D02*
X0095529Y0076532D01*
X0095852Y0078130D02*
X0094446Y0078130D01*
X0094446Y0079729D02*
X0097003Y0079729D01*
X0094446Y0081327D02*
X0123315Y0081327D01*
X0127003Y0079729D02*
X0107655Y0079729D01*
X0108806Y0078130D02*
X0125852Y0078130D01*
X0125529Y0076532D02*
X0109129Y0076532D01*
X0108820Y0074933D02*
X0125838Y0074933D01*
X0126970Y0073334D02*
X0107688Y0073334D01*
X0107159Y0070137D02*
X0127500Y0070137D01*
X0127350Y0070076D02*
X0126169Y0068894D01*
X0125529Y0067350D01*
X0125529Y0065680D01*
X0126169Y0064136D01*
X0127350Y0062954D01*
X0128894Y0062315D01*
X0135765Y0062315D01*
X0137308Y0062954D01*
X0138490Y0064136D01*
X0139129Y0065680D01*
X0139129Y0067350D01*
X0138490Y0068894D01*
X0137308Y0070076D01*
X0135765Y0070715D01*
X0128894Y0070715D01*
X0127350Y0070076D01*
X0126021Y0068539D02*
X0108637Y0068539D01*
X0108490Y0068894D02*
X0107308Y0070076D01*
X0105765Y0070715D01*
X0098894Y0070715D01*
X0097350Y0070076D01*
X0096169Y0068894D01*
X0095529Y0067350D01*
X0095529Y0065680D01*
X0096169Y0064136D01*
X0097350Y0062954D01*
X0098894Y0062315D01*
X0105765Y0062315D01*
X0107308Y0062954D01*
X0108490Y0064136D01*
X0109129Y0065680D01*
X0109129Y0067350D01*
X0108490Y0068894D01*
X0109129Y0066940D02*
X0125529Y0066940D01*
X0125669Y0065342D02*
X0108989Y0065342D01*
X0108097Y0063743D02*
X0126561Y0063743D01*
X0128487Y0060546D02*
X0106171Y0060546D01*
X0105765Y0060715D02*
X0098894Y0060715D01*
X0097350Y0060076D01*
X0096169Y0058894D01*
X0095529Y0057350D01*
X0095529Y0055680D01*
X0096169Y0054136D01*
X0097350Y0052954D01*
X0098894Y0052315D01*
X0105765Y0052315D01*
X0107308Y0052954D01*
X0108490Y0054136D01*
X0109129Y0055680D01*
X0109129Y0057350D01*
X0108490Y0058894D01*
X0107308Y0060076D01*
X0105765Y0060715D01*
X0108436Y0058948D02*
X0126222Y0058948D01*
X0125529Y0057349D02*
X0109129Y0057349D01*
X0109129Y0055751D02*
X0125529Y0055751D01*
X0126162Y0054152D02*
X0108497Y0054152D01*
X0106341Y0052554D02*
X0128317Y0052554D01*
X0136341Y0052554D02*
X0154140Y0052554D01*
X0155284Y0054152D02*
X0138497Y0054152D01*
X0138436Y0058948D02*
X0154244Y0058948D01*
X0154244Y0060546D02*
X0136171Y0060546D01*
X0138097Y0063743D02*
X0154349Y0063743D01*
X0154244Y0062145D02*
X0094446Y0062145D01*
X0094446Y0063743D02*
X0096561Y0063743D01*
X0095669Y0065342D02*
X0094446Y0065342D01*
X0094446Y0066940D02*
X0095529Y0066940D01*
X0096021Y0068539D02*
X0094446Y0068539D01*
X0094446Y0070137D02*
X0097500Y0070137D01*
X0098487Y0060546D02*
X0094446Y0060546D01*
X0094446Y0058948D02*
X0096222Y0058948D01*
X0095529Y0057349D02*
X0094446Y0057349D01*
X0094446Y0055751D02*
X0095529Y0055751D01*
X0096162Y0054152D02*
X0094446Y0054152D01*
X0094446Y0052554D02*
X0098317Y0052554D01*
X0094446Y0050955D02*
X0152412Y0050955D01*
X0150684Y0049357D02*
X0094446Y0049357D01*
X0094446Y0047758D02*
X0148956Y0047758D01*
X0147228Y0046160D02*
X0094446Y0046160D01*
X0094446Y0044561D02*
X0145500Y0044561D01*
X0143772Y0042963D02*
X0094446Y0042963D01*
X0094446Y0041364D02*
X0142044Y0041364D01*
X0140316Y0039766D02*
X0094446Y0039766D01*
X0094446Y0038167D02*
X0138587Y0038167D01*
X0136859Y0036569D02*
X0094446Y0036569D01*
X0094446Y0034970D02*
X0133702Y0034970D01*
X0133098Y0033372D02*
X0094446Y0033372D01*
X0094446Y0031773D02*
X0133413Y0031773D01*
X0129134Y0030175D02*
X0094446Y0030175D01*
X0094446Y0028576D02*
X0128152Y0028576D01*
X0128285Y0026978D02*
X0094446Y0026978D01*
X0094446Y0025379D02*
X0129491Y0025379D01*
X0132752Y0025379D02*
X0141277Y0025379D01*
X0141259Y0023781D02*
X0094446Y0023781D01*
X0094446Y0022182D02*
X0141873Y0022182D01*
X0143939Y0020584D02*
X0094446Y0020584D01*
X0094446Y0018985D02*
X0147935Y0018985D01*
X0149451Y0017387D02*
X0094446Y0017387D01*
X0094446Y0015788D02*
X0134032Y0015788D01*
X0132783Y0014190D02*
X0094446Y0014190D01*
X0094446Y0012591D02*
X0132224Y0012591D01*
X0132224Y0010993D02*
X0094446Y0010993D01*
X0094693Y0009394D02*
X0132777Y0009394D01*
X0134017Y0007796D02*
X0095342Y0007796D01*
X0096752Y0006197D02*
X0285386Y0006197D01*
X0286797Y0007796D02*
X0281030Y0007796D01*
X0282270Y0009394D02*
X0287446Y0009394D01*
X0287693Y0010993D02*
X0282824Y0010993D01*
X0282824Y0012591D02*
X0287693Y0012591D01*
X0287693Y0014190D02*
X0282264Y0014190D01*
X0281015Y0015788D02*
X0287693Y0015788D01*
X0287693Y0017387D02*
X0270841Y0017387D01*
X0271015Y0015788D02*
X0274032Y0015788D01*
X0272783Y0014190D02*
X0272264Y0014190D01*
X0272270Y0009394D02*
X0272777Y0009394D01*
X0274017Y0007796D02*
X0271030Y0007796D01*
X0264017Y0007796D02*
X0261030Y0007796D01*
X0262270Y0009394D02*
X0262777Y0009394D01*
X0262783Y0014190D02*
X0262264Y0014190D01*
X0261015Y0015788D02*
X0264032Y0015788D01*
X0266740Y0017387D02*
X0252233Y0017387D01*
X0248877Y0018985D02*
X0267102Y0018985D01*
X0267463Y0020584D02*
X0243652Y0020584D01*
X0238426Y0022182D02*
X0267825Y0022182D01*
X0271564Y0020584D02*
X0287693Y0020584D01*
X0287693Y0022182D02*
X0271926Y0022182D01*
X0272287Y0023781D02*
X0287693Y0023781D01*
X0287693Y0025379D02*
X0272649Y0025379D01*
X0273010Y0026978D02*
X0287693Y0026978D01*
X0287693Y0028576D02*
X0273372Y0028576D01*
X0273733Y0030175D02*
X0287693Y0030175D01*
X0287693Y0031773D02*
X0274095Y0031773D01*
X0274457Y0033372D02*
X0287693Y0033372D01*
X0287693Y0034970D02*
X0274818Y0034970D01*
X0275180Y0036569D02*
X0287693Y0036569D01*
X0287693Y0038167D02*
X0275541Y0038167D01*
X0275903Y0039766D02*
X0287693Y0039766D01*
X0287693Y0041364D02*
X0276264Y0041364D01*
X0276626Y0042963D02*
X0287693Y0042963D01*
X0287693Y0044561D02*
X0276987Y0044561D01*
X0277349Y0046160D02*
X0287693Y0046160D01*
X0287693Y0047758D02*
X0277710Y0047758D01*
X0278072Y0049357D02*
X0287693Y0049357D01*
X0287693Y0050955D02*
X0278434Y0050955D01*
X0278795Y0052554D02*
X0287693Y0052554D01*
X0287693Y0054152D02*
X0279157Y0054152D01*
X0279518Y0055751D02*
X0287693Y0055751D01*
X0287693Y0057349D02*
X0279880Y0057349D01*
X0280241Y0058948D02*
X0287693Y0058948D01*
X0287693Y0060546D02*
X0280603Y0060546D01*
X0280964Y0062145D02*
X0287693Y0062145D01*
X0287693Y0063743D02*
X0281326Y0063743D01*
X0281687Y0065342D02*
X0287693Y0065342D01*
X0287693Y0066940D02*
X0282049Y0066940D01*
X0282411Y0068539D02*
X0287693Y0068539D01*
X0287693Y0070137D02*
X0282772Y0070137D01*
X0283134Y0071736D02*
X0287693Y0071736D01*
X0287693Y0073334D02*
X0283495Y0073334D01*
X0283857Y0074933D02*
X0287693Y0074933D01*
X0287693Y0076532D02*
X0284218Y0076532D01*
X0284580Y0078130D02*
X0287693Y0078130D01*
X0287693Y0079729D02*
X0284941Y0079729D01*
X0285303Y0081327D02*
X0287693Y0081327D01*
X0287693Y0082926D02*
X0285664Y0082926D01*
X0286026Y0084524D02*
X0287693Y0084524D01*
X0287693Y0086123D02*
X0286388Y0086123D01*
X0286749Y0087721D02*
X0287693Y0087721D01*
X0287693Y0089320D02*
X0287111Y0089320D01*
X0287472Y0090918D02*
X0287693Y0090918D01*
X0283733Y0092517D02*
X0282547Y0092517D01*
X0283371Y0090918D02*
X0258688Y0090918D01*
X0251467Y0089320D02*
X0283010Y0089320D01*
X0282648Y0087721D02*
X0244245Y0087721D01*
X0237023Y0086123D02*
X0282287Y0086123D01*
X0280479Y0078130D02*
X0264731Y0078130D01*
X0265344Y0076532D02*
X0280117Y0076532D01*
X0279756Y0074933D02*
X0265325Y0074933D01*
X0264603Y0073334D02*
X0279394Y0073334D01*
X0274631Y0092517D02*
X0265910Y0092517D01*
X0255389Y0105972D02*
X0255389Y0107335D01*
X0254750Y0108879D01*
X0253568Y0110061D01*
X0252024Y0110700D01*
X0245154Y0110700D01*
X0243610Y0110061D01*
X0243600Y0110051D01*
X0243923Y0110831D01*
X0243923Y0112019D01*
X0243494Y0113055D01*
X0243610Y0112939D01*
X0245154Y0112300D01*
X0252024Y0112300D01*
X0253568Y0112939D01*
X0254750Y0114121D01*
X0255389Y0115665D01*
X0255389Y0117335D01*
X0254750Y0118879D01*
X0253568Y0120061D01*
X0252024Y0120700D01*
X0245154Y0120700D01*
X0243610Y0120061D01*
X0242428Y0118879D01*
X0241877Y0117549D01*
X0239105Y0128628D01*
X0239084Y0128903D01*
X0238990Y0129087D01*
X0238940Y0129286D01*
X0238776Y0129508D01*
X0235389Y0136165D01*
X0235389Y0137335D01*
X0235206Y0137778D01*
X0241915Y0135360D01*
X0242428Y0134121D01*
X0243610Y0132939D01*
X0245154Y0132300D01*
X0252024Y0132300D01*
X0253568Y0132939D01*
X0254750Y0134121D01*
X0255389Y0135665D01*
X0255389Y0137335D01*
X0254750Y0138879D01*
X0253568Y0140061D01*
X0252024Y0140700D01*
X0245154Y0140700D01*
X0243610Y0140061D01*
X0242831Y0139282D01*
X0235373Y0141969D01*
X0235260Y0142130D01*
X0234615Y0142242D01*
X0233999Y0142464D01*
X0233822Y0142381D01*
X0233058Y0142514D01*
X0233495Y0142737D01*
X0234055Y0143144D01*
X0234545Y0143634D01*
X0234952Y0144194D01*
X0235267Y0144811D01*
X0235481Y0145470D01*
X0235589Y0146154D01*
X0235589Y0146500D01*
X0235589Y0146846D01*
X0235481Y0147530D01*
X0235426Y0147699D01*
X0241915Y0145360D01*
X0242428Y0144121D01*
X0243610Y0142939D01*
X0245154Y0142300D01*
X0252024Y0142300D01*
X0253568Y0142939D01*
X0254750Y0144121D01*
X0255389Y0145665D01*
X0255389Y0147028D01*
X0271789Y0136014D01*
X0271789Y0135665D01*
X0272428Y0134121D01*
X0273610Y0132939D01*
X0275154Y0132300D01*
X0282024Y0132300D01*
X0283568Y0132939D01*
X0284328Y0133699D01*
X0284328Y0129301D01*
X0283568Y0130061D01*
X0282024Y0130700D01*
X0275154Y0130700D01*
X0273610Y0130061D01*
X0272428Y0128879D01*
X0271789Y0127335D01*
X0271789Y0125665D01*
X0272428Y0124121D01*
X0273610Y0122939D01*
X0275154Y0122300D01*
X0282024Y0122300D01*
X0283162Y0122771D01*
X0282195Y0120629D01*
X0282024Y0120700D01*
X0275154Y0120700D01*
X0273610Y0120061D01*
X0272428Y0118879D01*
X0271789Y0117335D01*
X0271789Y0116986D01*
X0255389Y0105972D01*
X0255389Y0106903D02*
X0256775Y0106903D01*
X0254906Y0108502D02*
X0259155Y0108502D01*
X0261535Y0110100D02*
X0253472Y0110100D01*
X0253926Y0113297D02*
X0266296Y0113297D01*
X0263916Y0111699D02*
X0243923Y0111699D01*
X0243706Y0110100D02*
X0243621Y0110100D01*
X0240936Y0111425D02*
X0236728Y0128241D01*
X0232526Y0136500D01*
X0228589Y0136500D01*
X0224652Y0136500D01*
X0207712Y0143083D01*
X0202526Y0146500D01*
X0198589Y0146500D01*
X0194652Y0146500D01*
X0191322Y0139672D01*
X0190450Y0138241D01*
X0188202Y0133968D01*
X0182526Y0126500D01*
X0178589Y0126500D01*
X0174652Y0126500D01*
X0154748Y0120696D01*
X0136266Y0116515D01*
X0132329Y0116515D01*
X0128055Y0122433D02*
X0126831Y0122326D01*
X0126194Y0122390D01*
X0126030Y0122256D01*
X0125818Y0122237D01*
X0125407Y0121747D01*
X0123377Y0120090D01*
X0123262Y0120090D01*
X0122747Y0119575D01*
X0122183Y0119115D01*
X0122172Y0119000D01*
X0122090Y0118919D01*
X0122090Y0118542D01*
X0121557Y0118009D01*
X0121102Y0116911D01*
X0121102Y0116818D01*
X0120432Y0116818D01*
X0119700Y0116515D01*
X0118731Y0121222D01*
X0112134Y0157900D01*
X0112232Y0158157D01*
X0111993Y0158687D01*
X0111890Y0159259D01*
X0111664Y0159416D01*
X0108989Y0165342D01*
X0109129Y0165680D01*
X0109129Y0167350D01*
X0108772Y0168212D01*
X0122590Y0144402D01*
X0122590Y0144112D01*
X0122991Y0143711D01*
X0123276Y0143220D01*
X0123557Y0143145D01*
X0124817Y0141885D01*
X0125989Y0140713D01*
X0128889Y0140713D01*
X0127350Y0140076D01*
X0126169Y0138894D01*
X0125529Y0137350D01*
X0125529Y0135680D01*
X0126169Y0134136D01*
X0127350Y0132954D01*
X0128894Y0132315D01*
X0135765Y0132315D01*
X0137308Y0132954D01*
X0138490Y0134136D01*
X0139129Y0135680D01*
X0139129Y0137350D01*
X0138490Y0138894D01*
X0137308Y0140076D01*
X0135769Y0140713D01*
X0138669Y0140713D01*
X0141309Y0143352D01*
X0141808Y0143652D01*
X0141874Y0143918D01*
X0142068Y0144112D01*
X0142068Y0144503D01*
X0142226Y0144194D01*
X0142633Y0143634D01*
X0143123Y0143144D01*
X0143683Y0142737D01*
X0144300Y0142422D01*
X0144959Y0142208D01*
X0145643Y0142100D01*
X0148589Y0142100D01*
X0151535Y0142100D01*
X0152219Y0142208D01*
X0152878Y0142422D01*
X0153495Y0142737D01*
X0154055Y0143144D01*
X0154545Y0143634D01*
X0154952Y0144194D01*
X0155267Y0144811D01*
X0155481Y0145470D01*
X0155589Y0146154D01*
X0155589Y0146500D01*
X0155589Y0146846D01*
X0155581Y0146899D01*
X0171789Y0136014D01*
X0171789Y0135665D01*
X0172428Y0134121D01*
X0173610Y0132939D01*
X0174362Y0132628D01*
X0173277Y0132392D01*
X0173102Y0132467D01*
X0172489Y0132221D01*
X0171843Y0132080D01*
X0171740Y0131921D01*
X0155457Y0125396D01*
X0155481Y0125470D01*
X0155589Y0126154D01*
X0155589Y0126500D01*
X0155589Y0126846D01*
X0155481Y0127530D01*
X0155267Y0128189D01*
X0154952Y0128806D01*
X0154545Y0129366D01*
X0154055Y0129856D01*
X0153495Y0130263D01*
X0152878Y0130578D01*
X0152219Y0130792D01*
X0151535Y0130900D01*
X0148589Y0130900D01*
X0148589Y0126500D01*
X0155589Y0126500D01*
X0148589Y0126500D01*
X0148589Y0126500D01*
X0148589Y0126500D01*
X0148589Y0130900D01*
X0145643Y0130900D01*
X0144959Y0130792D01*
X0144300Y0130578D01*
X0143683Y0130263D01*
X0143123Y0129856D01*
X0142633Y0129366D01*
X0142226Y0128806D01*
X0141911Y0128189D01*
X0141697Y0127530D01*
X0141589Y0126846D01*
X0141589Y0126500D01*
X0148589Y0126500D01*
X0148589Y0126500D01*
X0141589Y0126500D01*
X0141589Y0126154D01*
X0141697Y0125470D01*
X0141911Y0124811D01*
X0142226Y0124194D01*
X0142584Y0123701D01*
X0137931Y0123294D01*
X0138285Y0123649D01*
X0138692Y0124209D01*
X0139007Y0124826D01*
X0139221Y0125485D01*
X0139329Y0126169D01*
X0139329Y0126515D01*
X0139329Y0126861D01*
X0139221Y0127545D01*
X0139007Y0128204D01*
X0138692Y0128821D01*
X0138285Y0129381D01*
X0137796Y0129871D01*
X0137235Y0130278D01*
X0136618Y0130593D01*
X0135959Y0130807D01*
X0135275Y0130915D01*
X0132329Y0130915D01*
X0129383Y0130915D01*
X0128699Y0130807D01*
X0128040Y0130593D01*
X0127423Y0130278D01*
X0126863Y0129871D01*
X0126373Y0129381D01*
X0125966Y0128821D01*
X0125651Y0128204D01*
X0125437Y0127545D01*
X0125329Y0126861D01*
X0125329Y0126515D01*
X0132329Y0126515D01*
X0132329Y0126515D01*
X0132329Y0130915D01*
X0132329Y0126515D01*
X0132329Y0126515D01*
X0125329Y0126515D01*
X0125329Y0126169D01*
X0125437Y0125485D01*
X0125651Y0124826D01*
X0125966Y0124209D01*
X0126373Y0123649D01*
X0126863Y0123159D01*
X0127423Y0122752D01*
X0128040Y0122437D01*
X0128055Y0122433D01*
X0127235Y0122888D02*
X0118431Y0122888D01*
X0118719Y0121290D02*
X0124847Y0121290D01*
X0122863Y0119691D02*
X0119046Y0119691D01*
X0119375Y0118093D02*
X0121641Y0118093D01*
X0118144Y0124487D02*
X0125824Y0124487D01*
X0125342Y0126085D02*
X0117856Y0126085D01*
X0117569Y0127684D02*
X0125483Y0127684D01*
X0126301Y0129282D02*
X0117281Y0129282D01*
X0116994Y0130881D02*
X0129168Y0130881D01*
X0128497Y0132479D02*
X0116706Y0132479D01*
X0116419Y0134078D02*
X0126226Y0134078D01*
X0125530Y0135676D02*
X0116131Y0135676D01*
X0115844Y0137275D02*
X0125529Y0137275D01*
X0126160Y0138873D02*
X0115556Y0138873D01*
X0115269Y0140472D02*
X0128307Y0140472D01*
X0124631Y0142070D02*
X0114981Y0142070D01*
X0114694Y0143669D02*
X0123015Y0143669D01*
X0122088Y0145268D02*
X0114406Y0145268D01*
X0114119Y0146866D02*
X0121160Y0146866D01*
X0120232Y0148465D02*
X0113831Y0148465D01*
X0113544Y0150063D02*
X0119305Y0150063D01*
X0118377Y0151662D02*
X0113256Y0151662D01*
X0112969Y0153260D02*
X0117449Y0153260D01*
X0116522Y0154859D02*
X0112681Y0154859D01*
X0112394Y0156457D02*
X0115594Y0156457D01*
X0114666Y0158056D02*
X0112193Y0158056D01*
X0111556Y0159654D02*
X0113739Y0159654D01*
X0112811Y0161253D02*
X0110835Y0161253D01*
X0110114Y0162851D02*
X0111883Y0162851D01*
X0110956Y0164450D02*
X0109392Y0164450D01*
X0109129Y0166048D02*
X0110028Y0166048D01*
X0109100Y0167647D02*
X0109006Y0167647D01*
X0108173Y0169245D02*
X0108139Y0169245D01*
X0107245Y0170844D02*
X0094446Y0170844D01*
X0094446Y0172442D02*
X0098587Y0172442D01*
X0096264Y0174041D02*
X0094446Y0174041D01*
X0094446Y0175639D02*
X0095546Y0175639D01*
X0095529Y0177238D02*
X0094446Y0177238D01*
X0094446Y0178836D02*
X0096145Y0178836D01*
X0094446Y0180435D02*
X0098217Y0180435D01*
X0096673Y0183632D02*
X0094446Y0183632D01*
X0094446Y0185230D02*
X0095715Y0185230D01*
X0095529Y0186829D02*
X0094446Y0186829D01*
X0094446Y0188427D02*
X0095975Y0188427D01*
X0097300Y0190026D02*
X0094446Y0190026D01*
X0094446Y0191624D02*
X0111223Y0191624D01*
X0108404Y0190026D02*
X0107358Y0190026D01*
X0110875Y0186829D02*
X0125529Y0186829D01*
X0125715Y0185230D02*
X0108943Y0185230D01*
X0107986Y0183632D02*
X0126673Y0183632D01*
X0128217Y0180435D02*
X0106441Y0180435D01*
X0108514Y0178836D02*
X0126145Y0178836D01*
X0125529Y0177238D02*
X0109129Y0177238D01*
X0109112Y0175639D02*
X0125546Y0175639D01*
X0126264Y0174041D02*
X0110014Y0174041D01*
X0110942Y0172442D02*
X0128587Y0172442D01*
X0126520Y0169245D02*
X0112797Y0169245D01*
X0111870Y0170844D02*
X0136631Y0170844D01*
X0125652Y0167647D02*
X0113725Y0167647D01*
X0114653Y0166048D02*
X0125529Y0166048D01*
X0126039Y0164450D02*
X0115580Y0164450D01*
X0116508Y0162851D02*
X0127599Y0162851D01*
X0126929Y0159654D02*
X0118363Y0159654D01*
X0117436Y0161253D02*
X0136528Y0161253D01*
X0137730Y0159654D02*
X0138217Y0159654D01*
X0138837Y0158056D02*
X0141868Y0158056D01*
X0141589Y0156457D02*
X0139129Y0156457D01*
X0138789Y0154859D02*
X0141896Y0154859D01*
X0148589Y0146500D02*
X0155589Y0146500D01*
X0148589Y0146500D01*
X0148589Y0146500D01*
X0148589Y0142100D01*
X0148589Y0146500D01*
X0148589Y0146500D01*
X0148589Y0145268D02*
X0148589Y0145268D01*
X0148589Y0143669D02*
X0148589Y0143669D01*
X0148589Y0140900D02*
X0145643Y0140900D01*
X0144959Y0140792D01*
X0144300Y0140578D01*
X0143683Y0140263D01*
X0143123Y0139856D01*
X0142633Y0139366D01*
X0142226Y0138806D01*
X0141911Y0138189D01*
X0141697Y0137530D01*
X0141589Y0136846D01*
X0141589Y0136500D01*
X0148589Y0136500D01*
X0155589Y0136500D01*
X0155589Y0136846D01*
X0155481Y0137530D01*
X0155267Y0138189D01*
X0154952Y0138806D01*
X0154545Y0139366D01*
X0154055Y0139856D01*
X0153495Y0140263D01*
X0152878Y0140578D01*
X0152219Y0140792D01*
X0151535Y0140900D01*
X0148589Y0140900D01*
X0148589Y0136500D01*
X0148589Y0136500D01*
X0148589Y0136500D01*
X0155589Y0136500D01*
X0155589Y0136154D01*
X0155481Y0135470D01*
X0155267Y0134811D01*
X0154952Y0134194D01*
X0154545Y0133634D01*
X0154055Y0133144D01*
X0153495Y0132737D01*
X0152878Y0132422D01*
X0152219Y0132208D01*
X0151535Y0132100D01*
X0148589Y0132100D01*
X0148589Y0136500D01*
X0148589Y0136500D01*
X0148589Y0140900D01*
X0148589Y0140472D02*
X0148589Y0140472D01*
X0148589Y0138873D02*
X0148589Y0138873D01*
X0148589Y0137275D02*
X0148589Y0137275D01*
X0148589Y0136500D02*
X0148589Y0136500D01*
X0148589Y0132100D01*
X0145643Y0132100D01*
X0144959Y0132208D01*
X0144300Y0132422D01*
X0143683Y0132737D01*
X0143123Y0133144D01*
X0142633Y0133634D01*
X0142226Y0134194D01*
X0141911Y0134811D01*
X0141697Y0135470D01*
X0141589Y0136154D01*
X0141589Y0136500D01*
X0148589Y0136500D01*
X0148589Y0135676D02*
X0148589Y0135676D01*
X0148589Y0134078D02*
X0148589Y0134078D01*
X0148589Y0132479D02*
X0148589Y0132479D01*
X0148589Y0130881D02*
X0148589Y0130881D01*
X0148589Y0129282D02*
X0148589Y0129282D01*
X0148589Y0127684D02*
X0148589Y0127684D01*
X0151656Y0130881D02*
X0169145Y0130881D01*
X0165156Y0129282D02*
X0154606Y0129282D01*
X0155431Y0127684D02*
X0161167Y0127684D01*
X0157177Y0126085D02*
X0155578Y0126085D01*
X0152990Y0132479D02*
X0173679Y0132479D01*
X0172471Y0134078D02*
X0154868Y0134078D01*
X0155513Y0135676D02*
X0171789Y0135676D01*
X0169911Y0137275D02*
X0155521Y0137275D01*
X0154903Y0138873D02*
X0167531Y0138873D01*
X0165150Y0140472D02*
X0153085Y0140472D01*
X0154571Y0143669D02*
X0160390Y0143669D01*
X0158010Y0145268D02*
X0155415Y0145268D01*
X0155586Y0146866D02*
X0155630Y0146866D01*
X0158044Y0150063D02*
X0173616Y0150063D01*
X0173610Y0150061D02*
X0172428Y0148879D01*
X0171789Y0147335D01*
X0171789Y0145665D01*
X0172428Y0144121D01*
X0173610Y0142939D01*
X0175154Y0142300D01*
X0182024Y0142300D01*
X0182972Y0142692D01*
X0182114Y0140663D01*
X0182024Y0140700D01*
X0175154Y0140700D01*
X0173610Y0140061D01*
X0173340Y0139790D01*
X0156122Y0151353D01*
X0171936Y0157690D01*
X0171789Y0157335D01*
X0171789Y0155665D01*
X0172428Y0154121D01*
X0173610Y0152939D01*
X0175154Y0152300D01*
X0182024Y0152300D01*
X0183568Y0152939D01*
X0184135Y0153506D01*
X0188435Y0151437D01*
X0188793Y0150573D01*
X0189391Y0149975D01*
X0188970Y0149648D01*
X0188952Y0149504D01*
X0185389Y0145933D01*
X0185389Y0147335D01*
X0184750Y0148879D01*
X0183568Y0150061D01*
X0182024Y0150700D01*
X0175154Y0150700D01*
X0173610Y0150061D01*
X0172257Y0148465D02*
X0160424Y0148465D01*
X0162804Y0146866D02*
X0171789Y0146866D01*
X0171953Y0145268D02*
X0165184Y0145268D01*
X0167565Y0143669D02*
X0172880Y0143669D01*
X0169945Y0142070D02*
X0182709Y0142070D01*
X0185389Y0146866D02*
X0186320Y0146866D01*
X0184921Y0148465D02*
X0187915Y0148465D01*
X0189303Y0150063D02*
X0183562Y0150063D01*
X0183889Y0153260D02*
X0184646Y0153260D01*
X0187968Y0151662D02*
X0156891Y0151662D01*
X0160880Y0153260D02*
X0173289Y0153260D01*
X0172123Y0154859D02*
X0164870Y0154859D01*
X0162094Y0158056D02*
X0155310Y0158056D01*
X0155589Y0156457D02*
X0158105Y0156457D01*
X0163235Y0159654D02*
X0166083Y0159654D01*
X0168859Y0156457D02*
X0171789Y0156457D01*
X0171629Y0163881D02*
X0154037Y0163408D01*
X0154750Y0164121D01*
X0155389Y0165665D01*
X0155389Y0167335D01*
X0154750Y0168879D01*
X0153568Y0170061D01*
X0153508Y0170085D01*
X0172524Y0168975D01*
X0172428Y0168879D01*
X0171789Y0167335D01*
X0171789Y0165665D01*
X0172428Y0164121D01*
X0172641Y0163908D01*
X0172462Y0163903D01*
X0171630Y0163882D01*
X0171629Y0163881D01*
X0172292Y0164450D02*
X0154886Y0164450D01*
X0155389Y0166048D02*
X0171789Y0166048D01*
X0171918Y0167647D02*
X0155260Y0167647D01*
X0154383Y0169245D02*
X0167894Y0169245D01*
X0172509Y0174041D02*
X0154669Y0174041D01*
X0155378Y0175639D02*
X0171799Y0175639D01*
X0171789Y0177238D02*
X0155389Y0177238D01*
X0154767Y0178836D02*
X0172411Y0178836D01*
X0174513Y0180435D02*
X0152665Y0180435D01*
X0154260Y0183632D02*
X0172917Y0183632D01*
X0171969Y0185230D02*
X0155209Y0185230D01*
X0155389Y0186829D02*
X0171789Y0186829D01*
X0170569Y0188427D02*
X0154937Y0188427D01*
X0154524Y0190026D02*
X0169301Y0190026D01*
X0168033Y0191624D02*
X0154524Y0191624D01*
X0154524Y0193223D02*
X0166764Y0193223D01*
X0165496Y0194821D02*
X0154524Y0194821D01*
X0154524Y0196420D02*
X0164227Y0196420D01*
X0168065Y0198018D02*
X0168795Y0198018D01*
X0169334Y0196420D02*
X0189854Y0196420D01*
X0189659Y0194821D02*
X0170602Y0194821D01*
X0171871Y0193223D02*
X0189464Y0193223D01*
X0189268Y0191624D02*
X0173139Y0191624D01*
X0176253Y0198018D02*
X0178795Y0198018D01*
X0177685Y0199617D02*
X0177362Y0199617D01*
X0186253Y0198018D02*
X0188795Y0198018D01*
X0187685Y0199617D02*
X0187362Y0199617D01*
X0193884Y0196420D02*
X0206652Y0196420D01*
X0207002Y0194821D02*
X0193688Y0194821D01*
X0193493Y0193223D02*
X0207352Y0193223D01*
X0207702Y0191624D02*
X0193298Y0191624D01*
X0193103Y0190026D02*
X0193575Y0190026D01*
X0189073Y0190026D02*
X0183603Y0190026D01*
X0184937Y0188427D02*
X0188850Y0188427D01*
X0188850Y0186829D02*
X0185389Y0186829D01*
X0185209Y0185230D02*
X0188827Y0185230D01*
X0189239Y0183632D02*
X0184260Y0183632D01*
X0182665Y0180435D02*
X0190682Y0180435D01*
X0189961Y0182033D02*
X0144349Y0182033D01*
X0136816Y0180435D02*
X0136441Y0180435D01*
X0136094Y0182033D02*
X0094446Y0182033D01*
X0106072Y0172442D02*
X0106317Y0172442D01*
X0096520Y0169245D02*
X0094446Y0169245D01*
X0094446Y0167647D02*
X0095652Y0167647D01*
X0095529Y0166048D02*
X0094446Y0166048D01*
X0094446Y0164450D02*
X0096039Y0164450D01*
X0097599Y0162851D02*
X0094446Y0162851D01*
X0094446Y0161253D02*
X0106447Y0161253D01*
X0096929Y0159654D02*
X0094446Y0159654D01*
X0094446Y0158056D02*
X0095821Y0158056D01*
X0095529Y0156457D02*
X0094446Y0156457D01*
X0094446Y0154859D02*
X0095869Y0154859D01*
X0097044Y0153260D02*
X0094446Y0153260D01*
X0094446Y0151662D02*
X0106262Y0151662D01*
X0097338Y0150063D02*
X0094446Y0150063D01*
X0094446Y0148465D02*
X0095991Y0148465D01*
X0095529Y0146866D02*
X0094446Y0146866D01*
X0094446Y0145268D02*
X0095700Y0145268D01*
X0096635Y0143669D02*
X0094446Y0143669D01*
X0094446Y0142070D02*
X0106078Y0142070D01*
X0106351Y0140472D02*
X0106799Y0140472D01*
X0108432Y0134078D02*
X0108695Y0134078D01*
X0108955Y0132479D02*
X0106162Y0132479D01*
X0105765Y0130715D02*
X0098894Y0130715D01*
X0097350Y0130076D01*
X0096169Y0128894D01*
X0095529Y0127350D01*
X0095529Y0125680D01*
X0096169Y0124136D01*
X0097350Y0122954D01*
X0098894Y0122315D01*
X0105765Y0122315D01*
X0107308Y0122954D01*
X0108490Y0124136D01*
X0109129Y0125680D01*
X0109129Y0127350D01*
X0108490Y0128894D01*
X0107308Y0130076D01*
X0105765Y0130715D01*
X0108101Y0129282D02*
X0109476Y0129282D01*
X0109736Y0127684D02*
X0108991Y0127684D01*
X0109129Y0126085D02*
X0109996Y0126085D01*
X0110256Y0124487D02*
X0108635Y0124487D01*
X0107149Y0122888D02*
X0110517Y0122888D01*
X0110777Y0121290D02*
X0094446Y0121290D01*
X0094446Y0122888D02*
X0097509Y0122888D01*
X0096023Y0124487D02*
X0094446Y0124487D01*
X0094446Y0126085D02*
X0095529Y0126085D01*
X0095667Y0127684D02*
X0094446Y0127684D01*
X0094446Y0129282D02*
X0096557Y0129282D01*
X0094446Y0130881D02*
X0109215Y0130881D01*
X0098497Y0132479D02*
X0094446Y0132479D01*
X0094446Y0134078D02*
X0096226Y0134078D01*
X0095530Y0135676D02*
X0094446Y0135676D01*
X0094446Y0137275D02*
X0095529Y0137275D01*
X0096160Y0138873D02*
X0094446Y0138873D01*
X0094446Y0140472D02*
X0098307Y0140472D01*
X0122074Y0153260D02*
X0124084Y0153260D01*
X0125869Y0154859D02*
X0121147Y0154859D01*
X0120219Y0156457D02*
X0125529Y0156457D01*
X0125821Y0158056D02*
X0119291Y0158056D01*
X0140027Y0142070D02*
X0162770Y0142070D01*
X0172325Y0140472D02*
X0174603Y0140472D01*
X0188870Y0130881D02*
X0232692Y0130881D01*
X0232987Y0130301D02*
X0232024Y0130700D01*
X0225154Y0130700D01*
X0223610Y0130061D01*
X0222428Y0128879D01*
X0222078Y0128033D01*
X0204980Y0124677D01*
X0205389Y0125665D01*
X0205389Y0127335D01*
X0204750Y0128879D01*
X0203568Y0130061D01*
X0202024Y0130700D01*
X0195154Y0130700D01*
X0193610Y0130061D01*
X0192428Y0128879D01*
X0191789Y0127335D01*
X0191789Y0126816D01*
X0184321Y0121046D01*
X0165467Y0118884D01*
X0165433Y0118909D01*
X0164650Y0118791D01*
X0163863Y0118700D01*
X0163837Y0118668D01*
X0142178Y0115392D01*
X0154886Y0118267D01*
X0154962Y0118258D01*
X0155350Y0118371D01*
X0155744Y0118461D01*
X0155806Y0118504D01*
X0173024Y0123525D01*
X0173610Y0122939D01*
X0175154Y0122300D01*
X0182024Y0122300D01*
X0183568Y0122939D01*
X0184750Y0124121D01*
X0185389Y0125665D01*
X0185389Y0126301D01*
X0189947Y0132297D01*
X0190103Y0132428D01*
X0190233Y0132674D01*
X0190401Y0132896D01*
X0190453Y0133092D01*
X0191700Y0135462D01*
X0191911Y0134811D01*
X0192226Y0134194D01*
X0192633Y0133634D01*
X0193123Y0133144D01*
X0193683Y0132737D01*
X0194300Y0132422D01*
X0194959Y0132208D01*
X0195643Y0132100D01*
X0198589Y0132100D01*
X0201535Y0132100D01*
X0202219Y0132208D01*
X0202878Y0132422D01*
X0203495Y0132737D01*
X0204055Y0133144D01*
X0204545Y0133634D01*
X0204952Y0134194D01*
X0205267Y0134811D01*
X0205481Y0135470D01*
X0205589Y0136154D01*
X0205589Y0136500D01*
X0205589Y0136846D01*
X0205481Y0137530D01*
X0205267Y0138189D01*
X0204952Y0138806D01*
X0204545Y0139366D01*
X0204055Y0139856D01*
X0203495Y0140263D01*
X0202878Y0140578D01*
X0202219Y0140792D01*
X0201535Y0140900D01*
X0198589Y0140900D01*
X0198589Y0136500D01*
X0205589Y0136500D01*
X0198589Y0136500D01*
X0198589Y0136500D01*
X0198589Y0136500D01*
X0198589Y0132100D01*
X0198589Y0136500D01*
X0198589Y0136500D01*
X0198589Y0140900D01*
X0195643Y0140900D01*
X0194959Y0140792D01*
X0194459Y0140629D01*
X0195274Y0142300D01*
X0202024Y0142300D01*
X0203568Y0142939D01*
X0206210Y0141198D01*
X0206398Y0141019D01*
X0206604Y0140938D01*
X0206790Y0140816D01*
X0207045Y0140767D01*
X0222098Y0134917D01*
X0222428Y0134121D01*
X0223610Y0132939D01*
X0225154Y0132300D01*
X0231970Y0132300D01*
X0232987Y0130301D01*
X0237264Y0132479D02*
X0244720Y0132479D01*
X0245154Y0130700D02*
X0243610Y0130061D01*
X0242428Y0128879D01*
X0241789Y0127335D01*
X0241789Y0125665D01*
X0242428Y0124121D01*
X0243610Y0122939D01*
X0245154Y0122300D01*
X0252024Y0122300D01*
X0253568Y0122939D01*
X0254750Y0124121D01*
X0255389Y0125665D01*
X0255389Y0127335D01*
X0254750Y0128879D01*
X0253568Y0130061D01*
X0252024Y0130700D01*
X0245154Y0130700D01*
X0242832Y0129282D02*
X0238941Y0129282D01*
X0239341Y0127684D02*
X0241933Y0127684D01*
X0241789Y0126085D02*
X0239741Y0126085D01*
X0240141Y0124487D02*
X0242277Y0124487D01*
X0243733Y0122888D02*
X0240541Y0122888D01*
X0240941Y0121290D02*
X0282493Y0121290D01*
X0273733Y0122888D02*
X0253445Y0122888D01*
X0254901Y0124487D02*
X0272277Y0124487D01*
X0271789Y0126085D02*
X0255389Y0126085D01*
X0255245Y0127684D02*
X0271933Y0127684D01*
X0272832Y0129282D02*
X0254346Y0129282D01*
X0252458Y0132479D02*
X0274720Y0132479D01*
X0272471Y0134078D02*
X0254707Y0134078D01*
X0255389Y0135676D02*
X0271789Y0135676D01*
X0269911Y0137275D02*
X0255389Y0137275D01*
X0254752Y0138873D02*
X0267531Y0138873D01*
X0265150Y0140472D02*
X0252575Y0140472D01*
X0254298Y0143669D02*
X0260390Y0143669D01*
X0258010Y0145268D02*
X0255224Y0145268D01*
X0255389Y0146866D02*
X0255630Y0146866D01*
X0262770Y0142070D02*
X0235302Y0142070D01*
X0234571Y0143669D02*
X0242880Y0143669D01*
X0241953Y0145268D02*
X0235415Y0145268D01*
X0235589Y0146500D02*
X0228589Y0146500D01*
X0235589Y0146500D01*
X0235586Y0146866D02*
X0237737Y0146866D01*
X0239529Y0140472D02*
X0244603Y0140472D01*
X0241038Y0135676D02*
X0235638Y0135676D01*
X0235389Y0137275D02*
X0236602Y0137275D01*
X0236451Y0134078D02*
X0242471Y0134078D01*
X0238077Y0130881D02*
X0284328Y0130881D01*
X0284328Y0132479D02*
X0282458Y0132479D01*
X0273241Y0119691D02*
X0253937Y0119691D01*
X0255075Y0118093D02*
X0272103Y0118093D01*
X0271056Y0116494D02*
X0255389Y0116494D01*
X0255071Y0114896D02*
X0268676Y0114896D01*
X0243241Y0119691D02*
X0241341Y0119691D01*
X0241741Y0118093D02*
X0242103Y0118093D01*
X0237193Y0116494D02*
X0235389Y0116494D01*
X0235389Y0116127D02*
X0235389Y0117335D01*
X0234750Y0118879D01*
X0233568Y0120061D01*
X0232024Y0120700D01*
X0225154Y0120700D01*
X0223610Y0120061D01*
X0222428Y0118879D01*
X0221789Y0117335D01*
X0221789Y0115665D01*
X0222428Y0114121D01*
X0223610Y0112939D01*
X0225154Y0112300D01*
X0232024Y0112300D01*
X0233005Y0112706D01*
X0235953Y0109033D01*
X0235992Y0108755D01*
X0236453Y0108409D01*
X0236814Y0107959D01*
X0237093Y0107928D01*
X0238250Y0107059D01*
X0238375Y0106777D01*
X0238888Y0106579D01*
X0238915Y0106559D01*
X0235206Y0105222D01*
X0235389Y0105665D01*
X0235389Y0107335D01*
X0234750Y0108879D01*
X0233568Y0110061D01*
X0232024Y0110700D01*
X0225154Y0110700D01*
X0223610Y0110061D01*
X0222428Y0108879D01*
X0222218Y0108370D01*
X0221564Y0109024D01*
X0220466Y0109478D01*
X0219278Y0109478D01*
X0218180Y0109024D01*
X0217339Y0108183D01*
X0217227Y0107912D01*
X0205113Y0104998D01*
X0205389Y0105665D01*
X0205389Y0107335D01*
X0204750Y0108879D01*
X0203568Y0110061D01*
X0202024Y0110700D01*
X0195154Y0110700D01*
X0193610Y0110061D01*
X0192428Y0108879D01*
X0191789Y0107335D01*
X0191789Y0105665D01*
X0192189Y0104698D01*
X0185209Y0104698D01*
X0185267Y0104811D01*
X0185481Y0105470D01*
X0185589Y0106154D01*
X0185589Y0106500D01*
X0185589Y0106846D01*
X0185481Y0107530D01*
X0185267Y0108189D01*
X0184952Y0108806D01*
X0184545Y0109366D01*
X0184055Y0109856D01*
X0183495Y0110263D01*
X0182878Y0110578D01*
X0182219Y0110792D01*
X0181535Y0110900D01*
X0178589Y0110900D01*
X0178589Y0106500D01*
X0185589Y0106500D01*
X0178589Y0106500D01*
X0178589Y0106500D01*
X0178589Y0106500D01*
X0178589Y0110900D01*
X0175643Y0110900D01*
X0174959Y0110792D01*
X0174300Y0110578D01*
X0173683Y0110263D01*
X0173123Y0109856D01*
X0172633Y0109366D01*
X0172226Y0108806D01*
X0171911Y0108189D01*
X0171697Y0107530D01*
X0171589Y0106846D01*
X0171589Y0106500D01*
X0178589Y0106500D01*
X0178589Y0106500D01*
X0171589Y0106500D01*
X0171589Y0106154D01*
X0171697Y0105470D01*
X0171864Y0104956D01*
X0155089Y0108060D01*
X0154750Y0108879D01*
X0153568Y0110061D01*
X0152807Y0110376D01*
X0165905Y0113230D01*
X0185449Y0115471D01*
X0185703Y0115357D01*
X0186243Y0115562D01*
X0186817Y0115628D01*
X0186991Y0115847D01*
X0191955Y0117735D01*
X0191789Y0117335D01*
X0191789Y0115665D01*
X0192428Y0114121D01*
X0193610Y0112939D01*
X0195154Y0112300D01*
X0202024Y0112300D01*
X0203568Y0112939D01*
X0204750Y0114121D01*
X0205389Y0115665D01*
X0205389Y0117335D01*
X0204750Y0118879D01*
X0203568Y0120061D01*
X0203138Y0120239D01*
X0222508Y0124041D01*
X0223610Y0122939D01*
X0225154Y0122300D01*
X0232024Y0122300D01*
X0233568Y0122939D01*
X0234750Y0124121D01*
X0235083Y0124927D01*
X0238145Y0112693D01*
X0235389Y0116127D01*
X0236377Y0114896D02*
X0237593Y0114896D01*
X0237660Y0113297D02*
X0237993Y0113297D01*
X0233814Y0111699D02*
X0158878Y0111699D01*
X0154906Y0108502D02*
X0172071Y0108502D01*
X0171598Y0106903D02*
X0161341Y0106903D01*
X0166488Y0113297D02*
X0193252Y0113297D01*
X0192107Y0114896D02*
X0180429Y0114896D01*
X0184636Y0121290D02*
X0165358Y0121290D01*
X0170840Y0122888D02*
X0173733Y0122888D01*
X0172504Y0119691D02*
X0159876Y0119691D01*
X0160036Y0118093D02*
X0154118Y0118093D01*
X0149467Y0116494D02*
X0147052Y0116494D01*
X0153472Y0110100D02*
X0173459Y0110100D01*
X0178589Y0110100D02*
X0178589Y0110100D01*
X0178589Y0108502D02*
X0178589Y0108502D01*
X0178589Y0106903D02*
X0178589Y0106903D01*
X0183719Y0110100D02*
X0193706Y0110100D01*
X0192272Y0108502D02*
X0185107Y0108502D01*
X0185580Y0106903D02*
X0191789Y0106903D01*
X0191938Y0105305D02*
X0185427Y0105305D01*
X0188693Y0116494D02*
X0191789Y0116494D01*
X0186706Y0122888D02*
X0183445Y0122888D01*
X0184901Y0124487D02*
X0188775Y0124487D01*
X0190844Y0126085D02*
X0185389Y0126085D01*
X0186440Y0127684D02*
X0191933Y0127684D01*
X0192832Y0129282D02*
X0187655Y0129282D01*
X0190130Y0132479D02*
X0194188Y0132479D01*
X0192310Y0134078D02*
X0190972Y0134078D01*
X0198589Y0134078D02*
X0198589Y0134078D01*
X0198589Y0135676D02*
X0198589Y0135676D01*
X0198589Y0137275D02*
X0198589Y0137275D01*
X0198589Y0138873D02*
X0198589Y0138873D01*
X0198589Y0140472D02*
X0198589Y0140472D01*
X0195162Y0142070D02*
X0204886Y0142070D01*
X0203085Y0140472D02*
X0207804Y0140472D01*
X0204903Y0138873D02*
X0211918Y0138873D01*
X0216031Y0137275D02*
X0205521Y0137275D01*
X0205513Y0135676D02*
X0220145Y0135676D01*
X0222471Y0134078D02*
X0204868Y0134078D01*
X0202990Y0132479D02*
X0224720Y0132479D01*
X0222832Y0129282D02*
X0204346Y0129282D01*
X0205245Y0127684D02*
X0220300Y0127684D01*
X0223733Y0122888D02*
X0216636Y0122888D01*
X0212157Y0126085D02*
X0205389Y0126085D01*
X0208493Y0121290D02*
X0235993Y0121290D01*
X0235593Y0122888D02*
X0233445Y0122888D01*
X0234901Y0124487D02*
X0235193Y0124487D01*
X0236393Y0119691D02*
X0233937Y0119691D01*
X0235075Y0118093D02*
X0236793Y0118093D01*
X0235096Y0110100D02*
X0233472Y0110100D01*
X0234906Y0108502D02*
X0236330Y0108502D01*
X0235389Y0106903D02*
X0238319Y0106903D01*
X0235435Y0105305D02*
X0235240Y0105305D01*
X0223706Y0110100D02*
X0203472Y0110100D01*
X0204906Y0108502D02*
X0217658Y0108502D01*
X0222086Y0108502D02*
X0222272Y0108502D01*
X0223252Y0113297D02*
X0203926Y0113297D01*
X0205071Y0114896D02*
X0222107Y0114896D01*
X0221789Y0116494D02*
X0205389Y0116494D01*
X0205075Y0118093D02*
X0222103Y0118093D01*
X0223241Y0119691D02*
X0203937Y0119691D01*
X0205389Y0106903D02*
X0213033Y0106903D01*
X0206386Y0105305D02*
X0205240Y0105305D01*
X0171751Y0105305D02*
X0169981Y0105305D01*
X0142076Y0124487D02*
X0138834Y0124487D01*
X0139316Y0126085D02*
X0141600Y0126085D01*
X0141747Y0127684D02*
X0139176Y0127684D01*
X0139329Y0126515D02*
X0132329Y0126515D01*
X0132329Y0126515D01*
X0139329Y0126515D01*
X0138357Y0129282D02*
X0142572Y0129282D01*
X0145522Y0130881D02*
X0135490Y0130881D01*
X0136162Y0132479D02*
X0144188Y0132479D01*
X0142310Y0134078D02*
X0138432Y0134078D01*
X0139128Y0135676D02*
X0141665Y0135676D01*
X0141657Y0137275D02*
X0139129Y0137275D01*
X0138498Y0138873D02*
X0142275Y0138873D01*
X0144093Y0140472D02*
X0136351Y0140472D01*
X0141812Y0143669D02*
X0142607Y0143669D01*
X0132329Y0130881D02*
X0132329Y0130881D01*
X0132329Y0129282D02*
X0132329Y0129282D01*
X0132329Y0127684D02*
X0132329Y0127684D01*
X0111007Y0119691D02*
X0107975Y0119691D01*
X0107796Y0119871D02*
X0107235Y0120278D01*
X0106618Y0120593D01*
X0105959Y0120807D01*
X0105275Y0120915D01*
X0102329Y0120915D01*
X0099383Y0120915D01*
X0098699Y0120807D01*
X0098040Y0120593D01*
X0097423Y0120278D01*
X0096863Y0119871D01*
X0096373Y0119381D01*
X0095966Y0118821D01*
X0095651Y0118204D01*
X0095437Y0117545D01*
X0095329Y0116861D01*
X0095329Y0116515D01*
X0102329Y0116515D01*
X0102329Y0116515D01*
X0102329Y0120915D01*
X0102329Y0116515D01*
X0102329Y0116515D01*
X0095329Y0116515D01*
X0095329Y0116169D01*
X0095437Y0115485D01*
X0095651Y0114826D01*
X0095966Y0114209D01*
X0096373Y0113649D01*
X0096863Y0113159D01*
X0097423Y0112752D01*
X0098040Y0112437D01*
X0098699Y0112223D01*
X0099383Y0112115D01*
X0102329Y0112115D01*
X0102329Y0116515D01*
X0102329Y0116515D01*
X0102329Y0112115D01*
X0105275Y0112115D01*
X0105959Y0112223D01*
X0106618Y0112437D01*
X0107235Y0112752D01*
X0107796Y0113159D01*
X0108285Y0113649D01*
X0108692Y0114209D01*
X0109007Y0114826D01*
X0109221Y0115485D01*
X0109329Y0116169D01*
X0109329Y0116515D01*
X0109329Y0116861D01*
X0109221Y0117545D01*
X0109007Y0118204D01*
X0108692Y0118821D01*
X0108285Y0119381D01*
X0107796Y0119871D01*
X0109043Y0118093D02*
X0111390Y0118093D01*
X0111774Y0116494D02*
X0109329Y0116494D01*
X0109329Y0116515D02*
X0102329Y0116515D01*
X0109329Y0116515D01*
X0109029Y0114896D02*
X0112157Y0114896D01*
X0112541Y0113297D02*
X0107934Y0113297D01*
X0107308Y0110076D02*
X0105765Y0110715D01*
X0098894Y0110715D01*
X0097350Y0110076D01*
X0096169Y0108894D01*
X0095529Y0107350D01*
X0095529Y0105680D01*
X0096169Y0104136D01*
X0097350Y0102954D01*
X0098894Y0102315D01*
X0105765Y0102315D01*
X0107308Y0102954D01*
X0108490Y0104136D01*
X0109129Y0105680D01*
X0109129Y0107350D01*
X0108490Y0108894D01*
X0107308Y0110076D01*
X0107249Y0110100D02*
X0113303Y0110100D01*
X0112925Y0111699D02*
X0094446Y0111699D01*
X0094446Y0113297D02*
X0096724Y0113297D01*
X0095629Y0114896D02*
X0094446Y0114896D01*
X0094446Y0116494D02*
X0095329Y0116494D01*
X0095615Y0118093D02*
X0094446Y0118093D01*
X0094446Y0119691D02*
X0096683Y0119691D01*
X0102329Y0119691D02*
X0102329Y0119691D01*
X0102329Y0118093D02*
X0102329Y0118093D01*
X0102329Y0116515D02*
X0102329Y0116515D01*
X0102329Y0116494D02*
X0102329Y0116494D01*
X0102329Y0114896D02*
X0102329Y0114896D01*
X0102329Y0113297D02*
X0102329Y0113297D01*
X0097410Y0110100D02*
X0094446Y0110100D01*
X0094446Y0108502D02*
X0096006Y0108502D01*
X0095529Y0106903D02*
X0094446Y0106903D01*
X0094446Y0105305D02*
X0095684Y0105305D01*
X0096598Y0103706D02*
X0094446Y0103706D01*
X0094446Y0102108D02*
X0117720Y0102108D01*
X0116714Y0103706D02*
X0108060Y0103706D01*
X0108974Y0105305D02*
X0115709Y0105305D01*
X0114704Y0106903D02*
X0109129Y0106903D01*
X0108652Y0108502D02*
X0113746Y0108502D01*
X0118725Y0100509D02*
X0106261Y0100509D01*
X0105765Y0100715D02*
X0098894Y0100715D01*
X0097350Y0100076D01*
X0096169Y0098894D01*
X0095529Y0097350D01*
X0095529Y0095680D01*
X0096169Y0094136D01*
X0097350Y0092954D01*
X0098894Y0092315D01*
X0105765Y0092315D01*
X0107308Y0092954D01*
X0108490Y0094136D01*
X0109129Y0095680D01*
X0109129Y0097350D01*
X0108490Y0098894D01*
X0107308Y0100076D01*
X0105765Y0100715D01*
X0108473Y0098911D02*
X0119730Y0098911D01*
X0120736Y0097312D02*
X0109129Y0097312D01*
X0109129Y0095714D02*
X0121741Y0095714D01*
X0122590Y0094115D02*
X0108469Y0094115D01*
X0106251Y0092517D02*
X0124185Y0092517D01*
X0125659Y0090918D02*
X0094446Y0090918D01*
X0094446Y0089320D02*
X0096594Y0089320D01*
X0095683Y0087721D02*
X0094446Y0087721D01*
X0094446Y0086123D02*
X0095529Y0086123D01*
X0096008Y0084524D02*
X0094446Y0084524D01*
X0094446Y0082926D02*
X0097420Y0082926D01*
X0107239Y0082926D02*
X0114674Y0082926D01*
X0119381Y0086123D02*
X0125529Y0086123D01*
X0125683Y0087721D02*
X0110741Y0087721D01*
X0108064Y0089320D02*
X0126594Y0089320D01*
X0140412Y0076532D02*
X0141789Y0076532D01*
X0142092Y0074933D02*
X0138820Y0074933D01*
X0137688Y0073334D02*
X0143215Y0073334D01*
X0138637Y0068539D02*
X0158775Y0068539D01*
X0159563Y0070137D02*
X0137159Y0070137D01*
X0139129Y0066940D02*
X0157589Y0066940D01*
X0155149Y0065342D02*
X0138989Y0065342D01*
X0162223Y0047758D02*
X0165065Y0047758D01*
X0164314Y0046160D02*
X0162974Y0046160D01*
X0163044Y0044561D02*
X0164244Y0044561D01*
X0164244Y0042963D02*
X0163044Y0042963D01*
X0163044Y0041364D02*
X0164244Y0041364D01*
X0164244Y0039766D02*
X0163044Y0039766D01*
X0162848Y0038167D02*
X0164440Y0038167D01*
X0165368Y0036569D02*
X0162872Y0036569D01*
X0164007Y0034970D02*
X0182947Y0034970D01*
X0175368Y0036569D02*
X0171920Y0036569D01*
X0172848Y0038167D02*
X0174440Y0038167D01*
X0174244Y0039766D02*
X0173044Y0039766D01*
X0173044Y0041364D02*
X0174244Y0041364D01*
X0174244Y0042963D02*
X0173044Y0042963D01*
X0173044Y0044561D02*
X0174244Y0044561D01*
X0174314Y0046160D02*
X0172974Y0046160D01*
X0172223Y0047758D02*
X0175065Y0047758D01*
X0174072Y0049357D02*
X0177387Y0049357D01*
X0175284Y0054152D02*
X0172004Y0054152D01*
X0172883Y0055751D02*
X0174405Y0055751D01*
X0174244Y0057349D02*
X0173044Y0057349D01*
X0173044Y0058948D02*
X0174244Y0058948D01*
X0174244Y0060546D02*
X0173044Y0060546D01*
X0173044Y0062145D02*
X0174244Y0062145D01*
X0174349Y0063743D02*
X0172939Y0063743D01*
X0172140Y0065342D02*
X0175149Y0065342D01*
X0182883Y0055751D02*
X0184757Y0055751D01*
X0217524Y0028576D02*
X0269271Y0028576D01*
X0268909Y0026978D02*
X0222749Y0026978D01*
X0224032Y0015788D02*
X0211015Y0015788D01*
X0210526Y0016278D02*
X0208578Y0017085D01*
X0206469Y0017085D01*
X0204521Y0016278D01*
X0203030Y0014787D01*
X0202639Y0013841D01*
X0202621Y0013896D01*
X0202228Y0014667D01*
X0201719Y0015368D01*
X0201107Y0015980D01*
X0200406Y0016489D01*
X0199635Y0016882D01*
X0198812Y0017149D01*
X0197956Y0017285D01*
X0197724Y0017285D01*
X0197724Y0011985D01*
X0197324Y0011985D01*
X0197324Y0017285D01*
X0197091Y0017285D01*
X0196236Y0017149D01*
X0195412Y0016882D01*
X0194641Y0016489D01*
X0193941Y0015980D01*
X0193328Y0015368D01*
X0192820Y0014667D01*
X0192524Y0014086D01*
X0192228Y0014667D01*
X0191719Y0015368D01*
X0191107Y0015980D01*
X0190406Y0016489D01*
X0189635Y0016882D01*
X0188812Y0017149D01*
X0187956Y0017285D01*
X0187724Y0017285D01*
X0187724Y0011985D01*
X0197324Y0011985D01*
X0197324Y0011585D01*
X0197724Y0011585D01*
X0197724Y0006285D01*
X0197956Y0006285D01*
X0198812Y0006420D01*
X0199635Y0006688D01*
X0200406Y0007081D01*
X0201107Y0007589D01*
X0201719Y0008202D01*
X0202228Y0008902D01*
X0202621Y0009673D01*
X0202639Y0009729D01*
X0203030Y0008782D01*
X0204521Y0007292D01*
X0206469Y0006485D01*
X0208578Y0006485D01*
X0210526Y0007292D01*
X0212017Y0008782D01*
X0212824Y0010730D01*
X0212824Y0012839D01*
X0212017Y0014787D01*
X0210526Y0016278D01*
X0212264Y0014190D02*
X0222783Y0014190D01*
X0222224Y0012591D02*
X0212824Y0012591D01*
X0212824Y0010993D02*
X0222224Y0010993D01*
X0222777Y0009394D02*
X0212270Y0009394D01*
X0211030Y0007796D02*
X0224017Y0007796D01*
X0204017Y0007796D02*
X0201313Y0007796D01*
X0202478Y0009394D02*
X0202777Y0009394D01*
X0202783Y0014190D02*
X0202471Y0014190D01*
X0201298Y0015788D02*
X0204032Y0015788D01*
X0197724Y0015788D02*
X0197324Y0015788D01*
X0197324Y0014190D02*
X0197724Y0014190D01*
X0197724Y0012591D02*
X0197324Y0012591D01*
X0197324Y0011585D02*
X0193024Y0011585D01*
X0187724Y0011585D01*
X0187724Y0006285D01*
X0187956Y0006285D01*
X0188812Y0006420D01*
X0189635Y0006688D01*
X0190406Y0007081D01*
X0191107Y0007589D01*
X0191719Y0008202D01*
X0192228Y0008902D01*
X0192524Y0009483D01*
X0192820Y0008902D01*
X0193328Y0008202D01*
X0193941Y0007589D01*
X0194641Y0007081D01*
X0195412Y0006688D01*
X0196236Y0006420D01*
X0197091Y0006285D01*
X0197324Y0006285D01*
X0197324Y0011585D01*
X0197324Y0010993D02*
X0197724Y0010993D01*
X0197724Y0009394D02*
X0197324Y0009394D01*
X0197324Y0007796D02*
X0197724Y0007796D01*
X0193735Y0007796D02*
X0191313Y0007796D01*
X0192478Y0009394D02*
X0192569Y0009394D01*
X0192576Y0014190D02*
X0192471Y0014190D01*
X0191298Y0015788D02*
X0193749Y0015788D01*
X0187724Y0015788D02*
X0187324Y0015788D01*
X0187324Y0014190D02*
X0187724Y0014190D01*
X0187724Y0012591D02*
X0187324Y0012591D01*
X0187324Y0010993D02*
X0187724Y0010993D01*
X0187724Y0009394D02*
X0187324Y0009394D01*
X0187324Y0007796D02*
X0187724Y0007796D01*
X0183735Y0007796D02*
X0181030Y0007796D01*
X0182270Y0009394D02*
X0182569Y0009394D01*
X0174017Y0007796D02*
X0171030Y0007796D01*
X0172270Y0009394D02*
X0172777Y0009394D01*
X0172783Y0014190D02*
X0172264Y0014190D01*
X0171738Y0015788D02*
X0171015Y0015788D01*
X0170603Y0017387D02*
X0154965Y0017387D01*
X0153449Y0018985D02*
X0169468Y0018985D01*
X0168334Y0020584D02*
X0151932Y0020584D01*
X0150415Y0022182D02*
X0167199Y0022182D01*
X0164032Y0015788D02*
X0161015Y0015788D01*
X0162264Y0014190D02*
X0162783Y0014190D01*
X0162777Y0009394D02*
X0162270Y0009394D01*
X0161030Y0007796D02*
X0164017Y0007796D01*
X0154017Y0007796D02*
X0151030Y0007796D01*
X0152270Y0009394D02*
X0152777Y0009394D01*
X0144017Y0007796D02*
X0141030Y0007796D01*
X0142270Y0009394D02*
X0142777Y0009394D01*
X0142783Y0014190D02*
X0142264Y0014190D01*
X0141015Y0015788D02*
X0144032Y0015788D01*
X0141997Y0026978D02*
X0135280Y0026978D01*
X0138920Y0028576D02*
X0142858Y0028576D01*
X0141259Y0030175D02*
X0140083Y0030175D01*
X0145459Y0032500D02*
X0145459Y0032500D01*
X0225788Y0044561D02*
X0225885Y0044561D01*
X0229406Y0044561D02*
X0272886Y0044561D01*
X0272525Y0042963D02*
X0230520Y0042963D01*
X0230575Y0041364D02*
X0272163Y0041364D01*
X0271802Y0039766D02*
X0229539Y0039766D01*
X0271203Y0018985D02*
X0287693Y0018985D01*
X0254017Y0007796D02*
X0251030Y0007796D01*
X0252270Y0009394D02*
X0252777Y0009394D01*
X0232144Y0074933D02*
X0232144Y0074933D01*
X0232144Y0076532D02*
X0232144Y0076532D01*
X0232144Y0078130D02*
X0232144Y0078130D01*
X0232144Y0079729D02*
X0232144Y0079729D01*
X0234756Y0079729D02*
X0238617Y0079729D01*
X0236557Y0078130D02*
X0236354Y0078130D01*
X0198589Y0132479D02*
X0198589Y0132479D01*
X0208390Y0147759D02*
X0210301Y0146482D01*
X0222109Y0144423D01*
X0221911Y0144811D01*
X0221697Y0145470D01*
X0221589Y0146154D01*
X0221589Y0146500D01*
X0228589Y0146500D01*
X0228589Y0146500D01*
X0228589Y0146500D01*
X0221589Y0146500D01*
X0221589Y0146846D01*
X0221697Y0147530D01*
X0221911Y0148189D01*
X0222226Y0148806D01*
X0222633Y0149366D01*
X0223123Y0149856D01*
X0223683Y0150263D01*
X0224036Y0150443D01*
X0223275Y0150608D01*
X0223098Y0150533D01*
X0222487Y0150780D01*
X0221843Y0150920D01*
X0221739Y0151081D01*
X0207958Y0156633D01*
X0207234Y0156333D01*
X0206046Y0156333D01*
X0205389Y0156605D01*
X0205389Y0155665D01*
X0204750Y0154121D01*
X0203568Y0152939D01*
X0202029Y0152302D01*
X0204929Y0152302D01*
X0206101Y0151130D01*
X0207646Y0149585D01*
X0208197Y0149166D01*
X0208218Y0149013D01*
X0208328Y0148903D01*
X0208328Y0148211D01*
X0208390Y0147759D01*
X0208328Y0148465D02*
X0222052Y0148465D01*
X0221592Y0146866D02*
X0209727Y0146866D01*
X0207168Y0150063D02*
X0223407Y0150063D01*
X0220298Y0151662D02*
X0205570Y0151662D01*
X0203889Y0153260D02*
X0216330Y0153260D01*
X0212363Y0154859D02*
X0205055Y0154859D01*
X0205389Y0156457D02*
X0205746Y0156457D01*
X0207533Y0156457D02*
X0208395Y0156457D01*
X0217268Y0145268D02*
X0221763Y0145268D01*
X0253355Y0162851D02*
X0273823Y0162851D01*
X0273610Y0162939D02*
X0275154Y0162300D01*
X0282024Y0162300D01*
X0283568Y0162939D01*
X0284750Y0164121D01*
X0285389Y0165665D01*
X0285389Y0167335D01*
X0284750Y0168879D01*
X0283568Y0170061D01*
X0282024Y0170700D01*
X0275154Y0170700D01*
X0273610Y0170061D01*
X0272428Y0168879D01*
X0271789Y0167335D01*
X0271789Y0165665D01*
X0272428Y0164121D01*
X0273610Y0162939D01*
X0272292Y0164450D02*
X0254886Y0164450D01*
X0255389Y0166048D02*
X0271789Y0166048D01*
X0271918Y0167647D02*
X0255260Y0167647D01*
X0254383Y0169245D02*
X0272794Y0169245D01*
X0274810Y0172442D02*
X0252368Y0172442D01*
X0254669Y0174041D02*
X0272509Y0174041D01*
X0272428Y0174121D02*
X0273610Y0172939D01*
X0275154Y0172300D01*
X0282024Y0172300D01*
X0283568Y0172939D01*
X0284750Y0174121D01*
X0285389Y0175665D01*
X0285389Y0177335D01*
X0284750Y0178879D01*
X0283568Y0180061D01*
X0282024Y0180700D01*
X0275154Y0180700D01*
X0273610Y0180061D01*
X0272428Y0178879D01*
X0271789Y0177335D01*
X0271789Y0175665D01*
X0272428Y0174121D01*
X0271799Y0175639D02*
X0255378Y0175639D01*
X0255389Y0177238D02*
X0271789Y0177238D01*
X0272411Y0178836D02*
X0254767Y0178836D01*
X0252665Y0180435D02*
X0274513Y0180435D01*
X0274959Y0182208D02*
X0275643Y0182100D01*
X0278589Y0182100D01*
X0281535Y0182100D01*
X0282219Y0182208D01*
X0282878Y0182422D01*
X0283495Y0182737D01*
X0284055Y0183144D01*
X0284545Y0183634D01*
X0284952Y0184194D01*
X0285267Y0184811D01*
X0285481Y0185470D01*
X0285589Y0186154D01*
X0285589Y0186500D01*
X0285589Y0186846D01*
X0285481Y0187530D01*
X0285267Y0188189D01*
X0284952Y0188806D01*
X0284545Y0189366D01*
X0284055Y0189856D01*
X0283495Y0190263D01*
X0282878Y0190578D01*
X0282219Y0190792D01*
X0281535Y0190900D01*
X0278589Y0190900D01*
X0278589Y0186500D01*
X0285589Y0186500D01*
X0278589Y0186500D01*
X0278589Y0186500D01*
X0278589Y0186500D01*
X0278589Y0182100D01*
X0278589Y0186500D01*
X0278589Y0186500D01*
X0278589Y0190900D01*
X0275643Y0190900D01*
X0274959Y0190792D01*
X0274300Y0190578D01*
X0273683Y0190263D01*
X0273123Y0189856D01*
X0272633Y0189366D01*
X0272226Y0188806D01*
X0271911Y0188189D01*
X0271697Y0187530D01*
X0271589Y0186846D01*
X0271589Y0186500D01*
X0278589Y0186500D01*
X0278589Y0186500D01*
X0271589Y0186500D01*
X0271589Y0186154D01*
X0271697Y0185470D01*
X0271911Y0184811D01*
X0272226Y0184194D01*
X0272633Y0183634D01*
X0273123Y0183144D01*
X0273683Y0182737D01*
X0274300Y0182422D01*
X0274959Y0182208D01*
X0272635Y0183632D02*
X0254260Y0183632D01*
X0255209Y0185230D02*
X0271775Y0185230D01*
X0271589Y0186829D02*
X0255389Y0186829D01*
X0254937Y0188427D02*
X0272033Y0188427D01*
X0273356Y0190026D02*
X0253603Y0190026D01*
X0243575Y0190026D02*
X0239474Y0190026D01*
X0240356Y0188427D02*
X0242241Y0188427D01*
X0241789Y0186829D02*
X0241238Y0186829D01*
X0238174Y0191624D02*
X0287693Y0191624D01*
X0287693Y0190026D02*
X0283822Y0190026D01*
X0285145Y0188427D02*
X0287693Y0188427D01*
X0287693Y0186829D02*
X0285589Y0186829D01*
X0285403Y0185230D02*
X0287693Y0185230D01*
X0287693Y0183632D02*
X0284543Y0183632D01*
X0287693Y0182033D02*
X0243883Y0182033D01*
X0244165Y0172442D02*
X0244810Y0172442D01*
X0244886Y0170844D02*
X0287693Y0170844D01*
X0287693Y0172442D02*
X0282368Y0172442D01*
X0284669Y0174041D02*
X0287693Y0174041D01*
X0287693Y0175639D02*
X0285378Y0175639D01*
X0285389Y0177238D02*
X0287693Y0177238D01*
X0287693Y0178836D02*
X0284767Y0178836D01*
X0282665Y0180435D02*
X0287693Y0180435D01*
X0278589Y0183632D02*
X0278589Y0183632D01*
X0278589Y0185230D02*
X0278589Y0185230D01*
X0278589Y0186829D02*
X0278589Y0186829D01*
X0278589Y0188427D02*
X0278589Y0188427D01*
X0278589Y0190026D02*
X0278589Y0190026D01*
X0287693Y0193223D02*
X0236901Y0193223D01*
X0235628Y0194821D02*
X0287693Y0194821D01*
X0287693Y0196420D02*
X0234354Y0196420D01*
X0233795Y0198018D02*
X0233081Y0198018D01*
X0232685Y0199617D02*
X0232362Y0199617D01*
X0232172Y0204412D02*
X0232875Y0204412D01*
X0234255Y0206011D02*
X0230793Y0206011D01*
X0224255Y0206011D02*
X0220793Y0206011D01*
X0222172Y0204412D02*
X0222875Y0204412D01*
X0214255Y0206011D02*
X0210793Y0206011D01*
X0212172Y0204412D02*
X0212875Y0204412D01*
X0204255Y0206011D02*
X0195793Y0206011D01*
X0197172Y0204412D02*
X0202875Y0204412D01*
X0202224Y0202814D02*
X0197824Y0202814D01*
X0197824Y0201215D02*
X0202224Y0201215D01*
X0202685Y0199617D02*
X0197362Y0199617D01*
X0196253Y0198018D02*
X0203795Y0198018D01*
X0203603Y0190026D02*
X0208052Y0190026D01*
X0208403Y0188427D02*
X0204937Y0188427D01*
X0205389Y0186829D02*
X0208753Y0186829D01*
X0209103Y0185230D02*
X0205209Y0185230D01*
X0204260Y0183632D02*
X0209453Y0183632D01*
X0209804Y0182033D02*
X0194349Y0182033D01*
X0191404Y0178836D02*
X0184767Y0178836D01*
X0185389Y0177238D02*
X0191789Y0177238D01*
X0191799Y0175639D02*
X0185378Y0175639D01*
X0184669Y0174041D02*
X0192509Y0174041D01*
X0194810Y0172442D02*
X0184061Y0172442D01*
X0183952Y0172442D02*
X0182368Y0172442D01*
X0188497Y0170844D02*
X0204322Y0170844D01*
X0206075Y0172442D02*
X0202368Y0172442D01*
X0204669Y0174041D02*
X0207828Y0174041D01*
X0209581Y0175639D02*
X0205378Y0175639D01*
X0205389Y0177238D02*
X0210854Y0177238D01*
X0210504Y0178836D02*
X0204767Y0178836D01*
X0202665Y0180435D02*
X0210154Y0180435D01*
X0241253Y0198018D02*
X0243795Y0198018D01*
X0242685Y0199617D02*
X0242362Y0199617D01*
X0242172Y0204412D02*
X0242875Y0204412D01*
X0244255Y0206011D02*
X0240793Y0206011D01*
X0250793Y0206011D02*
X0254255Y0206011D01*
X0252875Y0204412D02*
X0252172Y0204412D01*
X0252362Y0199617D02*
X0252685Y0199617D01*
X0253795Y0198018D02*
X0251253Y0198018D01*
X0261253Y0198018D02*
X0263795Y0198018D01*
X0262685Y0199617D02*
X0262362Y0199617D01*
X0262172Y0204412D02*
X0262875Y0204412D01*
X0264255Y0206011D02*
X0260793Y0206011D01*
X0270793Y0206011D02*
X0274255Y0206011D01*
X0272875Y0204412D02*
X0272172Y0204412D01*
X0272362Y0199617D02*
X0272685Y0199617D01*
X0273795Y0198018D02*
X0271253Y0198018D01*
X0281253Y0198018D02*
X0287693Y0198018D01*
X0287693Y0199617D02*
X0282362Y0199617D01*
X0282824Y0201215D02*
X0287693Y0201215D01*
X0287693Y0202814D02*
X0282824Y0202814D01*
X0282172Y0204412D02*
X0287643Y0204412D01*
X0287204Y0206011D02*
X0280793Y0206011D01*
X0284345Y0209208D02*
X0097793Y0209208D01*
X0095882Y0207609D02*
X0128588Y0207609D01*
X0126989Y0206011D02*
X0125793Y0206011D01*
X0119255Y0206011D02*
X0115793Y0206011D01*
X0117172Y0204412D02*
X0117875Y0204412D01*
X0117685Y0199617D02*
X0117362Y0199617D01*
X0116253Y0198018D02*
X0118795Y0198018D01*
X0119682Y0196420D02*
X0094446Y0196420D01*
X0094446Y0198018D02*
X0098795Y0198018D01*
X0097685Y0199617D02*
X0094446Y0199617D01*
X0094446Y0201215D02*
X0097224Y0201215D01*
X0097224Y0202814D02*
X0094446Y0202814D01*
X0094495Y0204412D02*
X0097875Y0204412D01*
X0099255Y0206011D02*
X0094935Y0206011D01*
X0105793Y0206011D02*
X0109255Y0206011D01*
X0107875Y0204412D02*
X0107172Y0204412D01*
X0107362Y0199617D02*
X0107685Y0199617D01*
X0108795Y0198018D02*
X0106253Y0198018D01*
X0114043Y0193223D02*
X0094446Y0193223D01*
X0094446Y0194821D02*
X0116863Y0194821D01*
X0119334Y0191624D02*
X0139268Y0191624D01*
X0139073Y0190026D02*
X0137358Y0190026D01*
X0138683Y0188427D02*
X0138850Y0188427D01*
X0139464Y0193223D02*
X0122154Y0193223D01*
X0124973Y0194821D02*
X0139659Y0194821D01*
X0139854Y0196420D02*
X0133810Y0196420D01*
X0132724Y0196420D02*
X0132324Y0196420D01*
X0131237Y0196420D02*
X0126920Y0196420D01*
X0132324Y0198018D02*
X0132724Y0198018D01*
X0132724Y0199617D02*
X0132324Y0199617D01*
X0132324Y0201215D02*
X0132724Y0201215D01*
X0136536Y0198018D02*
X0138795Y0198018D01*
X0137685Y0199617D02*
X0137592Y0199617D01*
X0127300Y0190026D02*
X0116514Y0190026D01*
X0113695Y0188427D02*
X0125975Y0188427D01*
X0156253Y0198018D02*
X0158795Y0198018D01*
X0157685Y0199617D02*
X0157362Y0199617D01*
X0167362Y0199617D02*
X0167685Y0199617D01*
X0186871Y0207609D02*
X0286257Y0207609D01*
X0287693Y0169245D02*
X0284383Y0169245D01*
X0285260Y0167647D02*
X0287693Y0167647D01*
X0287693Y0166048D02*
X0285389Y0166048D01*
X0284886Y0164450D02*
X0287693Y0164450D01*
X0287693Y0162851D02*
X0283355Y0162851D01*
X0287693Y0161253D02*
X0257105Y0161253D01*
X0261095Y0159654D02*
X0273203Y0159654D01*
X0272087Y0158056D02*
X0265084Y0158056D01*
X0269073Y0156457D02*
X0271789Y0156457D01*
X0283889Y0153260D02*
X0287693Y0153260D01*
X0287693Y0151662D02*
X0285604Y0151662D01*
X0287168Y0150063D02*
X0287693Y0150063D01*
X0287693Y0154859D02*
X0285055Y0154859D01*
X0285389Y0156457D02*
X0287693Y0156457D01*
X0287693Y0158056D02*
X0285091Y0158056D01*
X0283975Y0159654D02*
X0287693Y0159654D01*
X0098397Y0100509D02*
X0094446Y0100509D01*
X0094446Y0098911D02*
X0096185Y0098911D01*
X0095529Y0097312D02*
X0094446Y0097312D01*
X0094446Y0095714D02*
X0095529Y0095714D01*
X0096189Y0094115D02*
X0094446Y0094115D01*
X0094446Y0092517D02*
X0098407Y0092517D01*
D17*
X0102329Y0086515D02*
X0106266Y0086515D01*
X0126817Y0082713D01*
X0184231Y0081904D01*
X0187585Y0082183D01*
X0188154Y0079103D02*
X0234101Y0092698D01*
X0243077Y0100302D01*
X0254101Y0102698D01*
X0274652Y0116500D01*
X0278589Y0116500D01*
X0282526Y0116500D01*
X0286328Y0124925D01*
X0286328Y0128075D01*
X0286328Y0148075D01*
X0284101Y0150302D01*
X0273077Y0152698D01*
X0254101Y0160302D01*
X0243077Y0162698D01*
X0240850Y0164925D01*
X0232526Y0176500D01*
X0228589Y0176500D01*
X0223077Y0172698D02*
X0234101Y0170302D01*
X0236328Y0168075D01*
X0244652Y0156500D01*
X0248589Y0156500D01*
X0243077Y0152698D02*
X0254669Y0151904D01*
X0274652Y0146500D01*
X0278589Y0146500D01*
X0278589Y0136500D02*
X0274652Y0136500D01*
X0254101Y0150302D01*
X0242509Y0151096D01*
X0242346Y0151163D01*
X0232526Y0156500D01*
X0228589Y0156500D01*
X0224652Y0156500D01*
X0218095Y0158231D01*
X0208208Y0162400D01*
X0206071Y0162400D01*
X0205332Y0161663D01*
X0204669Y0161096D01*
X0173077Y0160302D01*
X0154101Y0152698D01*
X0142509Y0151904D01*
X0125784Y0150735D01*
X0124590Y0144940D02*
X0126817Y0142713D01*
X0137841Y0142713D01*
X0140068Y0144940D01*
X0140850Y0148075D01*
X0143077Y0150302D01*
X0154101Y0150302D01*
X0174652Y0136500D01*
X0178589Y0136500D01*
X0182526Y0136500D01*
X0185263Y0142975D01*
X0190850Y0148575D01*
X0193077Y0150302D01*
X0204101Y0150302D01*
X0206328Y0148075D01*
X0206530Y0146596D01*
X0209541Y0144585D01*
X0234101Y0140302D01*
X0244652Y0136500D01*
X0248589Y0136500D01*
X0248589Y0146500D02*
X0244652Y0146500D01*
X0234101Y0150302D01*
X0223077Y0152698D01*
X0206640Y0159320D01*
X0203601Y0162698D02*
X0205407Y0164002D01*
X0208872Y0164002D01*
X0219164Y0160811D01*
X0228589Y0166500D02*
X0232526Y0166500D01*
X0240850Y0154925D01*
X0243077Y0152698D01*
X0244652Y0166500D02*
X0248589Y0166500D01*
X0244652Y0166500D02*
X0240850Y0174925D01*
X0236328Y0188075D01*
X0234101Y0190302D01*
X0217524Y0201785D01*
X0227524Y0201785D02*
X0237863Y0188806D01*
X0244652Y0176500D01*
X0248589Y0176500D01*
X0223077Y0172698D02*
X0213135Y0176173D01*
X0202526Y0166500D01*
X0198589Y0166500D01*
X0194652Y0166500D01*
X0184101Y0170302D01*
X0143077Y0172698D01*
X0140850Y0174925D01*
X0140068Y0178090D01*
X0136266Y0186515D01*
X0132329Y0186515D01*
X0140850Y0188075D02*
X0140850Y0184925D01*
X0144652Y0176500D01*
X0148589Y0176500D01*
X0140068Y0168090D02*
X0136266Y0176515D01*
X0132329Y0176515D01*
X0140068Y0168090D02*
X0140690Y0164158D01*
X0138110Y0162589D02*
X0136266Y0166515D01*
X0132329Y0166515D01*
X0138110Y0162589D02*
X0139622Y0161078D01*
X0141759Y0161078D01*
X0172509Y0161904D01*
X0203601Y0162698D01*
X0191326Y0152265D02*
X0182526Y0156500D01*
X0178589Y0156500D01*
X0187843Y0140907D02*
X0186328Y0134925D01*
X0184101Y0132698D01*
X0173077Y0130302D01*
X0154101Y0122698D01*
X0126817Y0120317D01*
X0124090Y0118090D01*
X0124090Y0116317D01*
X0121026Y0113831D02*
X0126817Y0112713D01*
X0137841Y0112713D01*
X0164913Y0116808D01*
X0185103Y0119123D01*
X0194652Y0126500D01*
X0198589Y0126500D01*
X0193077Y0120302D02*
X0224652Y0126500D01*
X0228589Y0126500D01*
X0228589Y0116500D02*
X0232526Y0116500D01*
X0237856Y0109857D01*
X0239867Y0108345D01*
X0244652Y0106500D01*
X0248589Y0106500D01*
X0244652Y0106500D02*
X0234101Y0102698D01*
X0223077Y0100302D01*
X0204101Y0092698D01*
X0173077Y0090302D01*
X0152526Y0086500D01*
X0148589Y0086500D01*
X0144652Y0086500D01*
X0137841Y0090317D01*
X0126817Y0092713D01*
X0124590Y0094940D01*
X0115867Y0108809D01*
X0115242Y0110612D01*
X0113063Y0119694D01*
X0110068Y0138090D01*
X0106266Y0146515D01*
X0102329Y0146515D01*
X0110068Y0148090D02*
X0106266Y0156515D01*
X0102329Y0156515D01*
X0110068Y0158090D02*
X0106266Y0166515D01*
X0102329Y0166515D01*
X0110068Y0158090D02*
X0116767Y0120844D01*
X0118946Y0110262D01*
X0124590Y0104940D01*
X0126817Y0102713D01*
X0137841Y0102713D01*
X0144652Y0106500D01*
X0148589Y0106500D01*
X0152526Y0106500D01*
X0173077Y0102698D01*
X0204101Y0102698D01*
X0219872Y0106491D01*
X0220941Y0103911D02*
X0224652Y0106500D01*
X0228589Y0106500D01*
X0220941Y0103911D02*
X0204669Y0101096D01*
X0173077Y0100302D01*
X0152526Y0096500D01*
X0148589Y0096500D01*
X0144652Y0096500D01*
X0137841Y0100317D01*
X0126249Y0101111D01*
X0126086Y0101178D01*
X0123056Y0103709D01*
X0117344Y0109598D01*
X0115165Y0119180D01*
X0110068Y0148090D01*
X0124590Y0144940D02*
X0106266Y0176515D01*
X0102329Y0176515D01*
X0102329Y0186515D02*
X0106266Y0186515D01*
X0124554Y0196883D01*
X0127426Y0199754D01*
X0127622Y0203815D01*
X0130493Y0206687D01*
X0184554Y0206687D01*
X0192524Y0201785D01*
X0190850Y0188075D01*
X0190850Y0184925D01*
X0194652Y0176500D01*
X0198589Y0176500D01*
X0213135Y0176173D02*
X0207524Y0201785D01*
X0178589Y0186500D02*
X0174652Y0186500D01*
X0162524Y0201785D01*
X0152524Y0201785D02*
X0152524Y0186500D01*
X0148589Y0186500D01*
X0140850Y0188075D02*
X0142524Y0201785D01*
X0185767Y0117521D02*
X0193077Y0120302D01*
X0185767Y0117521D02*
X0165577Y0115206D01*
X0143077Y0110302D01*
X0136266Y0106515D01*
X0132329Y0106515D01*
X0143077Y0080302D02*
X0146227Y0080302D01*
X0184101Y0080302D01*
X0186017Y0079103D01*
X0188154Y0079103D01*
X0188817Y0077501D02*
X0182526Y0076500D01*
X0178589Y0076500D01*
X0174652Y0076500D01*
X0169701Y0078664D01*
X0167064Y0078664D01*
X0165153Y0076952D01*
X0158644Y0063752D01*
X0158644Y0059815D01*
X0158644Y0056515D01*
X0132329Y0056515D01*
X0141165Y0035059D02*
X0154642Y0047909D01*
X0156987Y0050254D01*
X0160827Y0050274D01*
X0180302Y0051876D01*
X0193013Y0056810D01*
X0195150Y0056810D01*
X0197645Y0054533D01*
X0178644Y0042315D02*
X0178644Y0038378D01*
X0249554Y0016687D01*
X0257524Y0011785D01*
X0267524Y0011785D02*
X0286328Y0094925D01*
X0286328Y0098075D01*
X0286328Y0108075D01*
X0282526Y0116500D01*
X0278589Y0116500D01*
X0278589Y0096500D02*
X0274652Y0096500D01*
X0188817Y0077501D01*
X0168133Y0075784D02*
X0168644Y0063752D01*
X0168644Y0059815D01*
X0168644Y0055878D01*
X0160302Y0051876D01*
X0156461Y0051856D01*
X0156225Y0051758D01*
X0136085Y0033128D01*
X0137154Y0029548D02*
X0141165Y0035059D01*
X0137154Y0029548D02*
X0131121Y0027937D01*
X0145459Y0024500D02*
X0157524Y0011785D01*
X0230667Y0073381D02*
X0230784Y0073498D01*
X0231067Y0073780D01*
X0143077Y0080302D02*
X0136266Y0076515D01*
X0132329Y0076515D01*
D18*
X0168133Y0075784D03*
X0187585Y0082183D03*
X0200304Y0075992D03*
X0197645Y0054533D03*
X0194081Y0053730D03*
X0197304Y0042992D03*
X0204160Y0042894D03*
X0212804Y0045992D03*
X0223804Y0048492D03*
X0227645Y0042097D03*
X0236304Y0035492D03*
X0265304Y0047992D03*
X0270459Y0055645D03*
X0253304Y0064745D03*
X0236304Y0058492D03*
X0281304Y0089492D03*
X0240936Y0111425D03*
X0219872Y0106491D03*
X0182534Y0121703D03*
X0163146Y0110626D03*
X0124090Y0116317D03*
X0121026Y0113831D03*
X0120347Y0119912D03*
X0125784Y0150735D03*
X0140690Y0164158D03*
X0163304Y0166492D03*
X0163304Y0150992D03*
X0187843Y0140907D03*
X0191326Y0152265D03*
X0206640Y0159320D03*
X0219164Y0160811D03*
X0209610Y0148165D03*
X0192304Y0171492D03*
X0199804Y0194992D03*
X0177804Y0194492D03*
X0157804Y0194992D03*
X0097304Y0194992D03*
X0252804Y0195492D03*
X0282304Y0194992D03*
X0286304Y0153492D03*
X0258804Y0131492D03*
X0136085Y0033128D03*
X0131121Y0027937D03*
X0113804Y0018992D03*
X0217304Y0011492D03*
X0284304Y0019492D03*
M02*
