G04 #@! TF.GenerationSoftware,KiCad,Pcbnew,no-vcs-found-104b606~61~ubuntu17.10.1*
G04 #@! TF.CreationDate,2018-02-15T20:58:33+01:00*
G04 #@! TF.ProjectId,arduino_isp_shield,61726475696E6F5F6973705F73686965,rev?*
G04 #@! TF.SameCoordinates,Original*
G04 #@! TF.FileFunction,Soldermask,Bot*
G04 #@! TF.FilePolarity,Negative*
%FSLAX46Y46*%
G04 Gerber Fmt 4.6, Leading zero omitted, Abs format (unit mm)*
G04 Created by KiCad (PCBNEW no-vcs-found-104b606~61~ubuntu17.10.1) date Thu Feb 15 20:58:33 2018*
%MOMM*%
%LPD*%
G01*
G04 APERTURE LIST*
%ADD10R,2.000000X2.000000*%
%ADD11C,2.000000*%
%ADD12O,2.000000X2.000000*%
%ADD13R,2.100000X2.100000*%
%ADD14O,2.100000X2.100000*%
G04 APERTURE END LIST*
D10*
X121920000Y-85090000D03*
D11*
X121920000Y-82590000D03*
D10*
X126634095Y-85090000D03*
D12*
X134254095Y-92710000D03*
X126634095Y-87630000D03*
X134254095Y-90170000D03*
X126634095Y-90170000D03*
X134254095Y-87630000D03*
X126634095Y-92710000D03*
X134254095Y-85090000D03*
D11*
X165227000Y-87630000D03*
X165227000Y-85130000D03*
X137287000Y-85090000D03*
X137287000Y-87590000D03*
D13*
X168910000Y-81030000D03*
D14*
X168910000Y-83570000D03*
X168910000Y-86110000D03*
X168910000Y-88650000D03*
X168910000Y-91190000D03*
X168910000Y-93730000D03*
X168910000Y-96270000D03*
X168910000Y-98810000D03*
X168910000Y-101350000D03*
X168910000Y-103890000D03*
D13*
X120650000Y-90170000D03*
D14*
X120650000Y-92710000D03*
X120650000Y-95250000D03*
X120650000Y-97790000D03*
X120650000Y-100330000D03*
X120650000Y-102870000D03*
X120650000Y-105410000D03*
X120650000Y-107950000D03*
D10*
X140406714Y-85090000D03*
D12*
X148026714Y-100330000D03*
X140406714Y-87630000D03*
X148026714Y-97790000D03*
X140406714Y-90170000D03*
X148026714Y-95250000D03*
X140406714Y-92710000D03*
X148026714Y-92710000D03*
X140406714Y-95250000D03*
X148026714Y-90170000D03*
X140406714Y-97790000D03*
X148026714Y-87630000D03*
X140406714Y-100330000D03*
X148026714Y-85090000D03*
D13*
X133350000Y-105410000D03*
D14*
X133350000Y-107950000D03*
X130810000Y-105410000D03*
X130810000Y-107950000D03*
X128270000Y-105410000D03*
X128270000Y-107950000D03*
D10*
X154690285Y-85090000D03*
D12*
X162310285Y-107950000D03*
X154690285Y-87630000D03*
X162310285Y-105410000D03*
X154690285Y-90170000D03*
X162310285Y-102870000D03*
X154690285Y-92710000D03*
X162310285Y-100330000D03*
X154690285Y-95250000D03*
X162310285Y-97790000D03*
X154690285Y-97790000D03*
X162310285Y-95250000D03*
X154690285Y-100330000D03*
X162310285Y-92710000D03*
X154690285Y-102870000D03*
X162310285Y-90170000D03*
X154690285Y-105410000D03*
X162310285Y-87630000D03*
X154690285Y-107950000D03*
X162310285Y-85090000D03*
M02*
