G04 #@! TF.GenerationSoftware,KiCad,Pcbnew,no-vcs-found-104b606~61~ubuntu17.10.1*
G04 #@! TF.CreationDate,2018-02-15T12:11:00+01:00*
G04 #@! TF.ProjectId,arduino_isp_shield,61726475696E6F5F6973705F73686965,rev?*
G04 #@! TF.SameCoordinates,Original*
G04 #@! TF.FileFunction,Copper,L1,Top,Signal*
G04 #@! TF.FilePolarity,Positive*
%FSLAX46Y46*%
G04 Gerber Fmt 4.6, Leading zero omitted, Abs format (unit mm)*
G04 Created by KiCad (PCBNEW no-vcs-found-104b606~61~ubuntu17.10.1) date Thu Feb 15 12:11:00 2018*
%MOMM*%
%LPD*%
G01*
G04 APERTURE LIST*
%ADD10R,1.600000X1.600000*%
%ADD11C,1.600000*%
%ADD12O,1.600000X1.600000*%
%ADD13R,1.700000X1.700000*%
%ADD14O,1.700000X1.700000*%
%ADD15C,0.500000*%
%ADD16C,0.300000*%
%ADD17C,0.254000*%
G04 APERTURE END LIST*
D10*
X121920000Y-85090000D03*
D11*
X121920000Y-82590000D03*
D10*
X126634095Y-85090000D03*
D12*
X134254095Y-92710000D03*
X126634095Y-87630000D03*
X134254095Y-90170000D03*
X126634095Y-90170000D03*
X134254095Y-87630000D03*
X126634095Y-92710000D03*
X134254095Y-85090000D03*
D11*
X165227000Y-87630000D03*
X165227000Y-85130000D03*
X137287000Y-85090000D03*
X137287000Y-87590000D03*
D13*
X168910000Y-81030000D03*
D14*
X168910000Y-83570000D03*
X168910000Y-86110000D03*
X168910000Y-88650000D03*
X168910000Y-91190000D03*
X168910000Y-93730000D03*
X168910000Y-96270000D03*
X168910000Y-98810000D03*
X168910000Y-101350000D03*
X168910000Y-103890000D03*
D13*
X120650000Y-90170000D03*
D14*
X120650000Y-92710000D03*
X120650000Y-95250000D03*
X120650000Y-97790000D03*
X120650000Y-100330000D03*
X120650000Y-102870000D03*
X120650000Y-105410000D03*
X120650000Y-107950000D03*
D10*
X140406714Y-85090000D03*
D12*
X148026714Y-100330000D03*
X140406714Y-87630000D03*
X148026714Y-97790000D03*
X140406714Y-90170000D03*
X148026714Y-95250000D03*
X140406714Y-92710000D03*
X148026714Y-92710000D03*
X140406714Y-95250000D03*
X148026714Y-90170000D03*
X140406714Y-97790000D03*
X148026714Y-87630000D03*
X140406714Y-100330000D03*
X148026714Y-85090000D03*
D13*
X133350000Y-105410000D03*
D14*
X133350000Y-107950000D03*
X130810000Y-105410000D03*
X130810000Y-107950000D03*
X128270000Y-105410000D03*
X128270000Y-107950000D03*
D10*
X154690285Y-85090000D03*
D12*
X162310285Y-107950000D03*
X154690285Y-87630000D03*
X162310285Y-105410000D03*
X154690285Y-90170000D03*
X162310285Y-102870000D03*
X154690285Y-92710000D03*
X162310285Y-100330000D03*
X154690285Y-95250000D03*
X162310285Y-97790000D03*
X154690285Y-97790000D03*
X162310285Y-95250000D03*
X154690285Y-100330000D03*
X162310285Y-92710000D03*
X154690285Y-102870000D03*
X162310285Y-90170000D03*
X154690285Y-105410000D03*
X162310285Y-87630000D03*
X154690285Y-107950000D03*
X162310285Y-85090000D03*
D15*
X127254000Y-109575600D02*
X131724400Y-109575600D01*
X131724400Y-109575600D02*
X133350000Y-107950000D01*
X126530100Y-108851700D02*
X127254000Y-109575600D01*
X126530100Y-106210100D02*
X120650000Y-100330000D01*
X126530100Y-106210100D02*
X126530100Y-108851700D01*
X134254095Y-85090000D02*
X132679295Y-83515200D01*
X132679295Y-83515200D02*
X125323600Y-83515200D01*
X124460000Y-84378800D02*
X124460000Y-96520000D01*
X125323600Y-83515200D02*
X124460000Y-84378800D01*
X124460000Y-96520000D02*
X120650000Y-100330000D01*
X160773585Y-83553300D02*
X143243414Y-83553300D01*
X143243414Y-83553300D02*
X141706714Y-85090000D01*
X141706714Y-85090000D02*
X140406714Y-85090000D01*
X160773585Y-83553300D02*
X162310285Y-85090000D01*
X162310285Y-85090000D02*
X165187000Y-85090000D01*
X165187000Y-85090000D02*
X165227000Y-85130000D01*
X137287000Y-85090000D02*
X140406714Y-85090000D01*
X134254095Y-85090000D02*
X137287000Y-85090000D01*
X132049999Y-109250001D02*
X133350000Y-107950000D01*
D16*
X122110500Y-93789500D02*
X122110500Y-85280500D01*
X120650000Y-95250000D02*
X122110500Y-93789500D01*
X122110500Y-85280500D02*
X121920000Y-85090000D01*
X121920000Y-85090000D02*
X121920000Y-85725000D01*
X148026714Y-100330000D02*
X151836714Y-96520000D01*
X151836714Y-96520000D02*
X155960285Y-96520000D01*
X155960285Y-96520000D02*
X162310285Y-90170000D01*
X139766097Y-96520000D02*
X135511597Y-92265500D01*
X135511597Y-91427502D02*
X135511597Y-92265500D01*
X134254095Y-90170000D02*
X135511597Y-91427502D01*
X143085344Y-96520000D02*
X139766097Y-96520000D01*
X148026714Y-100330000D02*
X146895344Y-100330000D01*
X146895344Y-100330000D02*
X143085344Y-96520000D01*
X168910000Y-93730000D02*
X165870285Y-93730000D01*
X165870285Y-93730000D02*
X162310285Y-90170000D01*
X135509000Y-89141300D02*
X135509000Y-89789000D01*
X134254095Y-87886395D02*
X134254095Y-87630000D01*
X135509000Y-89141300D02*
X134254095Y-87886395D01*
X148026714Y-97790000D02*
X144165914Y-93929200D01*
X139649200Y-93929200D02*
X135509000Y-89789000D01*
X144165914Y-93929200D02*
X139649200Y-93929200D01*
X148026714Y-97790000D02*
X151828500Y-93988214D01*
X151828500Y-93988214D02*
X155952071Y-93988214D01*
X155952071Y-93988214D02*
X156080284Y-93860001D01*
X156080284Y-93860001D02*
X162310285Y-87630000D01*
X168910000Y-91190000D02*
X165870285Y-91190000D01*
X165870285Y-91190000D02*
X162310285Y-87630000D01*
X130810000Y-107950000D02*
X132010001Y-106749999D01*
X140406714Y-101461370D02*
X140406714Y-100330000D01*
X132010001Y-106749999D02*
X135118085Y-106749999D01*
X135118085Y-106749999D02*
X140406714Y-101461370D01*
X155903786Y-99116499D02*
X152343501Y-99116499D01*
X162310285Y-92710000D02*
X155903786Y-99116499D01*
X152343501Y-99116499D02*
X149868214Y-101591786D01*
X149868214Y-101591786D02*
X141668500Y-101591786D01*
X141668500Y-101591786D02*
X140406714Y-100330000D01*
X140406714Y-100330000D02*
X134254095Y-94177381D01*
X134254095Y-94177381D02*
X134254095Y-92710000D01*
X168910000Y-96270000D02*
X165870285Y-96270000D01*
X165870285Y-96270000D02*
X162310285Y-92710000D01*
X146748500Y-86368214D02*
X152312071Y-86368214D01*
X153590285Y-85090000D02*
X154690285Y-85090000D01*
X152312071Y-86368214D02*
X153590285Y-85090000D01*
X140406714Y-92710000D02*
X146748500Y-86368214D01*
D17*
G36*
X170740000Y-109780000D02*
X132771578Y-109780000D01*
X133131040Y-109420538D01*
X133203744Y-109435000D01*
X133496256Y-109435000D01*
X133929418Y-109348839D01*
X134420625Y-109020625D01*
X134748839Y-108529418D01*
X134794664Y-108299039D01*
X153298381Y-108299039D01*
X153459244Y-108687423D01*
X153835151Y-109102389D01*
X154341244Y-109341914D01*
X154563285Y-109220629D01*
X154563285Y-108077000D01*
X154817285Y-108077000D01*
X154817285Y-109220629D01*
X155039326Y-109341914D01*
X155545419Y-109102389D01*
X155921326Y-108687423D01*
X156082189Y-108299039D01*
X155960200Y-108077000D01*
X154817285Y-108077000D01*
X154563285Y-108077000D01*
X153420370Y-108077000D01*
X153298381Y-108299039D01*
X134794664Y-108299039D01*
X134864092Y-107950000D01*
X134781543Y-107534999D01*
X135040773Y-107534999D01*
X135118085Y-107550377D01*
X135195397Y-107534999D01*
X135195401Y-107534999D01*
X135424377Y-107489453D01*
X135684038Y-107315952D01*
X135727834Y-107250407D01*
X140907125Y-102071117D01*
X140972667Y-102027323D01*
X140981163Y-102014607D01*
X141058753Y-102092197D01*
X141102547Y-102157739D01*
X141168089Y-102201533D01*
X141168091Y-102201535D01*
X141258208Y-102261749D01*
X141362208Y-102331240D01*
X141591184Y-102376786D01*
X141591188Y-102376786D01*
X141668500Y-102392164D01*
X141745812Y-102376786D01*
X149790902Y-102376786D01*
X149868214Y-102392164D01*
X149945526Y-102376786D01*
X149945530Y-102376786D01*
X150174506Y-102331240D01*
X150434167Y-102157739D01*
X150477963Y-102092194D01*
X152668659Y-99901499D01*
X153312406Y-99901499D01*
X153227172Y-100330000D01*
X153338545Y-100889909D01*
X153655708Y-101364577D01*
X154008043Y-101600000D01*
X153655708Y-101835423D01*
X153338545Y-102310091D01*
X153227172Y-102870000D01*
X153338545Y-103429909D01*
X153655708Y-103904577D01*
X154008043Y-104140000D01*
X153655708Y-104375423D01*
X153338545Y-104850091D01*
X153227172Y-105410000D01*
X153338545Y-105969909D01*
X153655708Y-106444577D01*
X154039393Y-106700947D01*
X153835151Y-106797611D01*
X153459244Y-107212577D01*
X153298381Y-107600961D01*
X153420370Y-107823000D01*
X154563285Y-107823000D01*
X154563285Y-107803000D01*
X154817285Y-107803000D01*
X154817285Y-107823000D01*
X155960200Y-107823000D01*
X156082189Y-107600961D01*
X155921326Y-107212577D01*
X155545419Y-106797611D01*
X155341177Y-106700947D01*
X155724862Y-106444577D01*
X156042025Y-105969909D01*
X156153398Y-105410000D01*
X156042025Y-104850091D01*
X155724862Y-104375423D01*
X155372527Y-104140000D01*
X155724862Y-103904577D01*
X156042025Y-103429909D01*
X156153398Y-102870000D01*
X156042025Y-102310091D01*
X155724862Y-101835423D01*
X155372527Y-101600000D01*
X155724862Y-101364577D01*
X156042025Y-100889909D01*
X156153398Y-100330000D01*
X156064850Y-99884841D01*
X156210078Y-99855953D01*
X156469739Y-99682452D01*
X156513535Y-99616907D01*
X160852692Y-95277750D01*
X160958545Y-95809909D01*
X161275708Y-96284577D01*
X161628043Y-96520000D01*
X161275708Y-96755423D01*
X160958545Y-97230091D01*
X160847172Y-97790000D01*
X160958545Y-98349909D01*
X161275708Y-98824577D01*
X161628043Y-99060000D01*
X161275708Y-99295423D01*
X160958545Y-99770091D01*
X160847172Y-100330000D01*
X160958545Y-100889909D01*
X161275708Y-101364577D01*
X161628043Y-101600000D01*
X161275708Y-101835423D01*
X160958545Y-102310091D01*
X160847172Y-102870000D01*
X160958545Y-103429909D01*
X161275708Y-103904577D01*
X161628043Y-104140000D01*
X161275708Y-104375423D01*
X160958545Y-104850091D01*
X160847172Y-105410000D01*
X160958545Y-105969909D01*
X161275708Y-106444577D01*
X161628043Y-106680000D01*
X161275708Y-106915423D01*
X160958545Y-107390091D01*
X160847172Y-107950000D01*
X160958545Y-108509909D01*
X161275708Y-108984577D01*
X161750376Y-109301740D01*
X162168952Y-109385000D01*
X162451618Y-109385000D01*
X162870194Y-109301740D01*
X163344862Y-108984577D01*
X163662025Y-108509909D01*
X163773398Y-107950000D01*
X163662025Y-107390091D01*
X163344862Y-106915423D01*
X162992527Y-106680000D01*
X163344862Y-106444577D01*
X163662025Y-105969909D01*
X163773398Y-105410000D01*
X163662025Y-104850091D01*
X163344862Y-104375423D01*
X162992527Y-104140000D01*
X163344862Y-103904577D01*
X163662025Y-103429909D01*
X163773398Y-102870000D01*
X163662025Y-102310091D01*
X163344862Y-101835423D01*
X162992527Y-101600000D01*
X163344862Y-101364577D01*
X163662025Y-100889909D01*
X163773398Y-100330000D01*
X163662025Y-99770091D01*
X163344862Y-99295423D01*
X162992527Y-99060000D01*
X163344862Y-98824577D01*
X163662025Y-98349909D01*
X163773398Y-97790000D01*
X163662025Y-97230091D01*
X163344862Y-96755423D01*
X162992527Y-96520000D01*
X163344862Y-96284577D01*
X163662025Y-95809909D01*
X163767878Y-95277751D01*
X165260538Y-96770411D01*
X165304332Y-96835953D01*
X165369874Y-96879747D01*
X165369876Y-96879749D01*
X165444910Y-96929885D01*
X165563993Y-97009454D01*
X165792969Y-97055000D01*
X165792973Y-97055000D01*
X165870284Y-97070378D01*
X165947595Y-97055000D01*
X167648526Y-97055000D01*
X167839375Y-97340625D01*
X168137761Y-97540000D01*
X167839375Y-97739375D01*
X167511161Y-98230582D01*
X167395908Y-98810000D01*
X167511161Y-99389418D01*
X167839375Y-99880625D01*
X168137761Y-100080000D01*
X167839375Y-100279375D01*
X167511161Y-100770582D01*
X167395908Y-101350000D01*
X167511161Y-101929418D01*
X167839375Y-102420625D01*
X168137761Y-102620000D01*
X167839375Y-102819375D01*
X167511161Y-103310582D01*
X167395908Y-103890000D01*
X167511161Y-104469418D01*
X167839375Y-104960625D01*
X168330582Y-105288839D01*
X168763744Y-105375000D01*
X169056256Y-105375000D01*
X169489418Y-105288839D01*
X169980625Y-104960625D01*
X170308839Y-104469418D01*
X170424092Y-103890000D01*
X170308839Y-103310582D01*
X169980625Y-102819375D01*
X169682239Y-102620000D01*
X169980625Y-102420625D01*
X170308839Y-101929418D01*
X170424092Y-101350000D01*
X170308839Y-100770582D01*
X169980625Y-100279375D01*
X169682239Y-100080000D01*
X169980625Y-99880625D01*
X170308839Y-99389418D01*
X170424092Y-98810000D01*
X170308839Y-98230582D01*
X169980625Y-97739375D01*
X169682239Y-97540000D01*
X169980625Y-97340625D01*
X170308839Y-96849418D01*
X170424092Y-96270000D01*
X170308839Y-95690582D01*
X169980625Y-95199375D01*
X169682239Y-95000000D01*
X169980625Y-94800625D01*
X170308839Y-94309418D01*
X170424092Y-93730000D01*
X170308839Y-93150582D01*
X169980625Y-92659375D01*
X169682239Y-92460000D01*
X169980625Y-92260625D01*
X170308839Y-91769418D01*
X170424092Y-91190000D01*
X170308839Y-90610582D01*
X169980625Y-90119375D01*
X169661522Y-89906157D01*
X169791358Y-89845183D01*
X170181645Y-89416924D01*
X170351476Y-89006890D01*
X170230155Y-88777000D01*
X169037000Y-88777000D01*
X169037000Y-88797000D01*
X168783000Y-88797000D01*
X168783000Y-88777000D01*
X167589845Y-88777000D01*
X167468524Y-89006890D01*
X167638355Y-89416924D01*
X168028642Y-89845183D01*
X168158478Y-89906157D01*
X167839375Y-90119375D01*
X167648526Y-90405000D01*
X166195443Y-90405000D01*
X164787269Y-88996827D01*
X165010223Y-89076965D01*
X165580454Y-89049778D01*
X165981005Y-88883864D01*
X166055139Y-88637745D01*
X165227000Y-87809605D01*
X165212858Y-87823748D01*
X165033252Y-87644142D01*
X165047395Y-87630000D01*
X165406605Y-87630000D01*
X166234745Y-88458139D01*
X166480864Y-88384005D01*
X166673965Y-87846777D01*
X166646778Y-87276546D01*
X166480864Y-86875995D01*
X166234745Y-86801861D01*
X165406605Y-87630000D01*
X165047395Y-87630000D01*
X164219255Y-86801861D01*
X163973136Y-86875995D01*
X163780035Y-87413223D01*
X163807222Y-87983454D01*
X163830787Y-88040345D01*
X163714839Y-87924397D01*
X163773398Y-87630000D01*
X163662025Y-87070091D01*
X163344862Y-86595423D01*
X162992527Y-86360000D01*
X163344862Y-86124577D01*
X163444806Y-85975000D01*
X164042604Y-85975000D01*
X164414138Y-86346534D01*
X164479299Y-86373525D01*
X164472995Y-86376136D01*
X164398861Y-86622255D01*
X165227000Y-87450395D01*
X166055139Y-86622255D01*
X165981005Y-86376136D01*
X165974254Y-86373710D01*
X166039862Y-86346534D01*
X166443534Y-85942862D01*
X166662000Y-85415439D01*
X166662000Y-84844561D01*
X166443534Y-84317138D01*
X166039862Y-83913466D01*
X165512439Y-83695000D01*
X164941561Y-83695000D01*
X164414138Y-83913466D01*
X164122604Y-84205000D01*
X163444806Y-84205000D01*
X163344862Y-84055423D01*
X162870194Y-83738260D01*
X162451618Y-83655000D01*
X162168952Y-83655000D01*
X162133846Y-83661983D01*
X162041863Y-83570000D01*
X167395908Y-83570000D01*
X167511161Y-84149418D01*
X167839375Y-84640625D01*
X168137761Y-84840000D01*
X167839375Y-85039375D01*
X167511161Y-85530582D01*
X167395908Y-86110000D01*
X167511161Y-86689418D01*
X167839375Y-87180625D01*
X168158478Y-87393843D01*
X168028642Y-87454817D01*
X167638355Y-87883076D01*
X167468524Y-88293110D01*
X167589845Y-88523000D01*
X168783000Y-88523000D01*
X168783000Y-88503000D01*
X169037000Y-88503000D01*
X169037000Y-88523000D01*
X170230155Y-88523000D01*
X170351476Y-88293110D01*
X170181645Y-87883076D01*
X169791358Y-87454817D01*
X169661522Y-87393843D01*
X169980625Y-87180625D01*
X170308839Y-86689418D01*
X170424092Y-86110000D01*
X170308839Y-85530582D01*
X169980625Y-85039375D01*
X169682239Y-84840000D01*
X169980625Y-84640625D01*
X170308839Y-84149418D01*
X170424092Y-83570000D01*
X170308839Y-82990582D01*
X169980625Y-82499375D01*
X169962381Y-82487184D01*
X170007765Y-82478157D01*
X170217809Y-82337809D01*
X170358157Y-82127765D01*
X170407440Y-81880000D01*
X170407440Y-80180000D01*
X170358157Y-79932235D01*
X170217809Y-79722191D01*
X170007765Y-79581843D01*
X169760000Y-79532560D01*
X168060000Y-79532560D01*
X167812235Y-79581843D01*
X167602191Y-79722191D01*
X167461843Y-79932235D01*
X167412560Y-80180000D01*
X167412560Y-81880000D01*
X167461843Y-82127765D01*
X167602191Y-82337809D01*
X167812235Y-82478157D01*
X167857619Y-82487184D01*
X167839375Y-82499375D01*
X167511161Y-82990582D01*
X167395908Y-83570000D01*
X162041863Y-83570000D01*
X161461010Y-82989147D01*
X161411634Y-82915251D01*
X161118895Y-82719648D01*
X160860750Y-82668300D01*
X160860746Y-82668300D01*
X160773585Y-82650963D01*
X160686424Y-82668300D01*
X143330575Y-82668300D01*
X143243414Y-82650963D01*
X143156253Y-82668300D01*
X143156249Y-82668300D01*
X142898104Y-82719648D01*
X142679259Y-82865876D01*
X142679258Y-82865877D01*
X142605365Y-82915251D01*
X142555991Y-82989144D01*
X141683918Y-83861218D01*
X141664523Y-83832191D01*
X141454479Y-83691843D01*
X141206714Y-83642560D01*
X139606714Y-83642560D01*
X139358949Y-83691843D01*
X139148905Y-83832191D01*
X139008557Y-84042235D01*
X138976181Y-84205000D01*
X138431396Y-84205000D01*
X138099862Y-83873466D01*
X137572439Y-83655000D01*
X137001561Y-83655000D01*
X136474138Y-83873466D01*
X136142604Y-84205000D01*
X135388616Y-84205000D01*
X135288672Y-84055423D01*
X134814004Y-83738260D01*
X134395428Y-83655000D01*
X134112762Y-83655000D01*
X134077656Y-83661983D01*
X133366720Y-82951047D01*
X133317344Y-82877151D01*
X133024605Y-82681548D01*
X132766460Y-82630200D01*
X132766456Y-82630200D01*
X132679295Y-82612863D01*
X132592134Y-82630200D01*
X125410761Y-82630200D01*
X125323600Y-82612863D01*
X125236439Y-82630200D01*
X125236435Y-82630200D01*
X124978290Y-82681548D01*
X124759445Y-82827776D01*
X124759444Y-82827777D01*
X124685551Y-82877151D01*
X124636177Y-82951044D01*
X123895847Y-83691375D01*
X123821951Y-83740751D01*
X123626348Y-84033491D01*
X123575000Y-84291636D01*
X123575000Y-84291639D01*
X123557663Y-84378800D01*
X123575000Y-84465961D01*
X123575001Y-96153420D01*
X122126651Y-97601770D01*
X122048839Y-97210582D01*
X121720625Y-96719375D01*
X121422239Y-96520000D01*
X121720625Y-96320625D01*
X122048839Y-95829418D01*
X122164092Y-95250000D01*
X122097075Y-94913082D01*
X122610911Y-94399247D01*
X122676453Y-94355453D01*
X122720247Y-94289911D01*
X122720249Y-94289909D01*
X122849954Y-94095792D01*
X122871352Y-93988215D01*
X122895500Y-93866816D01*
X122895500Y-93866812D01*
X122910878Y-93789500D01*
X122895500Y-93712188D01*
X122895500Y-86502531D01*
X122967765Y-86488157D01*
X123177809Y-86347809D01*
X123318157Y-86137765D01*
X123367440Y-85890000D01*
X123367440Y-84290000D01*
X123318157Y-84042235D01*
X123177809Y-83832191D01*
X122967765Y-83691843D01*
X122733813Y-83645307D01*
X122748139Y-83597745D01*
X121920000Y-82769605D01*
X121091861Y-83597745D01*
X121106187Y-83645307D01*
X120872235Y-83691843D01*
X120662191Y-83832191D01*
X120521843Y-84042235D01*
X120472560Y-84290000D01*
X120472560Y-85890000D01*
X120521843Y-86137765D01*
X120662191Y-86347809D01*
X120872235Y-86488157D01*
X121120000Y-86537440D01*
X121325501Y-86537440D01*
X121325501Y-88672560D01*
X119800000Y-88672560D01*
X119552235Y-88721843D01*
X119342191Y-88862191D01*
X119201843Y-89072235D01*
X119152560Y-89320000D01*
X119152560Y-91020000D01*
X119201843Y-91267765D01*
X119342191Y-91477809D01*
X119552235Y-91618157D01*
X119597619Y-91627184D01*
X119579375Y-91639375D01*
X119251161Y-92130582D01*
X119135908Y-92710000D01*
X119251161Y-93289418D01*
X119579375Y-93780625D01*
X119877761Y-93980000D01*
X119579375Y-94179375D01*
X119251161Y-94670582D01*
X119135908Y-95250000D01*
X119251161Y-95829418D01*
X119579375Y-96320625D01*
X119877761Y-96520000D01*
X119579375Y-96719375D01*
X119251161Y-97210582D01*
X119135908Y-97790000D01*
X119251161Y-98369418D01*
X119579375Y-98860625D01*
X119877761Y-99060000D01*
X119579375Y-99259375D01*
X119251161Y-99750582D01*
X119135908Y-100330000D01*
X119251161Y-100909418D01*
X119579375Y-101400625D01*
X119898478Y-101613843D01*
X119768642Y-101674817D01*
X119378355Y-102103076D01*
X119208524Y-102513110D01*
X119329845Y-102743000D01*
X120523000Y-102743000D01*
X120523000Y-102723000D01*
X120777000Y-102723000D01*
X120777000Y-102743000D01*
X120797000Y-102743000D01*
X120797000Y-102997000D01*
X120777000Y-102997000D01*
X120777000Y-105283000D01*
X121970155Y-105283000D01*
X122091476Y-105053110D01*
X121921645Y-104643076D01*
X121531358Y-104214817D01*
X121372046Y-104140000D01*
X121531358Y-104065183D01*
X121921645Y-103636924D01*
X122091476Y-103226890D01*
X121970156Y-102997002D01*
X122065424Y-102997002D01*
X125645100Y-106576679D01*
X125645101Y-108764535D01*
X125627763Y-108851700D01*
X125696448Y-109197009D01*
X125842676Y-109415854D01*
X125842678Y-109415856D01*
X125892052Y-109489749D01*
X125965945Y-109539123D01*
X126206822Y-109780000D01*
X118820000Y-109780000D01*
X118820000Y-107950000D01*
X119135908Y-107950000D01*
X119251161Y-108529418D01*
X119579375Y-109020625D01*
X120070582Y-109348839D01*
X120503744Y-109435000D01*
X120796256Y-109435000D01*
X121229418Y-109348839D01*
X121720625Y-109020625D01*
X122048839Y-108529418D01*
X122164092Y-107950000D01*
X122048839Y-107370582D01*
X121720625Y-106879375D01*
X121401522Y-106666157D01*
X121531358Y-106605183D01*
X121921645Y-106176924D01*
X122091476Y-105766890D01*
X121970155Y-105537000D01*
X120777000Y-105537000D01*
X120777000Y-105557000D01*
X120523000Y-105557000D01*
X120523000Y-105537000D01*
X119329845Y-105537000D01*
X119208524Y-105766890D01*
X119378355Y-106176924D01*
X119768642Y-106605183D01*
X119898478Y-106666157D01*
X119579375Y-106879375D01*
X119251161Y-107370582D01*
X119135908Y-107950000D01*
X118820000Y-107950000D01*
X118820000Y-103226890D01*
X119208524Y-103226890D01*
X119378355Y-103636924D01*
X119768642Y-104065183D01*
X119927954Y-104140000D01*
X119768642Y-104214817D01*
X119378355Y-104643076D01*
X119208524Y-105053110D01*
X119329845Y-105283000D01*
X120523000Y-105283000D01*
X120523000Y-102997000D01*
X119329845Y-102997000D01*
X119208524Y-103226890D01*
X118820000Y-103226890D01*
X118820000Y-82373223D01*
X120473035Y-82373223D01*
X120500222Y-82943454D01*
X120666136Y-83344005D01*
X120912255Y-83418139D01*
X121740395Y-82590000D01*
X122099605Y-82590000D01*
X122927745Y-83418139D01*
X123173864Y-83344005D01*
X123366965Y-82806777D01*
X123339778Y-82236546D01*
X123173864Y-81835995D01*
X122927745Y-81761861D01*
X122099605Y-82590000D01*
X121740395Y-82590000D01*
X120912255Y-81761861D01*
X120666136Y-81835995D01*
X120473035Y-82373223D01*
X118820000Y-82373223D01*
X118820000Y-81582255D01*
X121091861Y-81582255D01*
X121920000Y-82410395D01*
X122748139Y-81582255D01*
X122674005Y-81336136D01*
X122136777Y-81143035D01*
X121566546Y-81170222D01*
X121165995Y-81336136D01*
X121091861Y-81582255D01*
X118820000Y-81582255D01*
X118820000Y-79450000D01*
X170740001Y-79450000D01*
X170740000Y-109780000D01*
X170740000Y-109780000D01*
G37*
X170740000Y-109780000D02*
X132771578Y-109780000D01*
X133131040Y-109420538D01*
X133203744Y-109435000D01*
X133496256Y-109435000D01*
X133929418Y-109348839D01*
X134420625Y-109020625D01*
X134748839Y-108529418D01*
X134794664Y-108299039D01*
X153298381Y-108299039D01*
X153459244Y-108687423D01*
X153835151Y-109102389D01*
X154341244Y-109341914D01*
X154563285Y-109220629D01*
X154563285Y-108077000D01*
X154817285Y-108077000D01*
X154817285Y-109220629D01*
X155039326Y-109341914D01*
X155545419Y-109102389D01*
X155921326Y-108687423D01*
X156082189Y-108299039D01*
X155960200Y-108077000D01*
X154817285Y-108077000D01*
X154563285Y-108077000D01*
X153420370Y-108077000D01*
X153298381Y-108299039D01*
X134794664Y-108299039D01*
X134864092Y-107950000D01*
X134781543Y-107534999D01*
X135040773Y-107534999D01*
X135118085Y-107550377D01*
X135195397Y-107534999D01*
X135195401Y-107534999D01*
X135424377Y-107489453D01*
X135684038Y-107315952D01*
X135727834Y-107250407D01*
X140907125Y-102071117D01*
X140972667Y-102027323D01*
X140981163Y-102014607D01*
X141058753Y-102092197D01*
X141102547Y-102157739D01*
X141168089Y-102201533D01*
X141168091Y-102201535D01*
X141258208Y-102261749D01*
X141362208Y-102331240D01*
X141591184Y-102376786D01*
X141591188Y-102376786D01*
X141668500Y-102392164D01*
X141745812Y-102376786D01*
X149790902Y-102376786D01*
X149868214Y-102392164D01*
X149945526Y-102376786D01*
X149945530Y-102376786D01*
X150174506Y-102331240D01*
X150434167Y-102157739D01*
X150477963Y-102092194D01*
X152668659Y-99901499D01*
X153312406Y-99901499D01*
X153227172Y-100330000D01*
X153338545Y-100889909D01*
X153655708Y-101364577D01*
X154008043Y-101600000D01*
X153655708Y-101835423D01*
X153338545Y-102310091D01*
X153227172Y-102870000D01*
X153338545Y-103429909D01*
X153655708Y-103904577D01*
X154008043Y-104140000D01*
X153655708Y-104375423D01*
X153338545Y-104850091D01*
X153227172Y-105410000D01*
X153338545Y-105969909D01*
X153655708Y-106444577D01*
X154039393Y-106700947D01*
X153835151Y-106797611D01*
X153459244Y-107212577D01*
X153298381Y-107600961D01*
X153420370Y-107823000D01*
X154563285Y-107823000D01*
X154563285Y-107803000D01*
X154817285Y-107803000D01*
X154817285Y-107823000D01*
X155960200Y-107823000D01*
X156082189Y-107600961D01*
X155921326Y-107212577D01*
X155545419Y-106797611D01*
X155341177Y-106700947D01*
X155724862Y-106444577D01*
X156042025Y-105969909D01*
X156153398Y-105410000D01*
X156042025Y-104850091D01*
X155724862Y-104375423D01*
X155372527Y-104140000D01*
X155724862Y-103904577D01*
X156042025Y-103429909D01*
X156153398Y-102870000D01*
X156042025Y-102310091D01*
X155724862Y-101835423D01*
X155372527Y-101600000D01*
X155724862Y-101364577D01*
X156042025Y-100889909D01*
X156153398Y-100330000D01*
X156064850Y-99884841D01*
X156210078Y-99855953D01*
X156469739Y-99682452D01*
X156513535Y-99616907D01*
X160852692Y-95277750D01*
X160958545Y-95809909D01*
X161275708Y-96284577D01*
X161628043Y-96520000D01*
X161275708Y-96755423D01*
X160958545Y-97230091D01*
X160847172Y-97790000D01*
X160958545Y-98349909D01*
X161275708Y-98824577D01*
X161628043Y-99060000D01*
X161275708Y-99295423D01*
X160958545Y-99770091D01*
X160847172Y-100330000D01*
X160958545Y-100889909D01*
X161275708Y-101364577D01*
X161628043Y-101600000D01*
X161275708Y-101835423D01*
X160958545Y-102310091D01*
X160847172Y-102870000D01*
X160958545Y-103429909D01*
X161275708Y-103904577D01*
X161628043Y-104140000D01*
X161275708Y-104375423D01*
X160958545Y-104850091D01*
X160847172Y-105410000D01*
X160958545Y-105969909D01*
X161275708Y-106444577D01*
X161628043Y-106680000D01*
X161275708Y-106915423D01*
X160958545Y-107390091D01*
X160847172Y-107950000D01*
X160958545Y-108509909D01*
X161275708Y-108984577D01*
X161750376Y-109301740D01*
X162168952Y-109385000D01*
X162451618Y-109385000D01*
X162870194Y-109301740D01*
X163344862Y-108984577D01*
X163662025Y-108509909D01*
X163773398Y-107950000D01*
X163662025Y-107390091D01*
X163344862Y-106915423D01*
X162992527Y-106680000D01*
X163344862Y-106444577D01*
X163662025Y-105969909D01*
X163773398Y-105410000D01*
X163662025Y-104850091D01*
X163344862Y-104375423D01*
X162992527Y-104140000D01*
X163344862Y-103904577D01*
X163662025Y-103429909D01*
X163773398Y-102870000D01*
X163662025Y-102310091D01*
X163344862Y-101835423D01*
X162992527Y-101600000D01*
X163344862Y-101364577D01*
X163662025Y-100889909D01*
X163773398Y-100330000D01*
X163662025Y-99770091D01*
X163344862Y-99295423D01*
X162992527Y-99060000D01*
X163344862Y-98824577D01*
X163662025Y-98349909D01*
X163773398Y-97790000D01*
X163662025Y-97230091D01*
X163344862Y-96755423D01*
X162992527Y-96520000D01*
X163344862Y-96284577D01*
X163662025Y-95809909D01*
X163767878Y-95277751D01*
X165260538Y-96770411D01*
X165304332Y-96835953D01*
X165369874Y-96879747D01*
X165369876Y-96879749D01*
X165444910Y-96929885D01*
X165563993Y-97009454D01*
X165792969Y-97055000D01*
X165792973Y-97055000D01*
X165870284Y-97070378D01*
X165947595Y-97055000D01*
X167648526Y-97055000D01*
X167839375Y-97340625D01*
X168137761Y-97540000D01*
X167839375Y-97739375D01*
X167511161Y-98230582D01*
X167395908Y-98810000D01*
X167511161Y-99389418D01*
X167839375Y-99880625D01*
X168137761Y-100080000D01*
X167839375Y-100279375D01*
X167511161Y-100770582D01*
X167395908Y-101350000D01*
X167511161Y-101929418D01*
X167839375Y-102420625D01*
X168137761Y-102620000D01*
X167839375Y-102819375D01*
X167511161Y-103310582D01*
X167395908Y-103890000D01*
X167511161Y-104469418D01*
X167839375Y-104960625D01*
X168330582Y-105288839D01*
X168763744Y-105375000D01*
X169056256Y-105375000D01*
X169489418Y-105288839D01*
X169980625Y-104960625D01*
X170308839Y-104469418D01*
X170424092Y-103890000D01*
X170308839Y-103310582D01*
X169980625Y-102819375D01*
X169682239Y-102620000D01*
X169980625Y-102420625D01*
X170308839Y-101929418D01*
X170424092Y-101350000D01*
X170308839Y-100770582D01*
X169980625Y-100279375D01*
X169682239Y-100080000D01*
X169980625Y-99880625D01*
X170308839Y-99389418D01*
X170424092Y-98810000D01*
X170308839Y-98230582D01*
X169980625Y-97739375D01*
X169682239Y-97540000D01*
X169980625Y-97340625D01*
X170308839Y-96849418D01*
X170424092Y-96270000D01*
X170308839Y-95690582D01*
X169980625Y-95199375D01*
X169682239Y-95000000D01*
X169980625Y-94800625D01*
X170308839Y-94309418D01*
X170424092Y-93730000D01*
X170308839Y-93150582D01*
X169980625Y-92659375D01*
X169682239Y-92460000D01*
X169980625Y-92260625D01*
X170308839Y-91769418D01*
X170424092Y-91190000D01*
X170308839Y-90610582D01*
X169980625Y-90119375D01*
X169661522Y-89906157D01*
X169791358Y-89845183D01*
X170181645Y-89416924D01*
X170351476Y-89006890D01*
X170230155Y-88777000D01*
X169037000Y-88777000D01*
X169037000Y-88797000D01*
X168783000Y-88797000D01*
X168783000Y-88777000D01*
X167589845Y-88777000D01*
X167468524Y-89006890D01*
X167638355Y-89416924D01*
X168028642Y-89845183D01*
X168158478Y-89906157D01*
X167839375Y-90119375D01*
X167648526Y-90405000D01*
X166195443Y-90405000D01*
X164787269Y-88996827D01*
X165010223Y-89076965D01*
X165580454Y-89049778D01*
X165981005Y-88883864D01*
X166055139Y-88637745D01*
X165227000Y-87809605D01*
X165212858Y-87823748D01*
X165033252Y-87644142D01*
X165047395Y-87630000D01*
X165406605Y-87630000D01*
X166234745Y-88458139D01*
X166480864Y-88384005D01*
X166673965Y-87846777D01*
X166646778Y-87276546D01*
X166480864Y-86875995D01*
X166234745Y-86801861D01*
X165406605Y-87630000D01*
X165047395Y-87630000D01*
X164219255Y-86801861D01*
X163973136Y-86875995D01*
X163780035Y-87413223D01*
X163807222Y-87983454D01*
X163830787Y-88040345D01*
X163714839Y-87924397D01*
X163773398Y-87630000D01*
X163662025Y-87070091D01*
X163344862Y-86595423D01*
X162992527Y-86360000D01*
X163344862Y-86124577D01*
X163444806Y-85975000D01*
X164042604Y-85975000D01*
X164414138Y-86346534D01*
X164479299Y-86373525D01*
X164472995Y-86376136D01*
X164398861Y-86622255D01*
X165227000Y-87450395D01*
X166055139Y-86622255D01*
X165981005Y-86376136D01*
X165974254Y-86373710D01*
X166039862Y-86346534D01*
X166443534Y-85942862D01*
X166662000Y-85415439D01*
X166662000Y-84844561D01*
X166443534Y-84317138D01*
X166039862Y-83913466D01*
X165512439Y-83695000D01*
X164941561Y-83695000D01*
X164414138Y-83913466D01*
X164122604Y-84205000D01*
X163444806Y-84205000D01*
X163344862Y-84055423D01*
X162870194Y-83738260D01*
X162451618Y-83655000D01*
X162168952Y-83655000D01*
X162133846Y-83661983D01*
X162041863Y-83570000D01*
X167395908Y-83570000D01*
X167511161Y-84149418D01*
X167839375Y-84640625D01*
X168137761Y-84840000D01*
X167839375Y-85039375D01*
X167511161Y-85530582D01*
X167395908Y-86110000D01*
X167511161Y-86689418D01*
X167839375Y-87180625D01*
X168158478Y-87393843D01*
X168028642Y-87454817D01*
X167638355Y-87883076D01*
X167468524Y-88293110D01*
X167589845Y-88523000D01*
X168783000Y-88523000D01*
X168783000Y-88503000D01*
X169037000Y-88503000D01*
X169037000Y-88523000D01*
X170230155Y-88523000D01*
X170351476Y-88293110D01*
X170181645Y-87883076D01*
X169791358Y-87454817D01*
X169661522Y-87393843D01*
X169980625Y-87180625D01*
X170308839Y-86689418D01*
X170424092Y-86110000D01*
X170308839Y-85530582D01*
X169980625Y-85039375D01*
X169682239Y-84840000D01*
X169980625Y-84640625D01*
X170308839Y-84149418D01*
X170424092Y-83570000D01*
X170308839Y-82990582D01*
X169980625Y-82499375D01*
X169962381Y-82487184D01*
X170007765Y-82478157D01*
X170217809Y-82337809D01*
X170358157Y-82127765D01*
X170407440Y-81880000D01*
X170407440Y-80180000D01*
X170358157Y-79932235D01*
X170217809Y-79722191D01*
X170007765Y-79581843D01*
X169760000Y-79532560D01*
X168060000Y-79532560D01*
X167812235Y-79581843D01*
X167602191Y-79722191D01*
X167461843Y-79932235D01*
X167412560Y-80180000D01*
X167412560Y-81880000D01*
X167461843Y-82127765D01*
X167602191Y-82337809D01*
X167812235Y-82478157D01*
X167857619Y-82487184D01*
X167839375Y-82499375D01*
X167511161Y-82990582D01*
X167395908Y-83570000D01*
X162041863Y-83570000D01*
X161461010Y-82989147D01*
X161411634Y-82915251D01*
X161118895Y-82719648D01*
X160860750Y-82668300D01*
X160860746Y-82668300D01*
X160773585Y-82650963D01*
X160686424Y-82668300D01*
X143330575Y-82668300D01*
X143243414Y-82650963D01*
X143156253Y-82668300D01*
X143156249Y-82668300D01*
X142898104Y-82719648D01*
X142679259Y-82865876D01*
X142679258Y-82865877D01*
X142605365Y-82915251D01*
X142555991Y-82989144D01*
X141683918Y-83861218D01*
X141664523Y-83832191D01*
X141454479Y-83691843D01*
X141206714Y-83642560D01*
X139606714Y-83642560D01*
X139358949Y-83691843D01*
X139148905Y-83832191D01*
X139008557Y-84042235D01*
X138976181Y-84205000D01*
X138431396Y-84205000D01*
X138099862Y-83873466D01*
X137572439Y-83655000D01*
X137001561Y-83655000D01*
X136474138Y-83873466D01*
X136142604Y-84205000D01*
X135388616Y-84205000D01*
X135288672Y-84055423D01*
X134814004Y-83738260D01*
X134395428Y-83655000D01*
X134112762Y-83655000D01*
X134077656Y-83661983D01*
X133366720Y-82951047D01*
X133317344Y-82877151D01*
X133024605Y-82681548D01*
X132766460Y-82630200D01*
X132766456Y-82630200D01*
X132679295Y-82612863D01*
X132592134Y-82630200D01*
X125410761Y-82630200D01*
X125323600Y-82612863D01*
X125236439Y-82630200D01*
X125236435Y-82630200D01*
X124978290Y-82681548D01*
X124759445Y-82827776D01*
X124759444Y-82827777D01*
X124685551Y-82877151D01*
X124636177Y-82951044D01*
X123895847Y-83691375D01*
X123821951Y-83740751D01*
X123626348Y-84033491D01*
X123575000Y-84291636D01*
X123575000Y-84291639D01*
X123557663Y-84378800D01*
X123575000Y-84465961D01*
X123575001Y-96153420D01*
X122126651Y-97601770D01*
X122048839Y-97210582D01*
X121720625Y-96719375D01*
X121422239Y-96520000D01*
X121720625Y-96320625D01*
X122048839Y-95829418D01*
X122164092Y-95250000D01*
X122097075Y-94913082D01*
X122610911Y-94399247D01*
X122676453Y-94355453D01*
X122720247Y-94289911D01*
X122720249Y-94289909D01*
X122849954Y-94095792D01*
X122871352Y-93988215D01*
X122895500Y-93866816D01*
X122895500Y-93866812D01*
X122910878Y-93789500D01*
X122895500Y-93712188D01*
X122895500Y-86502531D01*
X122967765Y-86488157D01*
X123177809Y-86347809D01*
X123318157Y-86137765D01*
X123367440Y-85890000D01*
X123367440Y-84290000D01*
X123318157Y-84042235D01*
X123177809Y-83832191D01*
X122967765Y-83691843D01*
X122733813Y-83645307D01*
X122748139Y-83597745D01*
X121920000Y-82769605D01*
X121091861Y-83597745D01*
X121106187Y-83645307D01*
X120872235Y-83691843D01*
X120662191Y-83832191D01*
X120521843Y-84042235D01*
X120472560Y-84290000D01*
X120472560Y-85890000D01*
X120521843Y-86137765D01*
X120662191Y-86347809D01*
X120872235Y-86488157D01*
X121120000Y-86537440D01*
X121325501Y-86537440D01*
X121325501Y-88672560D01*
X119800000Y-88672560D01*
X119552235Y-88721843D01*
X119342191Y-88862191D01*
X119201843Y-89072235D01*
X119152560Y-89320000D01*
X119152560Y-91020000D01*
X119201843Y-91267765D01*
X119342191Y-91477809D01*
X119552235Y-91618157D01*
X119597619Y-91627184D01*
X119579375Y-91639375D01*
X119251161Y-92130582D01*
X119135908Y-92710000D01*
X119251161Y-93289418D01*
X119579375Y-93780625D01*
X119877761Y-93980000D01*
X119579375Y-94179375D01*
X119251161Y-94670582D01*
X119135908Y-95250000D01*
X119251161Y-95829418D01*
X119579375Y-96320625D01*
X119877761Y-96520000D01*
X119579375Y-96719375D01*
X119251161Y-97210582D01*
X119135908Y-97790000D01*
X119251161Y-98369418D01*
X119579375Y-98860625D01*
X119877761Y-99060000D01*
X119579375Y-99259375D01*
X119251161Y-99750582D01*
X119135908Y-100330000D01*
X119251161Y-100909418D01*
X119579375Y-101400625D01*
X119898478Y-101613843D01*
X119768642Y-101674817D01*
X119378355Y-102103076D01*
X119208524Y-102513110D01*
X119329845Y-102743000D01*
X120523000Y-102743000D01*
X120523000Y-102723000D01*
X120777000Y-102723000D01*
X120777000Y-102743000D01*
X120797000Y-102743000D01*
X120797000Y-102997000D01*
X120777000Y-102997000D01*
X120777000Y-105283000D01*
X121970155Y-105283000D01*
X122091476Y-105053110D01*
X121921645Y-104643076D01*
X121531358Y-104214817D01*
X121372046Y-104140000D01*
X121531358Y-104065183D01*
X121921645Y-103636924D01*
X122091476Y-103226890D01*
X121970156Y-102997002D01*
X122065424Y-102997002D01*
X125645100Y-106576679D01*
X125645101Y-108764535D01*
X125627763Y-108851700D01*
X125696448Y-109197009D01*
X125842676Y-109415854D01*
X125842678Y-109415856D01*
X125892052Y-109489749D01*
X125965945Y-109539123D01*
X126206822Y-109780000D01*
X118820000Y-109780000D01*
X118820000Y-107950000D01*
X119135908Y-107950000D01*
X119251161Y-108529418D01*
X119579375Y-109020625D01*
X120070582Y-109348839D01*
X120503744Y-109435000D01*
X120796256Y-109435000D01*
X121229418Y-109348839D01*
X121720625Y-109020625D01*
X122048839Y-108529418D01*
X122164092Y-107950000D01*
X122048839Y-107370582D01*
X121720625Y-106879375D01*
X121401522Y-106666157D01*
X121531358Y-106605183D01*
X121921645Y-106176924D01*
X122091476Y-105766890D01*
X121970155Y-105537000D01*
X120777000Y-105537000D01*
X120777000Y-105557000D01*
X120523000Y-105557000D01*
X120523000Y-105537000D01*
X119329845Y-105537000D01*
X119208524Y-105766890D01*
X119378355Y-106176924D01*
X119768642Y-106605183D01*
X119898478Y-106666157D01*
X119579375Y-106879375D01*
X119251161Y-107370582D01*
X119135908Y-107950000D01*
X118820000Y-107950000D01*
X118820000Y-103226890D01*
X119208524Y-103226890D01*
X119378355Y-103636924D01*
X119768642Y-104065183D01*
X119927954Y-104140000D01*
X119768642Y-104214817D01*
X119378355Y-104643076D01*
X119208524Y-105053110D01*
X119329845Y-105283000D01*
X120523000Y-105283000D01*
X120523000Y-102997000D01*
X119329845Y-102997000D01*
X119208524Y-103226890D01*
X118820000Y-103226890D01*
X118820000Y-82373223D01*
X120473035Y-82373223D01*
X120500222Y-82943454D01*
X120666136Y-83344005D01*
X120912255Y-83418139D01*
X121740395Y-82590000D01*
X122099605Y-82590000D01*
X122927745Y-83418139D01*
X123173864Y-83344005D01*
X123366965Y-82806777D01*
X123339778Y-82236546D01*
X123173864Y-81835995D01*
X122927745Y-81761861D01*
X122099605Y-82590000D01*
X121740395Y-82590000D01*
X120912255Y-81761861D01*
X120666136Y-81835995D01*
X120473035Y-82373223D01*
X118820000Y-82373223D01*
X118820000Y-81582255D01*
X121091861Y-81582255D01*
X121920000Y-82410395D01*
X122748139Y-81582255D01*
X122674005Y-81336136D01*
X122136777Y-81143035D01*
X121566546Y-81170222D01*
X121165995Y-81336136D01*
X121091861Y-81582255D01*
X118820000Y-81582255D01*
X118820000Y-79450000D01*
X170740001Y-79450000D01*
X170740000Y-109780000D01*
G36*
X128397000Y-107823000D02*
X128417000Y-107823000D01*
X128417000Y-108077000D01*
X128397000Y-108077000D01*
X128397000Y-108097000D01*
X128143000Y-108097000D01*
X128143000Y-108077000D01*
X128123000Y-108077000D01*
X128123000Y-107823000D01*
X128143000Y-107823000D01*
X128143000Y-107803000D01*
X128397000Y-107803000D01*
X128397000Y-107823000D01*
X128397000Y-107823000D01*
G37*
X128397000Y-107823000D02*
X128417000Y-107823000D01*
X128417000Y-108077000D01*
X128397000Y-108077000D01*
X128397000Y-108097000D01*
X128143000Y-108097000D01*
X128143000Y-108077000D01*
X128123000Y-108077000D01*
X128123000Y-107823000D01*
X128143000Y-107823000D01*
X128143000Y-107803000D01*
X128397000Y-107803000D01*
X128397000Y-107823000D01*
G36*
X132826078Y-84913561D02*
X132790982Y-85090000D01*
X132902355Y-85649909D01*
X133219518Y-86124577D01*
X133571853Y-86360000D01*
X133219518Y-86595423D01*
X132902355Y-87070091D01*
X132790982Y-87630000D01*
X132902355Y-88189909D01*
X133219518Y-88664577D01*
X133571853Y-88900000D01*
X133219518Y-89135423D01*
X132902355Y-89610091D01*
X132790982Y-90170000D01*
X132902355Y-90729909D01*
X133219518Y-91204577D01*
X133571853Y-91440000D01*
X133219518Y-91675423D01*
X132902355Y-92150091D01*
X132790982Y-92710000D01*
X132902355Y-93269909D01*
X133219518Y-93744577D01*
X133469095Y-93911339D01*
X133469095Y-94100069D01*
X133453717Y-94177381D01*
X133469095Y-94254693D01*
X133469095Y-94254696D01*
X133503160Y-94425954D01*
X133514641Y-94483672D01*
X133639531Y-94670582D01*
X133688142Y-94743334D01*
X133753687Y-94787130D01*
X139002160Y-100035604D01*
X138943601Y-100330000D01*
X139054974Y-100889909D01*
X139372137Y-101364577D01*
X139384853Y-101373073D01*
X134847440Y-105910487D01*
X134847440Y-104560000D01*
X134798157Y-104312235D01*
X134657809Y-104102191D01*
X134447765Y-103961843D01*
X134200000Y-103912560D01*
X132500000Y-103912560D01*
X132252235Y-103961843D01*
X132042191Y-104102191D01*
X131901843Y-104312235D01*
X131892816Y-104357619D01*
X131880625Y-104339375D01*
X131389418Y-104011161D01*
X130956256Y-103925000D01*
X130663744Y-103925000D01*
X130230582Y-104011161D01*
X129739375Y-104339375D01*
X129540000Y-104637761D01*
X129340625Y-104339375D01*
X128849418Y-104011161D01*
X128416256Y-103925000D01*
X128123744Y-103925000D01*
X127690582Y-104011161D01*
X127199375Y-104339375D01*
X126871161Y-104830582D01*
X126793349Y-105221770D01*
X122120538Y-100548960D01*
X122164092Y-100330000D01*
X122120538Y-100111040D01*
X125024156Y-97207423D01*
X125098049Y-97158049D01*
X125156630Y-97070378D01*
X125293652Y-96865310D01*
X125301413Y-96826291D01*
X125345000Y-96607165D01*
X125345000Y-96607161D01*
X125362337Y-96520000D01*
X125345000Y-96432839D01*
X125345000Y-93307259D01*
X125403054Y-93447423D01*
X125778961Y-93862389D01*
X126285054Y-94101914D01*
X126507095Y-93980629D01*
X126507095Y-92837000D01*
X126761095Y-92837000D01*
X126761095Y-93980629D01*
X126983136Y-94101914D01*
X127489229Y-93862389D01*
X127865136Y-93447423D01*
X128025999Y-93059039D01*
X127904010Y-92837000D01*
X126761095Y-92837000D01*
X126507095Y-92837000D01*
X126487095Y-92837000D01*
X126487095Y-92583000D01*
X126507095Y-92583000D01*
X126507095Y-92563000D01*
X126761095Y-92563000D01*
X126761095Y-92583000D01*
X127904010Y-92583000D01*
X128025999Y-92360961D01*
X127865136Y-91972577D01*
X127489229Y-91557611D01*
X127284987Y-91460947D01*
X127668672Y-91204577D01*
X127985835Y-90729909D01*
X128097208Y-90170000D01*
X127985835Y-89610091D01*
X127668672Y-89135423D01*
X127316337Y-88900000D01*
X127668672Y-88664577D01*
X127985835Y-88189909D01*
X128097208Y-87630000D01*
X127985835Y-87070091D01*
X127668672Y-86595423D01*
X127547989Y-86514785D01*
X127681860Y-86488157D01*
X127891904Y-86347809D01*
X128032252Y-86137765D01*
X128081535Y-85890000D01*
X128081535Y-84400200D01*
X132312717Y-84400200D01*
X132826078Y-84913561D01*
X132826078Y-84913561D01*
G37*
X132826078Y-84913561D02*
X132790982Y-85090000D01*
X132902355Y-85649909D01*
X133219518Y-86124577D01*
X133571853Y-86360000D01*
X133219518Y-86595423D01*
X132902355Y-87070091D01*
X132790982Y-87630000D01*
X132902355Y-88189909D01*
X133219518Y-88664577D01*
X133571853Y-88900000D01*
X133219518Y-89135423D01*
X132902355Y-89610091D01*
X132790982Y-90170000D01*
X132902355Y-90729909D01*
X133219518Y-91204577D01*
X133571853Y-91440000D01*
X133219518Y-91675423D01*
X132902355Y-92150091D01*
X132790982Y-92710000D01*
X132902355Y-93269909D01*
X133219518Y-93744577D01*
X133469095Y-93911339D01*
X133469095Y-94100069D01*
X133453717Y-94177381D01*
X133469095Y-94254693D01*
X133469095Y-94254696D01*
X133503160Y-94425954D01*
X133514641Y-94483672D01*
X133639531Y-94670582D01*
X133688142Y-94743334D01*
X133753687Y-94787130D01*
X139002160Y-100035604D01*
X138943601Y-100330000D01*
X139054974Y-100889909D01*
X139372137Y-101364577D01*
X139384853Y-101373073D01*
X134847440Y-105910487D01*
X134847440Y-104560000D01*
X134798157Y-104312235D01*
X134657809Y-104102191D01*
X134447765Y-103961843D01*
X134200000Y-103912560D01*
X132500000Y-103912560D01*
X132252235Y-103961843D01*
X132042191Y-104102191D01*
X131901843Y-104312235D01*
X131892816Y-104357619D01*
X131880625Y-104339375D01*
X131389418Y-104011161D01*
X130956256Y-103925000D01*
X130663744Y-103925000D01*
X130230582Y-104011161D01*
X129739375Y-104339375D01*
X129540000Y-104637761D01*
X129340625Y-104339375D01*
X128849418Y-104011161D01*
X128416256Y-103925000D01*
X128123744Y-103925000D01*
X127690582Y-104011161D01*
X127199375Y-104339375D01*
X126871161Y-104830582D01*
X126793349Y-105221770D01*
X122120538Y-100548960D01*
X122164092Y-100330000D01*
X122120538Y-100111040D01*
X125024156Y-97207423D01*
X125098049Y-97158049D01*
X125156630Y-97070378D01*
X125293652Y-96865310D01*
X125301413Y-96826291D01*
X125345000Y-96607165D01*
X125345000Y-96607161D01*
X125362337Y-96520000D01*
X125345000Y-96432839D01*
X125345000Y-93307259D01*
X125403054Y-93447423D01*
X125778961Y-93862389D01*
X126285054Y-94101914D01*
X126507095Y-93980629D01*
X126507095Y-92837000D01*
X126761095Y-92837000D01*
X126761095Y-93980629D01*
X126983136Y-94101914D01*
X127489229Y-93862389D01*
X127865136Y-93447423D01*
X128025999Y-93059039D01*
X127904010Y-92837000D01*
X126761095Y-92837000D01*
X126507095Y-92837000D01*
X126487095Y-92837000D01*
X126487095Y-92583000D01*
X126507095Y-92583000D01*
X126507095Y-92563000D01*
X126761095Y-92563000D01*
X126761095Y-92583000D01*
X127904010Y-92583000D01*
X128025999Y-92360961D01*
X127865136Y-91972577D01*
X127489229Y-91557611D01*
X127284987Y-91460947D01*
X127668672Y-91204577D01*
X127985835Y-90729909D01*
X128097208Y-90170000D01*
X127985835Y-89610091D01*
X127668672Y-89135423D01*
X127316337Y-88900000D01*
X127668672Y-88664577D01*
X127985835Y-88189909D01*
X128097208Y-87630000D01*
X127985835Y-87070091D01*
X127668672Y-86595423D01*
X127547989Y-86514785D01*
X127681860Y-86488157D01*
X127891904Y-86347809D01*
X128032252Y-86137765D01*
X128081535Y-85890000D01*
X128081535Y-84400200D01*
X132312717Y-84400200D01*
X132826078Y-84913561D01*
G36*
X136474138Y-86306534D02*
X136539299Y-86333525D01*
X136532995Y-86336136D01*
X136458861Y-86582255D01*
X137287000Y-87410395D01*
X138115139Y-86582255D01*
X138041005Y-86336136D01*
X138034254Y-86333710D01*
X138099862Y-86306534D01*
X138431396Y-85975000D01*
X138976181Y-85975000D01*
X139008557Y-86137765D01*
X139148905Y-86347809D01*
X139358949Y-86488157D01*
X139492820Y-86514785D01*
X139372137Y-86595423D01*
X139054974Y-87070091D01*
X138943601Y-87630000D01*
X139054974Y-88189909D01*
X139372137Y-88664577D01*
X139724472Y-88900000D01*
X139372137Y-89135423D01*
X139054974Y-89610091D01*
X138943601Y-90170000D01*
X139054974Y-90729909D01*
X139372137Y-91204577D01*
X139724472Y-91440000D01*
X139372137Y-91675423D01*
X139054974Y-92150091D01*
X139042576Y-92212419D01*
X136294000Y-89463843D01*
X136294000Y-89218612D01*
X136309378Y-89141300D01*
X136294000Y-89063988D01*
X136294000Y-89063984D01*
X136248454Y-88835008D01*
X136089919Y-88597745D01*
X136458861Y-88597745D01*
X136532995Y-88843864D01*
X137070223Y-89036965D01*
X137640454Y-89009778D01*
X138041005Y-88843864D01*
X138115139Y-88597745D01*
X137287000Y-87769605D01*
X136458861Y-88597745D01*
X136089919Y-88597745D01*
X136074953Y-88575347D01*
X136009408Y-88531551D01*
X135616110Y-88138253D01*
X135717208Y-87630000D01*
X135666132Y-87373223D01*
X135840035Y-87373223D01*
X135867222Y-87943454D01*
X136033136Y-88344005D01*
X136279255Y-88418139D01*
X137107395Y-87590000D01*
X137466605Y-87590000D01*
X138294745Y-88418139D01*
X138540864Y-88344005D01*
X138733965Y-87806777D01*
X138706778Y-87236546D01*
X138540864Y-86835995D01*
X138294745Y-86761861D01*
X137466605Y-87590000D01*
X137107395Y-87590000D01*
X136279255Y-86761861D01*
X136033136Y-86835995D01*
X135840035Y-87373223D01*
X135666132Y-87373223D01*
X135605835Y-87070091D01*
X135288672Y-86595423D01*
X134936337Y-86360000D01*
X135288672Y-86124577D01*
X135388616Y-85975000D01*
X136142604Y-85975000D01*
X136474138Y-86306534D01*
X136474138Y-86306534D01*
G37*
X136474138Y-86306534D02*
X136539299Y-86333525D01*
X136532995Y-86336136D01*
X136458861Y-86582255D01*
X137287000Y-87410395D01*
X138115139Y-86582255D01*
X138041005Y-86336136D01*
X138034254Y-86333710D01*
X138099862Y-86306534D01*
X138431396Y-85975000D01*
X138976181Y-85975000D01*
X139008557Y-86137765D01*
X139148905Y-86347809D01*
X139358949Y-86488157D01*
X139492820Y-86514785D01*
X139372137Y-86595423D01*
X139054974Y-87070091D01*
X138943601Y-87630000D01*
X139054974Y-88189909D01*
X139372137Y-88664577D01*
X139724472Y-88900000D01*
X139372137Y-89135423D01*
X139054974Y-89610091D01*
X138943601Y-90170000D01*
X139054974Y-90729909D01*
X139372137Y-91204577D01*
X139724472Y-91440000D01*
X139372137Y-91675423D01*
X139054974Y-92150091D01*
X139042576Y-92212419D01*
X136294000Y-89463843D01*
X136294000Y-89218612D01*
X136309378Y-89141300D01*
X136294000Y-89063988D01*
X136294000Y-89063984D01*
X136248454Y-88835008D01*
X136089919Y-88597745D01*
X136458861Y-88597745D01*
X136532995Y-88843864D01*
X137070223Y-89036965D01*
X137640454Y-89009778D01*
X138041005Y-88843864D01*
X138115139Y-88597745D01*
X137287000Y-87769605D01*
X136458861Y-88597745D01*
X136089919Y-88597745D01*
X136074953Y-88575347D01*
X136009408Y-88531551D01*
X135616110Y-88138253D01*
X135717208Y-87630000D01*
X135666132Y-87373223D01*
X135840035Y-87373223D01*
X135867222Y-87943454D01*
X136033136Y-88344005D01*
X136279255Y-88418139D01*
X137107395Y-87590000D01*
X137466605Y-87590000D01*
X138294745Y-88418139D01*
X138540864Y-88344005D01*
X138733965Y-87806777D01*
X138706778Y-87236546D01*
X138540864Y-86835995D01*
X138294745Y-86761861D01*
X137466605Y-87590000D01*
X137107395Y-87590000D01*
X136279255Y-86761861D01*
X136033136Y-86835995D01*
X135840035Y-87373223D01*
X135666132Y-87373223D01*
X135605835Y-87070091D01*
X135288672Y-86595423D01*
X134936337Y-86360000D01*
X135288672Y-86124577D01*
X135388616Y-85975000D01*
X136142604Y-85975000D01*
X136474138Y-86306534D01*
G36*
X146634810Y-84740961D02*
X146756799Y-84963000D01*
X147899714Y-84963000D01*
X147899714Y-84943000D01*
X148153714Y-84943000D01*
X148153714Y-84963000D01*
X149296629Y-84963000D01*
X149418618Y-84740961D01*
X149293260Y-84438300D01*
X153152661Y-84438300D01*
X153024332Y-84524047D01*
X152980536Y-84589592D01*
X151986914Y-85583214D01*
X149358903Y-85583214D01*
X149418618Y-85439039D01*
X149296629Y-85217000D01*
X148153714Y-85217000D01*
X148153714Y-85237000D01*
X147899714Y-85237000D01*
X147899714Y-85217000D01*
X146756799Y-85217000D01*
X146634810Y-85439039D01*
X146692749Y-85578925D01*
X146671188Y-85583214D01*
X146671184Y-85583214D01*
X146442208Y-85628760D01*
X146182547Y-85802261D01*
X146138751Y-85867806D01*
X141864307Y-90142250D01*
X141758454Y-89610091D01*
X141441291Y-89135423D01*
X141088956Y-88900000D01*
X141441291Y-88664577D01*
X141758454Y-88189909D01*
X141869827Y-87630000D01*
X141758454Y-87070091D01*
X141441291Y-86595423D01*
X141320608Y-86514785D01*
X141454479Y-86488157D01*
X141664523Y-86347809D01*
X141804871Y-86137765D01*
X141839033Y-85966018D01*
X142052024Y-85923652D01*
X142344763Y-85728049D01*
X142394139Y-85654153D01*
X143609993Y-84438300D01*
X146760168Y-84438300D01*
X146634810Y-84740961D01*
X146634810Y-84740961D01*
G37*
X146634810Y-84740961D02*
X146756799Y-84963000D01*
X147899714Y-84963000D01*
X147899714Y-84943000D01*
X148153714Y-84943000D01*
X148153714Y-84963000D01*
X149296629Y-84963000D01*
X149418618Y-84740961D01*
X149293260Y-84438300D01*
X153152661Y-84438300D01*
X153024332Y-84524047D01*
X152980536Y-84589592D01*
X151986914Y-85583214D01*
X149358903Y-85583214D01*
X149418618Y-85439039D01*
X149296629Y-85217000D01*
X148153714Y-85217000D01*
X148153714Y-85237000D01*
X147899714Y-85237000D01*
X147899714Y-85217000D01*
X146756799Y-85217000D01*
X146634810Y-85439039D01*
X146692749Y-85578925D01*
X146671188Y-85583214D01*
X146671184Y-85583214D01*
X146442208Y-85628760D01*
X146182547Y-85802261D01*
X146138751Y-85867806D01*
X141864307Y-90142250D01*
X141758454Y-89610091D01*
X141441291Y-89135423D01*
X141088956Y-88900000D01*
X141441291Y-88664577D01*
X141758454Y-88189909D01*
X141869827Y-87630000D01*
X141758454Y-87070091D01*
X141441291Y-86595423D01*
X141320608Y-86514785D01*
X141454479Y-86488157D01*
X141664523Y-86347809D01*
X141804871Y-86137765D01*
X141839033Y-85966018D01*
X142052024Y-85923652D01*
X142344763Y-85728049D01*
X142394139Y-85654153D01*
X143609993Y-84438300D01*
X146760168Y-84438300D01*
X146634810Y-84740961D01*
M02*
