G04 #@! TF.GenerationSoftware,KiCad,Pcbnew,no-vcs-found-104b606~61~ubuntu17.10.1*
G04 #@! TF.CreationDate,2018-02-15T20:58:33+01:00*
G04 #@! TF.ProjectId,arduino_isp_shield,61726475696E6F5F6973705F73686965,rev?*
G04 #@! TF.SameCoordinates,Original*
G04 #@! TF.FileFunction,Copper,L2,Bot,Signal*
G04 #@! TF.FilePolarity,Positive*
%FSLAX46Y46*%
G04 Gerber Fmt 4.6, Leading zero omitted, Abs format (unit mm)*
G04 Created by KiCad (PCBNEW no-vcs-found-104b606~61~ubuntu17.10.1) date Thu Feb 15 20:58:33 2018*
%MOMM*%
%LPD*%
G01*
G04 APERTURE LIST*
%ADD10C,0.300000*%
%ADD11R,1.600000X1.600000*%
%ADD12C,1.600000*%
%ADD13O,1.600000X1.600000*%
%ADD14R,1.700000X1.700000*%
%ADD15O,1.700000X1.700000*%
%ADD16C,0.254000*%
G04 APERTURE END LIST*
D10*
X153958571Y-80323571D02*
X153672857Y-81323571D01*
X153387142Y-80609285D01*
X153101428Y-81323571D01*
X152815714Y-80323571D01*
X152387142Y-80323571D02*
X152101428Y-81323571D01*
X151815714Y-80609285D01*
X151530000Y-81323571D01*
X151244285Y-80323571D01*
X150815714Y-80323571D02*
X150530000Y-81323571D01*
X150244285Y-80609285D01*
X149958571Y-81323571D01*
X149672857Y-80323571D01*
X149101428Y-81180714D02*
X149030000Y-81252142D01*
X149101428Y-81323571D01*
X149172857Y-81252142D01*
X149101428Y-81180714D01*
X149101428Y-81323571D01*
X148387142Y-81323571D02*
X148387142Y-79823571D01*
X147530000Y-81323571D02*
X148172857Y-80466428D01*
X147530000Y-79823571D02*
X148387142Y-80680714D01*
X146244285Y-81323571D02*
X146244285Y-80537857D01*
X146315714Y-80395000D01*
X146458571Y-80323571D01*
X146744285Y-80323571D01*
X146887142Y-80395000D01*
X146244285Y-81252142D02*
X146387142Y-81323571D01*
X146744285Y-81323571D01*
X146887142Y-81252142D01*
X146958571Y-81109285D01*
X146958571Y-80966428D01*
X146887142Y-80823571D01*
X146744285Y-80752142D01*
X146387142Y-80752142D01*
X146244285Y-80680714D01*
X145530000Y-81323571D02*
X145530000Y-80323571D01*
X145530000Y-79823571D02*
X145601428Y-79895000D01*
X145530000Y-79966428D01*
X145458571Y-79895000D01*
X145530000Y-79823571D01*
X145530000Y-79966428D01*
X144315714Y-80537857D02*
X144101428Y-80609285D01*
X144030000Y-80680714D01*
X143958571Y-80823571D01*
X143958571Y-81037857D01*
X144030000Y-81180714D01*
X144101428Y-81252142D01*
X144244285Y-81323571D01*
X144815714Y-81323571D01*
X144815714Y-79823571D01*
X144315714Y-79823571D01*
X144172857Y-79895000D01*
X144101428Y-79966428D01*
X144030000Y-80109285D01*
X144030000Y-80252142D01*
X144101428Y-80395000D01*
X144172857Y-80466428D01*
X144315714Y-80537857D01*
X144815714Y-80537857D01*
X142672857Y-81323571D02*
X142672857Y-80537857D01*
X142744285Y-80395000D01*
X142887142Y-80323571D01*
X143172857Y-80323571D01*
X143315714Y-80395000D01*
X142672857Y-81252142D02*
X142815714Y-81323571D01*
X143172857Y-81323571D01*
X143315714Y-81252142D01*
X143387142Y-81109285D01*
X143387142Y-80966428D01*
X143315714Y-80823571D01*
X143172857Y-80752142D01*
X142815714Y-80752142D01*
X142672857Y-80680714D01*
X141315714Y-81323571D02*
X141315714Y-79823571D01*
X141315714Y-81252142D02*
X141458571Y-81323571D01*
X141744285Y-81323571D01*
X141887142Y-81252142D01*
X141958571Y-81180714D01*
X142030000Y-81037857D01*
X142030000Y-80609285D01*
X141958571Y-80466428D01*
X141887142Y-80395000D01*
X141744285Y-80323571D01*
X141458571Y-80323571D01*
X141315714Y-80395000D01*
X140030000Y-81252142D02*
X140172857Y-81323571D01*
X140458571Y-81323571D01*
X140601428Y-81252142D01*
X140672857Y-81109285D01*
X140672857Y-80537857D01*
X140601428Y-80395000D01*
X140458571Y-80323571D01*
X140172857Y-80323571D01*
X140030000Y-80395000D01*
X139958571Y-80537857D01*
X139958571Y-80680714D01*
X140672857Y-80823571D01*
X139315714Y-81323571D02*
X139315714Y-80323571D01*
X139315714Y-80609285D02*
X139244285Y-80466428D01*
X139172857Y-80395000D01*
X139030000Y-80323571D01*
X138887142Y-80323571D01*
X138387142Y-81180714D02*
X138315714Y-81252142D01*
X138387142Y-81323571D01*
X138458571Y-81252142D01*
X138387142Y-81180714D01*
X138387142Y-81323571D01*
X137030000Y-81323571D02*
X137030000Y-79823571D01*
X137030000Y-81252142D02*
X137172857Y-81323571D01*
X137458571Y-81323571D01*
X137601428Y-81252142D01*
X137672857Y-81180714D01*
X137744285Y-81037857D01*
X137744285Y-80609285D01*
X137672857Y-80466428D01*
X137601428Y-80395000D01*
X137458571Y-80323571D01*
X137172857Y-80323571D01*
X137030000Y-80395000D01*
X135744285Y-81252142D02*
X135887142Y-81323571D01*
X136172857Y-81323571D01*
X136315714Y-81252142D01*
X136387142Y-81109285D01*
X136387142Y-80537857D01*
X136315714Y-80395000D01*
X136172857Y-80323571D01*
X135887142Y-80323571D01*
X135744285Y-80395000D01*
X135672857Y-80537857D01*
X135672857Y-80680714D01*
X136387142Y-80823571D01*
D11*
X121920000Y-85090000D03*
D12*
X121920000Y-82590000D03*
D11*
X126634095Y-85090000D03*
D13*
X134254095Y-92710000D03*
X126634095Y-87630000D03*
X134254095Y-90170000D03*
X126634095Y-90170000D03*
X134254095Y-87630000D03*
X126634095Y-92710000D03*
X134254095Y-85090000D03*
D12*
X165227000Y-87630000D03*
X165227000Y-85130000D03*
X137287000Y-85090000D03*
X137287000Y-87590000D03*
D14*
X168910000Y-81030000D03*
D15*
X168910000Y-83570000D03*
X168910000Y-86110000D03*
X168910000Y-88650000D03*
X168910000Y-91190000D03*
X168910000Y-93730000D03*
X168910000Y-96270000D03*
X168910000Y-98810000D03*
X168910000Y-101350000D03*
X168910000Y-103890000D03*
D14*
X120650000Y-90170000D03*
D15*
X120650000Y-92710000D03*
X120650000Y-95250000D03*
X120650000Y-97790000D03*
X120650000Y-100330000D03*
X120650000Y-102870000D03*
X120650000Y-105410000D03*
X120650000Y-107950000D03*
D11*
X140406714Y-85090000D03*
D13*
X148026714Y-100330000D03*
X140406714Y-87630000D03*
X148026714Y-97790000D03*
X140406714Y-90170000D03*
X148026714Y-95250000D03*
X140406714Y-92710000D03*
X148026714Y-92710000D03*
X140406714Y-95250000D03*
X148026714Y-90170000D03*
X140406714Y-97790000D03*
X148026714Y-87630000D03*
X140406714Y-100330000D03*
X148026714Y-85090000D03*
D14*
X133350000Y-105410000D03*
D15*
X133350000Y-107950000D03*
X130810000Y-105410000D03*
X130810000Y-107950000D03*
X128270000Y-105410000D03*
X128270000Y-107950000D03*
D11*
X154690285Y-85090000D03*
D13*
X162310285Y-107950000D03*
X154690285Y-87630000D03*
X162310285Y-105410000D03*
X154690285Y-90170000D03*
X162310285Y-102870000D03*
X154690285Y-92710000D03*
X162310285Y-100330000D03*
X154690285Y-95250000D03*
X162310285Y-97790000D03*
X154690285Y-97790000D03*
X162310285Y-95250000D03*
X154690285Y-100330000D03*
X162310285Y-92710000D03*
X154690285Y-102870000D03*
X162310285Y-90170000D03*
X154690285Y-105410000D03*
X162310285Y-87630000D03*
X154690285Y-107950000D03*
X162310285Y-85090000D03*
D10*
X133350000Y-105410000D02*
X142946714Y-105410000D01*
X142946714Y-105410000D02*
X148026714Y-100330000D01*
X130810000Y-105410000D02*
X133350000Y-102870000D01*
X133350000Y-102870000D02*
X142946714Y-102870000D01*
X142946714Y-102870000D02*
X148026714Y-97790000D01*
X129095500Y-86423500D02*
X127762000Y-85090000D01*
X127762000Y-85090000D02*
X126634095Y-85090000D01*
X134937500Y-86423500D02*
X129095500Y-86423500D01*
X135763000Y-88074500D02*
X135763000Y-87249000D01*
X136128785Y-88440285D02*
X135763000Y-88074500D01*
X140406714Y-92710000D02*
X136136999Y-88440285D01*
X135763000Y-87249000D02*
X134937500Y-86423500D01*
X136136999Y-88440285D02*
X136128785Y-88440285D01*
X163195000Y-91440000D02*
X163639500Y-91884500D01*
X163826000Y-93722000D02*
X163639500Y-93535500D01*
X163639500Y-93535500D02*
X163639500Y-91884500D01*
X163826000Y-93726000D02*
X163826000Y-93722000D01*
X168910000Y-98810000D02*
X163826000Y-93726000D01*
X168910000Y-98810000D02*
X167709999Y-97609999D01*
X167709999Y-97609999D02*
X167709999Y-97605999D01*
X160920286Y-91324286D02*
X161036000Y-91440000D01*
X161036000Y-91440000D02*
X163195000Y-91440000D01*
X160920286Y-91320001D02*
X160920286Y-91324286D01*
X128270000Y-105410000D02*
X140406714Y-93273286D01*
X140406714Y-93273286D02*
X140406714Y-92710000D01*
X160920286Y-91320001D02*
X154690285Y-85090000D01*
D16*
G36*
X134602143Y-82675000D02*
X154957857Y-82675000D01*
X154957857Y-79450000D01*
X170740001Y-79450000D01*
X170740000Y-109780000D01*
X118820000Y-109780000D01*
X118820000Y-107950000D01*
X119135908Y-107950000D01*
X119251161Y-108529418D01*
X119579375Y-109020625D01*
X120070582Y-109348839D01*
X120503744Y-109435000D01*
X120796256Y-109435000D01*
X121229418Y-109348839D01*
X121720625Y-109020625D01*
X122048839Y-108529418D01*
X122093102Y-108306892D01*
X126828514Y-108306892D01*
X127074817Y-108831358D01*
X127503076Y-109221645D01*
X127913110Y-109391476D01*
X128143000Y-109270155D01*
X128143000Y-108077000D01*
X126949181Y-108077000D01*
X126828514Y-108306892D01*
X122093102Y-108306892D01*
X122164092Y-107950000D01*
X122048839Y-107370582D01*
X121720625Y-106879375D01*
X121401522Y-106666157D01*
X121531358Y-106605183D01*
X121921645Y-106176924D01*
X122091476Y-105766890D01*
X121970155Y-105537000D01*
X120777000Y-105537000D01*
X120777000Y-105557000D01*
X120523000Y-105557000D01*
X120523000Y-105537000D01*
X119329845Y-105537000D01*
X119208524Y-105766890D01*
X119378355Y-106176924D01*
X119768642Y-106605183D01*
X119898478Y-106666157D01*
X119579375Y-106879375D01*
X119251161Y-107370582D01*
X119135908Y-107950000D01*
X118820000Y-107950000D01*
X118820000Y-103226890D01*
X119208524Y-103226890D01*
X119378355Y-103636924D01*
X119768642Y-104065183D01*
X119927954Y-104140000D01*
X119768642Y-104214817D01*
X119378355Y-104643076D01*
X119208524Y-105053110D01*
X119329845Y-105283000D01*
X120523000Y-105283000D01*
X120523000Y-102997000D01*
X120777000Y-102997000D01*
X120777000Y-105283000D01*
X121970155Y-105283000D01*
X122091476Y-105053110D01*
X121921645Y-104643076D01*
X121531358Y-104214817D01*
X121372046Y-104140000D01*
X121531358Y-104065183D01*
X121921645Y-103636924D01*
X122091476Y-103226890D01*
X121970155Y-102997000D01*
X120777000Y-102997000D01*
X120523000Y-102997000D01*
X119329845Y-102997000D01*
X119208524Y-103226890D01*
X118820000Y-103226890D01*
X118820000Y-92710000D01*
X119135908Y-92710000D01*
X119251161Y-93289418D01*
X119579375Y-93780625D01*
X119877761Y-93980000D01*
X119579375Y-94179375D01*
X119251161Y-94670582D01*
X119135908Y-95250000D01*
X119251161Y-95829418D01*
X119579375Y-96320625D01*
X119877761Y-96520000D01*
X119579375Y-96719375D01*
X119251161Y-97210582D01*
X119135908Y-97790000D01*
X119251161Y-98369418D01*
X119579375Y-98860625D01*
X119877761Y-99060000D01*
X119579375Y-99259375D01*
X119251161Y-99750582D01*
X119135908Y-100330000D01*
X119251161Y-100909418D01*
X119579375Y-101400625D01*
X119898478Y-101613843D01*
X119768642Y-101674817D01*
X119378355Y-102103076D01*
X119208524Y-102513110D01*
X119329845Y-102743000D01*
X120523000Y-102743000D01*
X120523000Y-102723000D01*
X120777000Y-102723000D01*
X120777000Y-102743000D01*
X121970155Y-102743000D01*
X122091476Y-102513110D01*
X121921645Y-102103076D01*
X121531358Y-101674817D01*
X121401522Y-101613843D01*
X121720625Y-101400625D01*
X122048839Y-100909418D01*
X122164092Y-100330000D01*
X122048839Y-99750582D01*
X121720625Y-99259375D01*
X121422239Y-99060000D01*
X121720625Y-98860625D01*
X122048839Y-98369418D01*
X122164092Y-97790000D01*
X122048839Y-97210582D01*
X121720625Y-96719375D01*
X121422239Y-96520000D01*
X121720625Y-96320625D01*
X122048839Y-95829418D01*
X122164092Y-95250000D01*
X122048839Y-94670582D01*
X121720625Y-94179375D01*
X121422239Y-93980000D01*
X121720625Y-93780625D01*
X122048839Y-93289418D01*
X122094664Y-93059039D01*
X125242191Y-93059039D01*
X125403054Y-93447423D01*
X125778961Y-93862389D01*
X126285054Y-94101914D01*
X126507095Y-93980629D01*
X126507095Y-92837000D01*
X126761095Y-92837000D01*
X126761095Y-93980629D01*
X126983136Y-94101914D01*
X127489229Y-93862389D01*
X127865136Y-93447423D01*
X128025999Y-93059039D01*
X127904010Y-92837000D01*
X126761095Y-92837000D01*
X126507095Y-92837000D01*
X125364180Y-92837000D01*
X125242191Y-93059039D01*
X122094664Y-93059039D01*
X122164092Y-92710000D01*
X122048839Y-92130582D01*
X121720625Y-91639375D01*
X121702381Y-91627184D01*
X121747765Y-91618157D01*
X121957809Y-91477809D01*
X122098157Y-91267765D01*
X122147440Y-91020000D01*
X122147440Y-89320000D01*
X122098157Y-89072235D01*
X121957809Y-88862191D01*
X121747765Y-88721843D01*
X121500000Y-88672560D01*
X119800000Y-88672560D01*
X119552235Y-88721843D01*
X119342191Y-88862191D01*
X119201843Y-89072235D01*
X119152560Y-89320000D01*
X119152560Y-91020000D01*
X119201843Y-91267765D01*
X119342191Y-91477809D01*
X119552235Y-91618157D01*
X119597619Y-91627184D01*
X119579375Y-91639375D01*
X119251161Y-92130582D01*
X119135908Y-92710000D01*
X118820000Y-92710000D01*
X118820000Y-87630000D01*
X125170982Y-87630000D01*
X125282355Y-88189909D01*
X125599518Y-88664577D01*
X125951853Y-88900000D01*
X125599518Y-89135423D01*
X125282355Y-89610091D01*
X125170982Y-90170000D01*
X125282355Y-90729909D01*
X125599518Y-91204577D01*
X125983203Y-91460947D01*
X125778961Y-91557611D01*
X125403054Y-91972577D01*
X125242191Y-92360961D01*
X125364180Y-92583000D01*
X126507095Y-92583000D01*
X126507095Y-92563000D01*
X126761095Y-92563000D01*
X126761095Y-92583000D01*
X127904010Y-92583000D01*
X128025999Y-92360961D01*
X127865136Y-91972577D01*
X127489229Y-91557611D01*
X127284987Y-91460947D01*
X127668672Y-91204577D01*
X127985835Y-90729909D01*
X128097208Y-90170000D01*
X127985835Y-89610091D01*
X127668672Y-89135423D01*
X127316337Y-88900000D01*
X127668672Y-88664577D01*
X127985835Y-88189909D01*
X128097208Y-87630000D01*
X127985835Y-87070091D01*
X127668672Y-86595423D01*
X127547989Y-86514785D01*
X127681860Y-86488157D01*
X127891904Y-86347809D01*
X127899013Y-86337170D01*
X128485753Y-86923911D01*
X128529547Y-86989453D01*
X128595089Y-87033247D01*
X128595091Y-87033249D01*
X128789208Y-87162954D01*
X129018184Y-87208500D01*
X129018188Y-87208500D01*
X129095500Y-87223878D01*
X129172812Y-87208500D01*
X132874824Y-87208500D01*
X132790982Y-87630000D01*
X132902355Y-88189909D01*
X133219518Y-88664577D01*
X133571853Y-88900000D01*
X133219518Y-89135423D01*
X132902355Y-89610091D01*
X132790982Y-90170000D01*
X132902355Y-90729909D01*
X133219518Y-91204577D01*
X133571853Y-91440000D01*
X133219518Y-91675423D01*
X132902355Y-92150091D01*
X132790982Y-92710000D01*
X132902355Y-93269909D01*
X133219518Y-93744577D01*
X133694186Y-94061740D01*
X134112762Y-94145000D01*
X134395428Y-94145000D01*
X134814004Y-94061740D01*
X135288672Y-93744577D01*
X135605835Y-93269909D01*
X135717208Y-92710000D01*
X135605835Y-92150091D01*
X135288672Y-91675423D01*
X134936337Y-91440000D01*
X135288672Y-91204577D01*
X135605835Y-90729909D01*
X135717208Y-90170000D01*
X135605835Y-89610091D01*
X135288672Y-89135423D01*
X134936337Y-88900000D01*
X135260911Y-88683126D01*
X135262592Y-88684249D01*
X135519036Y-88940693D01*
X135562832Y-89006238D01*
X135653132Y-89066575D01*
X139002160Y-92415604D01*
X138943601Y-92710000D01*
X139054974Y-93269909D01*
X139153091Y-93416752D01*
X128606918Y-103962925D01*
X128416256Y-103925000D01*
X128123744Y-103925000D01*
X127690582Y-104011161D01*
X127199375Y-104339375D01*
X126871161Y-104830582D01*
X126755908Y-105410000D01*
X126871161Y-105989418D01*
X127199375Y-106480625D01*
X127499786Y-106681353D01*
X127074817Y-107068642D01*
X126828514Y-107593108D01*
X126949181Y-107823000D01*
X128143000Y-107823000D01*
X128143000Y-107803000D01*
X128397000Y-107803000D01*
X128397000Y-107823000D01*
X128417000Y-107823000D01*
X128417000Y-108077000D01*
X128397000Y-108077000D01*
X128397000Y-109270155D01*
X128626890Y-109391476D01*
X129036924Y-109221645D01*
X129465183Y-108831358D01*
X129526157Y-108701522D01*
X129739375Y-109020625D01*
X130230582Y-109348839D01*
X130663744Y-109435000D01*
X130956256Y-109435000D01*
X131389418Y-109348839D01*
X131880625Y-109020625D01*
X132080000Y-108722239D01*
X132279375Y-109020625D01*
X132770582Y-109348839D01*
X133203744Y-109435000D01*
X133496256Y-109435000D01*
X133929418Y-109348839D01*
X134420625Y-109020625D01*
X134748839Y-108529418D01*
X134794664Y-108299039D01*
X153298381Y-108299039D01*
X153459244Y-108687423D01*
X153835151Y-109102389D01*
X154341244Y-109341914D01*
X154563285Y-109220629D01*
X154563285Y-108077000D01*
X154817285Y-108077000D01*
X154817285Y-109220629D01*
X155039326Y-109341914D01*
X155545419Y-109102389D01*
X155921326Y-108687423D01*
X156082189Y-108299039D01*
X155960200Y-108077000D01*
X154817285Y-108077000D01*
X154563285Y-108077000D01*
X153420370Y-108077000D01*
X153298381Y-108299039D01*
X134794664Y-108299039D01*
X134864092Y-107950000D01*
X134748839Y-107370582D01*
X134420625Y-106879375D01*
X134402381Y-106867184D01*
X134447765Y-106858157D01*
X134657809Y-106717809D01*
X134798157Y-106507765D01*
X134847440Y-106260000D01*
X134847440Y-106195000D01*
X142869402Y-106195000D01*
X142946714Y-106210378D01*
X143024026Y-106195000D01*
X143024030Y-106195000D01*
X143253006Y-106149454D01*
X143512667Y-105975953D01*
X143556463Y-105910408D01*
X147732318Y-101734554D01*
X147885381Y-101765000D01*
X148168047Y-101765000D01*
X148586623Y-101681740D01*
X149061291Y-101364577D01*
X149378454Y-100889909D01*
X149489827Y-100330000D01*
X149378454Y-99770091D01*
X149061291Y-99295423D01*
X148708956Y-99060000D01*
X149061291Y-98824577D01*
X149378454Y-98349909D01*
X149489827Y-97790000D01*
X149378454Y-97230091D01*
X149061291Y-96755423D01*
X148708956Y-96520000D01*
X149061291Y-96284577D01*
X149378454Y-95809909D01*
X149489827Y-95250000D01*
X149378454Y-94690091D01*
X149061291Y-94215423D01*
X148708956Y-93980000D01*
X149061291Y-93744577D01*
X149378454Y-93269909D01*
X149489827Y-92710000D01*
X149378454Y-92150091D01*
X149061291Y-91675423D01*
X148708956Y-91440000D01*
X149061291Y-91204577D01*
X149378454Y-90729909D01*
X149489827Y-90170000D01*
X149378454Y-89610091D01*
X149061291Y-89135423D01*
X148708956Y-88900000D01*
X149061291Y-88664577D01*
X149378454Y-88189909D01*
X149489827Y-87630000D01*
X153227172Y-87630000D01*
X153338545Y-88189909D01*
X153655708Y-88664577D01*
X154008043Y-88900000D01*
X153655708Y-89135423D01*
X153338545Y-89610091D01*
X153227172Y-90170000D01*
X153338545Y-90729909D01*
X153655708Y-91204577D01*
X154008043Y-91440000D01*
X153655708Y-91675423D01*
X153338545Y-92150091D01*
X153227172Y-92710000D01*
X153338545Y-93269909D01*
X153655708Y-93744577D01*
X154008043Y-93980000D01*
X153655708Y-94215423D01*
X153338545Y-94690091D01*
X153227172Y-95250000D01*
X153338545Y-95809909D01*
X153655708Y-96284577D01*
X154008043Y-96520000D01*
X153655708Y-96755423D01*
X153338545Y-97230091D01*
X153227172Y-97790000D01*
X153338545Y-98349909D01*
X153655708Y-98824577D01*
X154008043Y-99060000D01*
X153655708Y-99295423D01*
X153338545Y-99770091D01*
X153227172Y-100330000D01*
X153338545Y-100889909D01*
X153655708Y-101364577D01*
X154008043Y-101600000D01*
X153655708Y-101835423D01*
X153338545Y-102310091D01*
X153227172Y-102870000D01*
X153338545Y-103429909D01*
X153655708Y-103904577D01*
X154008043Y-104140000D01*
X153655708Y-104375423D01*
X153338545Y-104850091D01*
X153227172Y-105410000D01*
X153338545Y-105969909D01*
X153655708Y-106444577D01*
X154039393Y-106700947D01*
X153835151Y-106797611D01*
X153459244Y-107212577D01*
X153298381Y-107600961D01*
X153420370Y-107823000D01*
X154563285Y-107823000D01*
X154563285Y-107803000D01*
X154817285Y-107803000D01*
X154817285Y-107823000D01*
X155960200Y-107823000D01*
X156082189Y-107600961D01*
X155921326Y-107212577D01*
X155545419Y-106797611D01*
X155341177Y-106700947D01*
X155724862Y-106444577D01*
X156042025Y-105969909D01*
X156153398Y-105410000D01*
X156042025Y-104850091D01*
X155724862Y-104375423D01*
X155372527Y-104140000D01*
X155724862Y-103904577D01*
X156042025Y-103429909D01*
X156153398Y-102870000D01*
X156042025Y-102310091D01*
X155724862Y-101835423D01*
X155372527Y-101600000D01*
X155724862Y-101364577D01*
X156042025Y-100889909D01*
X156153398Y-100330000D01*
X156042025Y-99770091D01*
X155724862Y-99295423D01*
X155372527Y-99060000D01*
X155724862Y-98824577D01*
X156042025Y-98349909D01*
X156153398Y-97790000D01*
X156042025Y-97230091D01*
X155724862Y-96755423D01*
X155372527Y-96520000D01*
X155724862Y-96284577D01*
X156042025Y-95809909D01*
X156153398Y-95250000D01*
X156042025Y-94690091D01*
X155724862Y-94215423D01*
X155372527Y-93980000D01*
X155724862Y-93744577D01*
X156042025Y-93269909D01*
X156153398Y-92710000D01*
X156042025Y-92150091D01*
X155724862Y-91675423D01*
X155372527Y-91440000D01*
X155724862Y-91204577D01*
X156042025Y-90729909D01*
X156153398Y-90170000D01*
X156042025Y-89610091D01*
X155724862Y-89135423D01*
X155372527Y-88900000D01*
X155724862Y-88664577D01*
X156042025Y-88189909D01*
X156147878Y-87657750D01*
X160301910Y-91811783D01*
X160354333Y-91890239D01*
X160419878Y-91934035D01*
X160426251Y-91940408D01*
X160470047Y-92005953D01*
X160729708Y-92179454D01*
X160944217Y-92222122D01*
X160847172Y-92710000D01*
X160958545Y-93269909D01*
X161275708Y-93744577D01*
X161628043Y-93980000D01*
X161275708Y-94215423D01*
X160958545Y-94690091D01*
X160847172Y-95250000D01*
X160958545Y-95809909D01*
X161275708Y-96284577D01*
X161628043Y-96520000D01*
X161275708Y-96755423D01*
X160958545Y-97230091D01*
X160847172Y-97790000D01*
X160958545Y-98349909D01*
X161275708Y-98824577D01*
X161628043Y-99060000D01*
X161275708Y-99295423D01*
X160958545Y-99770091D01*
X160847172Y-100330000D01*
X160958545Y-100889909D01*
X161275708Y-101364577D01*
X161628043Y-101600000D01*
X161275708Y-101835423D01*
X160958545Y-102310091D01*
X160847172Y-102870000D01*
X160958545Y-103429909D01*
X161275708Y-103904577D01*
X161628043Y-104140000D01*
X161275708Y-104375423D01*
X160958545Y-104850091D01*
X160847172Y-105410000D01*
X160958545Y-105969909D01*
X161275708Y-106444577D01*
X161628043Y-106680000D01*
X161275708Y-106915423D01*
X160958545Y-107390091D01*
X160847172Y-107950000D01*
X160958545Y-108509909D01*
X161275708Y-108984577D01*
X161750376Y-109301740D01*
X162168952Y-109385000D01*
X162451618Y-109385000D01*
X162870194Y-109301740D01*
X163344862Y-108984577D01*
X163662025Y-108509909D01*
X163773398Y-107950000D01*
X163662025Y-107390091D01*
X163344862Y-106915423D01*
X162992527Y-106680000D01*
X163344862Y-106444577D01*
X163662025Y-105969909D01*
X163773398Y-105410000D01*
X163662025Y-104850091D01*
X163344862Y-104375423D01*
X162992527Y-104140000D01*
X163344862Y-103904577D01*
X163662025Y-103429909D01*
X163773398Y-102870000D01*
X163662025Y-102310091D01*
X163344862Y-101835423D01*
X162992527Y-101600000D01*
X163344862Y-101364577D01*
X163662025Y-100889909D01*
X163773398Y-100330000D01*
X163662025Y-99770091D01*
X163344862Y-99295423D01*
X162992527Y-99060000D01*
X163344862Y-98824577D01*
X163662025Y-98349909D01*
X163773398Y-97790000D01*
X163662025Y-97230091D01*
X163344862Y-96755423D01*
X162992527Y-96520000D01*
X163344862Y-96284577D01*
X163662025Y-95809909D01*
X163773398Y-95250000D01*
X163662025Y-94690091D01*
X163625962Y-94636119D01*
X167100250Y-98110407D01*
X167144046Y-98175952D01*
X167209591Y-98219748D01*
X167462925Y-98473082D01*
X167395908Y-98810000D01*
X167511161Y-99389418D01*
X167839375Y-99880625D01*
X168137761Y-100080000D01*
X167839375Y-100279375D01*
X167511161Y-100770582D01*
X167395908Y-101350000D01*
X167511161Y-101929418D01*
X167839375Y-102420625D01*
X168137761Y-102620000D01*
X167839375Y-102819375D01*
X167511161Y-103310582D01*
X167395908Y-103890000D01*
X167511161Y-104469418D01*
X167839375Y-104960625D01*
X168330582Y-105288839D01*
X168763744Y-105375000D01*
X169056256Y-105375000D01*
X169489418Y-105288839D01*
X169980625Y-104960625D01*
X170308839Y-104469418D01*
X170424092Y-103890000D01*
X170308839Y-103310582D01*
X169980625Y-102819375D01*
X169682239Y-102620000D01*
X169980625Y-102420625D01*
X170308839Y-101929418D01*
X170424092Y-101350000D01*
X170308839Y-100770582D01*
X169980625Y-100279375D01*
X169682239Y-100080000D01*
X169980625Y-99880625D01*
X170308839Y-99389418D01*
X170424092Y-98810000D01*
X170308839Y-98230582D01*
X169980625Y-97739375D01*
X169682239Y-97540000D01*
X169980625Y-97340625D01*
X170308839Y-96849418D01*
X170424092Y-96270000D01*
X170308839Y-95690582D01*
X169980625Y-95199375D01*
X169682239Y-95000000D01*
X169980625Y-94800625D01*
X170308839Y-94309418D01*
X170424092Y-93730000D01*
X170308839Y-93150582D01*
X169980625Y-92659375D01*
X169682239Y-92460000D01*
X169980625Y-92260625D01*
X170308839Y-91769418D01*
X170424092Y-91190000D01*
X170308839Y-90610582D01*
X169980625Y-90119375D01*
X169661522Y-89906157D01*
X169791358Y-89845183D01*
X170181645Y-89416924D01*
X170351476Y-89006890D01*
X170230155Y-88777000D01*
X169037000Y-88777000D01*
X169037000Y-88797000D01*
X168783000Y-88797000D01*
X168783000Y-88777000D01*
X167589845Y-88777000D01*
X167468524Y-89006890D01*
X167638355Y-89416924D01*
X168028642Y-89845183D01*
X168158478Y-89906157D01*
X167839375Y-90119375D01*
X167511161Y-90610582D01*
X167395908Y-91190000D01*
X167511161Y-91769418D01*
X167839375Y-92260625D01*
X168137761Y-92460000D01*
X167839375Y-92659375D01*
X167511161Y-93150582D01*
X167395908Y-93730000D01*
X167511161Y-94309418D01*
X167839375Y-94800625D01*
X168137761Y-95000000D01*
X167839375Y-95199375D01*
X167511161Y-95690582D01*
X167409886Y-96199729D01*
X164443804Y-93233647D01*
X164435749Y-93221592D01*
X164424500Y-93204757D01*
X164424500Y-91961812D01*
X164439878Y-91884500D01*
X164424500Y-91807188D01*
X164424500Y-91807184D01*
X164378954Y-91578208D01*
X164205453Y-91318547D01*
X164139908Y-91274751D01*
X163804749Y-90939592D01*
X163760953Y-90874047D01*
X163625977Y-90783858D01*
X163662025Y-90729909D01*
X163773398Y-90170000D01*
X163662025Y-89610091D01*
X163344862Y-89135423D01*
X162992527Y-88900000D01*
X163344862Y-88664577D01*
X163362790Y-88637745D01*
X164398861Y-88637745D01*
X164472995Y-88883864D01*
X165010223Y-89076965D01*
X165580454Y-89049778D01*
X165981005Y-88883864D01*
X166055139Y-88637745D01*
X165227000Y-87809605D01*
X164398861Y-88637745D01*
X163362790Y-88637745D01*
X163662025Y-88189909D01*
X163773398Y-87630000D01*
X163730279Y-87413223D01*
X163780035Y-87413223D01*
X163807222Y-87983454D01*
X163973136Y-88384005D01*
X164219255Y-88458139D01*
X165047395Y-87630000D01*
X165406605Y-87630000D01*
X166234745Y-88458139D01*
X166480864Y-88384005D01*
X166673965Y-87846777D01*
X166646778Y-87276546D01*
X166480864Y-86875995D01*
X166234745Y-86801861D01*
X165406605Y-87630000D01*
X165047395Y-87630000D01*
X164219255Y-86801861D01*
X163973136Y-86875995D01*
X163780035Y-87413223D01*
X163730279Y-87413223D01*
X163662025Y-87070091D01*
X163344862Y-86595423D01*
X162992527Y-86360000D01*
X163344862Y-86124577D01*
X163662025Y-85649909D01*
X163773398Y-85090000D01*
X163724578Y-84844561D01*
X163792000Y-84844561D01*
X163792000Y-85415439D01*
X164010466Y-85942862D01*
X164414138Y-86346534D01*
X164479299Y-86373525D01*
X164472995Y-86376136D01*
X164398861Y-86622255D01*
X165227000Y-87450395D01*
X166055139Y-86622255D01*
X165981005Y-86376136D01*
X165974254Y-86373710D01*
X166039862Y-86346534D01*
X166443534Y-85942862D01*
X166662000Y-85415439D01*
X166662000Y-84844561D01*
X166443534Y-84317138D01*
X166039862Y-83913466D01*
X165512439Y-83695000D01*
X164941561Y-83695000D01*
X164414138Y-83913466D01*
X164010466Y-84317138D01*
X163792000Y-84844561D01*
X163724578Y-84844561D01*
X163662025Y-84530091D01*
X163344862Y-84055423D01*
X162870194Y-83738260D01*
X162451618Y-83655000D01*
X162168952Y-83655000D01*
X161750376Y-83738260D01*
X161275708Y-84055423D01*
X160958545Y-84530091D01*
X160847172Y-85090000D01*
X160958545Y-85649909D01*
X161275708Y-86124577D01*
X161628043Y-86360000D01*
X161275708Y-86595423D01*
X160958545Y-87070091D01*
X160847172Y-87630000D01*
X160958545Y-88189909D01*
X161275708Y-88664577D01*
X161628043Y-88900000D01*
X161275708Y-89135423D01*
X160958545Y-89610091D01*
X160852692Y-90142249D01*
X156137725Y-85427283D01*
X156137725Y-84290000D01*
X156088442Y-84042235D01*
X155948094Y-83832191D01*
X155738050Y-83691843D01*
X155490285Y-83642560D01*
X153890285Y-83642560D01*
X153642520Y-83691843D01*
X153432476Y-83832191D01*
X153292128Y-84042235D01*
X153242845Y-84290000D01*
X153242845Y-85890000D01*
X153292128Y-86137765D01*
X153432476Y-86347809D01*
X153642520Y-86488157D01*
X153776391Y-86514785D01*
X153655708Y-86595423D01*
X153338545Y-87070091D01*
X153227172Y-87630000D01*
X149489827Y-87630000D01*
X149378454Y-87070091D01*
X149061291Y-86595423D01*
X148677606Y-86339053D01*
X148881848Y-86242389D01*
X149257755Y-85827423D01*
X149418618Y-85439039D01*
X149296629Y-85217000D01*
X148153714Y-85217000D01*
X148153714Y-85237000D01*
X147899714Y-85237000D01*
X147899714Y-85217000D01*
X146756799Y-85217000D01*
X146634810Y-85439039D01*
X146795673Y-85827423D01*
X147171580Y-86242389D01*
X147375822Y-86339053D01*
X146992137Y-86595423D01*
X146674974Y-87070091D01*
X146563601Y-87630000D01*
X146674974Y-88189909D01*
X146992137Y-88664577D01*
X147344472Y-88900000D01*
X146992137Y-89135423D01*
X146674974Y-89610091D01*
X146563601Y-90170000D01*
X146674974Y-90729909D01*
X146992137Y-91204577D01*
X147344472Y-91440000D01*
X146992137Y-91675423D01*
X146674974Y-92150091D01*
X146563601Y-92710000D01*
X146674974Y-93269909D01*
X146992137Y-93744577D01*
X147344472Y-93980000D01*
X146992137Y-94215423D01*
X146674974Y-94690091D01*
X146563601Y-95250000D01*
X146674974Y-95809909D01*
X146992137Y-96284577D01*
X147344472Y-96520000D01*
X146992137Y-96755423D01*
X146674974Y-97230091D01*
X146563601Y-97790000D01*
X146622160Y-98084396D01*
X142621557Y-102085000D01*
X133427310Y-102085000D01*
X133349999Y-102069622D01*
X133272688Y-102085000D01*
X133272684Y-102085000D01*
X133043708Y-102130546D01*
X133043706Y-102130547D01*
X133043707Y-102130547D01*
X132849591Y-102260251D01*
X132849589Y-102260253D01*
X132784047Y-102304047D01*
X132740253Y-102369589D01*
X131146918Y-103962925D01*
X130956256Y-103925000D01*
X130865157Y-103925000D01*
X139042576Y-95747581D01*
X139054974Y-95809909D01*
X139372137Y-96284577D01*
X139724472Y-96520000D01*
X139372137Y-96755423D01*
X139054974Y-97230091D01*
X138943601Y-97790000D01*
X139054974Y-98349909D01*
X139372137Y-98824577D01*
X139724472Y-99060000D01*
X139372137Y-99295423D01*
X139054974Y-99770091D01*
X138943601Y-100330000D01*
X139054974Y-100889909D01*
X139372137Y-101364577D01*
X139846805Y-101681740D01*
X140265381Y-101765000D01*
X140548047Y-101765000D01*
X140966623Y-101681740D01*
X141441291Y-101364577D01*
X141758454Y-100889909D01*
X141869827Y-100330000D01*
X141758454Y-99770091D01*
X141441291Y-99295423D01*
X141088956Y-99060000D01*
X141441291Y-98824577D01*
X141758454Y-98349909D01*
X141869827Y-97790000D01*
X141758454Y-97230091D01*
X141441291Y-96755423D01*
X141088956Y-96520000D01*
X141441291Y-96284577D01*
X141758454Y-95809909D01*
X141869827Y-95250000D01*
X141758454Y-94690091D01*
X141441291Y-94215423D01*
X141088956Y-93980000D01*
X141441291Y-93744577D01*
X141758454Y-93269909D01*
X141869827Y-92710000D01*
X141758454Y-92150091D01*
X141441291Y-91675423D01*
X141088956Y-91440000D01*
X141441291Y-91204577D01*
X141758454Y-90729909D01*
X141869827Y-90170000D01*
X141758454Y-89610091D01*
X141441291Y-89135423D01*
X141088956Y-88900000D01*
X141441291Y-88664577D01*
X141758454Y-88189909D01*
X141869827Y-87630000D01*
X141758454Y-87070091D01*
X141441291Y-86595423D01*
X141320608Y-86514785D01*
X141454479Y-86488157D01*
X141664523Y-86347809D01*
X141804871Y-86137765D01*
X141854154Y-85890000D01*
X141854154Y-84740961D01*
X146634810Y-84740961D01*
X146756799Y-84963000D01*
X147899714Y-84963000D01*
X147899714Y-83819371D01*
X148153714Y-83819371D01*
X148153714Y-84963000D01*
X149296629Y-84963000D01*
X149418618Y-84740961D01*
X149257755Y-84352577D01*
X148881848Y-83937611D01*
X148375755Y-83698086D01*
X148153714Y-83819371D01*
X147899714Y-83819371D01*
X147677673Y-83698086D01*
X147171580Y-83937611D01*
X146795673Y-84352577D01*
X146634810Y-84740961D01*
X141854154Y-84740961D01*
X141854154Y-84290000D01*
X141804871Y-84042235D01*
X141664523Y-83832191D01*
X141454479Y-83691843D01*
X141206714Y-83642560D01*
X139606714Y-83642560D01*
X139358949Y-83691843D01*
X139148905Y-83832191D01*
X139008557Y-84042235D01*
X138959274Y-84290000D01*
X138959274Y-85890000D01*
X139008557Y-86137765D01*
X139148905Y-86347809D01*
X139358949Y-86488157D01*
X139492820Y-86514785D01*
X139372137Y-86595423D01*
X139054974Y-87070091D01*
X138943601Y-87630000D01*
X139054974Y-88189909D01*
X139372137Y-88664577D01*
X139724472Y-88900000D01*
X139372137Y-89135423D01*
X139054974Y-89610091D01*
X138949121Y-90142249D01*
X137765043Y-88958172D01*
X138041005Y-88843864D01*
X138115139Y-88597745D01*
X137287000Y-87769605D01*
X137272858Y-87783748D01*
X137093253Y-87604143D01*
X137107395Y-87590000D01*
X137466605Y-87590000D01*
X138294745Y-88418139D01*
X138540864Y-88344005D01*
X138733965Y-87806777D01*
X138706778Y-87236546D01*
X138540864Y-86835995D01*
X138294745Y-86761861D01*
X137466605Y-87590000D01*
X137107395Y-87590000D01*
X136512970Y-86995576D01*
X136502454Y-86942708D01*
X136422885Y-86823625D01*
X136372749Y-86748591D01*
X136372747Y-86748589D01*
X136328953Y-86683047D01*
X136263411Y-86639253D01*
X135547248Y-85923091D01*
X135503453Y-85857547D01*
X135478318Y-85840752D01*
X135605835Y-85649909D01*
X135717208Y-85090000D01*
X135660431Y-84804561D01*
X135852000Y-84804561D01*
X135852000Y-85375439D01*
X136070466Y-85902862D01*
X136474138Y-86306534D01*
X136539299Y-86333525D01*
X136532995Y-86336136D01*
X136458861Y-86582255D01*
X137287000Y-87410395D01*
X138115139Y-86582255D01*
X138041005Y-86336136D01*
X138034254Y-86333710D01*
X138099862Y-86306534D01*
X138503534Y-85902862D01*
X138722000Y-85375439D01*
X138722000Y-84804561D01*
X138503534Y-84277138D01*
X138099862Y-83873466D01*
X137572439Y-83655000D01*
X137001561Y-83655000D01*
X136474138Y-83873466D01*
X136070466Y-84277138D01*
X135852000Y-84804561D01*
X135660431Y-84804561D01*
X135605835Y-84530091D01*
X135288672Y-84055423D01*
X134814004Y-83738260D01*
X134395428Y-83655000D01*
X134112762Y-83655000D01*
X133694186Y-83738260D01*
X133219518Y-84055423D01*
X132902355Y-84530091D01*
X132790982Y-85090000D01*
X132900086Y-85638500D01*
X129420658Y-85638500D01*
X128371749Y-84589592D01*
X128327953Y-84524047D01*
X128081535Y-84359395D01*
X128081535Y-84290000D01*
X128032252Y-84042235D01*
X127891904Y-83832191D01*
X127681860Y-83691843D01*
X127434095Y-83642560D01*
X125834095Y-83642560D01*
X125586330Y-83691843D01*
X125376286Y-83832191D01*
X125235938Y-84042235D01*
X125186655Y-84290000D01*
X125186655Y-85890000D01*
X125235938Y-86137765D01*
X125376286Y-86347809D01*
X125586330Y-86488157D01*
X125720201Y-86514785D01*
X125599518Y-86595423D01*
X125282355Y-87070091D01*
X125170982Y-87630000D01*
X118820000Y-87630000D01*
X118820000Y-84290000D01*
X120472560Y-84290000D01*
X120472560Y-85890000D01*
X120521843Y-86137765D01*
X120662191Y-86347809D01*
X120872235Y-86488157D01*
X121120000Y-86537440D01*
X122720000Y-86537440D01*
X122967765Y-86488157D01*
X123177809Y-86347809D01*
X123318157Y-86137765D01*
X123367440Y-85890000D01*
X123367440Y-84290000D01*
X123318157Y-84042235D01*
X123177809Y-83832191D01*
X122967765Y-83691843D01*
X122733813Y-83645307D01*
X122748139Y-83597745D01*
X122720395Y-83570000D01*
X167395908Y-83570000D01*
X167511161Y-84149418D01*
X167839375Y-84640625D01*
X168137761Y-84840000D01*
X167839375Y-85039375D01*
X167511161Y-85530582D01*
X167395908Y-86110000D01*
X167511161Y-86689418D01*
X167839375Y-87180625D01*
X168158478Y-87393843D01*
X168028642Y-87454817D01*
X167638355Y-87883076D01*
X167468524Y-88293110D01*
X167589845Y-88523000D01*
X168783000Y-88523000D01*
X168783000Y-88503000D01*
X169037000Y-88503000D01*
X169037000Y-88523000D01*
X170230155Y-88523000D01*
X170351476Y-88293110D01*
X170181645Y-87883076D01*
X169791358Y-87454817D01*
X169661522Y-87393843D01*
X169980625Y-87180625D01*
X170308839Y-86689418D01*
X170424092Y-86110000D01*
X170308839Y-85530582D01*
X169980625Y-85039375D01*
X169682239Y-84840000D01*
X169980625Y-84640625D01*
X170308839Y-84149418D01*
X170424092Y-83570000D01*
X170308839Y-82990582D01*
X169980625Y-82499375D01*
X169962381Y-82487184D01*
X170007765Y-82478157D01*
X170217809Y-82337809D01*
X170358157Y-82127765D01*
X170407440Y-81880000D01*
X170407440Y-80180000D01*
X170358157Y-79932235D01*
X170217809Y-79722191D01*
X170007765Y-79581843D01*
X169760000Y-79532560D01*
X168060000Y-79532560D01*
X167812235Y-79581843D01*
X167602191Y-79722191D01*
X167461843Y-79932235D01*
X167412560Y-80180000D01*
X167412560Y-81880000D01*
X167461843Y-82127765D01*
X167602191Y-82337809D01*
X167812235Y-82478157D01*
X167857619Y-82487184D01*
X167839375Y-82499375D01*
X167511161Y-82990582D01*
X167395908Y-83570000D01*
X122720395Y-83570000D01*
X121920000Y-82769605D01*
X121091861Y-83597745D01*
X121106187Y-83645307D01*
X120872235Y-83691843D01*
X120662191Y-83832191D01*
X120521843Y-84042235D01*
X120472560Y-84290000D01*
X118820000Y-84290000D01*
X118820000Y-82373223D01*
X120473035Y-82373223D01*
X120500222Y-82943454D01*
X120666136Y-83344005D01*
X120912255Y-83418139D01*
X121740395Y-82590000D01*
X122099605Y-82590000D01*
X122927745Y-83418139D01*
X123173864Y-83344005D01*
X123366965Y-82806777D01*
X123339778Y-82236546D01*
X123173864Y-81835995D01*
X122927745Y-81761861D01*
X122099605Y-82590000D01*
X121740395Y-82590000D01*
X120912255Y-81761861D01*
X120666136Y-81835995D01*
X120473035Y-82373223D01*
X118820000Y-82373223D01*
X118820000Y-81582255D01*
X121091861Y-81582255D01*
X121920000Y-82410395D01*
X122748139Y-81582255D01*
X122674005Y-81336136D01*
X122136777Y-81143035D01*
X121566546Y-81170222D01*
X121165995Y-81336136D01*
X121091861Y-81582255D01*
X118820000Y-81582255D01*
X118820000Y-79450000D01*
X134602143Y-79450000D01*
X134602143Y-82675000D01*
X134602143Y-82675000D01*
G37*
X134602143Y-82675000D02*
X154957857Y-82675000D01*
X154957857Y-79450000D01*
X170740001Y-79450000D01*
X170740000Y-109780000D01*
X118820000Y-109780000D01*
X118820000Y-107950000D01*
X119135908Y-107950000D01*
X119251161Y-108529418D01*
X119579375Y-109020625D01*
X120070582Y-109348839D01*
X120503744Y-109435000D01*
X120796256Y-109435000D01*
X121229418Y-109348839D01*
X121720625Y-109020625D01*
X122048839Y-108529418D01*
X122093102Y-108306892D01*
X126828514Y-108306892D01*
X127074817Y-108831358D01*
X127503076Y-109221645D01*
X127913110Y-109391476D01*
X128143000Y-109270155D01*
X128143000Y-108077000D01*
X126949181Y-108077000D01*
X126828514Y-108306892D01*
X122093102Y-108306892D01*
X122164092Y-107950000D01*
X122048839Y-107370582D01*
X121720625Y-106879375D01*
X121401522Y-106666157D01*
X121531358Y-106605183D01*
X121921645Y-106176924D01*
X122091476Y-105766890D01*
X121970155Y-105537000D01*
X120777000Y-105537000D01*
X120777000Y-105557000D01*
X120523000Y-105557000D01*
X120523000Y-105537000D01*
X119329845Y-105537000D01*
X119208524Y-105766890D01*
X119378355Y-106176924D01*
X119768642Y-106605183D01*
X119898478Y-106666157D01*
X119579375Y-106879375D01*
X119251161Y-107370582D01*
X119135908Y-107950000D01*
X118820000Y-107950000D01*
X118820000Y-103226890D01*
X119208524Y-103226890D01*
X119378355Y-103636924D01*
X119768642Y-104065183D01*
X119927954Y-104140000D01*
X119768642Y-104214817D01*
X119378355Y-104643076D01*
X119208524Y-105053110D01*
X119329845Y-105283000D01*
X120523000Y-105283000D01*
X120523000Y-102997000D01*
X120777000Y-102997000D01*
X120777000Y-105283000D01*
X121970155Y-105283000D01*
X122091476Y-105053110D01*
X121921645Y-104643076D01*
X121531358Y-104214817D01*
X121372046Y-104140000D01*
X121531358Y-104065183D01*
X121921645Y-103636924D01*
X122091476Y-103226890D01*
X121970155Y-102997000D01*
X120777000Y-102997000D01*
X120523000Y-102997000D01*
X119329845Y-102997000D01*
X119208524Y-103226890D01*
X118820000Y-103226890D01*
X118820000Y-92710000D01*
X119135908Y-92710000D01*
X119251161Y-93289418D01*
X119579375Y-93780625D01*
X119877761Y-93980000D01*
X119579375Y-94179375D01*
X119251161Y-94670582D01*
X119135908Y-95250000D01*
X119251161Y-95829418D01*
X119579375Y-96320625D01*
X119877761Y-96520000D01*
X119579375Y-96719375D01*
X119251161Y-97210582D01*
X119135908Y-97790000D01*
X119251161Y-98369418D01*
X119579375Y-98860625D01*
X119877761Y-99060000D01*
X119579375Y-99259375D01*
X119251161Y-99750582D01*
X119135908Y-100330000D01*
X119251161Y-100909418D01*
X119579375Y-101400625D01*
X119898478Y-101613843D01*
X119768642Y-101674817D01*
X119378355Y-102103076D01*
X119208524Y-102513110D01*
X119329845Y-102743000D01*
X120523000Y-102743000D01*
X120523000Y-102723000D01*
X120777000Y-102723000D01*
X120777000Y-102743000D01*
X121970155Y-102743000D01*
X122091476Y-102513110D01*
X121921645Y-102103076D01*
X121531358Y-101674817D01*
X121401522Y-101613843D01*
X121720625Y-101400625D01*
X122048839Y-100909418D01*
X122164092Y-100330000D01*
X122048839Y-99750582D01*
X121720625Y-99259375D01*
X121422239Y-99060000D01*
X121720625Y-98860625D01*
X122048839Y-98369418D01*
X122164092Y-97790000D01*
X122048839Y-97210582D01*
X121720625Y-96719375D01*
X121422239Y-96520000D01*
X121720625Y-96320625D01*
X122048839Y-95829418D01*
X122164092Y-95250000D01*
X122048839Y-94670582D01*
X121720625Y-94179375D01*
X121422239Y-93980000D01*
X121720625Y-93780625D01*
X122048839Y-93289418D01*
X122094664Y-93059039D01*
X125242191Y-93059039D01*
X125403054Y-93447423D01*
X125778961Y-93862389D01*
X126285054Y-94101914D01*
X126507095Y-93980629D01*
X126507095Y-92837000D01*
X126761095Y-92837000D01*
X126761095Y-93980629D01*
X126983136Y-94101914D01*
X127489229Y-93862389D01*
X127865136Y-93447423D01*
X128025999Y-93059039D01*
X127904010Y-92837000D01*
X126761095Y-92837000D01*
X126507095Y-92837000D01*
X125364180Y-92837000D01*
X125242191Y-93059039D01*
X122094664Y-93059039D01*
X122164092Y-92710000D01*
X122048839Y-92130582D01*
X121720625Y-91639375D01*
X121702381Y-91627184D01*
X121747765Y-91618157D01*
X121957809Y-91477809D01*
X122098157Y-91267765D01*
X122147440Y-91020000D01*
X122147440Y-89320000D01*
X122098157Y-89072235D01*
X121957809Y-88862191D01*
X121747765Y-88721843D01*
X121500000Y-88672560D01*
X119800000Y-88672560D01*
X119552235Y-88721843D01*
X119342191Y-88862191D01*
X119201843Y-89072235D01*
X119152560Y-89320000D01*
X119152560Y-91020000D01*
X119201843Y-91267765D01*
X119342191Y-91477809D01*
X119552235Y-91618157D01*
X119597619Y-91627184D01*
X119579375Y-91639375D01*
X119251161Y-92130582D01*
X119135908Y-92710000D01*
X118820000Y-92710000D01*
X118820000Y-87630000D01*
X125170982Y-87630000D01*
X125282355Y-88189909D01*
X125599518Y-88664577D01*
X125951853Y-88900000D01*
X125599518Y-89135423D01*
X125282355Y-89610091D01*
X125170982Y-90170000D01*
X125282355Y-90729909D01*
X125599518Y-91204577D01*
X125983203Y-91460947D01*
X125778961Y-91557611D01*
X125403054Y-91972577D01*
X125242191Y-92360961D01*
X125364180Y-92583000D01*
X126507095Y-92583000D01*
X126507095Y-92563000D01*
X126761095Y-92563000D01*
X126761095Y-92583000D01*
X127904010Y-92583000D01*
X128025999Y-92360961D01*
X127865136Y-91972577D01*
X127489229Y-91557611D01*
X127284987Y-91460947D01*
X127668672Y-91204577D01*
X127985835Y-90729909D01*
X128097208Y-90170000D01*
X127985835Y-89610091D01*
X127668672Y-89135423D01*
X127316337Y-88900000D01*
X127668672Y-88664577D01*
X127985835Y-88189909D01*
X128097208Y-87630000D01*
X127985835Y-87070091D01*
X127668672Y-86595423D01*
X127547989Y-86514785D01*
X127681860Y-86488157D01*
X127891904Y-86347809D01*
X127899013Y-86337170D01*
X128485753Y-86923911D01*
X128529547Y-86989453D01*
X128595089Y-87033247D01*
X128595091Y-87033249D01*
X128789208Y-87162954D01*
X129018184Y-87208500D01*
X129018188Y-87208500D01*
X129095500Y-87223878D01*
X129172812Y-87208500D01*
X132874824Y-87208500D01*
X132790982Y-87630000D01*
X132902355Y-88189909D01*
X133219518Y-88664577D01*
X133571853Y-88900000D01*
X133219518Y-89135423D01*
X132902355Y-89610091D01*
X132790982Y-90170000D01*
X132902355Y-90729909D01*
X133219518Y-91204577D01*
X133571853Y-91440000D01*
X133219518Y-91675423D01*
X132902355Y-92150091D01*
X132790982Y-92710000D01*
X132902355Y-93269909D01*
X133219518Y-93744577D01*
X133694186Y-94061740D01*
X134112762Y-94145000D01*
X134395428Y-94145000D01*
X134814004Y-94061740D01*
X135288672Y-93744577D01*
X135605835Y-93269909D01*
X135717208Y-92710000D01*
X135605835Y-92150091D01*
X135288672Y-91675423D01*
X134936337Y-91440000D01*
X135288672Y-91204577D01*
X135605835Y-90729909D01*
X135717208Y-90170000D01*
X135605835Y-89610091D01*
X135288672Y-89135423D01*
X134936337Y-88900000D01*
X135260911Y-88683126D01*
X135262592Y-88684249D01*
X135519036Y-88940693D01*
X135562832Y-89006238D01*
X135653132Y-89066575D01*
X139002160Y-92415604D01*
X138943601Y-92710000D01*
X139054974Y-93269909D01*
X139153091Y-93416752D01*
X128606918Y-103962925D01*
X128416256Y-103925000D01*
X128123744Y-103925000D01*
X127690582Y-104011161D01*
X127199375Y-104339375D01*
X126871161Y-104830582D01*
X126755908Y-105410000D01*
X126871161Y-105989418D01*
X127199375Y-106480625D01*
X127499786Y-106681353D01*
X127074817Y-107068642D01*
X126828514Y-107593108D01*
X126949181Y-107823000D01*
X128143000Y-107823000D01*
X128143000Y-107803000D01*
X128397000Y-107803000D01*
X128397000Y-107823000D01*
X128417000Y-107823000D01*
X128417000Y-108077000D01*
X128397000Y-108077000D01*
X128397000Y-109270155D01*
X128626890Y-109391476D01*
X129036924Y-109221645D01*
X129465183Y-108831358D01*
X129526157Y-108701522D01*
X129739375Y-109020625D01*
X130230582Y-109348839D01*
X130663744Y-109435000D01*
X130956256Y-109435000D01*
X131389418Y-109348839D01*
X131880625Y-109020625D01*
X132080000Y-108722239D01*
X132279375Y-109020625D01*
X132770582Y-109348839D01*
X133203744Y-109435000D01*
X133496256Y-109435000D01*
X133929418Y-109348839D01*
X134420625Y-109020625D01*
X134748839Y-108529418D01*
X134794664Y-108299039D01*
X153298381Y-108299039D01*
X153459244Y-108687423D01*
X153835151Y-109102389D01*
X154341244Y-109341914D01*
X154563285Y-109220629D01*
X154563285Y-108077000D01*
X154817285Y-108077000D01*
X154817285Y-109220629D01*
X155039326Y-109341914D01*
X155545419Y-109102389D01*
X155921326Y-108687423D01*
X156082189Y-108299039D01*
X155960200Y-108077000D01*
X154817285Y-108077000D01*
X154563285Y-108077000D01*
X153420370Y-108077000D01*
X153298381Y-108299039D01*
X134794664Y-108299039D01*
X134864092Y-107950000D01*
X134748839Y-107370582D01*
X134420625Y-106879375D01*
X134402381Y-106867184D01*
X134447765Y-106858157D01*
X134657809Y-106717809D01*
X134798157Y-106507765D01*
X134847440Y-106260000D01*
X134847440Y-106195000D01*
X142869402Y-106195000D01*
X142946714Y-106210378D01*
X143024026Y-106195000D01*
X143024030Y-106195000D01*
X143253006Y-106149454D01*
X143512667Y-105975953D01*
X143556463Y-105910408D01*
X147732318Y-101734554D01*
X147885381Y-101765000D01*
X148168047Y-101765000D01*
X148586623Y-101681740D01*
X149061291Y-101364577D01*
X149378454Y-100889909D01*
X149489827Y-100330000D01*
X149378454Y-99770091D01*
X149061291Y-99295423D01*
X148708956Y-99060000D01*
X149061291Y-98824577D01*
X149378454Y-98349909D01*
X149489827Y-97790000D01*
X149378454Y-97230091D01*
X149061291Y-96755423D01*
X148708956Y-96520000D01*
X149061291Y-96284577D01*
X149378454Y-95809909D01*
X149489827Y-95250000D01*
X149378454Y-94690091D01*
X149061291Y-94215423D01*
X148708956Y-93980000D01*
X149061291Y-93744577D01*
X149378454Y-93269909D01*
X149489827Y-92710000D01*
X149378454Y-92150091D01*
X149061291Y-91675423D01*
X148708956Y-91440000D01*
X149061291Y-91204577D01*
X149378454Y-90729909D01*
X149489827Y-90170000D01*
X149378454Y-89610091D01*
X149061291Y-89135423D01*
X148708956Y-88900000D01*
X149061291Y-88664577D01*
X149378454Y-88189909D01*
X149489827Y-87630000D01*
X153227172Y-87630000D01*
X153338545Y-88189909D01*
X153655708Y-88664577D01*
X154008043Y-88900000D01*
X153655708Y-89135423D01*
X153338545Y-89610091D01*
X153227172Y-90170000D01*
X153338545Y-90729909D01*
X153655708Y-91204577D01*
X154008043Y-91440000D01*
X153655708Y-91675423D01*
X153338545Y-92150091D01*
X153227172Y-92710000D01*
X153338545Y-93269909D01*
X153655708Y-93744577D01*
X154008043Y-93980000D01*
X153655708Y-94215423D01*
X153338545Y-94690091D01*
X153227172Y-95250000D01*
X153338545Y-95809909D01*
X153655708Y-96284577D01*
X154008043Y-96520000D01*
X153655708Y-96755423D01*
X153338545Y-97230091D01*
X153227172Y-97790000D01*
X153338545Y-98349909D01*
X153655708Y-98824577D01*
X154008043Y-99060000D01*
X153655708Y-99295423D01*
X153338545Y-99770091D01*
X153227172Y-100330000D01*
X153338545Y-100889909D01*
X153655708Y-101364577D01*
X154008043Y-101600000D01*
X153655708Y-101835423D01*
X153338545Y-102310091D01*
X153227172Y-102870000D01*
X153338545Y-103429909D01*
X153655708Y-103904577D01*
X154008043Y-104140000D01*
X153655708Y-104375423D01*
X153338545Y-104850091D01*
X153227172Y-105410000D01*
X153338545Y-105969909D01*
X153655708Y-106444577D01*
X154039393Y-106700947D01*
X153835151Y-106797611D01*
X153459244Y-107212577D01*
X153298381Y-107600961D01*
X153420370Y-107823000D01*
X154563285Y-107823000D01*
X154563285Y-107803000D01*
X154817285Y-107803000D01*
X154817285Y-107823000D01*
X155960200Y-107823000D01*
X156082189Y-107600961D01*
X155921326Y-107212577D01*
X155545419Y-106797611D01*
X155341177Y-106700947D01*
X155724862Y-106444577D01*
X156042025Y-105969909D01*
X156153398Y-105410000D01*
X156042025Y-104850091D01*
X155724862Y-104375423D01*
X155372527Y-104140000D01*
X155724862Y-103904577D01*
X156042025Y-103429909D01*
X156153398Y-102870000D01*
X156042025Y-102310091D01*
X155724862Y-101835423D01*
X155372527Y-101600000D01*
X155724862Y-101364577D01*
X156042025Y-100889909D01*
X156153398Y-100330000D01*
X156042025Y-99770091D01*
X155724862Y-99295423D01*
X155372527Y-99060000D01*
X155724862Y-98824577D01*
X156042025Y-98349909D01*
X156153398Y-97790000D01*
X156042025Y-97230091D01*
X155724862Y-96755423D01*
X155372527Y-96520000D01*
X155724862Y-96284577D01*
X156042025Y-95809909D01*
X156153398Y-95250000D01*
X156042025Y-94690091D01*
X155724862Y-94215423D01*
X155372527Y-93980000D01*
X155724862Y-93744577D01*
X156042025Y-93269909D01*
X156153398Y-92710000D01*
X156042025Y-92150091D01*
X155724862Y-91675423D01*
X155372527Y-91440000D01*
X155724862Y-91204577D01*
X156042025Y-90729909D01*
X156153398Y-90170000D01*
X156042025Y-89610091D01*
X155724862Y-89135423D01*
X155372527Y-88900000D01*
X155724862Y-88664577D01*
X156042025Y-88189909D01*
X156147878Y-87657750D01*
X160301910Y-91811783D01*
X160354333Y-91890239D01*
X160419878Y-91934035D01*
X160426251Y-91940408D01*
X160470047Y-92005953D01*
X160729708Y-92179454D01*
X160944217Y-92222122D01*
X160847172Y-92710000D01*
X160958545Y-93269909D01*
X161275708Y-93744577D01*
X161628043Y-93980000D01*
X161275708Y-94215423D01*
X160958545Y-94690091D01*
X160847172Y-95250000D01*
X160958545Y-95809909D01*
X161275708Y-96284577D01*
X161628043Y-96520000D01*
X161275708Y-96755423D01*
X160958545Y-97230091D01*
X160847172Y-97790000D01*
X160958545Y-98349909D01*
X161275708Y-98824577D01*
X161628043Y-99060000D01*
X161275708Y-99295423D01*
X160958545Y-99770091D01*
X160847172Y-100330000D01*
X160958545Y-100889909D01*
X161275708Y-101364577D01*
X161628043Y-101600000D01*
X161275708Y-101835423D01*
X160958545Y-102310091D01*
X160847172Y-102870000D01*
X160958545Y-103429909D01*
X161275708Y-103904577D01*
X161628043Y-104140000D01*
X161275708Y-104375423D01*
X160958545Y-104850091D01*
X160847172Y-105410000D01*
X160958545Y-105969909D01*
X161275708Y-106444577D01*
X161628043Y-106680000D01*
X161275708Y-106915423D01*
X160958545Y-107390091D01*
X160847172Y-107950000D01*
X160958545Y-108509909D01*
X161275708Y-108984577D01*
X161750376Y-109301740D01*
X162168952Y-109385000D01*
X162451618Y-109385000D01*
X162870194Y-109301740D01*
X163344862Y-108984577D01*
X163662025Y-108509909D01*
X163773398Y-107950000D01*
X163662025Y-107390091D01*
X163344862Y-106915423D01*
X162992527Y-106680000D01*
X163344862Y-106444577D01*
X163662025Y-105969909D01*
X163773398Y-105410000D01*
X163662025Y-104850091D01*
X163344862Y-104375423D01*
X162992527Y-104140000D01*
X163344862Y-103904577D01*
X163662025Y-103429909D01*
X163773398Y-102870000D01*
X163662025Y-102310091D01*
X163344862Y-101835423D01*
X162992527Y-101600000D01*
X163344862Y-101364577D01*
X163662025Y-100889909D01*
X163773398Y-100330000D01*
X163662025Y-99770091D01*
X163344862Y-99295423D01*
X162992527Y-99060000D01*
X163344862Y-98824577D01*
X163662025Y-98349909D01*
X163773398Y-97790000D01*
X163662025Y-97230091D01*
X163344862Y-96755423D01*
X162992527Y-96520000D01*
X163344862Y-96284577D01*
X163662025Y-95809909D01*
X163773398Y-95250000D01*
X163662025Y-94690091D01*
X163625962Y-94636119D01*
X167100250Y-98110407D01*
X167144046Y-98175952D01*
X167209591Y-98219748D01*
X167462925Y-98473082D01*
X167395908Y-98810000D01*
X167511161Y-99389418D01*
X167839375Y-99880625D01*
X168137761Y-100080000D01*
X167839375Y-100279375D01*
X167511161Y-100770582D01*
X167395908Y-101350000D01*
X167511161Y-101929418D01*
X167839375Y-102420625D01*
X168137761Y-102620000D01*
X167839375Y-102819375D01*
X167511161Y-103310582D01*
X167395908Y-103890000D01*
X167511161Y-104469418D01*
X167839375Y-104960625D01*
X168330582Y-105288839D01*
X168763744Y-105375000D01*
X169056256Y-105375000D01*
X169489418Y-105288839D01*
X169980625Y-104960625D01*
X170308839Y-104469418D01*
X170424092Y-103890000D01*
X170308839Y-103310582D01*
X169980625Y-102819375D01*
X169682239Y-102620000D01*
X169980625Y-102420625D01*
X170308839Y-101929418D01*
X170424092Y-101350000D01*
X170308839Y-100770582D01*
X169980625Y-100279375D01*
X169682239Y-100080000D01*
X169980625Y-99880625D01*
X170308839Y-99389418D01*
X170424092Y-98810000D01*
X170308839Y-98230582D01*
X169980625Y-97739375D01*
X169682239Y-97540000D01*
X169980625Y-97340625D01*
X170308839Y-96849418D01*
X170424092Y-96270000D01*
X170308839Y-95690582D01*
X169980625Y-95199375D01*
X169682239Y-95000000D01*
X169980625Y-94800625D01*
X170308839Y-94309418D01*
X170424092Y-93730000D01*
X170308839Y-93150582D01*
X169980625Y-92659375D01*
X169682239Y-92460000D01*
X169980625Y-92260625D01*
X170308839Y-91769418D01*
X170424092Y-91190000D01*
X170308839Y-90610582D01*
X169980625Y-90119375D01*
X169661522Y-89906157D01*
X169791358Y-89845183D01*
X170181645Y-89416924D01*
X170351476Y-89006890D01*
X170230155Y-88777000D01*
X169037000Y-88777000D01*
X169037000Y-88797000D01*
X168783000Y-88797000D01*
X168783000Y-88777000D01*
X167589845Y-88777000D01*
X167468524Y-89006890D01*
X167638355Y-89416924D01*
X168028642Y-89845183D01*
X168158478Y-89906157D01*
X167839375Y-90119375D01*
X167511161Y-90610582D01*
X167395908Y-91190000D01*
X167511161Y-91769418D01*
X167839375Y-92260625D01*
X168137761Y-92460000D01*
X167839375Y-92659375D01*
X167511161Y-93150582D01*
X167395908Y-93730000D01*
X167511161Y-94309418D01*
X167839375Y-94800625D01*
X168137761Y-95000000D01*
X167839375Y-95199375D01*
X167511161Y-95690582D01*
X167409886Y-96199729D01*
X164443804Y-93233647D01*
X164435749Y-93221592D01*
X164424500Y-93204757D01*
X164424500Y-91961812D01*
X164439878Y-91884500D01*
X164424500Y-91807188D01*
X164424500Y-91807184D01*
X164378954Y-91578208D01*
X164205453Y-91318547D01*
X164139908Y-91274751D01*
X163804749Y-90939592D01*
X163760953Y-90874047D01*
X163625977Y-90783858D01*
X163662025Y-90729909D01*
X163773398Y-90170000D01*
X163662025Y-89610091D01*
X163344862Y-89135423D01*
X162992527Y-88900000D01*
X163344862Y-88664577D01*
X163362790Y-88637745D01*
X164398861Y-88637745D01*
X164472995Y-88883864D01*
X165010223Y-89076965D01*
X165580454Y-89049778D01*
X165981005Y-88883864D01*
X166055139Y-88637745D01*
X165227000Y-87809605D01*
X164398861Y-88637745D01*
X163362790Y-88637745D01*
X163662025Y-88189909D01*
X163773398Y-87630000D01*
X163730279Y-87413223D01*
X163780035Y-87413223D01*
X163807222Y-87983454D01*
X163973136Y-88384005D01*
X164219255Y-88458139D01*
X165047395Y-87630000D01*
X165406605Y-87630000D01*
X166234745Y-88458139D01*
X166480864Y-88384005D01*
X166673965Y-87846777D01*
X166646778Y-87276546D01*
X166480864Y-86875995D01*
X166234745Y-86801861D01*
X165406605Y-87630000D01*
X165047395Y-87630000D01*
X164219255Y-86801861D01*
X163973136Y-86875995D01*
X163780035Y-87413223D01*
X163730279Y-87413223D01*
X163662025Y-87070091D01*
X163344862Y-86595423D01*
X162992527Y-86360000D01*
X163344862Y-86124577D01*
X163662025Y-85649909D01*
X163773398Y-85090000D01*
X163724578Y-84844561D01*
X163792000Y-84844561D01*
X163792000Y-85415439D01*
X164010466Y-85942862D01*
X164414138Y-86346534D01*
X164479299Y-86373525D01*
X164472995Y-86376136D01*
X164398861Y-86622255D01*
X165227000Y-87450395D01*
X166055139Y-86622255D01*
X165981005Y-86376136D01*
X165974254Y-86373710D01*
X166039862Y-86346534D01*
X166443534Y-85942862D01*
X166662000Y-85415439D01*
X166662000Y-84844561D01*
X166443534Y-84317138D01*
X166039862Y-83913466D01*
X165512439Y-83695000D01*
X164941561Y-83695000D01*
X164414138Y-83913466D01*
X164010466Y-84317138D01*
X163792000Y-84844561D01*
X163724578Y-84844561D01*
X163662025Y-84530091D01*
X163344862Y-84055423D01*
X162870194Y-83738260D01*
X162451618Y-83655000D01*
X162168952Y-83655000D01*
X161750376Y-83738260D01*
X161275708Y-84055423D01*
X160958545Y-84530091D01*
X160847172Y-85090000D01*
X160958545Y-85649909D01*
X161275708Y-86124577D01*
X161628043Y-86360000D01*
X161275708Y-86595423D01*
X160958545Y-87070091D01*
X160847172Y-87630000D01*
X160958545Y-88189909D01*
X161275708Y-88664577D01*
X161628043Y-88900000D01*
X161275708Y-89135423D01*
X160958545Y-89610091D01*
X160852692Y-90142249D01*
X156137725Y-85427283D01*
X156137725Y-84290000D01*
X156088442Y-84042235D01*
X155948094Y-83832191D01*
X155738050Y-83691843D01*
X155490285Y-83642560D01*
X153890285Y-83642560D01*
X153642520Y-83691843D01*
X153432476Y-83832191D01*
X153292128Y-84042235D01*
X153242845Y-84290000D01*
X153242845Y-85890000D01*
X153292128Y-86137765D01*
X153432476Y-86347809D01*
X153642520Y-86488157D01*
X153776391Y-86514785D01*
X153655708Y-86595423D01*
X153338545Y-87070091D01*
X153227172Y-87630000D01*
X149489827Y-87630000D01*
X149378454Y-87070091D01*
X149061291Y-86595423D01*
X148677606Y-86339053D01*
X148881848Y-86242389D01*
X149257755Y-85827423D01*
X149418618Y-85439039D01*
X149296629Y-85217000D01*
X148153714Y-85217000D01*
X148153714Y-85237000D01*
X147899714Y-85237000D01*
X147899714Y-85217000D01*
X146756799Y-85217000D01*
X146634810Y-85439039D01*
X146795673Y-85827423D01*
X147171580Y-86242389D01*
X147375822Y-86339053D01*
X146992137Y-86595423D01*
X146674974Y-87070091D01*
X146563601Y-87630000D01*
X146674974Y-88189909D01*
X146992137Y-88664577D01*
X147344472Y-88900000D01*
X146992137Y-89135423D01*
X146674974Y-89610091D01*
X146563601Y-90170000D01*
X146674974Y-90729909D01*
X146992137Y-91204577D01*
X147344472Y-91440000D01*
X146992137Y-91675423D01*
X146674974Y-92150091D01*
X146563601Y-92710000D01*
X146674974Y-93269909D01*
X146992137Y-93744577D01*
X147344472Y-93980000D01*
X146992137Y-94215423D01*
X146674974Y-94690091D01*
X146563601Y-95250000D01*
X146674974Y-95809909D01*
X146992137Y-96284577D01*
X147344472Y-96520000D01*
X146992137Y-96755423D01*
X146674974Y-97230091D01*
X146563601Y-97790000D01*
X146622160Y-98084396D01*
X142621557Y-102085000D01*
X133427310Y-102085000D01*
X133349999Y-102069622D01*
X133272688Y-102085000D01*
X133272684Y-102085000D01*
X133043708Y-102130546D01*
X133043706Y-102130547D01*
X133043707Y-102130547D01*
X132849591Y-102260251D01*
X132849589Y-102260253D01*
X132784047Y-102304047D01*
X132740253Y-102369589D01*
X131146918Y-103962925D01*
X130956256Y-103925000D01*
X130865157Y-103925000D01*
X139042576Y-95747581D01*
X139054974Y-95809909D01*
X139372137Y-96284577D01*
X139724472Y-96520000D01*
X139372137Y-96755423D01*
X139054974Y-97230091D01*
X138943601Y-97790000D01*
X139054974Y-98349909D01*
X139372137Y-98824577D01*
X139724472Y-99060000D01*
X139372137Y-99295423D01*
X139054974Y-99770091D01*
X138943601Y-100330000D01*
X139054974Y-100889909D01*
X139372137Y-101364577D01*
X139846805Y-101681740D01*
X140265381Y-101765000D01*
X140548047Y-101765000D01*
X140966623Y-101681740D01*
X141441291Y-101364577D01*
X141758454Y-100889909D01*
X141869827Y-100330000D01*
X141758454Y-99770091D01*
X141441291Y-99295423D01*
X141088956Y-99060000D01*
X141441291Y-98824577D01*
X141758454Y-98349909D01*
X141869827Y-97790000D01*
X141758454Y-97230091D01*
X141441291Y-96755423D01*
X141088956Y-96520000D01*
X141441291Y-96284577D01*
X141758454Y-95809909D01*
X141869827Y-95250000D01*
X141758454Y-94690091D01*
X141441291Y-94215423D01*
X141088956Y-93980000D01*
X141441291Y-93744577D01*
X141758454Y-93269909D01*
X141869827Y-92710000D01*
X141758454Y-92150091D01*
X141441291Y-91675423D01*
X141088956Y-91440000D01*
X141441291Y-91204577D01*
X141758454Y-90729909D01*
X141869827Y-90170000D01*
X141758454Y-89610091D01*
X141441291Y-89135423D01*
X141088956Y-88900000D01*
X141441291Y-88664577D01*
X141758454Y-88189909D01*
X141869827Y-87630000D01*
X141758454Y-87070091D01*
X141441291Y-86595423D01*
X141320608Y-86514785D01*
X141454479Y-86488157D01*
X141664523Y-86347809D01*
X141804871Y-86137765D01*
X141854154Y-85890000D01*
X141854154Y-84740961D01*
X146634810Y-84740961D01*
X146756799Y-84963000D01*
X147899714Y-84963000D01*
X147899714Y-83819371D01*
X148153714Y-83819371D01*
X148153714Y-84963000D01*
X149296629Y-84963000D01*
X149418618Y-84740961D01*
X149257755Y-84352577D01*
X148881848Y-83937611D01*
X148375755Y-83698086D01*
X148153714Y-83819371D01*
X147899714Y-83819371D01*
X147677673Y-83698086D01*
X147171580Y-83937611D01*
X146795673Y-84352577D01*
X146634810Y-84740961D01*
X141854154Y-84740961D01*
X141854154Y-84290000D01*
X141804871Y-84042235D01*
X141664523Y-83832191D01*
X141454479Y-83691843D01*
X141206714Y-83642560D01*
X139606714Y-83642560D01*
X139358949Y-83691843D01*
X139148905Y-83832191D01*
X139008557Y-84042235D01*
X138959274Y-84290000D01*
X138959274Y-85890000D01*
X139008557Y-86137765D01*
X139148905Y-86347809D01*
X139358949Y-86488157D01*
X139492820Y-86514785D01*
X139372137Y-86595423D01*
X139054974Y-87070091D01*
X138943601Y-87630000D01*
X139054974Y-88189909D01*
X139372137Y-88664577D01*
X139724472Y-88900000D01*
X139372137Y-89135423D01*
X139054974Y-89610091D01*
X138949121Y-90142249D01*
X137765043Y-88958172D01*
X138041005Y-88843864D01*
X138115139Y-88597745D01*
X137287000Y-87769605D01*
X137272858Y-87783748D01*
X137093253Y-87604143D01*
X137107395Y-87590000D01*
X137466605Y-87590000D01*
X138294745Y-88418139D01*
X138540864Y-88344005D01*
X138733965Y-87806777D01*
X138706778Y-87236546D01*
X138540864Y-86835995D01*
X138294745Y-86761861D01*
X137466605Y-87590000D01*
X137107395Y-87590000D01*
X136512970Y-86995576D01*
X136502454Y-86942708D01*
X136422885Y-86823625D01*
X136372749Y-86748591D01*
X136372747Y-86748589D01*
X136328953Y-86683047D01*
X136263411Y-86639253D01*
X135547248Y-85923091D01*
X135503453Y-85857547D01*
X135478318Y-85840752D01*
X135605835Y-85649909D01*
X135717208Y-85090000D01*
X135660431Y-84804561D01*
X135852000Y-84804561D01*
X135852000Y-85375439D01*
X136070466Y-85902862D01*
X136474138Y-86306534D01*
X136539299Y-86333525D01*
X136532995Y-86336136D01*
X136458861Y-86582255D01*
X137287000Y-87410395D01*
X138115139Y-86582255D01*
X138041005Y-86336136D01*
X138034254Y-86333710D01*
X138099862Y-86306534D01*
X138503534Y-85902862D01*
X138722000Y-85375439D01*
X138722000Y-84804561D01*
X138503534Y-84277138D01*
X138099862Y-83873466D01*
X137572439Y-83655000D01*
X137001561Y-83655000D01*
X136474138Y-83873466D01*
X136070466Y-84277138D01*
X135852000Y-84804561D01*
X135660431Y-84804561D01*
X135605835Y-84530091D01*
X135288672Y-84055423D01*
X134814004Y-83738260D01*
X134395428Y-83655000D01*
X134112762Y-83655000D01*
X133694186Y-83738260D01*
X133219518Y-84055423D01*
X132902355Y-84530091D01*
X132790982Y-85090000D01*
X132900086Y-85638500D01*
X129420658Y-85638500D01*
X128371749Y-84589592D01*
X128327953Y-84524047D01*
X128081535Y-84359395D01*
X128081535Y-84290000D01*
X128032252Y-84042235D01*
X127891904Y-83832191D01*
X127681860Y-83691843D01*
X127434095Y-83642560D01*
X125834095Y-83642560D01*
X125586330Y-83691843D01*
X125376286Y-83832191D01*
X125235938Y-84042235D01*
X125186655Y-84290000D01*
X125186655Y-85890000D01*
X125235938Y-86137765D01*
X125376286Y-86347809D01*
X125586330Y-86488157D01*
X125720201Y-86514785D01*
X125599518Y-86595423D01*
X125282355Y-87070091D01*
X125170982Y-87630000D01*
X118820000Y-87630000D01*
X118820000Y-84290000D01*
X120472560Y-84290000D01*
X120472560Y-85890000D01*
X120521843Y-86137765D01*
X120662191Y-86347809D01*
X120872235Y-86488157D01*
X121120000Y-86537440D01*
X122720000Y-86537440D01*
X122967765Y-86488157D01*
X123177809Y-86347809D01*
X123318157Y-86137765D01*
X123367440Y-85890000D01*
X123367440Y-84290000D01*
X123318157Y-84042235D01*
X123177809Y-83832191D01*
X122967765Y-83691843D01*
X122733813Y-83645307D01*
X122748139Y-83597745D01*
X122720395Y-83570000D01*
X167395908Y-83570000D01*
X167511161Y-84149418D01*
X167839375Y-84640625D01*
X168137761Y-84840000D01*
X167839375Y-85039375D01*
X167511161Y-85530582D01*
X167395908Y-86110000D01*
X167511161Y-86689418D01*
X167839375Y-87180625D01*
X168158478Y-87393843D01*
X168028642Y-87454817D01*
X167638355Y-87883076D01*
X167468524Y-88293110D01*
X167589845Y-88523000D01*
X168783000Y-88523000D01*
X168783000Y-88503000D01*
X169037000Y-88503000D01*
X169037000Y-88523000D01*
X170230155Y-88523000D01*
X170351476Y-88293110D01*
X170181645Y-87883076D01*
X169791358Y-87454817D01*
X169661522Y-87393843D01*
X169980625Y-87180625D01*
X170308839Y-86689418D01*
X170424092Y-86110000D01*
X170308839Y-85530582D01*
X169980625Y-85039375D01*
X169682239Y-84840000D01*
X169980625Y-84640625D01*
X170308839Y-84149418D01*
X170424092Y-83570000D01*
X170308839Y-82990582D01*
X169980625Y-82499375D01*
X169962381Y-82487184D01*
X170007765Y-82478157D01*
X170217809Y-82337809D01*
X170358157Y-82127765D01*
X170407440Y-81880000D01*
X170407440Y-80180000D01*
X170358157Y-79932235D01*
X170217809Y-79722191D01*
X170007765Y-79581843D01*
X169760000Y-79532560D01*
X168060000Y-79532560D01*
X167812235Y-79581843D01*
X167602191Y-79722191D01*
X167461843Y-79932235D01*
X167412560Y-80180000D01*
X167412560Y-81880000D01*
X167461843Y-82127765D01*
X167602191Y-82337809D01*
X167812235Y-82478157D01*
X167857619Y-82487184D01*
X167839375Y-82499375D01*
X167511161Y-82990582D01*
X167395908Y-83570000D01*
X122720395Y-83570000D01*
X121920000Y-82769605D01*
X121091861Y-83597745D01*
X121106187Y-83645307D01*
X120872235Y-83691843D01*
X120662191Y-83832191D01*
X120521843Y-84042235D01*
X120472560Y-84290000D01*
X118820000Y-84290000D01*
X118820000Y-82373223D01*
X120473035Y-82373223D01*
X120500222Y-82943454D01*
X120666136Y-83344005D01*
X120912255Y-83418139D01*
X121740395Y-82590000D01*
X122099605Y-82590000D01*
X122927745Y-83418139D01*
X123173864Y-83344005D01*
X123366965Y-82806777D01*
X123339778Y-82236546D01*
X123173864Y-81835995D01*
X122927745Y-81761861D01*
X122099605Y-82590000D01*
X121740395Y-82590000D01*
X120912255Y-81761861D01*
X120666136Y-81835995D01*
X120473035Y-82373223D01*
X118820000Y-82373223D01*
X118820000Y-81582255D01*
X121091861Y-81582255D01*
X121920000Y-82410395D01*
X122748139Y-81582255D01*
X122674005Y-81336136D01*
X122136777Y-81143035D01*
X121566546Y-81170222D01*
X121165995Y-81336136D01*
X121091861Y-81582255D01*
X118820000Y-81582255D01*
X118820000Y-79450000D01*
X134602143Y-79450000D01*
X134602143Y-82675000D01*
M02*
