G75*
%MOIN*%
%OFA0B0*%
%FSLAX25Y25*%
%IPPOS*%
%LPD*%
%AMOC8*
5,1,8,0,0,1.08239X$1,22.5*
%
%ADD10C,0.00004*%
%ADD11C,0.00600*%
%ADD12C,0.00400*%
%ADD13C,0.00300*%
%ADD14C,0.00394*%
%ADD15C,0.00200*%
%ADD16R,0.00100X0.00700*%
%ADD17R,0.00100X0.01100*%
%ADD18R,0.00100X0.01400*%
%ADD19R,0.00100X0.01700*%
%ADD20R,0.00100X0.00400*%
%ADD21R,0.00100X0.01900*%
%ADD22R,0.00100X0.00900*%
%ADD23R,0.00100X0.02000*%
%ADD24R,0.00100X0.01200*%
%ADD25R,0.00100X0.00300*%
%ADD26R,0.00100X0.00800*%
%ADD27R,0.00100X0.01800*%
%ADD28R,0.00100X0.03100*%
%ADD29R,0.00100X0.04100*%
%ADD30R,0.00100X0.00600*%
%ADD31R,0.00100X0.04500*%
%ADD32R,0.00100X0.01000*%
%ADD33R,0.00100X0.04800*%
%ADD34R,0.00100X0.04900*%
%ADD35R,0.00100X0.05000*%
%ADD36R,0.00100X0.05100*%
%ADD37R,0.00100X0.01300*%
%ADD38R,0.00100X0.00500*%
%ADD39R,0.00100X0.01600*%
%ADD40R,0.00100X0.01500*%
%ADD41R,0.00100X0.02100*%
%ADD42C,0.00591*%
D10*
X0092644Y0010874D02*
X0092644Y0203787D01*
X0092646Y0203977D01*
X0092653Y0204167D01*
X0092665Y0204357D01*
X0092681Y0204547D01*
X0092701Y0204736D01*
X0092727Y0204925D01*
X0092756Y0205113D01*
X0092791Y0205300D01*
X0092830Y0205486D01*
X0092873Y0205671D01*
X0092921Y0205856D01*
X0092973Y0206039D01*
X0093029Y0206220D01*
X0093090Y0206400D01*
X0093156Y0206579D01*
X0093225Y0206756D01*
X0093299Y0206932D01*
X0093377Y0207105D01*
X0093460Y0207277D01*
X0093546Y0207446D01*
X0093636Y0207614D01*
X0093731Y0207779D01*
X0093829Y0207942D01*
X0093932Y0208102D01*
X0094038Y0208260D01*
X0094148Y0208415D01*
X0094261Y0208568D01*
X0094379Y0208718D01*
X0094500Y0208864D01*
X0094624Y0209008D01*
X0094752Y0209149D01*
X0094883Y0209287D01*
X0095018Y0209422D01*
X0095156Y0209553D01*
X0095297Y0209681D01*
X0095441Y0209805D01*
X0095587Y0209926D01*
X0095737Y0210044D01*
X0095890Y0210157D01*
X0096045Y0210267D01*
X0096203Y0210373D01*
X0096363Y0210476D01*
X0096526Y0210574D01*
X0096691Y0210669D01*
X0096859Y0210759D01*
X0097028Y0210845D01*
X0097200Y0210928D01*
X0097373Y0211006D01*
X0097549Y0211080D01*
X0097726Y0211149D01*
X0097905Y0211215D01*
X0098085Y0211276D01*
X0098266Y0211332D01*
X0098449Y0211384D01*
X0098634Y0211432D01*
X0098819Y0211475D01*
X0099005Y0211514D01*
X0099192Y0211549D01*
X0099380Y0211578D01*
X0099569Y0211604D01*
X0099758Y0211624D01*
X0099948Y0211640D01*
X0100138Y0211652D01*
X0100328Y0211659D01*
X0100518Y0211661D01*
X0281620Y0211661D01*
X0281810Y0211659D01*
X0282000Y0211652D01*
X0282190Y0211640D01*
X0282380Y0211624D01*
X0282569Y0211604D01*
X0282758Y0211578D01*
X0282946Y0211549D01*
X0283133Y0211514D01*
X0283319Y0211475D01*
X0283504Y0211432D01*
X0283689Y0211384D01*
X0283872Y0211332D01*
X0284053Y0211276D01*
X0284233Y0211215D01*
X0284412Y0211149D01*
X0284589Y0211080D01*
X0284765Y0211006D01*
X0284938Y0210928D01*
X0285110Y0210845D01*
X0285279Y0210759D01*
X0285447Y0210669D01*
X0285612Y0210574D01*
X0285775Y0210476D01*
X0285935Y0210373D01*
X0286093Y0210267D01*
X0286248Y0210157D01*
X0286401Y0210044D01*
X0286551Y0209926D01*
X0286697Y0209805D01*
X0286841Y0209681D01*
X0286982Y0209553D01*
X0287120Y0209422D01*
X0287255Y0209287D01*
X0287386Y0209149D01*
X0287514Y0209008D01*
X0287638Y0208864D01*
X0287759Y0208718D01*
X0287877Y0208568D01*
X0287990Y0208415D01*
X0288100Y0208260D01*
X0288206Y0208102D01*
X0288309Y0207942D01*
X0288407Y0207779D01*
X0288502Y0207614D01*
X0288592Y0207446D01*
X0288678Y0207277D01*
X0288761Y0207105D01*
X0288839Y0206932D01*
X0288913Y0206756D01*
X0288982Y0206579D01*
X0289048Y0206400D01*
X0289109Y0206220D01*
X0289165Y0206039D01*
X0289217Y0205856D01*
X0289265Y0205671D01*
X0289308Y0205486D01*
X0289347Y0205300D01*
X0289382Y0205113D01*
X0289411Y0204925D01*
X0289437Y0204736D01*
X0289457Y0204547D01*
X0289473Y0204357D01*
X0289485Y0204167D01*
X0289492Y0203977D01*
X0289494Y0203787D01*
X0289494Y0010874D01*
X0289492Y0010684D01*
X0289485Y0010494D01*
X0289473Y0010304D01*
X0289457Y0010114D01*
X0289437Y0009925D01*
X0289411Y0009736D01*
X0289382Y0009548D01*
X0289347Y0009361D01*
X0289308Y0009175D01*
X0289265Y0008990D01*
X0289217Y0008805D01*
X0289165Y0008622D01*
X0289109Y0008441D01*
X0289048Y0008261D01*
X0288982Y0008082D01*
X0288913Y0007905D01*
X0288839Y0007729D01*
X0288761Y0007556D01*
X0288678Y0007384D01*
X0288592Y0007215D01*
X0288502Y0007047D01*
X0288407Y0006882D01*
X0288309Y0006719D01*
X0288206Y0006559D01*
X0288100Y0006401D01*
X0287990Y0006246D01*
X0287877Y0006093D01*
X0287759Y0005943D01*
X0287638Y0005797D01*
X0287514Y0005653D01*
X0287386Y0005512D01*
X0287255Y0005374D01*
X0287120Y0005239D01*
X0286982Y0005108D01*
X0286841Y0004980D01*
X0286697Y0004856D01*
X0286551Y0004735D01*
X0286401Y0004617D01*
X0286248Y0004504D01*
X0286093Y0004394D01*
X0285935Y0004288D01*
X0285775Y0004185D01*
X0285612Y0004087D01*
X0285447Y0003992D01*
X0285279Y0003902D01*
X0285110Y0003816D01*
X0284938Y0003733D01*
X0284765Y0003655D01*
X0284589Y0003581D01*
X0284412Y0003512D01*
X0284233Y0003446D01*
X0284053Y0003385D01*
X0283872Y0003329D01*
X0283689Y0003277D01*
X0283504Y0003229D01*
X0283319Y0003186D01*
X0283133Y0003147D01*
X0282946Y0003112D01*
X0282758Y0003083D01*
X0282569Y0003057D01*
X0282380Y0003037D01*
X0282190Y0003021D01*
X0282000Y0003009D01*
X0281810Y0003002D01*
X0281620Y0003000D01*
X0100518Y0003000D01*
X0100328Y0003002D01*
X0100138Y0003009D01*
X0099948Y0003021D01*
X0099758Y0003037D01*
X0099569Y0003057D01*
X0099380Y0003083D01*
X0099192Y0003112D01*
X0099005Y0003147D01*
X0098819Y0003186D01*
X0098634Y0003229D01*
X0098449Y0003277D01*
X0098266Y0003329D01*
X0098085Y0003385D01*
X0097905Y0003446D01*
X0097726Y0003512D01*
X0097549Y0003581D01*
X0097373Y0003655D01*
X0097200Y0003733D01*
X0097028Y0003816D01*
X0096859Y0003902D01*
X0096691Y0003992D01*
X0096526Y0004087D01*
X0096363Y0004185D01*
X0096203Y0004288D01*
X0096045Y0004394D01*
X0095890Y0004504D01*
X0095737Y0004617D01*
X0095587Y0004735D01*
X0095441Y0004856D01*
X0095297Y0004980D01*
X0095156Y0005108D01*
X0095018Y0005239D01*
X0094883Y0005374D01*
X0094752Y0005512D01*
X0094624Y0005653D01*
X0094500Y0005797D01*
X0094379Y0005943D01*
X0094261Y0006093D01*
X0094148Y0006246D01*
X0094038Y0006401D01*
X0093932Y0006559D01*
X0093829Y0006719D01*
X0093731Y0006882D01*
X0093636Y0007047D01*
X0093546Y0007215D01*
X0093460Y0007384D01*
X0093377Y0007556D01*
X0093299Y0007729D01*
X0093225Y0007905D01*
X0093156Y0008082D01*
X0093090Y0008261D01*
X0093029Y0008441D01*
X0092973Y0008622D01*
X0092921Y0008805D01*
X0092873Y0008990D01*
X0092830Y0009175D01*
X0092791Y0009361D01*
X0092756Y0009548D01*
X0092727Y0009736D01*
X0092701Y0009925D01*
X0092681Y0010114D01*
X0092665Y0010304D01*
X0092653Y0010494D01*
X0092646Y0010684D01*
X0092644Y0010874D01*
X0104357Y0012606D02*
X0104357Y0013394D01*
X0105144Y0013394D01*
X0105144Y0012606D01*
X0104357Y0012606D01*
X0104357Y0012607D02*
X0105144Y0012607D01*
X0105144Y0012610D02*
X0104357Y0012610D01*
X0104357Y0012612D02*
X0105144Y0012612D01*
X0105144Y0012615D02*
X0104357Y0012615D01*
X0104357Y0012617D02*
X0105144Y0012617D01*
X0105144Y0012619D02*
X0104357Y0012619D01*
X0104357Y0012622D02*
X0105144Y0012622D01*
X0105144Y0012624D02*
X0104357Y0012624D01*
X0104357Y0012627D02*
X0105144Y0012627D01*
X0105144Y0012629D02*
X0104357Y0012629D01*
X0104357Y0012632D02*
X0105144Y0012632D01*
X0105144Y0012634D02*
X0104357Y0012634D01*
X0104357Y0012637D02*
X0105144Y0012637D01*
X0105144Y0012639D02*
X0104357Y0012639D01*
X0104357Y0012642D02*
X0105144Y0012642D01*
X0105144Y0012644D02*
X0104357Y0012644D01*
X0104357Y0012646D02*
X0105144Y0012646D01*
X0105144Y0012649D02*
X0104357Y0012649D01*
X0104357Y0012651D02*
X0105144Y0012651D01*
X0105144Y0012654D02*
X0104357Y0012654D01*
X0104357Y0012656D02*
X0105144Y0012656D01*
X0105144Y0012659D02*
X0104357Y0012659D01*
X0104357Y0012661D02*
X0105144Y0012661D01*
X0105144Y0012664D02*
X0104357Y0012664D01*
X0104357Y0012666D02*
X0105144Y0012666D01*
X0105144Y0012668D02*
X0104357Y0012668D01*
X0104357Y0012671D02*
X0105144Y0012671D01*
X0105144Y0012673D02*
X0104357Y0012673D01*
X0104357Y0012676D02*
X0105144Y0012676D01*
X0105144Y0012678D02*
X0104357Y0012678D01*
X0104357Y0012681D02*
X0105144Y0012681D01*
X0105144Y0012683D02*
X0104357Y0012683D01*
X0104357Y0012686D02*
X0105144Y0012686D01*
X0105144Y0012688D02*
X0104357Y0012688D01*
X0104357Y0012690D02*
X0105144Y0012690D01*
X0105144Y0012693D02*
X0104357Y0012693D01*
X0104357Y0012695D02*
X0105144Y0012695D01*
X0105144Y0012698D02*
X0104357Y0012698D01*
X0104357Y0012700D02*
X0105144Y0012700D01*
X0105144Y0012703D02*
X0104357Y0012703D01*
X0104357Y0012705D02*
X0105144Y0012705D01*
X0105144Y0012708D02*
X0104357Y0012708D01*
X0104357Y0012710D02*
X0105144Y0012710D01*
X0105144Y0012713D02*
X0104357Y0012713D01*
X0104357Y0012715D02*
X0105144Y0012715D01*
X0105144Y0012717D02*
X0104357Y0012717D01*
X0104357Y0012720D02*
X0105144Y0012720D01*
X0105144Y0012722D02*
X0104357Y0012722D01*
X0104357Y0012725D02*
X0105144Y0012725D01*
X0105144Y0012727D02*
X0104357Y0012727D01*
X0104357Y0012730D02*
X0105144Y0012730D01*
X0105144Y0012732D02*
X0104357Y0012732D01*
X0104357Y0012735D02*
X0105144Y0012735D01*
X0105144Y0012737D02*
X0104357Y0012737D01*
X0104357Y0012739D02*
X0105144Y0012739D01*
X0105144Y0012742D02*
X0104357Y0012742D01*
X0104357Y0012744D02*
X0105144Y0012744D01*
X0105144Y0012747D02*
X0104357Y0012747D01*
X0104357Y0012749D02*
X0105144Y0012749D01*
X0105144Y0012752D02*
X0104357Y0012752D01*
X0104357Y0012754D02*
X0105144Y0012754D01*
X0105144Y0012757D02*
X0104357Y0012757D01*
X0104357Y0012759D02*
X0105144Y0012759D01*
X0105144Y0012761D02*
X0104357Y0012761D01*
X0104357Y0012764D02*
X0105144Y0012764D01*
X0105144Y0012766D02*
X0104357Y0012766D01*
X0104357Y0012769D02*
X0105144Y0012769D01*
X0105144Y0012771D02*
X0104357Y0012771D01*
X0104357Y0012774D02*
X0105144Y0012774D01*
X0105144Y0012776D02*
X0104357Y0012776D01*
X0104357Y0012779D02*
X0105144Y0012779D01*
X0105144Y0012781D02*
X0104357Y0012781D01*
X0104357Y0012784D02*
X0105144Y0012784D01*
X0105144Y0012786D02*
X0104357Y0012786D01*
X0104357Y0012788D02*
X0105144Y0012788D01*
X0105144Y0012791D02*
X0104357Y0012791D01*
X0104357Y0012793D02*
X0105144Y0012793D01*
X0105144Y0012796D02*
X0104357Y0012796D01*
X0104357Y0012798D02*
X0105144Y0012798D01*
X0105144Y0012801D02*
X0104357Y0012801D01*
X0104357Y0012803D02*
X0105144Y0012803D01*
X0105144Y0012806D02*
X0104357Y0012806D01*
X0104357Y0012808D02*
X0105144Y0012808D01*
X0105144Y0012810D02*
X0104357Y0012810D01*
X0104357Y0012813D02*
X0105144Y0012813D01*
X0105144Y0012815D02*
X0104357Y0012815D01*
X0104357Y0012818D02*
X0105144Y0012818D01*
X0105144Y0012820D02*
X0104357Y0012820D01*
X0104357Y0012823D02*
X0105144Y0012823D01*
X0105144Y0012825D02*
X0104357Y0012825D01*
X0104357Y0012828D02*
X0105144Y0012828D01*
X0105144Y0012830D02*
X0104357Y0012830D01*
X0104357Y0012832D02*
X0105144Y0012832D01*
X0105144Y0012835D02*
X0104357Y0012835D01*
X0104357Y0012837D02*
X0105144Y0012837D01*
X0105144Y0012840D02*
X0104357Y0012840D01*
X0104357Y0012842D02*
X0105144Y0012842D01*
X0105144Y0012845D02*
X0104357Y0012845D01*
X0104357Y0012847D02*
X0105144Y0012847D01*
X0105144Y0012850D02*
X0104357Y0012850D01*
X0104357Y0012852D02*
X0105144Y0012852D01*
X0105144Y0012855D02*
X0104357Y0012855D01*
X0104357Y0012857D02*
X0105144Y0012857D01*
X0105144Y0012859D02*
X0104357Y0012859D01*
X0104357Y0012862D02*
X0105144Y0012862D01*
X0105144Y0012864D02*
X0104357Y0012864D01*
X0104357Y0012867D02*
X0105144Y0012867D01*
X0105144Y0012869D02*
X0104357Y0012869D01*
X0104357Y0012872D02*
X0105144Y0012872D01*
X0105144Y0012874D02*
X0104357Y0012874D01*
X0104357Y0012877D02*
X0105144Y0012877D01*
X0105144Y0012879D02*
X0104357Y0012879D01*
X0104357Y0012881D02*
X0105144Y0012881D01*
X0105144Y0012884D02*
X0104357Y0012884D01*
X0104357Y0012886D02*
X0105144Y0012886D01*
X0105144Y0012889D02*
X0104357Y0012889D01*
X0104357Y0012891D02*
X0105144Y0012891D01*
X0105144Y0012894D02*
X0104357Y0012894D01*
X0104357Y0012896D02*
X0105144Y0012896D01*
X0105144Y0012899D02*
X0104357Y0012899D01*
X0104357Y0012901D02*
X0105144Y0012901D01*
X0105144Y0012903D02*
X0104357Y0012903D01*
X0104357Y0012906D02*
X0105144Y0012906D01*
X0105144Y0012908D02*
X0104357Y0012908D01*
X0104357Y0012911D02*
X0105144Y0012911D01*
X0105144Y0012913D02*
X0104357Y0012913D01*
X0104357Y0012916D02*
X0105144Y0012916D01*
X0105144Y0012918D02*
X0104357Y0012918D01*
X0104357Y0012921D02*
X0105144Y0012921D01*
X0105144Y0012923D02*
X0104357Y0012923D01*
X0104357Y0012926D02*
X0105144Y0012926D01*
X0105144Y0012928D02*
X0104357Y0012928D01*
X0104357Y0012930D02*
X0105144Y0012930D01*
X0105144Y0012933D02*
X0104357Y0012933D01*
X0104357Y0012935D02*
X0105144Y0012935D01*
X0105144Y0012938D02*
X0104357Y0012938D01*
X0104357Y0012940D02*
X0105144Y0012940D01*
X0105144Y0012943D02*
X0104357Y0012943D01*
X0104357Y0012945D02*
X0105144Y0012945D01*
X0105144Y0012948D02*
X0104357Y0012948D01*
X0104357Y0012950D02*
X0105144Y0012950D01*
X0105144Y0012952D02*
X0104357Y0012952D01*
X0104357Y0012955D02*
X0105144Y0012955D01*
X0105144Y0012957D02*
X0104357Y0012957D01*
X0104357Y0012960D02*
X0105144Y0012960D01*
X0105144Y0012962D02*
X0104357Y0012962D01*
X0104357Y0012965D02*
X0105144Y0012965D01*
X0105144Y0012967D02*
X0104357Y0012967D01*
X0104357Y0012970D02*
X0105144Y0012970D01*
X0105144Y0012972D02*
X0104357Y0012972D01*
X0104357Y0012974D02*
X0105144Y0012974D01*
X0105144Y0012977D02*
X0104357Y0012977D01*
X0104357Y0012979D02*
X0105144Y0012979D01*
X0105144Y0012982D02*
X0104357Y0012982D01*
X0104357Y0012984D02*
X0105144Y0012984D01*
X0105144Y0012987D02*
X0104357Y0012987D01*
X0104357Y0012989D02*
X0105144Y0012989D01*
X0105144Y0012992D02*
X0104357Y0012992D01*
X0104357Y0012994D02*
X0105144Y0012994D01*
X0105144Y0012997D02*
X0104357Y0012997D01*
X0104357Y0012999D02*
X0105144Y0012999D01*
X0105144Y0013001D02*
X0104357Y0013001D01*
X0104357Y0013004D02*
X0105144Y0013004D01*
X0105144Y0013006D02*
X0104357Y0013006D01*
X0104357Y0013009D02*
X0105144Y0013009D01*
X0105144Y0013011D02*
X0104357Y0013011D01*
X0104357Y0013014D02*
X0105144Y0013014D01*
X0105144Y0013016D02*
X0104357Y0013016D01*
X0104357Y0013019D02*
X0105144Y0013019D01*
X0105144Y0013021D02*
X0104357Y0013021D01*
X0104357Y0013023D02*
X0105144Y0013023D01*
X0105144Y0013026D02*
X0104357Y0013026D01*
X0104357Y0013028D02*
X0105144Y0013028D01*
X0105144Y0013031D02*
X0104357Y0013031D01*
X0104357Y0013033D02*
X0105144Y0013033D01*
X0105144Y0013036D02*
X0104357Y0013036D01*
X0104357Y0013038D02*
X0105144Y0013038D01*
X0105144Y0013041D02*
X0104357Y0013041D01*
X0104357Y0013043D02*
X0105144Y0013043D01*
X0105144Y0013045D02*
X0104357Y0013045D01*
X0104357Y0013048D02*
X0105144Y0013048D01*
X0105144Y0013050D02*
X0104357Y0013050D01*
X0104357Y0013053D02*
X0105144Y0013053D01*
X0105144Y0013055D02*
X0104357Y0013055D01*
X0104357Y0013058D02*
X0105144Y0013058D01*
X0105144Y0013060D02*
X0104357Y0013060D01*
X0104357Y0013063D02*
X0105144Y0013063D01*
X0105144Y0013065D02*
X0104357Y0013065D01*
X0104357Y0013068D02*
X0105144Y0013068D01*
X0105144Y0013070D02*
X0104357Y0013070D01*
X0104357Y0013072D02*
X0105144Y0013072D01*
X0105144Y0013075D02*
X0104357Y0013075D01*
X0104357Y0013077D02*
X0105144Y0013077D01*
X0105144Y0013080D02*
X0104357Y0013080D01*
X0104357Y0013082D02*
X0105144Y0013082D01*
X0105144Y0013085D02*
X0104357Y0013085D01*
X0104357Y0013087D02*
X0105144Y0013087D01*
X0105144Y0013090D02*
X0104357Y0013090D01*
X0104357Y0013092D02*
X0105144Y0013092D01*
X0105144Y0013094D02*
X0104357Y0013094D01*
X0104357Y0013097D02*
X0105144Y0013097D01*
X0105144Y0013099D02*
X0104357Y0013099D01*
X0104357Y0013102D02*
X0105144Y0013102D01*
X0105144Y0013104D02*
X0104357Y0013104D01*
X0104357Y0013107D02*
X0105144Y0013107D01*
X0105144Y0013109D02*
X0104357Y0013109D01*
X0104357Y0013112D02*
X0105144Y0013112D01*
X0105144Y0013114D02*
X0104357Y0013114D01*
X0104357Y0013116D02*
X0105144Y0013116D01*
X0105144Y0013119D02*
X0104357Y0013119D01*
X0104357Y0013121D02*
X0105144Y0013121D01*
X0105144Y0013124D02*
X0104357Y0013124D01*
X0104357Y0013126D02*
X0105144Y0013126D01*
X0105144Y0013129D02*
X0104357Y0013129D01*
X0104357Y0013131D02*
X0105144Y0013131D01*
X0105144Y0013134D02*
X0104357Y0013134D01*
X0104357Y0013136D02*
X0105144Y0013136D01*
X0105144Y0013139D02*
X0104357Y0013139D01*
X0104357Y0013141D02*
X0105144Y0013141D01*
X0105144Y0013143D02*
X0104357Y0013143D01*
X0104357Y0013146D02*
X0105144Y0013146D01*
X0105144Y0013148D02*
X0104357Y0013148D01*
X0104357Y0013151D02*
X0105144Y0013151D01*
X0105144Y0013153D02*
X0104357Y0013153D01*
X0104357Y0013156D02*
X0105144Y0013156D01*
X0105144Y0013158D02*
X0104357Y0013158D01*
X0104357Y0013161D02*
X0105144Y0013161D01*
X0105144Y0013163D02*
X0104357Y0013163D01*
X0104357Y0013165D02*
X0105144Y0013165D01*
X0105144Y0013168D02*
X0104357Y0013168D01*
X0104357Y0013170D02*
X0105144Y0013170D01*
X0105144Y0013173D02*
X0104357Y0013173D01*
X0104357Y0013175D02*
X0105144Y0013175D01*
X0105144Y0013178D02*
X0104357Y0013178D01*
X0104357Y0013180D02*
X0105144Y0013180D01*
X0105144Y0013183D02*
X0104357Y0013183D01*
X0104357Y0013185D02*
X0105144Y0013185D01*
X0105144Y0013187D02*
X0104357Y0013187D01*
X0104357Y0013190D02*
X0105144Y0013190D01*
X0105144Y0013192D02*
X0104357Y0013192D01*
X0104357Y0013195D02*
X0105144Y0013195D01*
X0105144Y0013197D02*
X0104357Y0013197D01*
X0104357Y0013200D02*
X0105144Y0013200D01*
X0105144Y0013202D02*
X0104357Y0013202D01*
X0104357Y0013205D02*
X0105144Y0013205D01*
X0105144Y0013207D02*
X0104357Y0013207D01*
X0104357Y0013210D02*
X0105144Y0013210D01*
X0105144Y0013212D02*
X0104357Y0013212D01*
X0104357Y0013214D02*
X0105144Y0013214D01*
X0105144Y0013217D02*
X0104357Y0013217D01*
X0104357Y0013219D02*
X0105144Y0013219D01*
X0105144Y0013222D02*
X0104357Y0013222D01*
X0104357Y0013224D02*
X0105144Y0013224D01*
X0105144Y0013227D02*
X0104357Y0013227D01*
X0104357Y0013229D02*
X0105144Y0013229D01*
X0105144Y0013232D02*
X0104357Y0013232D01*
X0104357Y0013234D02*
X0105144Y0013234D01*
X0105144Y0013236D02*
X0104357Y0013236D01*
X0104357Y0013239D02*
X0105144Y0013239D01*
X0105144Y0013241D02*
X0104357Y0013241D01*
X0104357Y0013244D02*
X0105144Y0013244D01*
X0105144Y0013246D02*
X0104357Y0013246D01*
X0104357Y0013249D02*
X0105144Y0013249D01*
X0105144Y0013251D02*
X0104357Y0013251D01*
X0104357Y0013254D02*
X0105144Y0013254D01*
X0105144Y0013256D02*
X0104357Y0013256D01*
X0104357Y0013258D02*
X0105144Y0013258D01*
X0105144Y0013261D02*
X0104357Y0013261D01*
X0104357Y0013263D02*
X0105144Y0013263D01*
X0105144Y0013266D02*
X0104357Y0013266D01*
X0104357Y0013268D02*
X0105144Y0013268D01*
X0105144Y0013271D02*
X0104357Y0013271D01*
X0104357Y0013273D02*
X0105144Y0013273D01*
X0105144Y0013276D02*
X0104357Y0013276D01*
X0104357Y0013278D02*
X0105144Y0013278D01*
X0105144Y0013281D02*
X0104357Y0013281D01*
X0104357Y0013283D02*
X0105144Y0013283D01*
X0105144Y0013285D02*
X0104357Y0013285D01*
X0104357Y0013288D02*
X0105144Y0013288D01*
X0105144Y0013290D02*
X0104357Y0013290D01*
X0104357Y0013293D02*
X0105144Y0013293D01*
X0105144Y0013295D02*
X0104357Y0013295D01*
X0104357Y0013298D02*
X0105144Y0013298D01*
X0105144Y0013300D02*
X0104357Y0013300D01*
X0104357Y0013303D02*
X0105144Y0013303D01*
X0105144Y0013305D02*
X0104357Y0013305D01*
X0104357Y0013307D02*
X0105144Y0013307D01*
X0105144Y0013310D02*
X0104357Y0013310D01*
X0104357Y0013312D02*
X0105144Y0013312D01*
X0105144Y0013315D02*
X0104357Y0013315D01*
X0104357Y0013317D02*
X0105144Y0013317D01*
X0105144Y0013320D02*
X0104357Y0013320D01*
X0104357Y0013322D02*
X0105144Y0013322D01*
X0105144Y0013325D02*
X0104357Y0013325D01*
X0104357Y0013327D02*
X0105144Y0013327D01*
X0105144Y0013329D02*
X0104357Y0013329D01*
X0104357Y0013332D02*
X0105144Y0013332D01*
X0105144Y0013334D02*
X0104357Y0013334D01*
X0104357Y0013337D02*
X0105144Y0013337D01*
X0105144Y0013339D02*
X0104357Y0013339D01*
X0104357Y0013342D02*
X0105144Y0013342D01*
X0105144Y0013344D02*
X0104357Y0013344D01*
X0104357Y0013347D02*
X0105144Y0013347D01*
X0105144Y0013349D02*
X0104357Y0013349D01*
X0104357Y0013352D02*
X0105144Y0013352D01*
X0105144Y0013354D02*
X0104357Y0013354D01*
X0104357Y0013356D02*
X0105144Y0013356D01*
X0105144Y0013359D02*
X0104357Y0013359D01*
X0104357Y0013361D02*
X0105144Y0013361D01*
X0105144Y0013364D02*
X0104357Y0013364D01*
X0104357Y0013366D02*
X0105144Y0013366D01*
X0105144Y0013369D02*
X0104357Y0013369D01*
X0104357Y0013371D02*
X0105144Y0013371D01*
X0105144Y0013374D02*
X0104357Y0013374D01*
X0104357Y0013376D02*
X0105144Y0013376D01*
X0105144Y0013378D02*
X0104357Y0013378D01*
X0104357Y0013381D02*
X0105144Y0013381D01*
X0105144Y0013383D02*
X0104357Y0013383D01*
X0104357Y0013386D02*
X0105144Y0013386D01*
X0105144Y0013388D02*
X0104357Y0013388D01*
X0104357Y0013391D02*
X0105144Y0013391D01*
X0105144Y0013393D02*
X0104357Y0013393D01*
X0104357Y0025106D02*
X0104357Y0025894D01*
X0105144Y0025894D01*
X0105144Y0025106D01*
X0104357Y0025106D01*
X0104357Y0025108D02*
X0105144Y0025108D01*
X0105144Y0025111D02*
X0104357Y0025111D01*
X0104357Y0025113D02*
X0105144Y0025113D01*
X0105144Y0025116D02*
X0104357Y0025116D01*
X0104357Y0025118D02*
X0105144Y0025118D01*
X0105144Y0025121D02*
X0104357Y0025121D01*
X0104357Y0025123D02*
X0105144Y0025123D01*
X0105144Y0025126D02*
X0104357Y0025126D01*
X0104357Y0025128D02*
X0105144Y0025128D01*
X0105144Y0025130D02*
X0104357Y0025130D01*
X0104357Y0025133D02*
X0105144Y0025133D01*
X0105144Y0025135D02*
X0104357Y0025135D01*
X0104357Y0025138D02*
X0105144Y0025138D01*
X0105144Y0025140D02*
X0104357Y0025140D01*
X0104357Y0025143D02*
X0105144Y0025143D01*
X0105144Y0025145D02*
X0104357Y0025145D01*
X0104357Y0025148D02*
X0105144Y0025148D01*
X0105144Y0025150D02*
X0104357Y0025150D01*
X0104357Y0025152D02*
X0105144Y0025152D01*
X0105144Y0025155D02*
X0104357Y0025155D01*
X0104357Y0025157D02*
X0105144Y0025157D01*
X0105144Y0025160D02*
X0104357Y0025160D01*
X0104357Y0025162D02*
X0105144Y0025162D01*
X0105144Y0025165D02*
X0104357Y0025165D01*
X0104357Y0025167D02*
X0105144Y0025167D01*
X0105144Y0025170D02*
X0104357Y0025170D01*
X0104357Y0025172D02*
X0105144Y0025172D01*
X0105144Y0025174D02*
X0104357Y0025174D01*
X0104357Y0025177D02*
X0105144Y0025177D01*
X0105144Y0025179D02*
X0104357Y0025179D01*
X0104357Y0025182D02*
X0105144Y0025182D01*
X0105144Y0025184D02*
X0104357Y0025184D01*
X0104357Y0025187D02*
X0105144Y0025187D01*
X0105144Y0025189D02*
X0104357Y0025189D01*
X0104357Y0025192D02*
X0105144Y0025192D01*
X0105144Y0025194D02*
X0104357Y0025194D01*
X0104357Y0025197D02*
X0105144Y0025197D01*
X0105144Y0025199D02*
X0104357Y0025199D01*
X0104357Y0025201D02*
X0105144Y0025201D01*
X0105144Y0025204D02*
X0104357Y0025204D01*
X0104357Y0025206D02*
X0105144Y0025206D01*
X0105144Y0025209D02*
X0104357Y0025209D01*
X0104357Y0025211D02*
X0105144Y0025211D01*
X0105144Y0025214D02*
X0104357Y0025214D01*
X0104357Y0025216D02*
X0105144Y0025216D01*
X0105144Y0025219D02*
X0104357Y0025219D01*
X0104357Y0025221D02*
X0105144Y0025221D01*
X0105144Y0025223D02*
X0104357Y0025223D01*
X0104357Y0025226D02*
X0105144Y0025226D01*
X0105144Y0025228D02*
X0104357Y0025228D01*
X0104357Y0025231D02*
X0105144Y0025231D01*
X0105144Y0025233D02*
X0104357Y0025233D01*
X0104357Y0025236D02*
X0105144Y0025236D01*
X0105144Y0025238D02*
X0104357Y0025238D01*
X0104357Y0025241D02*
X0105144Y0025241D01*
X0105144Y0025243D02*
X0104357Y0025243D01*
X0104357Y0025245D02*
X0105144Y0025245D01*
X0105144Y0025248D02*
X0104357Y0025248D01*
X0104357Y0025250D02*
X0105144Y0025250D01*
X0105144Y0025253D02*
X0104357Y0025253D01*
X0104357Y0025255D02*
X0105144Y0025255D01*
X0105144Y0025258D02*
X0104357Y0025258D01*
X0104357Y0025260D02*
X0105144Y0025260D01*
X0105144Y0025263D02*
X0104357Y0025263D01*
X0104357Y0025265D02*
X0105144Y0025265D01*
X0105144Y0025268D02*
X0104357Y0025268D01*
X0104357Y0025270D02*
X0105144Y0025270D01*
X0105144Y0025272D02*
X0104357Y0025272D01*
X0104357Y0025275D02*
X0105144Y0025275D01*
X0105144Y0025277D02*
X0104357Y0025277D01*
X0104357Y0025280D02*
X0105144Y0025280D01*
X0105144Y0025282D02*
X0104357Y0025282D01*
X0104357Y0025285D02*
X0105144Y0025285D01*
X0105144Y0025287D02*
X0104357Y0025287D01*
X0104357Y0025290D02*
X0105144Y0025290D01*
X0105144Y0025292D02*
X0104357Y0025292D01*
X0104357Y0025294D02*
X0105144Y0025294D01*
X0105144Y0025297D02*
X0104357Y0025297D01*
X0104357Y0025299D02*
X0105144Y0025299D01*
X0105144Y0025302D02*
X0104357Y0025302D01*
X0104357Y0025304D02*
X0105144Y0025304D01*
X0105144Y0025307D02*
X0104357Y0025307D01*
X0104357Y0025309D02*
X0105144Y0025309D01*
X0105144Y0025312D02*
X0104357Y0025312D01*
X0104357Y0025314D02*
X0105144Y0025314D01*
X0105144Y0025316D02*
X0104357Y0025316D01*
X0104357Y0025319D02*
X0105144Y0025319D01*
X0105144Y0025321D02*
X0104357Y0025321D01*
X0104357Y0025324D02*
X0105144Y0025324D01*
X0105144Y0025326D02*
X0104357Y0025326D01*
X0104357Y0025329D02*
X0105144Y0025329D01*
X0105144Y0025331D02*
X0104357Y0025331D01*
X0104357Y0025334D02*
X0105144Y0025334D01*
X0105144Y0025336D02*
X0104357Y0025336D01*
X0104357Y0025339D02*
X0105144Y0025339D01*
X0105144Y0025341D02*
X0104357Y0025341D01*
X0104357Y0025343D02*
X0105144Y0025343D01*
X0105144Y0025346D02*
X0104357Y0025346D01*
X0104357Y0025348D02*
X0105144Y0025348D01*
X0105144Y0025351D02*
X0104357Y0025351D01*
X0104357Y0025353D02*
X0105144Y0025353D01*
X0105144Y0025356D02*
X0104357Y0025356D01*
X0104357Y0025358D02*
X0105144Y0025358D01*
X0105144Y0025361D02*
X0104357Y0025361D01*
X0104357Y0025363D02*
X0105144Y0025363D01*
X0105144Y0025365D02*
X0104357Y0025365D01*
X0104357Y0025368D02*
X0105144Y0025368D01*
X0105144Y0025370D02*
X0104357Y0025370D01*
X0104357Y0025373D02*
X0105144Y0025373D01*
X0105144Y0025375D02*
X0104357Y0025375D01*
X0104357Y0025378D02*
X0105144Y0025378D01*
X0105144Y0025380D02*
X0104357Y0025380D01*
X0104357Y0025383D02*
X0105144Y0025383D01*
X0105144Y0025385D02*
X0104357Y0025385D01*
X0104357Y0025387D02*
X0105144Y0025387D01*
X0105144Y0025390D02*
X0104357Y0025390D01*
X0104357Y0025392D02*
X0105144Y0025392D01*
X0105144Y0025395D02*
X0104357Y0025395D01*
X0104357Y0025397D02*
X0105144Y0025397D01*
X0105144Y0025400D02*
X0104357Y0025400D01*
X0104357Y0025402D02*
X0105144Y0025402D01*
X0105144Y0025405D02*
X0104357Y0025405D01*
X0104357Y0025407D02*
X0105144Y0025407D01*
X0105144Y0025410D02*
X0104357Y0025410D01*
X0104357Y0025412D02*
X0105144Y0025412D01*
X0105144Y0025414D02*
X0104357Y0025414D01*
X0104357Y0025417D02*
X0105144Y0025417D01*
X0105144Y0025419D02*
X0104357Y0025419D01*
X0104357Y0025422D02*
X0105144Y0025422D01*
X0105144Y0025424D02*
X0104357Y0025424D01*
X0104357Y0025427D02*
X0105144Y0025427D01*
X0105144Y0025429D02*
X0104357Y0025429D01*
X0104357Y0025432D02*
X0105144Y0025432D01*
X0105144Y0025434D02*
X0104357Y0025434D01*
X0104357Y0025436D02*
X0105144Y0025436D01*
X0105144Y0025439D02*
X0104357Y0025439D01*
X0104357Y0025441D02*
X0105144Y0025441D01*
X0105144Y0025444D02*
X0104357Y0025444D01*
X0104357Y0025446D02*
X0105144Y0025446D01*
X0105144Y0025449D02*
X0104357Y0025449D01*
X0104357Y0025451D02*
X0105144Y0025451D01*
X0105144Y0025454D02*
X0104357Y0025454D01*
X0104357Y0025456D02*
X0105144Y0025456D01*
X0105144Y0025459D02*
X0104357Y0025459D01*
X0104357Y0025461D02*
X0105144Y0025461D01*
X0105144Y0025463D02*
X0104357Y0025463D01*
X0104357Y0025466D02*
X0105144Y0025466D01*
X0105144Y0025468D02*
X0104357Y0025468D01*
X0104357Y0025471D02*
X0105144Y0025471D01*
X0105144Y0025473D02*
X0104357Y0025473D01*
X0104357Y0025476D02*
X0105144Y0025476D01*
X0105144Y0025478D02*
X0104357Y0025478D01*
X0104357Y0025481D02*
X0105144Y0025481D01*
X0105144Y0025483D02*
X0104357Y0025483D01*
X0104357Y0025485D02*
X0105144Y0025485D01*
X0105144Y0025488D02*
X0104357Y0025488D01*
X0104357Y0025490D02*
X0105144Y0025490D01*
X0105144Y0025493D02*
X0104357Y0025493D01*
X0104357Y0025495D02*
X0105144Y0025495D01*
X0105144Y0025498D02*
X0104357Y0025498D01*
X0104357Y0025500D02*
X0105144Y0025500D01*
X0105144Y0025503D02*
X0104357Y0025503D01*
X0104357Y0025505D02*
X0105144Y0025505D01*
X0105144Y0025507D02*
X0104357Y0025507D01*
X0104357Y0025510D02*
X0105144Y0025510D01*
X0105144Y0025512D02*
X0104357Y0025512D01*
X0104357Y0025515D02*
X0105144Y0025515D01*
X0105144Y0025517D02*
X0104357Y0025517D01*
X0104357Y0025520D02*
X0105144Y0025520D01*
X0105144Y0025522D02*
X0104357Y0025522D01*
X0104357Y0025525D02*
X0105144Y0025525D01*
X0105144Y0025527D02*
X0104357Y0025527D01*
X0104357Y0025530D02*
X0105144Y0025530D01*
X0105144Y0025532D02*
X0104357Y0025532D01*
X0104357Y0025534D02*
X0105144Y0025534D01*
X0105144Y0025537D02*
X0104357Y0025537D01*
X0104357Y0025539D02*
X0105144Y0025539D01*
X0105144Y0025542D02*
X0104357Y0025542D01*
X0104357Y0025544D02*
X0105144Y0025544D01*
X0105144Y0025547D02*
X0104357Y0025547D01*
X0104357Y0025549D02*
X0105144Y0025549D01*
X0105144Y0025552D02*
X0104357Y0025552D01*
X0104357Y0025554D02*
X0105144Y0025554D01*
X0105144Y0025556D02*
X0104357Y0025556D01*
X0104357Y0025559D02*
X0105144Y0025559D01*
X0105144Y0025561D02*
X0104357Y0025561D01*
X0104357Y0025564D02*
X0105144Y0025564D01*
X0105144Y0025566D02*
X0104357Y0025566D01*
X0104357Y0025569D02*
X0105144Y0025569D01*
X0105144Y0025571D02*
X0104357Y0025571D01*
X0104357Y0025574D02*
X0105144Y0025574D01*
X0105144Y0025576D02*
X0104357Y0025576D01*
X0104357Y0025578D02*
X0105144Y0025578D01*
X0105144Y0025581D02*
X0104357Y0025581D01*
X0104357Y0025583D02*
X0105144Y0025583D01*
X0105144Y0025586D02*
X0104357Y0025586D01*
X0104357Y0025588D02*
X0105144Y0025588D01*
X0105144Y0025591D02*
X0104357Y0025591D01*
X0104357Y0025593D02*
X0105144Y0025593D01*
X0105144Y0025596D02*
X0104357Y0025596D01*
X0104357Y0025598D02*
X0105144Y0025598D01*
X0105144Y0025601D02*
X0104357Y0025601D01*
X0104357Y0025603D02*
X0105144Y0025603D01*
X0105144Y0025605D02*
X0104357Y0025605D01*
X0104357Y0025608D02*
X0105144Y0025608D01*
X0105144Y0025610D02*
X0104357Y0025610D01*
X0104357Y0025613D02*
X0105144Y0025613D01*
X0105144Y0025615D02*
X0104357Y0025615D01*
X0104357Y0025618D02*
X0105144Y0025618D01*
X0105144Y0025620D02*
X0104357Y0025620D01*
X0104357Y0025623D02*
X0105144Y0025623D01*
X0105144Y0025625D02*
X0104357Y0025625D01*
X0104357Y0025627D02*
X0105144Y0025627D01*
X0105144Y0025630D02*
X0104357Y0025630D01*
X0104357Y0025632D02*
X0105144Y0025632D01*
X0105144Y0025635D02*
X0104357Y0025635D01*
X0104357Y0025637D02*
X0105144Y0025637D01*
X0105144Y0025640D02*
X0104357Y0025640D01*
X0104357Y0025642D02*
X0105144Y0025642D01*
X0105144Y0025645D02*
X0104357Y0025645D01*
X0104357Y0025647D02*
X0105144Y0025647D01*
X0105144Y0025649D02*
X0104357Y0025649D01*
X0104357Y0025652D02*
X0105144Y0025652D01*
X0105144Y0025654D02*
X0104357Y0025654D01*
X0104357Y0025657D02*
X0105144Y0025657D01*
X0105144Y0025659D02*
X0104357Y0025659D01*
X0104357Y0025662D02*
X0105144Y0025662D01*
X0105144Y0025664D02*
X0104357Y0025664D01*
X0104357Y0025667D02*
X0105144Y0025667D01*
X0105144Y0025669D02*
X0104357Y0025669D01*
X0104357Y0025672D02*
X0105144Y0025672D01*
X0105144Y0025674D02*
X0104357Y0025674D01*
X0104357Y0025676D02*
X0105144Y0025676D01*
X0105144Y0025679D02*
X0104357Y0025679D01*
X0104357Y0025681D02*
X0105144Y0025681D01*
X0105144Y0025684D02*
X0104357Y0025684D01*
X0104357Y0025686D02*
X0105144Y0025686D01*
X0105144Y0025689D02*
X0104357Y0025689D01*
X0104357Y0025691D02*
X0105144Y0025691D01*
X0105144Y0025694D02*
X0104357Y0025694D01*
X0104357Y0025696D02*
X0105144Y0025696D01*
X0105144Y0025698D02*
X0104357Y0025698D01*
X0104357Y0025701D02*
X0105144Y0025701D01*
X0105144Y0025703D02*
X0104357Y0025703D01*
X0104357Y0025706D02*
X0105144Y0025706D01*
X0105144Y0025708D02*
X0104357Y0025708D01*
X0104357Y0025711D02*
X0105144Y0025711D01*
X0105144Y0025713D02*
X0104357Y0025713D01*
X0104357Y0025716D02*
X0105144Y0025716D01*
X0105144Y0025718D02*
X0104357Y0025718D01*
X0104357Y0025720D02*
X0105144Y0025720D01*
X0105144Y0025723D02*
X0104357Y0025723D01*
X0104357Y0025725D02*
X0105144Y0025725D01*
X0105144Y0025728D02*
X0104357Y0025728D01*
X0104357Y0025730D02*
X0105144Y0025730D01*
X0105144Y0025733D02*
X0104357Y0025733D01*
X0104357Y0025735D02*
X0105144Y0025735D01*
X0105144Y0025738D02*
X0104357Y0025738D01*
X0104357Y0025740D02*
X0105144Y0025740D01*
X0105144Y0025743D02*
X0104357Y0025743D01*
X0104357Y0025745D02*
X0105144Y0025745D01*
X0105144Y0025747D02*
X0104357Y0025747D01*
X0104357Y0025750D02*
X0105144Y0025750D01*
X0105144Y0025752D02*
X0104357Y0025752D01*
X0104357Y0025755D02*
X0105144Y0025755D01*
X0105144Y0025757D02*
X0104357Y0025757D01*
X0104357Y0025760D02*
X0105144Y0025760D01*
X0105144Y0025762D02*
X0104357Y0025762D01*
X0104357Y0025765D02*
X0105144Y0025765D01*
X0105144Y0025767D02*
X0104357Y0025767D01*
X0104357Y0025769D02*
X0105144Y0025769D01*
X0105144Y0025772D02*
X0104357Y0025772D01*
X0104357Y0025774D02*
X0105144Y0025774D01*
X0105144Y0025777D02*
X0104357Y0025777D01*
X0104357Y0025779D02*
X0105144Y0025779D01*
X0105144Y0025782D02*
X0104357Y0025782D01*
X0104357Y0025784D02*
X0105144Y0025784D01*
X0105144Y0025787D02*
X0104357Y0025787D01*
X0104357Y0025789D02*
X0105144Y0025789D01*
X0105144Y0025791D02*
X0104357Y0025791D01*
X0104357Y0025794D02*
X0105144Y0025794D01*
X0105144Y0025796D02*
X0104357Y0025796D01*
X0104357Y0025799D02*
X0105144Y0025799D01*
X0105144Y0025801D02*
X0104357Y0025801D01*
X0104357Y0025804D02*
X0105144Y0025804D01*
X0105144Y0025806D02*
X0104357Y0025806D01*
X0104357Y0025809D02*
X0105144Y0025809D01*
X0105144Y0025811D02*
X0104357Y0025811D01*
X0104357Y0025814D02*
X0105144Y0025814D01*
X0105144Y0025816D02*
X0104357Y0025816D01*
X0104357Y0025818D02*
X0105144Y0025818D01*
X0105144Y0025821D02*
X0104357Y0025821D01*
X0104357Y0025823D02*
X0105144Y0025823D01*
X0105144Y0025826D02*
X0104357Y0025826D01*
X0104357Y0025828D02*
X0105144Y0025828D01*
X0105144Y0025831D02*
X0104357Y0025831D01*
X0104357Y0025833D02*
X0105144Y0025833D01*
X0105144Y0025836D02*
X0104357Y0025836D01*
X0104357Y0025838D02*
X0105144Y0025838D01*
X0105144Y0025840D02*
X0104357Y0025840D01*
X0104357Y0025843D02*
X0105144Y0025843D01*
X0105144Y0025845D02*
X0104357Y0025845D01*
X0104357Y0025848D02*
X0105144Y0025848D01*
X0105144Y0025850D02*
X0104357Y0025850D01*
X0104357Y0025853D02*
X0105144Y0025853D01*
X0105144Y0025855D02*
X0104357Y0025855D01*
X0104357Y0025858D02*
X0105144Y0025858D01*
X0105144Y0025860D02*
X0104357Y0025860D01*
X0104357Y0025862D02*
X0105144Y0025862D01*
X0105144Y0025865D02*
X0104357Y0025865D01*
X0104357Y0025867D02*
X0105144Y0025867D01*
X0105144Y0025870D02*
X0104357Y0025870D01*
X0104357Y0025872D02*
X0105144Y0025872D01*
X0105144Y0025875D02*
X0104357Y0025875D01*
X0104357Y0025877D02*
X0105144Y0025877D01*
X0105144Y0025880D02*
X0104357Y0025880D01*
X0104357Y0025882D02*
X0105144Y0025882D01*
X0105144Y0025885D02*
X0104357Y0025885D01*
X0104357Y0025887D02*
X0105144Y0025887D01*
X0105144Y0025889D02*
X0104357Y0025889D01*
X0104357Y0025892D02*
X0105144Y0025892D01*
X0105144Y0037606D02*
X0105144Y0038394D01*
X0104357Y0038394D01*
X0104357Y0037606D01*
X0105144Y0037606D01*
X0105144Y0037607D02*
X0104357Y0037607D01*
X0104357Y0037610D02*
X0105144Y0037610D01*
X0105144Y0037612D02*
X0104357Y0037612D01*
X0104357Y0037614D02*
X0105144Y0037614D01*
X0105144Y0037617D02*
X0104357Y0037617D01*
X0104357Y0037619D02*
X0105144Y0037619D01*
X0105144Y0037622D02*
X0104357Y0037622D01*
X0104357Y0037624D02*
X0105144Y0037624D01*
X0105144Y0037627D02*
X0104357Y0037627D01*
X0104357Y0037629D02*
X0105144Y0037629D01*
X0105144Y0037632D02*
X0104357Y0037632D01*
X0104357Y0037634D02*
X0105144Y0037634D01*
X0105144Y0037636D02*
X0104357Y0037636D01*
X0104357Y0037639D02*
X0105144Y0037639D01*
X0105144Y0037641D02*
X0104357Y0037641D01*
X0104357Y0037644D02*
X0105144Y0037644D01*
X0105144Y0037646D02*
X0104357Y0037646D01*
X0104357Y0037649D02*
X0105144Y0037649D01*
X0105144Y0037651D02*
X0104357Y0037651D01*
X0104357Y0037654D02*
X0105144Y0037654D01*
X0105144Y0037656D02*
X0104357Y0037656D01*
X0104357Y0037659D02*
X0105144Y0037659D01*
X0105144Y0037661D02*
X0104357Y0037661D01*
X0104357Y0037663D02*
X0105144Y0037663D01*
X0105144Y0037666D02*
X0104357Y0037666D01*
X0104357Y0037668D02*
X0105144Y0037668D01*
X0105144Y0037671D02*
X0104357Y0037671D01*
X0104357Y0037673D02*
X0105144Y0037673D01*
X0105144Y0037676D02*
X0104357Y0037676D01*
X0104357Y0037678D02*
X0105144Y0037678D01*
X0105144Y0037681D02*
X0104357Y0037681D01*
X0104357Y0037683D02*
X0105144Y0037683D01*
X0105144Y0037685D02*
X0104357Y0037685D01*
X0104357Y0037688D02*
X0105144Y0037688D01*
X0105144Y0037690D02*
X0104357Y0037690D01*
X0104357Y0037693D02*
X0105144Y0037693D01*
X0105144Y0037695D02*
X0104357Y0037695D01*
X0104357Y0037698D02*
X0105144Y0037698D01*
X0105144Y0037700D02*
X0104357Y0037700D01*
X0104357Y0037703D02*
X0105144Y0037703D01*
X0105144Y0037705D02*
X0104357Y0037705D01*
X0104357Y0037707D02*
X0105144Y0037707D01*
X0105144Y0037710D02*
X0104357Y0037710D01*
X0104357Y0037712D02*
X0105144Y0037712D01*
X0105144Y0037715D02*
X0104357Y0037715D01*
X0104357Y0037717D02*
X0105144Y0037717D01*
X0105144Y0037720D02*
X0104357Y0037720D01*
X0104357Y0037722D02*
X0105144Y0037722D01*
X0105144Y0037725D02*
X0104357Y0037725D01*
X0104357Y0037727D02*
X0105144Y0037727D01*
X0105144Y0037730D02*
X0104357Y0037730D01*
X0104357Y0037732D02*
X0105144Y0037732D01*
X0105144Y0037734D02*
X0104357Y0037734D01*
X0104357Y0037737D02*
X0105144Y0037737D01*
X0105144Y0037739D02*
X0104357Y0037739D01*
X0104357Y0037742D02*
X0105144Y0037742D01*
X0105144Y0037744D02*
X0104357Y0037744D01*
X0104357Y0037747D02*
X0105144Y0037747D01*
X0105144Y0037749D02*
X0104357Y0037749D01*
X0104357Y0037752D02*
X0105144Y0037752D01*
X0105144Y0037754D02*
X0104357Y0037754D01*
X0104357Y0037756D02*
X0105144Y0037756D01*
X0105144Y0037759D02*
X0104357Y0037759D01*
X0104357Y0037761D02*
X0105144Y0037761D01*
X0105144Y0037764D02*
X0104357Y0037764D01*
X0104357Y0037766D02*
X0105144Y0037766D01*
X0105144Y0037769D02*
X0104357Y0037769D01*
X0104357Y0037771D02*
X0105144Y0037771D01*
X0105144Y0037774D02*
X0104357Y0037774D01*
X0104357Y0037776D02*
X0105144Y0037776D01*
X0105144Y0037778D02*
X0104357Y0037778D01*
X0104357Y0037781D02*
X0105144Y0037781D01*
X0105144Y0037783D02*
X0104357Y0037783D01*
X0104357Y0037786D02*
X0105144Y0037786D01*
X0105144Y0037788D02*
X0104357Y0037788D01*
X0104357Y0037791D02*
X0105144Y0037791D01*
X0105144Y0037793D02*
X0104357Y0037793D01*
X0104357Y0037796D02*
X0105144Y0037796D01*
X0105144Y0037798D02*
X0104357Y0037798D01*
X0104357Y0037801D02*
X0105144Y0037801D01*
X0105144Y0037803D02*
X0104357Y0037803D01*
X0104357Y0037805D02*
X0105144Y0037805D01*
X0105144Y0037808D02*
X0104357Y0037808D01*
X0104357Y0037810D02*
X0105144Y0037810D01*
X0105144Y0037813D02*
X0104357Y0037813D01*
X0104357Y0037815D02*
X0105144Y0037815D01*
X0105144Y0037818D02*
X0104357Y0037818D01*
X0104357Y0037820D02*
X0105144Y0037820D01*
X0105144Y0037823D02*
X0104357Y0037823D01*
X0104357Y0037825D02*
X0105144Y0037825D01*
X0105144Y0037827D02*
X0104357Y0037827D01*
X0104357Y0037830D02*
X0105144Y0037830D01*
X0105144Y0037832D02*
X0104357Y0037832D01*
X0104357Y0037835D02*
X0105144Y0037835D01*
X0105144Y0037837D02*
X0104357Y0037837D01*
X0104357Y0037840D02*
X0105144Y0037840D01*
X0105144Y0037842D02*
X0104357Y0037842D01*
X0104357Y0037845D02*
X0105144Y0037845D01*
X0105144Y0037847D02*
X0104357Y0037847D01*
X0104357Y0037849D02*
X0105144Y0037849D01*
X0105144Y0037852D02*
X0104357Y0037852D01*
X0104357Y0037854D02*
X0105144Y0037854D01*
X0105144Y0037857D02*
X0104357Y0037857D01*
X0104357Y0037859D02*
X0105144Y0037859D01*
X0105144Y0037862D02*
X0104357Y0037862D01*
X0104357Y0037864D02*
X0105144Y0037864D01*
X0105144Y0037867D02*
X0104357Y0037867D01*
X0104357Y0037869D02*
X0105144Y0037869D01*
X0105144Y0037872D02*
X0104357Y0037872D01*
X0104357Y0037874D02*
X0105144Y0037874D01*
X0105144Y0037876D02*
X0104357Y0037876D01*
X0104357Y0037879D02*
X0105144Y0037879D01*
X0105144Y0037881D02*
X0104357Y0037881D01*
X0104357Y0037884D02*
X0105144Y0037884D01*
X0105144Y0037886D02*
X0104357Y0037886D01*
X0104357Y0037889D02*
X0105144Y0037889D01*
X0105144Y0037891D02*
X0104357Y0037891D01*
X0104357Y0037894D02*
X0105144Y0037894D01*
X0105144Y0037896D02*
X0104357Y0037896D01*
X0104357Y0037898D02*
X0105144Y0037898D01*
X0105144Y0037901D02*
X0104357Y0037901D01*
X0104357Y0037903D02*
X0105144Y0037903D01*
X0105144Y0037906D02*
X0104357Y0037906D01*
X0104357Y0037908D02*
X0105144Y0037908D01*
X0105144Y0037911D02*
X0104357Y0037911D01*
X0104357Y0037913D02*
X0105144Y0037913D01*
X0105144Y0037916D02*
X0104357Y0037916D01*
X0104357Y0037918D02*
X0105144Y0037918D01*
X0105144Y0037920D02*
X0104357Y0037920D01*
X0104357Y0037923D02*
X0105144Y0037923D01*
X0105144Y0037925D02*
X0104357Y0037925D01*
X0104357Y0037928D02*
X0105144Y0037928D01*
X0105144Y0037930D02*
X0104357Y0037930D01*
X0104357Y0037933D02*
X0105144Y0037933D01*
X0105144Y0037935D02*
X0104357Y0037935D01*
X0104357Y0037938D02*
X0105144Y0037938D01*
X0105144Y0037940D02*
X0104357Y0037940D01*
X0104357Y0037943D02*
X0105144Y0037943D01*
X0105144Y0037945D02*
X0104357Y0037945D01*
X0104357Y0037947D02*
X0105144Y0037947D01*
X0105144Y0037950D02*
X0104357Y0037950D01*
X0104357Y0037952D02*
X0105144Y0037952D01*
X0105144Y0037955D02*
X0104357Y0037955D01*
X0104357Y0037957D02*
X0105144Y0037957D01*
X0105144Y0037960D02*
X0104357Y0037960D01*
X0104357Y0037962D02*
X0105144Y0037962D01*
X0105144Y0037965D02*
X0104357Y0037965D01*
X0104357Y0037967D02*
X0105144Y0037967D01*
X0105144Y0037969D02*
X0104357Y0037969D01*
X0104357Y0037972D02*
X0105144Y0037972D01*
X0105144Y0037974D02*
X0104357Y0037974D01*
X0104357Y0037977D02*
X0105144Y0037977D01*
X0105144Y0037979D02*
X0104357Y0037979D01*
X0104357Y0037982D02*
X0105144Y0037982D01*
X0105144Y0037984D02*
X0104357Y0037984D01*
X0104357Y0037987D02*
X0105144Y0037987D01*
X0105144Y0037989D02*
X0104357Y0037989D01*
X0104357Y0037991D02*
X0105144Y0037991D01*
X0105144Y0037994D02*
X0104357Y0037994D01*
X0104357Y0037996D02*
X0105144Y0037996D01*
X0105144Y0037999D02*
X0104357Y0037999D01*
X0104357Y0038001D02*
X0105144Y0038001D01*
X0105144Y0038004D02*
X0104357Y0038004D01*
X0104357Y0038006D02*
X0105144Y0038006D01*
X0105144Y0038009D02*
X0104357Y0038009D01*
X0104357Y0038011D02*
X0105144Y0038011D01*
X0105144Y0038014D02*
X0104357Y0038014D01*
X0104357Y0038016D02*
X0105144Y0038016D01*
X0105144Y0038018D02*
X0104357Y0038018D01*
X0104357Y0038021D02*
X0105144Y0038021D01*
X0105144Y0038023D02*
X0104357Y0038023D01*
X0104357Y0038026D02*
X0105144Y0038026D01*
X0105144Y0038028D02*
X0104357Y0038028D01*
X0104357Y0038031D02*
X0105144Y0038031D01*
X0105144Y0038033D02*
X0104357Y0038033D01*
X0104357Y0038036D02*
X0105144Y0038036D01*
X0105144Y0038038D02*
X0104357Y0038038D01*
X0104357Y0038040D02*
X0105144Y0038040D01*
X0105144Y0038043D02*
X0104357Y0038043D01*
X0104357Y0038045D02*
X0105144Y0038045D01*
X0105144Y0038048D02*
X0104357Y0038048D01*
X0104357Y0038050D02*
X0105144Y0038050D01*
X0105144Y0038053D02*
X0104357Y0038053D01*
X0104357Y0038055D02*
X0105144Y0038055D01*
X0105144Y0038058D02*
X0104357Y0038058D01*
X0104357Y0038060D02*
X0105144Y0038060D01*
X0105144Y0038062D02*
X0104357Y0038062D01*
X0104357Y0038065D02*
X0105144Y0038065D01*
X0105144Y0038067D02*
X0104357Y0038067D01*
X0104357Y0038070D02*
X0105144Y0038070D01*
X0105144Y0038072D02*
X0104357Y0038072D01*
X0104357Y0038075D02*
X0105144Y0038075D01*
X0105144Y0038077D02*
X0104357Y0038077D01*
X0104357Y0038080D02*
X0105144Y0038080D01*
X0105144Y0038082D02*
X0104357Y0038082D01*
X0104357Y0038085D02*
X0105144Y0038085D01*
X0105144Y0038087D02*
X0104357Y0038087D01*
X0104357Y0038089D02*
X0105144Y0038089D01*
X0105144Y0038092D02*
X0104357Y0038092D01*
X0104357Y0038094D02*
X0105144Y0038094D01*
X0105144Y0038097D02*
X0104357Y0038097D01*
X0104357Y0038099D02*
X0105144Y0038099D01*
X0105144Y0038102D02*
X0104357Y0038102D01*
X0104357Y0038104D02*
X0105144Y0038104D01*
X0105144Y0038107D02*
X0104357Y0038107D01*
X0104357Y0038109D02*
X0105144Y0038109D01*
X0105144Y0038111D02*
X0104357Y0038111D01*
X0104357Y0038114D02*
X0105144Y0038114D01*
X0105144Y0038116D02*
X0104357Y0038116D01*
X0104357Y0038119D02*
X0105144Y0038119D01*
X0105144Y0038121D02*
X0104357Y0038121D01*
X0104357Y0038124D02*
X0105144Y0038124D01*
X0105144Y0038126D02*
X0104357Y0038126D01*
X0104357Y0038129D02*
X0105144Y0038129D01*
X0105144Y0038131D02*
X0104357Y0038131D01*
X0104357Y0038133D02*
X0105144Y0038133D01*
X0105144Y0038136D02*
X0104357Y0038136D01*
X0104357Y0038138D02*
X0105144Y0038138D01*
X0105144Y0038141D02*
X0104357Y0038141D01*
X0104357Y0038143D02*
X0105144Y0038143D01*
X0105144Y0038146D02*
X0104357Y0038146D01*
X0104357Y0038148D02*
X0105144Y0038148D01*
X0105144Y0038151D02*
X0104357Y0038151D01*
X0104357Y0038153D02*
X0105144Y0038153D01*
X0105144Y0038156D02*
X0104357Y0038156D01*
X0104357Y0038158D02*
X0105144Y0038158D01*
X0105144Y0038160D02*
X0104357Y0038160D01*
X0104357Y0038163D02*
X0105144Y0038163D01*
X0105144Y0038165D02*
X0104357Y0038165D01*
X0104357Y0038168D02*
X0105144Y0038168D01*
X0105144Y0038170D02*
X0104357Y0038170D01*
X0104357Y0038173D02*
X0105144Y0038173D01*
X0105144Y0038175D02*
X0104357Y0038175D01*
X0104357Y0038178D02*
X0105144Y0038178D01*
X0105144Y0038180D02*
X0104357Y0038180D01*
X0104357Y0038182D02*
X0105144Y0038182D01*
X0105144Y0038185D02*
X0104357Y0038185D01*
X0104357Y0038187D02*
X0105144Y0038187D01*
X0105144Y0038190D02*
X0104357Y0038190D01*
X0104357Y0038192D02*
X0105144Y0038192D01*
X0105144Y0038195D02*
X0104357Y0038195D01*
X0104357Y0038197D02*
X0105144Y0038197D01*
X0105144Y0038200D02*
X0104357Y0038200D01*
X0104357Y0038202D02*
X0105144Y0038202D01*
X0105144Y0038204D02*
X0104357Y0038204D01*
X0104357Y0038207D02*
X0105144Y0038207D01*
X0105144Y0038209D02*
X0104357Y0038209D01*
X0104357Y0038212D02*
X0105144Y0038212D01*
X0105144Y0038214D02*
X0104357Y0038214D01*
X0104357Y0038217D02*
X0105144Y0038217D01*
X0105144Y0038219D02*
X0104357Y0038219D01*
X0104357Y0038222D02*
X0105144Y0038222D01*
X0105144Y0038224D02*
X0104357Y0038224D01*
X0104357Y0038227D02*
X0105144Y0038227D01*
X0105144Y0038229D02*
X0104357Y0038229D01*
X0104357Y0038231D02*
X0105144Y0038231D01*
X0105144Y0038234D02*
X0104357Y0038234D01*
X0104357Y0038236D02*
X0105144Y0038236D01*
X0105144Y0038239D02*
X0104357Y0038239D01*
X0104357Y0038241D02*
X0105144Y0038241D01*
X0105144Y0038244D02*
X0104357Y0038244D01*
X0104357Y0038246D02*
X0105144Y0038246D01*
X0105144Y0038249D02*
X0104357Y0038249D01*
X0104357Y0038251D02*
X0105144Y0038251D01*
X0105144Y0038253D02*
X0104357Y0038253D01*
X0104357Y0038256D02*
X0105144Y0038256D01*
X0105144Y0038258D02*
X0104357Y0038258D01*
X0104357Y0038261D02*
X0105144Y0038261D01*
X0105144Y0038263D02*
X0104357Y0038263D01*
X0104357Y0038266D02*
X0105144Y0038266D01*
X0105144Y0038268D02*
X0104357Y0038268D01*
X0104357Y0038271D02*
X0105144Y0038271D01*
X0105144Y0038273D02*
X0104357Y0038273D01*
X0104357Y0038275D02*
X0105144Y0038275D01*
X0105144Y0038278D02*
X0104357Y0038278D01*
X0104357Y0038280D02*
X0105144Y0038280D01*
X0105144Y0038283D02*
X0104357Y0038283D01*
X0104357Y0038285D02*
X0105144Y0038285D01*
X0105144Y0038288D02*
X0104357Y0038288D01*
X0104357Y0038290D02*
X0105144Y0038290D01*
X0105144Y0038293D02*
X0104357Y0038293D01*
X0104357Y0038295D02*
X0105144Y0038295D01*
X0105144Y0038298D02*
X0104357Y0038298D01*
X0104357Y0038300D02*
X0105144Y0038300D01*
X0105144Y0038302D02*
X0104357Y0038302D01*
X0104357Y0038305D02*
X0105144Y0038305D01*
X0105144Y0038307D02*
X0104357Y0038307D01*
X0104357Y0038310D02*
X0105144Y0038310D01*
X0105144Y0038312D02*
X0104357Y0038312D01*
X0104357Y0038315D02*
X0105144Y0038315D01*
X0105144Y0038317D02*
X0104357Y0038317D01*
X0104357Y0038320D02*
X0105144Y0038320D01*
X0105144Y0038322D02*
X0104357Y0038322D01*
X0104357Y0038324D02*
X0105144Y0038324D01*
X0105144Y0038327D02*
X0104357Y0038327D01*
X0104357Y0038329D02*
X0105144Y0038329D01*
X0105144Y0038332D02*
X0104357Y0038332D01*
X0104357Y0038334D02*
X0105144Y0038334D01*
X0105144Y0038337D02*
X0104357Y0038337D01*
X0104357Y0038339D02*
X0105144Y0038339D01*
X0105144Y0038342D02*
X0104357Y0038342D01*
X0104357Y0038344D02*
X0105144Y0038344D01*
X0105144Y0038346D02*
X0104357Y0038346D01*
X0104357Y0038349D02*
X0105144Y0038349D01*
X0105144Y0038351D02*
X0104357Y0038351D01*
X0104357Y0038354D02*
X0105144Y0038354D01*
X0105144Y0038356D02*
X0104357Y0038356D01*
X0104357Y0038359D02*
X0105144Y0038359D01*
X0105144Y0038361D02*
X0104357Y0038361D01*
X0104357Y0038364D02*
X0105144Y0038364D01*
X0105144Y0038366D02*
X0104357Y0038366D01*
X0104357Y0038369D02*
X0105144Y0038369D01*
X0105144Y0038371D02*
X0104357Y0038371D01*
X0104357Y0038373D02*
X0105144Y0038373D01*
X0105144Y0038376D02*
X0104357Y0038376D01*
X0104357Y0038378D02*
X0105144Y0038378D01*
X0105144Y0038381D02*
X0104357Y0038381D01*
X0104357Y0038383D02*
X0105144Y0038383D01*
X0105144Y0038386D02*
X0104357Y0038386D01*
X0104357Y0038388D02*
X0105144Y0038388D01*
X0105144Y0038391D02*
X0104357Y0038391D01*
X0104357Y0038393D02*
X0105144Y0038393D01*
D11*
X0106329Y0049515D02*
X0106329Y0193515D01*
X0128329Y0193515D01*
X0128329Y0049515D01*
X0119829Y0049515D01*
X0119827Y0049613D01*
X0119821Y0049711D01*
X0119812Y0049809D01*
X0119798Y0049906D01*
X0119781Y0050003D01*
X0119760Y0050099D01*
X0119735Y0050194D01*
X0119707Y0050288D01*
X0119674Y0050380D01*
X0119639Y0050472D01*
X0119599Y0050562D01*
X0119557Y0050650D01*
X0119510Y0050737D01*
X0119461Y0050821D01*
X0119408Y0050904D01*
X0119352Y0050984D01*
X0119292Y0051063D01*
X0119230Y0051139D01*
X0119165Y0051212D01*
X0119097Y0051283D01*
X0119026Y0051351D01*
X0118953Y0051416D01*
X0118877Y0051478D01*
X0118798Y0051538D01*
X0118718Y0051594D01*
X0118635Y0051647D01*
X0118551Y0051696D01*
X0118464Y0051743D01*
X0118376Y0051785D01*
X0118286Y0051825D01*
X0118194Y0051860D01*
X0118102Y0051893D01*
X0118008Y0051921D01*
X0117913Y0051946D01*
X0117817Y0051967D01*
X0117720Y0051984D01*
X0117623Y0051998D01*
X0117525Y0052007D01*
X0117427Y0052013D01*
X0117329Y0052015D01*
X0117231Y0052013D01*
X0117133Y0052007D01*
X0117035Y0051998D01*
X0116938Y0051984D01*
X0116841Y0051967D01*
X0116745Y0051946D01*
X0116650Y0051921D01*
X0116556Y0051893D01*
X0116464Y0051860D01*
X0116372Y0051825D01*
X0116282Y0051785D01*
X0116194Y0051743D01*
X0116107Y0051696D01*
X0116023Y0051647D01*
X0115940Y0051594D01*
X0115860Y0051538D01*
X0115781Y0051478D01*
X0115705Y0051416D01*
X0115632Y0051351D01*
X0115561Y0051283D01*
X0115493Y0051212D01*
X0115428Y0051139D01*
X0115366Y0051063D01*
X0115306Y0050984D01*
X0115250Y0050904D01*
X0115197Y0050821D01*
X0115148Y0050737D01*
X0115101Y0050650D01*
X0115059Y0050562D01*
X0115019Y0050472D01*
X0114984Y0050380D01*
X0114951Y0050288D01*
X0114923Y0050194D01*
X0114898Y0050099D01*
X0114877Y0050003D01*
X0114860Y0049906D01*
X0114846Y0049809D01*
X0114837Y0049711D01*
X0114831Y0049613D01*
X0114829Y0049515D01*
X0106329Y0049515D01*
X0111888Y0060737D02*
X0111888Y0062872D01*
X0111888Y0061805D02*
X0118293Y0061805D01*
X0118293Y0062872D02*
X0118293Y0060737D01*
X0117225Y0065034D02*
X0118293Y0066102D01*
X0118293Y0068237D01*
X0117225Y0069304D01*
X0116158Y0069304D01*
X0115090Y0068237D01*
X0115090Y0066102D01*
X0114023Y0065034D01*
X0112955Y0065034D01*
X0111888Y0066102D01*
X0111888Y0068237D01*
X0112955Y0069304D01*
X0111888Y0071479D02*
X0111888Y0074682D01*
X0112955Y0075750D01*
X0115090Y0075750D01*
X0116158Y0074682D01*
X0116158Y0071479D01*
X0118293Y0071479D02*
X0111888Y0071479D01*
X0118293Y0077925D02*
X0111888Y0082195D01*
X0111888Y0084370D02*
X0118293Y0084370D01*
X0115090Y0084370D02*
X0115090Y0088641D01*
X0116158Y0090816D02*
X0111888Y0090816D01*
X0111888Y0088641D02*
X0118293Y0088641D01*
X0116158Y0090816D02*
X0118293Y0092951D01*
X0116158Y0095086D01*
X0111888Y0095086D01*
X0111888Y0097261D02*
X0111888Y0100464D01*
X0112955Y0101531D01*
X0115090Y0101531D01*
X0116158Y0100464D01*
X0116158Y0097261D01*
X0118293Y0097261D02*
X0111888Y0097261D01*
X0112955Y0110152D02*
X0114023Y0110152D01*
X0115090Y0111220D01*
X0115090Y0113355D01*
X0116158Y0114422D01*
X0117225Y0114422D01*
X0118293Y0113355D01*
X0118293Y0111220D01*
X0117225Y0110152D01*
X0112955Y0110152D02*
X0111888Y0111220D01*
X0111888Y0113355D01*
X0112955Y0114422D01*
X0111888Y0116597D02*
X0118293Y0116597D01*
X0115090Y0116597D02*
X0114023Y0117665D01*
X0114023Y0119800D01*
X0115090Y0120868D01*
X0118293Y0120868D01*
X0118293Y0123043D02*
X0118293Y0125178D01*
X0118293Y0124110D02*
X0114023Y0124110D01*
X0114023Y0123043D01*
X0111888Y0124110D02*
X0110820Y0124110D01*
X0115090Y0127340D02*
X0114023Y0128407D01*
X0114023Y0130543D01*
X0115090Y0131610D01*
X0116158Y0131610D01*
X0116158Y0127340D01*
X0117225Y0127340D02*
X0115090Y0127340D01*
X0117225Y0127340D02*
X0118293Y0128407D01*
X0118293Y0130543D01*
X0118293Y0133785D02*
X0118293Y0135920D01*
X0118293Y0134853D02*
X0111888Y0134853D01*
X0111888Y0133785D01*
X0115090Y0138082D02*
X0114023Y0139150D01*
X0114023Y0142352D01*
X0111888Y0142352D02*
X0118293Y0142352D01*
X0118293Y0139150D01*
X0117225Y0138082D01*
X0115090Y0138082D01*
X0152089Y0121500D02*
X0159589Y0121500D01*
X0159591Y0121626D01*
X0159597Y0121751D01*
X0159607Y0121876D01*
X0159621Y0122001D01*
X0159638Y0122126D01*
X0159660Y0122250D01*
X0159685Y0122373D01*
X0159715Y0122495D01*
X0159748Y0122616D01*
X0159785Y0122736D01*
X0159825Y0122855D01*
X0159870Y0122972D01*
X0159918Y0123089D01*
X0159970Y0123203D01*
X0160025Y0123316D01*
X0160084Y0123427D01*
X0160146Y0123536D01*
X0160212Y0123643D01*
X0160281Y0123748D01*
X0160353Y0123851D01*
X0160428Y0123952D01*
X0160507Y0124050D01*
X0160589Y0124145D01*
X0160673Y0124238D01*
X0160761Y0124328D01*
X0160851Y0124416D01*
X0160944Y0124500D01*
X0161039Y0124582D01*
X0161137Y0124661D01*
X0161238Y0124736D01*
X0161341Y0124808D01*
X0161446Y0124877D01*
X0161553Y0124943D01*
X0161662Y0125005D01*
X0161773Y0125064D01*
X0161886Y0125119D01*
X0162000Y0125171D01*
X0162117Y0125219D01*
X0162234Y0125264D01*
X0162353Y0125304D01*
X0162473Y0125341D01*
X0162594Y0125374D01*
X0162716Y0125404D01*
X0162839Y0125429D01*
X0162963Y0125451D01*
X0163088Y0125468D01*
X0163213Y0125482D01*
X0163338Y0125492D01*
X0163463Y0125498D01*
X0163589Y0125500D01*
X0163715Y0125498D01*
X0163840Y0125492D01*
X0163965Y0125482D01*
X0164090Y0125468D01*
X0164215Y0125451D01*
X0164339Y0125429D01*
X0164462Y0125404D01*
X0164584Y0125374D01*
X0164705Y0125341D01*
X0164825Y0125304D01*
X0164944Y0125264D01*
X0165061Y0125219D01*
X0165178Y0125171D01*
X0165292Y0125119D01*
X0165405Y0125064D01*
X0165516Y0125005D01*
X0165625Y0124943D01*
X0165732Y0124877D01*
X0165837Y0124808D01*
X0165940Y0124736D01*
X0166041Y0124661D01*
X0166139Y0124582D01*
X0166234Y0124500D01*
X0166327Y0124416D01*
X0166417Y0124328D01*
X0166505Y0124238D01*
X0166589Y0124145D01*
X0166671Y0124050D01*
X0166750Y0123952D01*
X0166825Y0123851D01*
X0166897Y0123748D01*
X0166966Y0123643D01*
X0167032Y0123536D01*
X0167094Y0123427D01*
X0167153Y0123316D01*
X0167208Y0123203D01*
X0167260Y0123089D01*
X0167308Y0122972D01*
X0167353Y0122855D01*
X0167393Y0122736D01*
X0167430Y0122616D01*
X0167463Y0122495D01*
X0167493Y0122373D01*
X0167518Y0122250D01*
X0167540Y0122126D01*
X0167557Y0122001D01*
X0167571Y0121876D01*
X0167581Y0121751D01*
X0167587Y0121626D01*
X0167589Y0121500D01*
X0175089Y0121500D01*
X0175089Y0191500D01*
X0152089Y0191500D01*
X0152089Y0121500D01*
X0152589Y0111500D02*
X0152589Y0071500D01*
X0161089Y0071500D01*
X0161091Y0071598D01*
X0161097Y0071696D01*
X0161106Y0071794D01*
X0161120Y0071891D01*
X0161137Y0071988D01*
X0161158Y0072084D01*
X0161183Y0072179D01*
X0161211Y0072273D01*
X0161244Y0072365D01*
X0161279Y0072457D01*
X0161319Y0072547D01*
X0161361Y0072635D01*
X0161408Y0072722D01*
X0161457Y0072806D01*
X0161510Y0072889D01*
X0161566Y0072969D01*
X0161626Y0073048D01*
X0161688Y0073124D01*
X0161753Y0073197D01*
X0161821Y0073268D01*
X0161892Y0073336D01*
X0161965Y0073401D01*
X0162041Y0073463D01*
X0162120Y0073523D01*
X0162200Y0073579D01*
X0162283Y0073632D01*
X0162367Y0073681D01*
X0162454Y0073728D01*
X0162542Y0073770D01*
X0162632Y0073810D01*
X0162724Y0073845D01*
X0162816Y0073878D01*
X0162910Y0073906D01*
X0163005Y0073931D01*
X0163101Y0073952D01*
X0163198Y0073969D01*
X0163295Y0073983D01*
X0163393Y0073992D01*
X0163491Y0073998D01*
X0163589Y0074000D01*
X0163687Y0073998D01*
X0163785Y0073992D01*
X0163883Y0073983D01*
X0163980Y0073969D01*
X0164077Y0073952D01*
X0164173Y0073931D01*
X0164268Y0073906D01*
X0164362Y0073878D01*
X0164454Y0073845D01*
X0164546Y0073810D01*
X0164636Y0073770D01*
X0164724Y0073728D01*
X0164811Y0073681D01*
X0164895Y0073632D01*
X0164978Y0073579D01*
X0165058Y0073523D01*
X0165137Y0073463D01*
X0165213Y0073401D01*
X0165286Y0073336D01*
X0165357Y0073268D01*
X0165425Y0073197D01*
X0165490Y0073124D01*
X0165552Y0073048D01*
X0165612Y0072969D01*
X0165668Y0072889D01*
X0165721Y0072806D01*
X0165770Y0072722D01*
X0165817Y0072635D01*
X0165859Y0072547D01*
X0165899Y0072457D01*
X0165934Y0072365D01*
X0165967Y0072273D01*
X0165995Y0072179D01*
X0166020Y0072084D01*
X0166041Y0071988D01*
X0166058Y0071891D01*
X0166072Y0071794D01*
X0166081Y0071696D01*
X0166087Y0071598D01*
X0166089Y0071500D01*
X0174589Y0071500D01*
X0174589Y0111500D01*
X0152589Y0111500D01*
X0202589Y0089500D02*
X0202589Y0193500D01*
X0224589Y0193500D01*
X0224589Y0089500D01*
X0216089Y0089500D01*
X0216087Y0089598D01*
X0216081Y0089696D01*
X0216072Y0089794D01*
X0216058Y0089891D01*
X0216041Y0089988D01*
X0216020Y0090084D01*
X0215995Y0090179D01*
X0215967Y0090273D01*
X0215934Y0090365D01*
X0215899Y0090457D01*
X0215859Y0090547D01*
X0215817Y0090635D01*
X0215770Y0090722D01*
X0215721Y0090806D01*
X0215668Y0090889D01*
X0215612Y0090969D01*
X0215552Y0091048D01*
X0215490Y0091124D01*
X0215425Y0091197D01*
X0215357Y0091268D01*
X0215286Y0091336D01*
X0215213Y0091401D01*
X0215137Y0091463D01*
X0215058Y0091523D01*
X0214978Y0091579D01*
X0214895Y0091632D01*
X0214811Y0091681D01*
X0214724Y0091728D01*
X0214636Y0091770D01*
X0214546Y0091810D01*
X0214454Y0091845D01*
X0214362Y0091878D01*
X0214268Y0091906D01*
X0214173Y0091931D01*
X0214077Y0091952D01*
X0213980Y0091969D01*
X0213883Y0091983D01*
X0213785Y0091992D01*
X0213687Y0091998D01*
X0213589Y0092000D01*
X0213491Y0091998D01*
X0213393Y0091992D01*
X0213295Y0091983D01*
X0213198Y0091969D01*
X0213101Y0091952D01*
X0213005Y0091931D01*
X0212910Y0091906D01*
X0212816Y0091878D01*
X0212724Y0091845D01*
X0212632Y0091810D01*
X0212542Y0091770D01*
X0212454Y0091728D01*
X0212367Y0091681D01*
X0212283Y0091632D01*
X0212200Y0091579D01*
X0212120Y0091523D01*
X0212041Y0091463D01*
X0211965Y0091401D01*
X0211892Y0091336D01*
X0211821Y0091268D01*
X0211753Y0091197D01*
X0211688Y0091124D01*
X0211626Y0091048D01*
X0211566Y0090969D01*
X0211510Y0090889D01*
X0211457Y0090806D01*
X0211408Y0090722D01*
X0211361Y0090635D01*
X0211319Y0090547D01*
X0211279Y0090457D01*
X0211244Y0090365D01*
X0211211Y0090273D01*
X0211183Y0090179D01*
X0211158Y0090084D01*
X0211137Y0089988D01*
X0211120Y0089891D01*
X0211106Y0089794D01*
X0211097Y0089696D01*
X0211091Y0089598D01*
X0211089Y0089500D01*
X0202589Y0089500D01*
X0182644Y0064815D02*
X0174644Y0064815D01*
X0173644Y0063815D01*
X0172644Y0064815D01*
X0164644Y0064815D01*
X0163644Y0063815D01*
X0162644Y0064815D01*
X0154644Y0064815D01*
X0153644Y0063815D01*
X0153644Y0055815D01*
X0154644Y0054815D01*
X0162644Y0054815D01*
X0163644Y0055815D01*
X0164644Y0054815D01*
X0172644Y0054815D01*
X0173644Y0055815D01*
X0174644Y0054815D01*
X0182644Y0054815D01*
X0183644Y0055815D01*
X0183644Y0063815D01*
X0182644Y0064815D01*
X0192644Y0054515D02*
X0192644Y0042115D01*
X0192646Y0042039D01*
X0192652Y0041963D01*
X0192661Y0041888D01*
X0192675Y0041813D01*
X0192692Y0041739D01*
X0192713Y0041666D01*
X0192737Y0041594D01*
X0192766Y0041523D01*
X0192797Y0041454D01*
X0192832Y0041387D01*
X0192871Y0041322D01*
X0192913Y0041258D01*
X0192958Y0041197D01*
X0193006Y0041138D01*
X0193057Y0041082D01*
X0193111Y0041028D01*
X0193167Y0040977D01*
X0193226Y0040929D01*
X0193287Y0040884D01*
X0193351Y0040842D01*
X0193416Y0040803D01*
X0193483Y0040768D01*
X0193552Y0040737D01*
X0193623Y0040708D01*
X0193695Y0040684D01*
X0193768Y0040663D01*
X0193842Y0040646D01*
X0193917Y0040632D01*
X0193992Y0040623D01*
X0194068Y0040617D01*
X0194144Y0040615D01*
X0183644Y0038315D02*
X0183644Y0046315D01*
X0182644Y0047315D01*
X0174644Y0047315D01*
X0173644Y0046315D01*
X0172644Y0047315D01*
X0164644Y0047315D01*
X0163644Y0046315D01*
X0162644Y0047315D01*
X0154644Y0047315D01*
X0153644Y0046315D01*
X0153644Y0038315D01*
X0154644Y0037315D01*
X0162644Y0037315D01*
X0163644Y0038315D01*
X0164644Y0037315D01*
X0172644Y0037315D01*
X0173644Y0038315D01*
X0174644Y0037315D01*
X0182644Y0037315D01*
X0183644Y0038315D01*
X0192644Y0054515D02*
X0192646Y0054591D01*
X0192652Y0054667D01*
X0192661Y0054742D01*
X0192675Y0054817D01*
X0192692Y0054891D01*
X0192713Y0054964D01*
X0192737Y0055036D01*
X0192766Y0055107D01*
X0192797Y0055176D01*
X0192832Y0055243D01*
X0192871Y0055308D01*
X0192913Y0055372D01*
X0192958Y0055433D01*
X0193006Y0055492D01*
X0193057Y0055548D01*
X0193111Y0055602D01*
X0193167Y0055653D01*
X0193226Y0055701D01*
X0193287Y0055746D01*
X0193351Y0055788D01*
X0193416Y0055827D01*
X0193483Y0055862D01*
X0193552Y0055893D01*
X0193623Y0055922D01*
X0193695Y0055946D01*
X0193768Y0055967D01*
X0193842Y0055984D01*
X0193917Y0055998D01*
X0193992Y0056007D01*
X0194068Y0056013D01*
X0194144Y0056015D01*
X0231144Y0056015D02*
X0231220Y0056013D01*
X0231296Y0056007D01*
X0231371Y0055998D01*
X0231446Y0055984D01*
X0231520Y0055967D01*
X0231593Y0055946D01*
X0231665Y0055922D01*
X0231736Y0055893D01*
X0231805Y0055862D01*
X0231872Y0055827D01*
X0231937Y0055788D01*
X0232001Y0055746D01*
X0232062Y0055701D01*
X0232121Y0055653D01*
X0232177Y0055602D01*
X0232231Y0055548D01*
X0232282Y0055492D01*
X0232330Y0055433D01*
X0232375Y0055372D01*
X0232417Y0055308D01*
X0232456Y0055243D01*
X0232491Y0055176D01*
X0232522Y0055107D01*
X0232551Y0055036D01*
X0232575Y0054964D01*
X0232596Y0054891D01*
X0232613Y0054817D01*
X0232627Y0054742D01*
X0232636Y0054667D01*
X0232642Y0054591D01*
X0232644Y0054515D01*
X0232644Y0050315D01*
X0232644Y0046315D01*
X0232644Y0042115D01*
X0232642Y0042039D01*
X0232636Y0041963D01*
X0232627Y0041888D01*
X0232613Y0041813D01*
X0232596Y0041739D01*
X0232575Y0041666D01*
X0232551Y0041594D01*
X0232522Y0041523D01*
X0232491Y0041454D01*
X0232456Y0041387D01*
X0232417Y0041322D01*
X0232375Y0041258D01*
X0232330Y0041197D01*
X0232282Y0041138D01*
X0232231Y0041082D01*
X0232177Y0041028D01*
X0232121Y0040977D01*
X0232062Y0040929D01*
X0232001Y0040884D01*
X0231937Y0040842D01*
X0231872Y0040803D01*
X0231805Y0040768D01*
X0231736Y0040737D01*
X0231665Y0040708D01*
X0231593Y0040684D01*
X0231520Y0040663D01*
X0231446Y0040646D01*
X0231371Y0040632D01*
X0231296Y0040623D01*
X0231220Y0040617D01*
X0231144Y0040615D01*
X0232644Y0046315D02*
X0232556Y0046317D01*
X0232467Y0046323D01*
X0232379Y0046333D01*
X0232292Y0046346D01*
X0232205Y0046364D01*
X0232119Y0046385D01*
X0232034Y0046410D01*
X0231951Y0046439D01*
X0231868Y0046472D01*
X0231788Y0046508D01*
X0231709Y0046547D01*
X0231631Y0046590D01*
X0231556Y0046637D01*
X0231483Y0046687D01*
X0231412Y0046740D01*
X0231343Y0046796D01*
X0231277Y0046855D01*
X0231214Y0046917D01*
X0231154Y0046981D01*
X0231096Y0047048D01*
X0231042Y0047118D01*
X0230990Y0047190D01*
X0230942Y0047264D01*
X0230897Y0047341D01*
X0230856Y0047419D01*
X0230818Y0047499D01*
X0230784Y0047580D01*
X0230753Y0047663D01*
X0230726Y0047748D01*
X0230703Y0047833D01*
X0230684Y0047919D01*
X0230668Y0048007D01*
X0230656Y0048094D01*
X0230648Y0048182D01*
X0230644Y0048271D01*
X0230644Y0048359D01*
X0230648Y0048448D01*
X0230656Y0048536D01*
X0230668Y0048623D01*
X0230684Y0048711D01*
X0230703Y0048797D01*
X0230726Y0048882D01*
X0230753Y0048967D01*
X0230784Y0049050D01*
X0230818Y0049131D01*
X0230856Y0049211D01*
X0230897Y0049289D01*
X0230942Y0049366D01*
X0230990Y0049440D01*
X0231042Y0049512D01*
X0231096Y0049582D01*
X0231154Y0049649D01*
X0231214Y0049713D01*
X0231277Y0049775D01*
X0231343Y0049834D01*
X0231412Y0049890D01*
X0231483Y0049943D01*
X0231556Y0049993D01*
X0231631Y0050040D01*
X0231709Y0050083D01*
X0231788Y0050122D01*
X0231868Y0050158D01*
X0231951Y0050191D01*
X0232034Y0050220D01*
X0232119Y0050245D01*
X0232205Y0050266D01*
X0232292Y0050284D01*
X0232379Y0050297D01*
X0232467Y0050307D01*
X0232556Y0050313D01*
X0232644Y0050315D01*
X0240144Y0067815D02*
X0240144Y0069815D01*
X0241144Y0068815D02*
X0239144Y0068815D01*
X0260144Y0068815D02*
X0262144Y0068815D01*
X0261144Y0069815D02*
X0261144Y0067815D01*
X0261089Y0089500D02*
X0252589Y0089500D01*
X0252589Y0193500D01*
X0274589Y0193500D01*
X0274589Y0089500D01*
X0266089Y0089500D01*
X0266087Y0089598D01*
X0266081Y0089696D01*
X0266072Y0089794D01*
X0266058Y0089891D01*
X0266041Y0089988D01*
X0266020Y0090084D01*
X0265995Y0090179D01*
X0265967Y0090273D01*
X0265934Y0090365D01*
X0265899Y0090457D01*
X0265859Y0090547D01*
X0265817Y0090635D01*
X0265770Y0090722D01*
X0265721Y0090806D01*
X0265668Y0090889D01*
X0265612Y0090969D01*
X0265552Y0091048D01*
X0265490Y0091124D01*
X0265425Y0091197D01*
X0265357Y0091268D01*
X0265286Y0091336D01*
X0265213Y0091401D01*
X0265137Y0091463D01*
X0265058Y0091523D01*
X0264978Y0091579D01*
X0264895Y0091632D01*
X0264811Y0091681D01*
X0264724Y0091728D01*
X0264636Y0091770D01*
X0264546Y0091810D01*
X0264454Y0091845D01*
X0264362Y0091878D01*
X0264268Y0091906D01*
X0264173Y0091931D01*
X0264077Y0091952D01*
X0263980Y0091969D01*
X0263883Y0091983D01*
X0263785Y0091992D01*
X0263687Y0091998D01*
X0263589Y0092000D01*
X0263491Y0091998D01*
X0263393Y0091992D01*
X0263295Y0091983D01*
X0263198Y0091969D01*
X0263101Y0091952D01*
X0263005Y0091931D01*
X0262910Y0091906D01*
X0262816Y0091878D01*
X0262724Y0091845D01*
X0262632Y0091810D01*
X0262542Y0091770D01*
X0262454Y0091728D01*
X0262367Y0091681D01*
X0262283Y0091632D01*
X0262200Y0091579D01*
X0262120Y0091523D01*
X0262041Y0091463D01*
X0261965Y0091401D01*
X0261892Y0091336D01*
X0261821Y0091268D01*
X0261753Y0091197D01*
X0261688Y0091124D01*
X0261626Y0091048D01*
X0261566Y0090969D01*
X0261510Y0090889D01*
X0261457Y0090806D01*
X0261408Y0090722D01*
X0261361Y0090635D01*
X0261319Y0090547D01*
X0261279Y0090457D01*
X0261244Y0090365D01*
X0261211Y0090273D01*
X0261183Y0090179D01*
X0261158Y0090084D01*
X0261137Y0089988D01*
X0261120Y0089891D01*
X0261106Y0089794D01*
X0261097Y0089696D01*
X0261091Y0089598D01*
X0261089Y0089500D01*
X0139459Y0024500D02*
X0137459Y0024500D01*
X0138459Y0023500D02*
X0138459Y0025500D01*
D12*
X0156344Y0026602D02*
X0157545Y0027803D01*
X0157545Y0024200D01*
X0156344Y0024200D02*
X0158746Y0024200D01*
X0160027Y0026002D02*
X0162429Y0026002D01*
X0161228Y0027203D02*
X0161228Y0024801D01*
X0163710Y0024200D02*
X0166112Y0026602D01*
X0166112Y0027203D01*
X0165512Y0027803D01*
X0164311Y0027803D01*
X0163710Y0027203D01*
X0163710Y0024200D02*
X0166112Y0024200D01*
X0165512Y0021803D02*
X0166112Y0021203D01*
X0166112Y0020602D01*
X0165512Y0020002D01*
X0166112Y0019401D01*
X0166112Y0018801D01*
X0165512Y0018200D01*
X0164311Y0018200D01*
X0163710Y0018801D01*
X0164911Y0020002D02*
X0165512Y0020002D01*
X0165512Y0021803D02*
X0164311Y0021803D01*
X0163710Y0021203D01*
X0162429Y0020002D02*
X0160027Y0020002D01*
X0158746Y0020602D02*
X0158746Y0021203D01*
X0158146Y0021803D01*
X0156945Y0021803D01*
X0156344Y0021203D01*
X0158746Y0020602D02*
X0156344Y0018200D01*
X0158746Y0018200D01*
X0161228Y0018801D02*
X0161228Y0021203D01*
X0171077Y0020602D02*
X0173479Y0020602D01*
X0173479Y0019401D02*
X0171077Y0019401D01*
X0178443Y0020002D02*
X0180845Y0020002D01*
X0182126Y0019401D02*
X0183327Y0018200D01*
X0184528Y0019401D01*
X0184528Y0021803D01*
X0185809Y0021803D02*
X0187611Y0021803D01*
X0188211Y0021203D01*
X0188211Y0020002D01*
X0187611Y0019401D01*
X0185809Y0019401D01*
X0185809Y0018200D02*
X0185809Y0021803D01*
X0184582Y0024200D02*
X0184582Y0027803D01*
X0186383Y0027803D01*
X0186984Y0027203D01*
X0186984Y0026002D01*
X0186383Y0025401D01*
X0184582Y0025401D01*
X0183300Y0025401D02*
X0183300Y0024801D01*
X0182700Y0024200D01*
X0181499Y0024200D01*
X0180898Y0024801D01*
X0181499Y0026002D02*
X0182700Y0026002D01*
X0183300Y0025401D01*
X0183300Y0027203D02*
X0182700Y0027803D01*
X0181499Y0027803D01*
X0180898Y0027203D01*
X0180898Y0026602D01*
X0181499Y0026002D01*
X0179644Y0027803D02*
X0178443Y0027803D01*
X0179043Y0027803D02*
X0179043Y0024200D01*
X0178443Y0024200D02*
X0179644Y0024200D01*
X0180845Y0021803D02*
X0180845Y0018200D01*
X0182126Y0019401D02*
X0182126Y0021803D01*
X0178443Y0021803D02*
X0178443Y0018200D01*
X0173479Y0025401D02*
X0171077Y0025401D01*
X0171077Y0026602D02*
X0173479Y0026602D01*
X0211841Y0094700D02*
X0215444Y0094700D01*
X0214243Y0094700D02*
X0211841Y0097102D01*
X0213042Y0098984D02*
X0213042Y0100185D01*
X0213643Y0100785D01*
X0215444Y0100785D01*
X0215444Y0098984D01*
X0214844Y0098383D01*
X0214243Y0098984D01*
X0214243Y0100785D01*
X0213042Y0102066D02*
X0213042Y0102667D01*
X0215444Y0102667D01*
X0215444Y0103267D02*
X0215444Y0102066D01*
X0211841Y0102667D02*
X0211241Y0102667D01*
X0212442Y0108205D02*
X0214844Y0108205D01*
X0215444Y0108805D01*
X0215444Y0110006D01*
X0214844Y0110607D01*
X0214844Y0111888D02*
X0214844Y0112489D01*
X0215444Y0112489D01*
X0215444Y0111888D01*
X0214844Y0111888D01*
X0212442Y0110607D02*
X0211841Y0110006D01*
X0211841Y0108805D01*
X0212442Y0108205D01*
X0211841Y0117413D02*
X0211841Y0119214D01*
X0212442Y0119815D01*
X0213042Y0119815D01*
X0213643Y0119214D01*
X0213643Y0117413D01*
X0215444Y0117413D02*
X0215444Y0119214D01*
X0214844Y0119815D01*
X0214243Y0119815D01*
X0213643Y0119214D01*
X0214844Y0121096D02*
X0214243Y0121696D01*
X0214243Y0123498D01*
X0213643Y0123498D02*
X0215444Y0123498D01*
X0215444Y0121696D01*
X0214844Y0121096D01*
X0213042Y0121696D02*
X0213042Y0122897D01*
X0213643Y0123498D01*
X0213643Y0124779D02*
X0213042Y0125380D01*
X0213042Y0127181D01*
X0211841Y0127181D02*
X0215444Y0127181D01*
X0215444Y0125380D01*
X0214844Y0124779D01*
X0213643Y0124779D01*
X0213643Y0128462D02*
X0213042Y0129063D01*
X0213042Y0130264D01*
X0213643Y0130864D01*
X0214243Y0130864D01*
X0214243Y0128462D01*
X0213643Y0128462D02*
X0214844Y0128462D01*
X0215444Y0129063D01*
X0215444Y0130264D01*
X0215444Y0132145D02*
X0213042Y0132145D01*
X0214243Y0132145D02*
X0213042Y0133346D01*
X0213042Y0133947D01*
X0211841Y0117413D02*
X0215444Y0117413D01*
X0215444Y0097102D02*
X0213643Y0095301D01*
X0212442Y0149947D02*
X0214844Y0149947D01*
X0215444Y0150548D01*
X0215444Y0151749D01*
X0214844Y0152349D01*
X0214844Y0153630D02*
X0215444Y0154231D01*
X0215444Y0155432D01*
X0214844Y0156032D01*
X0213643Y0157313D02*
X0213643Y0159715D01*
X0213643Y0160997D02*
X0213643Y0162798D01*
X0214243Y0163399D01*
X0214844Y0163399D01*
X0215444Y0162798D01*
X0215444Y0160997D01*
X0211841Y0160997D01*
X0211841Y0162798D01*
X0212442Y0163399D01*
X0213042Y0163399D01*
X0213643Y0162798D01*
X0212442Y0164680D02*
X0213643Y0165881D01*
X0215444Y0165881D01*
X0213643Y0165881D02*
X0212442Y0167082D01*
X0211841Y0167082D01*
X0213643Y0168363D02*
X0213643Y0170765D01*
X0213042Y0172046D02*
X0213643Y0172647D01*
X0213643Y0173848D01*
X0214243Y0174448D01*
X0214844Y0174448D01*
X0215444Y0173848D01*
X0215444Y0172647D01*
X0214844Y0172046D01*
X0213042Y0172046D02*
X0212442Y0172046D01*
X0211841Y0172647D01*
X0211841Y0173848D01*
X0212442Y0174448D01*
X0213042Y0175729D02*
X0211841Y0176930D01*
X0213042Y0178131D01*
X0215444Y0178131D01*
X0213643Y0178131D02*
X0213643Y0175729D01*
X0213042Y0175729D02*
X0215444Y0175729D01*
X0214844Y0183095D02*
X0215444Y0183696D01*
X0215444Y0184897D01*
X0214844Y0185498D01*
X0214243Y0185498D01*
X0213643Y0184897D01*
X0213643Y0184296D01*
X0213643Y0184897D02*
X0213042Y0185498D01*
X0212442Y0185498D01*
X0211841Y0184897D01*
X0211841Y0183696D01*
X0212442Y0183095D01*
X0214844Y0186779D02*
X0214844Y0187379D01*
X0215444Y0187379D01*
X0215444Y0186779D01*
X0214844Y0186779D01*
X0214844Y0188620D02*
X0212442Y0188620D01*
X0211841Y0189221D01*
X0211841Y0190422D01*
X0212442Y0191022D01*
X0214844Y0188620D01*
X0215444Y0189221D01*
X0215444Y0190422D01*
X0214844Y0191022D01*
X0212442Y0191022D01*
X0212442Y0164680D02*
X0211841Y0164680D01*
X0212442Y0156032D02*
X0211841Y0155432D01*
X0211841Y0154231D01*
X0212442Y0153630D01*
X0214844Y0153630D01*
X0212442Y0152349D02*
X0211841Y0151749D01*
X0211841Y0150548D01*
X0212442Y0149947D01*
X0114889Y0149557D02*
X0113688Y0148356D01*
X0113688Y0148957D02*
X0113688Y0147155D01*
X0114889Y0147155D02*
X0111286Y0147155D01*
X0111286Y0148957D01*
X0111886Y0149557D01*
X0113087Y0149557D01*
X0113688Y0148957D01*
X0113688Y0150839D02*
X0113688Y0153241D01*
X0113087Y0153241D01*
X0112487Y0152640D01*
X0112487Y0151439D01*
X0113087Y0150839D01*
X0114288Y0150839D01*
X0114889Y0151439D01*
X0114889Y0152640D01*
X0112487Y0154522D02*
X0114889Y0155723D01*
X0112487Y0156924D01*
X0111886Y0161888D02*
X0111286Y0162489D01*
X0111286Y0163690D01*
X0111886Y0164290D01*
X0112487Y0164290D01*
X0114889Y0161888D01*
X0114889Y0164290D01*
X0114889Y0165571D02*
X0114889Y0166172D01*
X0114288Y0166172D01*
X0114288Y0165571D01*
X0114889Y0165571D01*
X0114288Y0167413D02*
X0111886Y0167413D01*
X0111286Y0168013D01*
X0111286Y0169214D01*
X0111886Y0169815D01*
X0114288Y0167413D01*
X0114889Y0168013D01*
X0114889Y0169214D01*
X0114288Y0169815D01*
X0111886Y0169815D01*
X0111286Y0171096D02*
X0112487Y0172297D01*
X0113688Y0172297D01*
X0114889Y0171096D01*
X0114889Y0145901D02*
X0113688Y0144700D01*
X0112487Y0144700D01*
X0111286Y0145901D01*
D13*
X0159995Y0053068D02*
X0159995Y0049465D01*
X0158794Y0049465D02*
X0161196Y0049465D01*
X0158794Y0051867D02*
X0159995Y0053068D01*
X0168794Y0052467D02*
X0169395Y0053068D01*
X0170596Y0053068D01*
X0171196Y0052467D01*
X0171196Y0051867D01*
X0168794Y0049465D01*
X0171196Y0049465D01*
X0178794Y0050065D02*
X0179395Y0049465D01*
X0180596Y0049465D01*
X0181196Y0050065D01*
X0181196Y0050666D01*
X0180596Y0051266D01*
X0179995Y0051266D01*
X0180596Y0051266D02*
X0181196Y0051867D01*
X0181196Y0052467D01*
X0180596Y0053068D01*
X0179395Y0053068D01*
X0178794Y0052467D01*
X0179395Y0035568D02*
X0178794Y0034967D01*
X0179395Y0035568D02*
X0180596Y0035568D01*
X0181196Y0034967D01*
X0181196Y0034367D01*
X0180596Y0033766D01*
X0181196Y0033166D01*
X0181196Y0032565D01*
X0180596Y0031965D01*
X0179395Y0031965D01*
X0178794Y0032565D01*
X0179995Y0033766D02*
X0180596Y0033766D01*
X0171196Y0034367D02*
X0171196Y0034967D01*
X0170596Y0035568D01*
X0169395Y0035568D01*
X0168794Y0034967D01*
X0171196Y0034367D02*
X0168794Y0031965D01*
X0171196Y0031965D01*
X0161196Y0031965D02*
X0158794Y0031965D01*
X0159995Y0031965D02*
X0159995Y0035568D01*
X0158794Y0034367D01*
D14*
X0135459Y0028500D02*
X0135462Y0028745D01*
X0135471Y0028991D01*
X0135486Y0029236D01*
X0135507Y0029480D01*
X0135534Y0029724D01*
X0135567Y0029967D01*
X0135606Y0030210D01*
X0135651Y0030451D01*
X0135702Y0030691D01*
X0135759Y0030930D01*
X0135821Y0031167D01*
X0135890Y0031403D01*
X0135964Y0031637D01*
X0136044Y0031869D01*
X0136129Y0032099D01*
X0136220Y0032327D01*
X0136317Y0032552D01*
X0136419Y0032776D01*
X0136527Y0032996D01*
X0136640Y0033214D01*
X0136758Y0033429D01*
X0136882Y0033641D01*
X0137010Y0033850D01*
X0137144Y0034056D01*
X0137283Y0034258D01*
X0137427Y0034457D01*
X0137576Y0034652D01*
X0137729Y0034844D01*
X0137887Y0035032D01*
X0138049Y0035216D01*
X0138217Y0035395D01*
X0138388Y0035571D01*
X0138564Y0035742D01*
X0138743Y0035910D01*
X0138927Y0036072D01*
X0139115Y0036230D01*
X0139307Y0036383D01*
X0139502Y0036532D01*
X0139701Y0036676D01*
X0139903Y0036815D01*
X0140109Y0036949D01*
X0140318Y0037077D01*
X0140530Y0037201D01*
X0140745Y0037319D01*
X0140963Y0037432D01*
X0141183Y0037540D01*
X0141407Y0037642D01*
X0141632Y0037739D01*
X0141860Y0037830D01*
X0142090Y0037915D01*
X0142322Y0037995D01*
X0142556Y0038069D01*
X0142792Y0038138D01*
X0143029Y0038200D01*
X0143268Y0038257D01*
X0143508Y0038308D01*
X0143749Y0038353D01*
X0143992Y0038392D01*
X0144235Y0038425D01*
X0144479Y0038452D01*
X0144723Y0038473D01*
X0144968Y0038488D01*
X0145214Y0038497D01*
X0145459Y0038500D01*
X0145704Y0038497D01*
X0145950Y0038488D01*
X0146195Y0038473D01*
X0146439Y0038452D01*
X0146683Y0038425D01*
X0146926Y0038392D01*
X0147169Y0038353D01*
X0147410Y0038308D01*
X0147650Y0038257D01*
X0147889Y0038200D01*
X0148126Y0038138D01*
X0148362Y0038069D01*
X0148596Y0037995D01*
X0148828Y0037915D01*
X0149058Y0037830D01*
X0149286Y0037739D01*
X0149511Y0037642D01*
X0149735Y0037540D01*
X0149955Y0037432D01*
X0150173Y0037319D01*
X0150388Y0037201D01*
X0150600Y0037077D01*
X0150809Y0036949D01*
X0151015Y0036815D01*
X0151217Y0036676D01*
X0151416Y0036532D01*
X0151611Y0036383D01*
X0151803Y0036230D01*
X0151991Y0036072D01*
X0152175Y0035910D01*
X0152354Y0035742D01*
X0152530Y0035571D01*
X0152701Y0035395D01*
X0152869Y0035216D01*
X0153031Y0035032D01*
X0153189Y0034844D01*
X0153342Y0034652D01*
X0153491Y0034457D01*
X0153635Y0034258D01*
X0153774Y0034056D01*
X0153908Y0033850D01*
X0154036Y0033641D01*
X0154160Y0033429D01*
X0154278Y0033214D01*
X0154391Y0032996D01*
X0154499Y0032776D01*
X0154601Y0032552D01*
X0154698Y0032327D01*
X0154789Y0032099D01*
X0154874Y0031869D01*
X0154954Y0031637D01*
X0155028Y0031403D01*
X0155097Y0031167D01*
X0155159Y0030930D01*
X0155216Y0030691D01*
X0155267Y0030451D01*
X0155312Y0030210D01*
X0155351Y0029967D01*
X0155384Y0029724D01*
X0155411Y0029480D01*
X0155432Y0029236D01*
X0155447Y0028991D01*
X0155456Y0028745D01*
X0155459Y0028500D01*
X0155456Y0028255D01*
X0155447Y0028009D01*
X0155432Y0027764D01*
X0155411Y0027520D01*
X0155384Y0027276D01*
X0155351Y0027033D01*
X0155312Y0026790D01*
X0155267Y0026549D01*
X0155216Y0026309D01*
X0155159Y0026070D01*
X0155097Y0025833D01*
X0155028Y0025597D01*
X0154954Y0025363D01*
X0154874Y0025131D01*
X0154789Y0024901D01*
X0154698Y0024673D01*
X0154601Y0024448D01*
X0154499Y0024224D01*
X0154391Y0024004D01*
X0154278Y0023786D01*
X0154160Y0023571D01*
X0154036Y0023359D01*
X0153908Y0023150D01*
X0153774Y0022944D01*
X0153635Y0022742D01*
X0153491Y0022543D01*
X0153342Y0022348D01*
X0153189Y0022156D01*
X0153031Y0021968D01*
X0152869Y0021784D01*
X0152701Y0021605D01*
X0152530Y0021429D01*
X0152354Y0021258D01*
X0152175Y0021090D01*
X0151991Y0020928D01*
X0151803Y0020770D01*
X0151611Y0020617D01*
X0151416Y0020468D01*
X0151217Y0020324D01*
X0151015Y0020185D01*
X0150809Y0020051D01*
X0150600Y0019923D01*
X0150388Y0019799D01*
X0150173Y0019681D01*
X0149955Y0019568D01*
X0149735Y0019460D01*
X0149511Y0019358D01*
X0149286Y0019261D01*
X0149058Y0019170D01*
X0148828Y0019085D01*
X0148596Y0019005D01*
X0148362Y0018931D01*
X0148126Y0018862D01*
X0147889Y0018800D01*
X0147650Y0018743D01*
X0147410Y0018692D01*
X0147169Y0018647D01*
X0146926Y0018608D01*
X0146683Y0018575D01*
X0146439Y0018548D01*
X0146195Y0018527D01*
X0145950Y0018512D01*
X0145704Y0018503D01*
X0145459Y0018500D01*
X0145214Y0018503D01*
X0144968Y0018512D01*
X0144723Y0018527D01*
X0144479Y0018548D01*
X0144235Y0018575D01*
X0143992Y0018608D01*
X0143749Y0018647D01*
X0143508Y0018692D01*
X0143268Y0018743D01*
X0143029Y0018800D01*
X0142792Y0018862D01*
X0142556Y0018931D01*
X0142322Y0019005D01*
X0142090Y0019085D01*
X0141860Y0019170D01*
X0141632Y0019261D01*
X0141407Y0019358D01*
X0141183Y0019460D01*
X0140963Y0019568D01*
X0140745Y0019681D01*
X0140530Y0019799D01*
X0140318Y0019923D01*
X0140109Y0020051D01*
X0139903Y0020185D01*
X0139701Y0020324D01*
X0139502Y0020468D01*
X0139307Y0020617D01*
X0139115Y0020770D01*
X0138927Y0020928D01*
X0138743Y0021090D01*
X0138564Y0021258D01*
X0138388Y0021429D01*
X0138217Y0021605D01*
X0138049Y0021784D01*
X0137887Y0021968D01*
X0137729Y0022156D01*
X0137576Y0022348D01*
X0137427Y0022543D01*
X0137283Y0022742D01*
X0137144Y0022944D01*
X0137010Y0023150D01*
X0136882Y0023359D01*
X0136758Y0023571D01*
X0136640Y0023786D01*
X0136527Y0024004D01*
X0136419Y0024224D01*
X0136317Y0024448D01*
X0136220Y0024673D01*
X0136129Y0024901D01*
X0136044Y0025131D01*
X0135964Y0025363D01*
X0135890Y0025597D01*
X0135821Y0025833D01*
X0135759Y0026070D01*
X0135702Y0026309D01*
X0135651Y0026549D01*
X0135606Y0026790D01*
X0135567Y0027033D01*
X0135534Y0027276D01*
X0135507Y0027520D01*
X0135486Y0027764D01*
X0135471Y0028009D01*
X0135462Y0028255D01*
X0135459Y0028500D01*
X0226144Y0075815D02*
X0226147Y0076060D01*
X0226156Y0076306D01*
X0226171Y0076551D01*
X0226192Y0076795D01*
X0226219Y0077039D01*
X0226252Y0077282D01*
X0226291Y0077525D01*
X0226336Y0077766D01*
X0226387Y0078006D01*
X0226444Y0078245D01*
X0226506Y0078482D01*
X0226575Y0078718D01*
X0226649Y0078952D01*
X0226729Y0079184D01*
X0226814Y0079414D01*
X0226905Y0079642D01*
X0227002Y0079867D01*
X0227104Y0080091D01*
X0227212Y0080311D01*
X0227325Y0080529D01*
X0227443Y0080744D01*
X0227567Y0080956D01*
X0227695Y0081165D01*
X0227829Y0081371D01*
X0227968Y0081573D01*
X0228112Y0081772D01*
X0228261Y0081967D01*
X0228414Y0082159D01*
X0228572Y0082347D01*
X0228734Y0082531D01*
X0228902Y0082710D01*
X0229073Y0082886D01*
X0229249Y0083057D01*
X0229428Y0083225D01*
X0229612Y0083387D01*
X0229800Y0083545D01*
X0229992Y0083698D01*
X0230187Y0083847D01*
X0230386Y0083991D01*
X0230588Y0084130D01*
X0230794Y0084264D01*
X0231003Y0084392D01*
X0231215Y0084516D01*
X0231430Y0084634D01*
X0231648Y0084747D01*
X0231868Y0084855D01*
X0232092Y0084957D01*
X0232317Y0085054D01*
X0232545Y0085145D01*
X0232775Y0085230D01*
X0233007Y0085310D01*
X0233241Y0085384D01*
X0233477Y0085453D01*
X0233714Y0085515D01*
X0233953Y0085572D01*
X0234193Y0085623D01*
X0234434Y0085668D01*
X0234677Y0085707D01*
X0234920Y0085740D01*
X0235164Y0085767D01*
X0235408Y0085788D01*
X0235653Y0085803D01*
X0235899Y0085812D01*
X0236144Y0085815D01*
X0236389Y0085812D01*
X0236635Y0085803D01*
X0236880Y0085788D01*
X0237124Y0085767D01*
X0237368Y0085740D01*
X0237611Y0085707D01*
X0237854Y0085668D01*
X0238095Y0085623D01*
X0238335Y0085572D01*
X0238574Y0085515D01*
X0238811Y0085453D01*
X0239047Y0085384D01*
X0239281Y0085310D01*
X0239513Y0085230D01*
X0239743Y0085145D01*
X0239971Y0085054D01*
X0240196Y0084957D01*
X0240420Y0084855D01*
X0240640Y0084747D01*
X0240858Y0084634D01*
X0241073Y0084516D01*
X0241285Y0084392D01*
X0241494Y0084264D01*
X0241700Y0084130D01*
X0241902Y0083991D01*
X0242101Y0083847D01*
X0242296Y0083698D01*
X0242488Y0083545D01*
X0242676Y0083387D01*
X0242860Y0083225D01*
X0243039Y0083057D01*
X0243215Y0082886D01*
X0243386Y0082710D01*
X0243554Y0082531D01*
X0243716Y0082347D01*
X0243874Y0082159D01*
X0244027Y0081967D01*
X0244176Y0081772D01*
X0244320Y0081573D01*
X0244459Y0081371D01*
X0244593Y0081165D01*
X0244721Y0080956D01*
X0244845Y0080744D01*
X0244963Y0080529D01*
X0245076Y0080311D01*
X0245184Y0080091D01*
X0245286Y0079867D01*
X0245383Y0079642D01*
X0245474Y0079414D01*
X0245559Y0079184D01*
X0245639Y0078952D01*
X0245713Y0078718D01*
X0245782Y0078482D01*
X0245844Y0078245D01*
X0245901Y0078006D01*
X0245952Y0077766D01*
X0245997Y0077525D01*
X0246036Y0077282D01*
X0246069Y0077039D01*
X0246096Y0076795D01*
X0246117Y0076551D01*
X0246132Y0076306D01*
X0246141Y0076060D01*
X0246144Y0075815D01*
X0246141Y0075570D01*
X0246132Y0075324D01*
X0246117Y0075079D01*
X0246096Y0074835D01*
X0246069Y0074591D01*
X0246036Y0074348D01*
X0245997Y0074105D01*
X0245952Y0073864D01*
X0245901Y0073624D01*
X0245844Y0073385D01*
X0245782Y0073148D01*
X0245713Y0072912D01*
X0245639Y0072678D01*
X0245559Y0072446D01*
X0245474Y0072216D01*
X0245383Y0071988D01*
X0245286Y0071763D01*
X0245184Y0071539D01*
X0245076Y0071319D01*
X0244963Y0071101D01*
X0244845Y0070886D01*
X0244721Y0070674D01*
X0244593Y0070465D01*
X0244459Y0070259D01*
X0244320Y0070057D01*
X0244176Y0069858D01*
X0244027Y0069663D01*
X0243874Y0069471D01*
X0243716Y0069283D01*
X0243554Y0069099D01*
X0243386Y0068920D01*
X0243215Y0068744D01*
X0243039Y0068573D01*
X0242860Y0068405D01*
X0242676Y0068243D01*
X0242488Y0068085D01*
X0242296Y0067932D01*
X0242101Y0067783D01*
X0241902Y0067639D01*
X0241700Y0067500D01*
X0241494Y0067366D01*
X0241285Y0067238D01*
X0241073Y0067114D01*
X0240858Y0066996D01*
X0240640Y0066883D01*
X0240420Y0066775D01*
X0240196Y0066673D01*
X0239971Y0066576D01*
X0239743Y0066485D01*
X0239513Y0066400D01*
X0239281Y0066320D01*
X0239047Y0066246D01*
X0238811Y0066177D01*
X0238574Y0066115D01*
X0238335Y0066058D01*
X0238095Y0066007D01*
X0237854Y0065962D01*
X0237611Y0065923D01*
X0237368Y0065890D01*
X0237124Y0065863D01*
X0236880Y0065842D01*
X0236635Y0065827D01*
X0236389Y0065818D01*
X0236144Y0065815D01*
X0235899Y0065818D01*
X0235653Y0065827D01*
X0235408Y0065842D01*
X0235164Y0065863D01*
X0234920Y0065890D01*
X0234677Y0065923D01*
X0234434Y0065962D01*
X0234193Y0066007D01*
X0233953Y0066058D01*
X0233714Y0066115D01*
X0233477Y0066177D01*
X0233241Y0066246D01*
X0233007Y0066320D01*
X0232775Y0066400D01*
X0232545Y0066485D01*
X0232317Y0066576D01*
X0232092Y0066673D01*
X0231868Y0066775D01*
X0231648Y0066883D01*
X0231430Y0066996D01*
X0231215Y0067114D01*
X0231003Y0067238D01*
X0230794Y0067366D01*
X0230588Y0067500D01*
X0230386Y0067639D01*
X0230187Y0067783D01*
X0229992Y0067932D01*
X0229800Y0068085D01*
X0229612Y0068243D01*
X0229428Y0068405D01*
X0229249Y0068573D01*
X0229073Y0068744D01*
X0228902Y0068920D01*
X0228734Y0069099D01*
X0228572Y0069283D01*
X0228414Y0069471D01*
X0228261Y0069663D01*
X0228112Y0069858D01*
X0227968Y0070057D01*
X0227829Y0070259D01*
X0227695Y0070465D01*
X0227567Y0070674D01*
X0227443Y0070886D01*
X0227325Y0071101D01*
X0227212Y0071319D01*
X0227104Y0071539D01*
X0227002Y0071763D01*
X0226905Y0071988D01*
X0226814Y0072216D01*
X0226729Y0072446D01*
X0226649Y0072678D01*
X0226575Y0072912D01*
X0226506Y0073148D01*
X0226444Y0073385D01*
X0226387Y0073624D01*
X0226336Y0073864D01*
X0226291Y0074105D01*
X0226252Y0074348D01*
X0226219Y0074591D01*
X0226192Y0074835D01*
X0226171Y0075079D01*
X0226156Y0075324D01*
X0226147Y0075570D01*
X0226144Y0075815D01*
X0247144Y0075815D02*
X0247147Y0076060D01*
X0247156Y0076306D01*
X0247171Y0076551D01*
X0247192Y0076795D01*
X0247219Y0077039D01*
X0247252Y0077282D01*
X0247291Y0077525D01*
X0247336Y0077766D01*
X0247387Y0078006D01*
X0247444Y0078245D01*
X0247506Y0078482D01*
X0247575Y0078718D01*
X0247649Y0078952D01*
X0247729Y0079184D01*
X0247814Y0079414D01*
X0247905Y0079642D01*
X0248002Y0079867D01*
X0248104Y0080091D01*
X0248212Y0080311D01*
X0248325Y0080529D01*
X0248443Y0080744D01*
X0248567Y0080956D01*
X0248695Y0081165D01*
X0248829Y0081371D01*
X0248968Y0081573D01*
X0249112Y0081772D01*
X0249261Y0081967D01*
X0249414Y0082159D01*
X0249572Y0082347D01*
X0249734Y0082531D01*
X0249902Y0082710D01*
X0250073Y0082886D01*
X0250249Y0083057D01*
X0250428Y0083225D01*
X0250612Y0083387D01*
X0250800Y0083545D01*
X0250992Y0083698D01*
X0251187Y0083847D01*
X0251386Y0083991D01*
X0251588Y0084130D01*
X0251794Y0084264D01*
X0252003Y0084392D01*
X0252215Y0084516D01*
X0252430Y0084634D01*
X0252648Y0084747D01*
X0252868Y0084855D01*
X0253092Y0084957D01*
X0253317Y0085054D01*
X0253545Y0085145D01*
X0253775Y0085230D01*
X0254007Y0085310D01*
X0254241Y0085384D01*
X0254477Y0085453D01*
X0254714Y0085515D01*
X0254953Y0085572D01*
X0255193Y0085623D01*
X0255434Y0085668D01*
X0255677Y0085707D01*
X0255920Y0085740D01*
X0256164Y0085767D01*
X0256408Y0085788D01*
X0256653Y0085803D01*
X0256899Y0085812D01*
X0257144Y0085815D01*
X0257389Y0085812D01*
X0257635Y0085803D01*
X0257880Y0085788D01*
X0258124Y0085767D01*
X0258368Y0085740D01*
X0258611Y0085707D01*
X0258854Y0085668D01*
X0259095Y0085623D01*
X0259335Y0085572D01*
X0259574Y0085515D01*
X0259811Y0085453D01*
X0260047Y0085384D01*
X0260281Y0085310D01*
X0260513Y0085230D01*
X0260743Y0085145D01*
X0260971Y0085054D01*
X0261196Y0084957D01*
X0261420Y0084855D01*
X0261640Y0084747D01*
X0261858Y0084634D01*
X0262073Y0084516D01*
X0262285Y0084392D01*
X0262494Y0084264D01*
X0262700Y0084130D01*
X0262902Y0083991D01*
X0263101Y0083847D01*
X0263296Y0083698D01*
X0263488Y0083545D01*
X0263676Y0083387D01*
X0263860Y0083225D01*
X0264039Y0083057D01*
X0264215Y0082886D01*
X0264386Y0082710D01*
X0264554Y0082531D01*
X0264716Y0082347D01*
X0264874Y0082159D01*
X0265027Y0081967D01*
X0265176Y0081772D01*
X0265320Y0081573D01*
X0265459Y0081371D01*
X0265593Y0081165D01*
X0265721Y0080956D01*
X0265845Y0080744D01*
X0265963Y0080529D01*
X0266076Y0080311D01*
X0266184Y0080091D01*
X0266286Y0079867D01*
X0266383Y0079642D01*
X0266474Y0079414D01*
X0266559Y0079184D01*
X0266639Y0078952D01*
X0266713Y0078718D01*
X0266782Y0078482D01*
X0266844Y0078245D01*
X0266901Y0078006D01*
X0266952Y0077766D01*
X0266997Y0077525D01*
X0267036Y0077282D01*
X0267069Y0077039D01*
X0267096Y0076795D01*
X0267117Y0076551D01*
X0267132Y0076306D01*
X0267141Y0076060D01*
X0267144Y0075815D01*
X0267141Y0075570D01*
X0267132Y0075324D01*
X0267117Y0075079D01*
X0267096Y0074835D01*
X0267069Y0074591D01*
X0267036Y0074348D01*
X0266997Y0074105D01*
X0266952Y0073864D01*
X0266901Y0073624D01*
X0266844Y0073385D01*
X0266782Y0073148D01*
X0266713Y0072912D01*
X0266639Y0072678D01*
X0266559Y0072446D01*
X0266474Y0072216D01*
X0266383Y0071988D01*
X0266286Y0071763D01*
X0266184Y0071539D01*
X0266076Y0071319D01*
X0265963Y0071101D01*
X0265845Y0070886D01*
X0265721Y0070674D01*
X0265593Y0070465D01*
X0265459Y0070259D01*
X0265320Y0070057D01*
X0265176Y0069858D01*
X0265027Y0069663D01*
X0264874Y0069471D01*
X0264716Y0069283D01*
X0264554Y0069099D01*
X0264386Y0068920D01*
X0264215Y0068744D01*
X0264039Y0068573D01*
X0263860Y0068405D01*
X0263676Y0068243D01*
X0263488Y0068085D01*
X0263296Y0067932D01*
X0263101Y0067783D01*
X0262902Y0067639D01*
X0262700Y0067500D01*
X0262494Y0067366D01*
X0262285Y0067238D01*
X0262073Y0067114D01*
X0261858Y0066996D01*
X0261640Y0066883D01*
X0261420Y0066775D01*
X0261196Y0066673D01*
X0260971Y0066576D01*
X0260743Y0066485D01*
X0260513Y0066400D01*
X0260281Y0066320D01*
X0260047Y0066246D01*
X0259811Y0066177D01*
X0259574Y0066115D01*
X0259335Y0066058D01*
X0259095Y0066007D01*
X0258854Y0065962D01*
X0258611Y0065923D01*
X0258368Y0065890D01*
X0258124Y0065863D01*
X0257880Y0065842D01*
X0257635Y0065827D01*
X0257389Y0065818D01*
X0257144Y0065815D01*
X0256899Y0065818D01*
X0256653Y0065827D01*
X0256408Y0065842D01*
X0256164Y0065863D01*
X0255920Y0065890D01*
X0255677Y0065923D01*
X0255434Y0065962D01*
X0255193Y0066007D01*
X0254953Y0066058D01*
X0254714Y0066115D01*
X0254477Y0066177D01*
X0254241Y0066246D01*
X0254007Y0066320D01*
X0253775Y0066400D01*
X0253545Y0066485D01*
X0253317Y0066576D01*
X0253092Y0066673D01*
X0252868Y0066775D01*
X0252648Y0066883D01*
X0252430Y0066996D01*
X0252215Y0067114D01*
X0252003Y0067238D01*
X0251794Y0067366D01*
X0251588Y0067500D01*
X0251386Y0067639D01*
X0251187Y0067783D01*
X0250992Y0067932D01*
X0250800Y0068085D01*
X0250612Y0068243D01*
X0250428Y0068405D01*
X0250249Y0068573D01*
X0250073Y0068744D01*
X0249902Y0068920D01*
X0249734Y0069099D01*
X0249572Y0069283D01*
X0249414Y0069471D01*
X0249261Y0069663D01*
X0249112Y0069858D01*
X0248968Y0070057D01*
X0248829Y0070259D01*
X0248695Y0070465D01*
X0248567Y0070674D01*
X0248443Y0070886D01*
X0248325Y0071101D01*
X0248212Y0071319D01*
X0248104Y0071539D01*
X0248002Y0071763D01*
X0247905Y0071988D01*
X0247814Y0072216D01*
X0247729Y0072446D01*
X0247649Y0072678D01*
X0247575Y0072912D01*
X0247506Y0073148D01*
X0247444Y0073385D01*
X0247387Y0073624D01*
X0247336Y0073864D01*
X0247291Y0074105D01*
X0247252Y0074348D01*
X0247219Y0074591D01*
X0247192Y0074835D01*
X0247171Y0075079D01*
X0247156Y0075324D01*
X0247147Y0075570D01*
X0247144Y0075815D01*
D15*
X0232644Y0054615D02*
X0192644Y0054615D01*
D16*
X0267844Y0041000D03*
X0268344Y0039200D03*
X0268544Y0039100D03*
X0268644Y0039000D03*
X0268744Y0038900D03*
X0268844Y0038900D03*
X0268944Y0038800D03*
X0269044Y0038800D03*
X0269144Y0038700D03*
X0269344Y0038600D03*
X0269544Y0038500D03*
X0269744Y0038400D03*
X0269944Y0038300D03*
X0270144Y0038200D03*
X0270344Y0038100D03*
X0270544Y0038000D03*
X0270644Y0037900D03*
X0270744Y0037900D03*
X0270944Y0037800D03*
X0271044Y0037700D03*
X0271144Y0037700D03*
X0271344Y0037600D03*
X0271544Y0037500D03*
X0271744Y0037400D03*
X0271944Y0037300D03*
X0272044Y0037300D03*
X0272144Y0037200D03*
X0272244Y0037200D03*
X0272444Y0037100D03*
X0272544Y0037100D03*
X0272744Y0037000D03*
X0273044Y0036900D03*
X0273344Y0036800D03*
X0273844Y0036600D03*
X0275544Y0036100D03*
X0275844Y0036100D03*
X0276344Y0036000D03*
X0276644Y0036000D03*
X0277344Y0035900D03*
X0278744Y0038000D03*
X0279244Y0037800D03*
X0279544Y0037700D03*
X0279644Y0037700D03*
X0279844Y0037600D03*
X0280044Y0037500D03*
X0280244Y0037400D03*
X0280544Y0037300D03*
X0281444Y0036300D03*
X0281744Y0036400D03*
X0281944Y0036500D03*
X0282844Y0037300D03*
X0281744Y0038700D03*
X0281444Y0038900D03*
X0281344Y0039000D03*
X0281244Y0039100D03*
X0280944Y0039300D03*
X0280844Y0039400D03*
X0280744Y0039500D03*
X0280444Y0039700D03*
X0280344Y0039800D03*
X0280344Y0040900D03*
X0280444Y0040900D03*
X0280644Y0041000D03*
X0280744Y0041000D03*
X0280844Y0041000D03*
X0280944Y0041000D03*
X0281144Y0041100D03*
X0281244Y0041100D03*
X0281344Y0041100D03*
X0281544Y0041200D03*
X0281644Y0041200D03*
X0276344Y0042200D03*
X0276244Y0042200D03*
X0276144Y0042300D03*
X0276044Y0042300D03*
X0275944Y0042400D03*
X0275444Y0042600D03*
X0275144Y0042700D03*
X0275144Y0041600D03*
X0275444Y0041500D03*
X0275544Y0041500D03*
X0275644Y0041500D03*
X0275844Y0041500D03*
X0275944Y0041400D03*
X0276044Y0041400D03*
X0276144Y0041400D03*
X0276244Y0041400D03*
X0274644Y0041700D03*
X0274544Y0041700D03*
X0274144Y0041800D03*
X0273444Y0042000D03*
X0273044Y0042100D03*
X0272744Y0042200D03*
X0272444Y0042300D03*
X0272244Y0042400D03*
X0272144Y0042400D03*
X0271944Y0042500D03*
X0271844Y0042500D03*
X0271744Y0042600D03*
X0271744Y0043400D03*
X0271944Y0043400D03*
X0272844Y0043300D03*
X0269444Y0043500D03*
X0281244Y0050900D03*
D17*
X0279044Y0051600D03*
X0278944Y0051600D03*
X0278744Y0051700D03*
X0278644Y0051700D03*
X0278044Y0051600D03*
X0277944Y0051500D03*
X0279844Y0044800D03*
X0278044Y0041200D03*
X0277944Y0041200D03*
X0277844Y0041300D03*
X0277744Y0041300D03*
X0279544Y0040600D03*
X0282244Y0038000D03*
X0282744Y0037300D03*
X0270244Y0043300D03*
X0270144Y0043300D03*
X0270044Y0043300D03*
X0269844Y0043400D03*
X0269744Y0043400D03*
X0266644Y0040700D03*
D18*
X0266844Y0040650D03*
X0270944Y0043150D03*
X0271044Y0043150D03*
X0271144Y0043150D03*
X0271244Y0043050D03*
X0271344Y0043050D03*
X0271444Y0043050D03*
X0276844Y0041550D03*
X0276944Y0041550D03*
X0277244Y0041450D03*
X0282244Y0041850D03*
X0282644Y0037350D03*
X0281244Y0046950D03*
D19*
X0281344Y0047200D03*
X0282144Y0041900D03*
X0280144Y0040400D03*
X0282544Y0037400D03*
X0267144Y0040500D03*
D20*
X0282544Y0041850D03*
D21*
X0279544Y0045400D03*
X0282144Y0048800D03*
X0267444Y0040400D03*
X0267344Y0040400D03*
X0282444Y0037400D03*
D22*
X0282244Y0036800D03*
X0282144Y0038200D03*
X0280244Y0039900D03*
X0279344Y0040700D03*
X0279244Y0040700D03*
X0279144Y0040800D03*
X0278644Y0041000D03*
X0278444Y0041100D03*
X0281844Y0041400D03*
X0282444Y0041800D03*
X0281444Y0043100D03*
X0281344Y0043200D03*
X0281244Y0043300D03*
X0281144Y0043400D03*
X0279944Y0046000D03*
X0280044Y0046100D03*
X0280344Y0046200D03*
X0280744Y0046400D03*
X0278844Y0045600D03*
X0279244Y0051500D03*
X0269644Y0043400D03*
X0267644Y0039700D03*
X0267944Y0039500D03*
X0268044Y0039400D03*
D23*
X0279644Y0045350D03*
X0281944Y0041950D03*
X0282344Y0037450D03*
D24*
X0279744Y0040550D03*
X0279644Y0040550D03*
X0277644Y0041350D03*
X0277544Y0041350D03*
X0277344Y0041450D03*
X0281844Y0042550D03*
X0282344Y0041850D03*
X0279044Y0045550D03*
X0278944Y0045550D03*
X0281044Y0046650D03*
X0278844Y0051650D03*
X0270544Y0043250D03*
X0270444Y0043250D03*
X0270344Y0043250D03*
D25*
X0280744Y0037300D03*
X0282244Y0048800D03*
D26*
X0280644Y0046350D03*
X0280544Y0046250D03*
X0280444Y0046250D03*
X0280244Y0046150D03*
X0280144Y0046150D03*
X0281744Y0041250D03*
X0281444Y0041150D03*
X0280244Y0040850D03*
X0279044Y0040850D03*
X0278944Y0040850D03*
X0278844Y0040950D03*
X0278744Y0040950D03*
X0278544Y0041050D03*
X0280544Y0039650D03*
X0280644Y0039550D03*
X0281844Y0038550D03*
X0281944Y0038450D03*
X0282044Y0038350D03*
X0282144Y0036650D03*
X0282044Y0036550D03*
X0280444Y0037350D03*
X0280344Y0037350D03*
X0280144Y0037450D03*
X0268444Y0039150D03*
X0268244Y0039250D03*
X0268144Y0039350D03*
X0267844Y0039550D03*
X0267744Y0039650D03*
X0267544Y0040950D03*
X0266544Y0040750D03*
X0269544Y0043450D03*
X0277644Y0051350D03*
D27*
X0281344Y0050550D03*
X0279444Y0045450D03*
X0282044Y0041950D03*
X0267244Y0040450D03*
D28*
X0282044Y0049000D03*
D29*
X0281944Y0049300D03*
D30*
X0279344Y0051450D03*
X0277544Y0051250D03*
X0272144Y0043450D03*
X0272044Y0043450D03*
X0271844Y0043450D03*
X0272244Y0043350D03*
X0272344Y0043350D03*
X0272444Y0043350D03*
X0272544Y0043350D03*
X0272644Y0043350D03*
X0273044Y0043250D03*
X0273144Y0043250D03*
X0273444Y0043150D03*
X0273544Y0043150D03*
X0273644Y0043150D03*
X0273844Y0043050D03*
X0273944Y0043050D03*
X0274044Y0043050D03*
X0274244Y0042950D03*
X0274344Y0042950D03*
X0274444Y0042950D03*
X0274644Y0042850D03*
X0274744Y0042850D03*
X0274844Y0042850D03*
X0274944Y0042750D03*
X0275044Y0042750D03*
X0275244Y0042650D03*
X0275344Y0042650D03*
X0275544Y0042550D03*
X0275644Y0042550D03*
X0275744Y0042450D03*
X0275844Y0042450D03*
X0275744Y0041450D03*
X0275344Y0041550D03*
X0275244Y0041550D03*
X0275044Y0041650D03*
X0274944Y0041650D03*
X0274844Y0041650D03*
X0274744Y0041650D03*
X0274444Y0041750D03*
X0274344Y0041750D03*
X0274244Y0041750D03*
X0274044Y0041850D03*
X0273944Y0041850D03*
X0273844Y0041850D03*
X0273744Y0041950D03*
X0273644Y0041950D03*
X0273544Y0041950D03*
X0273344Y0042050D03*
X0273244Y0042050D03*
X0273144Y0042050D03*
X0272944Y0042150D03*
X0272844Y0042150D03*
X0272644Y0042250D03*
X0272544Y0042250D03*
X0272344Y0042350D03*
X0272044Y0042450D03*
X0271844Y0040250D03*
X0271744Y0040250D03*
X0271644Y0040250D03*
X0271544Y0040250D03*
X0271344Y0040350D03*
X0271244Y0040350D03*
X0271144Y0040350D03*
X0270944Y0040450D03*
X0270844Y0040450D03*
X0270744Y0040450D03*
X0270344Y0040550D03*
X0269944Y0040650D03*
X0269844Y0040650D03*
X0269544Y0040750D03*
X0269344Y0040750D03*
X0269244Y0040750D03*
X0268844Y0040850D03*
X0268744Y0040850D03*
X0268644Y0040850D03*
X0268444Y0040850D03*
X0268244Y0040950D03*
X0268144Y0040950D03*
X0268044Y0040950D03*
X0267944Y0040950D03*
X0267744Y0040950D03*
X0267644Y0040950D03*
X0269244Y0038650D03*
X0269444Y0038550D03*
X0269644Y0038450D03*
X0269844Y0038350D03*
X0270044Y0038250D03*
X0270244Y0038150D03*
X0270444Y0038050D03*
X0270844Y0037850D03*
X0271244Y0037650D03*
X0271444Y0037550D03*
X0271644Y0037450D03*
X0271844Y0037350D03*
X0272344Y0037150D03*
X0272644Y0037050D03*
X0272844Y0036950D03*
X0272944Y0036950D03*
X0273144Y0036850D03*
X0273244Y0036850D03*
X0273444Y0036750D03*
X0273544Y0036750D03*
X0273644Y0036650D03*
X0273744Y0036650D03*
X0273944Y0036550D03*
X0274044Y0036550D03*
X0274144Y0036450D03*
X0274244Y0036450D03*
X0274344Y0036450D03*
X0274444Y0036350D03*
X0274544Y0036350D03*
X0274644Y0036350D03*
X0274844Y0036250D03*
X0274944Y0036250D03*
X0275044Y0036250D03*
X0275144Y0036250D03*
X0275244Y0036150D03*
X0275344Y0036150D03*
X0275444Y0036150D03*
X0275744Y0036050D03*
X0275944Y0036050D03*
X0276044Y0036050D03*
X0276144Y0036050D03*
X0276244Y0036050D03*
X0276444Y0036050D03*
X0276744Y0035950D03*
X0276844Y0035950D03*
X0276944Y0035950D03*
X0277044Y0035950D03*
X0277144Y0035950D03*
X0277244Y0035950D03*
X0278544Y0035950D03*
X0278844Y0035950D03*
X0279344Y0035850D03*
X0279444Y0035950D03*
X0279544Y0035950D03*
X0279644Y0035950D03*
X0279744Y0035950D03*
X0279844Y0035950D03*
X0279944Y0035950D03*
X0280244Y0036050D03*
X0280344Y0036050D03*
X0280444Y0036050D03*
X0280544Y0036050D03*
X0280744Y0036150D03*
X0280844Y0036150D03*
X0280944Y0036150D03*
X0281144Y0036250D03*
X0281244Y0036250D03*
X0281344Y0036250D03*
X0281544Y0036350D03*
X0281644Y0036350D03*
X0281844Y0036450D03*
X0279944Y0037550D03*
X0279744Y0037650D03*
X0279444Y0037750D03*
X0279344Y0037750D03*
X0279144Y0037850D03*
X0279044Y0037850D03*
X0278944Y0037950D03*
X0278844Y0037950D03*
X0278644Y0038050D03*
X0278544Y0038050D03*
X0278444Y0038150D03*
X0278344Y0038150D03*
X0278244Y0038150D03*
X0278144Y0038250D03*
X0278044Y0038250D03*
X0277944Y0038250D03*
X0277844Y0038350D03*
X0277744Y0038350D03*
X0277544Y0038450D03*
X0277444Y0038450D03*
X0277144Y0038550D03*
X0276844Y0038650D03*
X0276544Y0038750D03*
X0276444Y0038750D03*
X0276244Y0038850D03*
X0276044Y0038950D03*
X0275944Y0038950D03*
X0275744Y0039050D03*
X0275644Y0039050D03*
X0275444Y0039150D03*
X0275344Y0039150D03*
X0275144Y0039250D03*
X0275044Y0039250D03*
X0274844Y0039350D03*
X0274744Y0039350D03*
X0274444Y0039450D03*
X0274344Y0039450D03*
X0274144Y0039550D03*
X0274044Y0039550D03*
X0273844Y0039650D03*
X0273744Y0039650D03*
X0273544Y0039750D03*
X0273444Y0039750D03*
X0273144Y0039850D03*
X0273044Y0039850D03*
X0272644Y0039950D03*
X0272344Y0040050D03*
X0272244Y0040050D03*
X0272144Y0040150D03*
X0272044Y0040150D03*
X0271944Y0040150D03*
X0276344Y0041350D03*
X0280544Y0040950D03*
X0281044Y0041050D03*
X0281044Y0039250D03*
X0281144Y0039150D03*
X0281544Y0038850D03*
X0281644Y0038750D03*
D31*
X0281844Y0049200D03*
D32*
X0280944Y0046550D03*
X0280844Y0046450D03*
X0279844Y0045950D03*
X0279944Y0044650D03*
X0280044Y0044550D03*
X0280144Y0044450D03*
X0280244Y0044350D03*
X0280344Y0044250D03*
X0280444Y0044150D03*
X0280544Y0044050D03*
X0280644Y0043950D03*
X0280744Y0043850D03*
X0280844Y0043750D03*
X0280944Y0043650D03*
X0281044Y0043550D03*
X0281544Y0042950D03*
X0281644Y0042850D03*
X0281744Y0042750D03*
X0279444Y0040650D03*
X0278344Y0041050D03*
X0278244Y0041150D03*
X0278144Y0041150D03*
X0269944Y0043350D03*
X0267544Y0039850D03*
X0277744Y0051350D03*
X0277844Y0051450D03*
X0278144Y0051650D03*
X0278244Y0051650D03*
X0278344Y0051650D03*
X0278444Y0051750D03*
X0278544Y0051650D03*
X0279144Y0051550D03*
D33*
X0281744Y0049150D03*
D34*
X0281644Y0049100D03*
D35*
X0281544Y0049050D03*
D36*
X0281444Y0049000D03*
D37*
X0281144Y0046800D03*
X0279144Y0045500D03*
X0277444Y0041400D03*
X0277144Y0041500D03*
X0277044Y0041500D03*
X0279844Y0040500D03*
X0270844Y0043200D03*
X0270744Y0043200D03*
X0270644Y0043200D03*
X0266744Y0040700D03*
D38*
X0266444Y0040800D03*
X0268344Y0040900D03*
X0268544Y0040900D03*
X0268944Y0040800D03*
X0269044Y0040800D03*
X0269144Y0040800D03*
X0269444Y0040700D03*
X0269644Y0040700D03*
X0269744Y0040700D03*
X0270044Y0040600D03*
X0270144Y0040600D03*
X0270244Y0040600D03*
X0270444Y0040500D03*
X0270544Y0040500D03*
X0270644Y0040500D03*
X0271044Y0040400D03*
X0271444Y0040300D03*
X0272444Y0040000D03*
X0272544Y0040000D03*
X0272744Y0039900D03*
X0272844Y0039900D03*
X0272944Y0039900D03*
X0273244Y0039800D03*
X0273344Y0039800D03*
X0273644Y0039700D03*
X0273944Y0039600D03*
X0274244Y0039500D03*
X0274544Y0039400D03*
X0274644Y0039400D03*
X0274944Y0039300D03*
X0275244Y0039200D03*
X0275544Y0039100D03*
X0275844Y0039000D03*
X0276144Y0038900D03*
X0276344Y0038800D03*
X0276644Y0038700D03*
X0276744Y0038700D03*
X0276944Y0038600D03*
X0277044Y0038600D03*
X0277244Y0038500D03*
X0277344Y0038500D03*
X0277644Y0038400D03*
X0277644Y0035900D03*
X0277544Y0035900D03*
X0277444Y0035900D03*
X0277744Y0035900D03*
X0277844Y0035900D03*
X0277944Y0035900D03*
X0278044Y0035900D03*
X0278144Y0035900D03*
X0278244Y0035900D03*
X0278344Y0035900D03*
X0278444Y0035900D03*
X0278644Y0035900D03*
X0278744Y0035900D03*
X0278944Y0035900D03*
X0279044Y0035900D03*
X0279144Y0035900D03*
X0279244Y0035900D03*
X0280044Y0036000D03*
X0280144Y0036000D03*
X0280644Y0036100D03*
X0281044Y0036200D03*
X0280644Y0037300D03*
X0276544Y0036000D03*
X0275644Y0036100D03*
X0274744Y0036300D03*
X0274544Y0042900D03*
X0274144Y0043000D03*
X0273744Y0043100D03*
X0273344Y0043200D03*
X0273244Y0043200D03*
X0272944Y0043300D03*
X0272744Y0043300D03*
X0269344Y0043500D03*
X0278744Y0045600D03*
D39*
X0279344Y0045450D03*
X0280044Y0040450D03*
X0271644Y0043050D03*
X0267044Y0040550D03*
D40*
X0266944Y0040600D03*
X0271544Y0043000D03*
X0276444Y0041700D03*
X0276544Y0041700D03*
X0276644Y0041700D03*
X0276744Y0041600D03*
X0279944Y0040500D03*
X0279244Y0045500D03*
D41*
X0279744Y0045400D03*
D42*
X0278364Y0032861D02*
X0276924Y0032861D01*
X0276731Y0030956D01*
X0276090Y0030751D01*
X0275493Y0030443D01*
X0274008Y0031654D01*
X0272991Y0030636D01*
X0274201Y0029152D01*
X0273893Y0028554D01*
X0273688Y0027913D01*
X0271783Y0027720D01*
X0271783Y0026280D01*
X0273688Y0026087D01*
X0273893Y0025446D01*
X0274201Y0024848D01*
X0272991Y0023364D01*
X0274008Y0022346D01*
X0275493Y0023557D01*
X0276090Y0023249D01*
X0276731Y0023044D01*
X0276924Y0021139D01*
X0278364Y0021139D01*
X0278557Y0023044D01*
X0279198Y0023249D01*
X0279796Y0023557D01*
X0281280Y0022346D01*
X0282298Y0023364D01*
X0281087Y0024848D01*
X0281395Y0025446D01*
X0279349Y0026294D01*
X0279137Y0025915D01*
X0278843Y0025597D01*
X0278482Y0025355D01*
X0278075Y0025205D01*
X0277644Y0025154D01*
X0277206Y0025207D01*
X0276792Y0025363D01*
X0276428Y0025612D01*
X0276133Y0025941D01*
X0275925Y0026331D01*
X0275815Y0026759D01*
X0275810Y0027201D01*
X0275910Y0027631D01*
X0276110Y0028025D01*
X0276398Y0028360D01*
X0276757Y0028618D01*
X0277167Y0028782D01*
X0277604Y0028845D01*
X0278044Y0028801D01*
X0278460Y0028655D01*
X0278830Y0028414D01*
X0279132Y0028091D01*
X0279349Y0027706D01*
X0281395Y0028554D01*
X0281087Y0029152D01*
X0282298Y0030636D01*
X0281280Y0031654D01*
X0279796Y0030443D01*
X0279198Y0030751D01*
X0278557Y0030956D01*
X0278364Y0032861D01*
X0278405Y0032453D02*
X0276883Y0032453D01*
X0276823Y0031864D02*
X0278465Y0031864D01*
X0278525Y0031275D02*
X0276763Y0031275D01*
X0275964Y0030686D02*
X0279325Y0030686D01*
X0280093Y0030686D02*
X0282248Y0030686D01*
X0281858Y0030097D02*
X0273430Y0030097D01*
X0273041Y0030686D02*
X0275195Y0030686D01*
X0274473Y0031275D02*
X0273630Y0031275D01*
X0273910Y0029508D02*
X0281378Y0029508D01*
X0281207Y0028919D02*
X0274081Y0028919D01*
X0273821Y0028330D02*
X0276372Y0028330D01*
X0275966Y0027741D02*
X0271989Y0027741D01*
X0271783Y0027152D02*
X0275811Y0027152D01*
X0275865Y0026562D02*
X0271783Y0026562D01*
X0273724Y0025973D02*
X0276116Y0025973D01*
X0276761Y0025384D02*
X0273925Y0025384D01*
X0274157Y0024795D02*
X0281131Y0024795D01*
X0281363Y0025384D02*
X0278525Y0025384D01*
X0279170Y0025973D02*
X0280122Y0025973D01*
X0279432Y0027741D02*
X0279330Y0027741D01*
X0278909Y0028330D02*
X0280854Y0028330D01*
X0280816Y0031275D02*
X0281658Y0031275D01*
X0281611Y0024206D02*
X0273677Y0024206D01*
X0273197Y0023617D02*
X0282091Y0023617D01*
X0281962Y0023028D02*
X0280444Y0023028D01*
X0281166Y0022439D02*
X0281373Y0022439D01*
X0278496Y0022439D02*
X0276792Y0022439D01*
X0276852Y0021850D02*
X0278436Y0021850D01*
X0278376Y0021261D02*
X0276912Y0021261D01*
X0276732Y0023028D02*
X0278556Y0023028D01*
X0274844Y0023028D02*
X0273327Y0023028D01*
X0273916Y0022439D02*
X0274122Y0022439D01*
M02*
