%
M48
M72
T01C0.0157
T02C0.0320
T03C0.0360
T04C0.0400
%
T01
X12035Y11991
X16315Y11063
X18253Y12170
X20961Y14816
X19408Y5373
X19730Y4299
X21280Y4599
X22380Y4849
X23630Y5849
X20030Y7599
X26530Y4799
X25880Y13149
X23630Y3549
X28630Y15349
X15780Y19499
X17780Y19449
X19980Y19499
X19230Y17149
X16330Y16649
X16330Y15099
X25280Y19549
X28130Y8949
X28430Y1949
X21730Y1149
X11380Y1899
X9730Y19499
X28230Y19499
X22765Y4210
X20416Y4289
X21987Y10649
X20664Y15932
X12409Y11632
X18784Y14091
X12103Y11383
X19133Y15227
X12578Y15074
X27046Y5565
X25330Y6474
X16813Y7578
X13609Y3313
X21916Y16081
X18759Y8218
X14069Y16416
X13112Y2794
X19765Y5453
X24094Y11143
T02
X17859Y12650
X17859Y13650
X17859Y18650
X14859Y18650
X17859Y14650
X17859Y15650
X17859Y17650
X17859Y16650
X14859Y17650
X14859Y16650
X14859Y15650
X14859Y14650
X14859Y13650
X14859Y12650
X17859Y7650
X17859Y8650
X17859Y9650
X17859Y10650
X14859Y10650
X14859Y9650
X14859Y8650
X14859Y7650
X27859Y9650
X27859Y10650
X27859Y11650
X27859Y12650
X27859Y13650
X27859Y14650
X27859Y15650
X27859Y16650
X27859Y17650
X27859Y18650
X24859Y18650
X24859Y17650
X24859Y16650
X24859Y15650
X24859Y14650
X24859Y13650
X24859Y12650
X24859Y11650
X24859Y10650
X24859Y9650
X13233Y5651
X13233Y6651
X13233Y7651
X13233Y8651
X13233Y9651
X13233Y10651
X13233Y11651
X13233Y12651
X13233Y13651
X13233Y14651
X10233Y14651
X10233Y13651
X10233Y12651
X10233Y11651
X10233Y10651
X10233Y9651
X10233Y8651
X10233Y7651
X10233Y6651
X10233Y5651
X10233Y15651
X10233Y16651
X10233Y17651
X10233Y18651
X13233Y15651
X13233Y16651
X13233Y17651
X13233Y18651
X22859Y9650
X22859Y10650
X22859Y11650
X22859Y12650
X22859Y13650
X22859Y14650
X22859Y15650
X22859Y16650
X22859Y17650
X22859Y18650
X19859Y18650
X19859Y17650
X19859Y16650
X19859Y15650
X19859Y14650
X19859Y13650
X19859Y12650
X19859Y11650
X19859Y10650
X19859Y9650
X25314Y7581
X26114Y7581
X14546Y3250
X14546Y2450
X23214Y7581
X24014Y7581
T03
X15864Y5981
X16864Y5981
X17864Y5981
X15864Y4231
X16864Y4231
X17864Y4231
T04
X15752Y1178
X16752Y1178
X17752Y1178
X18752Y1178
X19752Y1178
X20752Y1178
X22752Y1178
X23752Y1178
X24752Y1178
X25752Y1178
X26752Y1178
X27752Y1178
X27752Y20178
X26752Y20178
X25752Y20178
X24752Y20178
X23752Y20178
X22752Y20178
X21752Y20178
X20752Y20178
X19252Y20178
X18252Y20178
X17252Y20178
X16252Y20178
X15252Y20178
X14252Y20178
X13252Y20178
X12252Y20178
X11252Y20178
X10252Y20178
X14752Y1178
X13752Y1178
M30
