G75*
G70*
%OFA0B0*%
%FSLAX24Y24*%
%IPPOS*%
%LPD*%
%AMOC8*
5,1,8,0,0,1.08239X$1,22.5*
%
%ADD10C,0.0000*%
%ADD11C,0.0070*%
%ADD12C,0.0060*%
%ADD13C,0.0040*%
%ADD14C,0.0120*%
D10*
X000247Y000180D02*
X000247Y022176D01*
X014117Y022176D01*
X014117Y000180D01*
X000247Y000180D01*
D11*
X001192Y005815D02*
X000982Y006025D01*
X001192Y006235D01*
X001612Y006235D01*
X001612Y005815D02*
X001192Y005815D01*
X001297Y005815D02*
X001297Y006235D01*
X000982Y006460D02*
X000982Y006880D01*
X000982Y006670D02*
X001612Y006670D01*
X001507Y007209D02*
X001612Y007314D01*
X001507Y007209D02*
X001087Y007209D01*
X001192Y007104D02*
X001192Y007314D01*
X001192Y007534D02*
X001192Y007639D01*
X001612Y007639D01*
X001612Y007534D02*
X001612Y007744D01*
X001612Y007963D02*
X001192Y007963D01*
X001192Y008279D01*
X001297Y008384D01*
X001612Y008384D01*
X001507Y008608D02*
X001612Y008713D01*
X001612Y009028D01*
X001717Y009028D02*
X001822Y008923D01*
X001822Y008818D01*
X001717Y009028D02*
X001192Y009028D01*
X001192Y008608D02*
X001507Y008608D01*
X000982Y007639D02*
X000877Y007639D01*
X000982Y009897D02*
X000982Y010107D01*
X000982Y010002D02*
X001612Y010002D01*
X001612Y009897D02*
X001612Y010107D01*
X001507Y010327D02*
X001612Y010432D01*
X001612Y010642D01*
X001507Y010747D01*
X001402Y010747D01*
X001297Y010642D01*
X001297Y010432D01*
X001192Y010327D01*
X001087Y010327D01*
X000982Y010432D01*
X000982Y010642D01*
X001087Y010747D01*
X000982Y010971D02*
X000982Y011287D01*
X001087Y011392D01*
X001297Y011392D01*
X001402Y011287D01*
X001402Y010971D01*
X001612Y010971D02*
X000982Y010971D01*
X001087Y012260D02*
X001192Y012260D01*
X001297Y012366D01*
X001297Y012576D01*
X001402Y012681D01*
X001507Y012681D01*
X001612Y012576D01*
X001612Y012366D01*
X001507Y012260D01*
X001087Y012260D02*
X000982Y012366D01*
X000982Y012576D01*
X001087Y012681D01*
X000982Y012905D02*
X001612Y012905D01*
X001612Y013325D02*
X001297Y013325D01*
X001192Y013220D01*
X001192Y013010D01*
X001297Y012905D01*
X001192Y013550D02*
X001192Y013655D01*
X001612Y013655D01*
X001612Y013550D02*
X001612Y013760D01*
X001507Y013979D02*
X001297Y013979D01*
X001192Y014084D01*
X001192Y014295D01*
X001297Y014400D01*
X001402Y014400D01*
X001402Y013979D01*
X001507Y013979D02*
X001612Y014084D01*
X001612Y014295D01*
X001612Y014624D02*
X001612Y014834D01*
X001612Y014729D02*
X000982Y014729D01*
X000982Y014624D01*
X001297Y015054D02*
X001192Y015159D01*
X001192Y015474D01*
X000982Y015474D02*
X001612Y015474D01*
X001612Y015159D01*
X001507Y015054D01*
X001297Y015054D01*
X000982Y013655D02*
X000877Y013655D01*
X007887Y003346D02*
X007782Y003240D01*
X007887Y003346D02*
X008097Y003346D01*
X008203Y003240D01*
X008203Y003135D01*
X007782Y002715D01*
X008203Y002715D01*
X008427Y002820D02*
X008532Y002715D01*
X008742Y002715D01*
X008847Y002820D01*
X008847Y002925D01*
X008742Y003030D01*
X008637Y003030D01*
X008742Y003030D02*
X008847Y003135D01*
X008847Y003240D01*
X008742Y003346D01*
X008532Y003346D01*
X008427Y003240D01*
X009071Y003135D02*
X009281Y003346D01*
X009281Y002715D01*
X009071Y002715D02*
X009492Y002715D01*
X009716Y002820D02*
X009821Y002715D01*
X010031Y002715D01*
X010136Y002820D01*
X010136Y002925D01*
X010031Y003030D01*
X009926Y003030D01*
X010031Y003030D02*
X010136Y003135D01*
X010136Y003240D01*
X010031Y003346D01*
X009821Y003346D01*
X009716Y003240D01*
X010360Y002715D02*
X010781Y003346D01*
X011005Y003030D02*
X011425Y003030D01*
X011650Y002820D02*
X011755Y002715D01*
X011965Y002715D01*
X012070Y002820D01*
X012070Y002925D01*
X011965Y003030D01*
X011860Y003030D01*
X011965Y003030D02*
X012070Y003135D01*
X012070Y003240D01*
X011965Y003346D01*
X011755Y003346D01*
X011650Y003240D01*
X011320Y003346D02*
X011320Y002715D01*
X011005Y003030D02*
X011320Y003346D01*
X012294Y003135D02*
X012504Y003346D01*
X012504Y002715D01*
X012294Y002715D02*
X012714Y002715D01*
X012939Y002820D02*
X013044Y002715D01*
X013254Y002715D01*
X013359Y002820D01*
X013359Y002925D01*
X013254Y003030D01*
X013149Y003030D01*
X013254Y003030D02*
X013359Y003135D01*
X013359Y003240D01*
X013254Y003346D01*
X013044Y003346D01*
X012939Y003240D01*
X011712Y008715D02*
X011292Y009135D01*
X011187Y009135D01*
X011082Y009030D01*
X011082Y008820D01*
X011187Y008715D01*
X011397Y009360D02*
X011397Y009780D01*
X011712Y009675D02*
X011082Y009675D01*
X011397Y009360D01*
X011712Y009135D02*
X011712Y008715D01*
X011712Y010004D02*
X011082Y010424D01*
X011397Y010649D02*
X011397Y011069D01*
X011397Y011293D02*
X011397Y011714D01*
X011712Y011608D02*
X011082Y011608D01*
X011397Y011293D01*
X011712Y010964D02*
X011082Y010964D01*
X011397Y010649D01*
X011712Y011938D02*
X011082Y012358D01*
X011187Y012582D02*
X011082Y012687D01*
X011082Y012898D01*
X011187Y013003D01*
X011292Y013003D01*
X011397Y012898D01*
X011397Y012687D01*
X011292Y012582D01*
X011187Y012582D01*
X011397Y012687D02*
X011502Y012582D01*
X011607Y012582D01*
X011712Y012687D01*
X011712Y012898D01*
X011607Y013003D01*
X011502Y013003D01*
X011397Y012898D01*
X011397Y013227D02*
X011397Y013647D01*
X011712Y013542D02*
X011082Y013542D01*
X011397Y013227D01*
X009912Y014059D02*
X009492Y014479D01*
X009387Y014479D01*
X009282Y014374D01*
X009282Y014164D01*
X009387Y014059D01*
X009912Y014059D02*
X009912Y014479D01*
X009807Y014703D02*
X009912Y014808D01*
X009912Y015018D01*
X009807Y015124D01*
X009597Y015124D01*
X009492Y015018D01*
X009492Y014913D01*
X009597Y014703D01*
X009282Y014703D01*
X009282Y015124D01*
X008912Y015202D02*
X008282Y015202D01*
X008492Y014992D01*
X008387Y015637D02*
X008282Y015742D01*
X008282Y015952D01*
X008387Y016057D01*
X008492Y016057D01*
X008597Y015952D01*
X008702Y016057D01*
X008807Y016057D01*
X008912Y015952D01*
X008912Y015742D01*
X008807Y015637D01*
X008912Y015413D02*
X008912Y014992D01*
X009282Y015768D02*
X009912Y015348D01*
X009597Y015992D02*
X009597Y016413D01*
X009597Y016637D02*
X009492Y016847D01*
X009492Y016952D01*
X009597Y017057D01*
X009807Y017057D01*
X009912Y016952D01*
X009912Y016742D01*
X009807Y016637D01*
X009597Y016637D02*
X009282Y016637D01*
X009282Y017057D01*
X008912Y017136D02*
X008282Y017136D01*
X008492Y016926D01*
X008282Y016702D02*
X008912Y016281D01*
X008597Y015952D02*
X008597Y015847D01*
X009282Y016308D02*
X009597Y015992D01*
X009912Y016308D02*
X009282Y016308D01*
X008912Y016926D02*
X008912Y017346D01*
X008807Y017570D02*
X008912Y017676D01*
X008912Y017886D01*
X008807Y017991D01*
X008597Y017991D01*
X008492Y017886D01*
X008492Y017781D01*
X008597Y017570D01*
X008282Y017570D01*
X008282Y017991D01*
X009282Y018031D02*
X009282Y018241D01*
X009387Y018346D01*
X009492Y018346D01*
X009597Y018241D01*
X009597Y018031D01*
X009492Y017926D01*
X009387Y017926D01*
X009282Y018031D01*
X009282Y017702D02*
X009912Y017281D01*
X009807Y017926D02*
X009702Y017926D01*
X009597Y018031D01*
X009597Y018241D02*
X009702Y018346D01*
X009807Y018346D01*
X009912Y018241D01*
X009912Y018031D01*
X009807Y017926D01*
X009807Y018570D02*
X009912Y018676D01*
X009912Y018886D01*
X009807Y018991D01*
X009597Y018991D01*
X009492Y018886D01*
X009492Y018781D01*
X009597Y018570D01*
X009282Y018570D01*
X009282Y018991D01*
X012382Y019089D02*
X012382Y019405D01*
X012487Y019510D01*
X012697Y019510D01*
X012802Y019405D01*
X012802Y019089D01*
X012802Y018865D02*
X012907Y018865D01*
X013012Y018760D01*
X013012Y018550D01*
X012907Y018445D01*
X012697Y018550D02*
X012697Y018760D01*
X012802Y018865D01*
X013012Y019089D02*
X012382Y019089D01*
X012487Y018865D02*
X012382Y018760D01*
X012382Y018550D01*
X012487Y018445D01*
X012592Y018445D01*
X012697Y018550D01*
X013012Y018225D02*
X013012Y018015D01*
X013012Y018120D02*
X012382Y018120D01*
X012382Y018015D02*
X012382Y018225D01*
D12*
X012997Y017680D02*
X013247Y017430D01*
X013247Y016930D01*
X012997Y016680D01*
X011497Y016680D01*
X011247Y016430D01*
X011247Y015930D01*
X011497Y015680D01*
X011247Y015430D01*
X011247Y014930D01*
X011497Y014680D01*
X012997Y014680D01*
X013247Y014930D01*
X013247Y015430D01*
X012997Y015680D01*
X011497Y015680D01*
X011497Y016680D02*
X011247Y016930D01*
X011247Y017430D01*
X011497Y017680D01*
X012997Y017680D01*
X012997Y016680D02*
X013247Y016430D01*
X013247Y015930D01*
X012997Y015680D01*
X010247Y012330D02*
X010247Y010030D01*
X003247Y010030D01*
X003247Y010780D01*
X003286Y010782D01*
X003325Y010788D01*
X003363Y010797D01*
X003400Y010810D01*
X003436Y010827D01*
X003469Y010847D01*
X003501Y010871D01*
X003530Y010897D01*
X003556Y010926D01*
X003580Y010958D01*
X003600Y010991D01*
X003617Y011027D01*
X003630Y011064D01*
X003639Y011102D01*
X003645Y011141D01*
X003647Y011180D01*
X003645Y011219D01*
X003639Y011258D01*
X003630Y011296D01*
X003617Y011333D01*
X003600Y011369D01*
X003580Y011402D01*
X003556Y011434D01*
X003530Y011463D01*
X003501Y011489D01*
X003469Y011513D01*
X003436Y011533D01*
X003400Y011550D01*
X003363Y011563D01*
X003325Y011572D01*
X003286Y011578D01*
X003247Y011580D01*
X003247Y012330D01*
X010247Y012330D01*
X007247Y015080D02*
X007247Y017280D01*
X003247Y017280D01*
X003247Y016430D01*
X003277Y016428D01*
X003307Y016423D01*
X003336Y016414D01*
X003363Y016401D01*
X003389Y016386D01*
X003413Y016367D01*
X003434Y016346D01*
X003453Y016322D01*
X003468Y016296D01*
X003481Y016269D01*
X003490Y016240D01*
X003495Y016210D01*
X003497Y016180D01*
X003495Y016150D01*
X003490Y016120D01*
X003481Y016091D01*
X003468Y016064D01*
X003453Y016038D01*
X003434Y016014D01*
X003413Y015993D01*
X003389Y015974D01*
X003363Y015959D01*
X003336Y015946D01*
X003307Y015937D01*
X003277Y015932D01*
X003247Y015930D01*
X003247Y015080D01*
X007247Y015080D01*
X007397Y020180D02*
X006897Y020180D01*
X006647Y020430D01*
X006397Y020180D01*
X005897Y020180D01*
X005647Y020430D01*
X005397Y020180D01*
X004897Y020180D01*
X004647Y020430D01*
X004397Y020180D01*
X003897Y020180D01*
X003647Y020430D01*
X003397Y020180D01*
X002897Y020180D01*
X002647Y020430D01*
X002397Y020180D01*
X001897Y020180D01*
X001647Y020430D01*
X001397Y020180D01*
X000897Y020180D01*
X000647Y020430D01*
X000647Y020930D01*
X000897Y021180D01*
X001397Y021180D01*
X001647Y020930D01*
X001897Y021180D01*
X002397Y021180D01*
X002647Y020930D01*
X002647Y020430D01*
X002647Y020930D02*
X002897Y021180D01*
X003397Y021180D01*
X003647Y020930D01*
X003897Y021180D01*
X004397Y021180D01*
X004647Y020930D01*
X004897Y021180D01*
X005397Y021180D01*
X005647Y020930D01*
X005647Y020430D01*
X005647Y020930D02*
X005897Y021180D01*
X006397Y021180D01*
X006647Y020930D01*
X006897Y021180D01*
X007397Y021180D01*
X007647Y020930D01*
X007897Y021180D01*
X008397Y021180D01*
X008647Y020930D01*
X008647Y020430D01*
X008397Y020180D01*
X007897Y020180D01*
X007647Y020430D01*
X007397Y020180D01*
X007647Y020430D02*
X007647Y020930D01*
X006647Y020930D02*
X006647Y020430D01*
X004647Y020430D02*
X004647Y020930D01*
X003647Y020930D02*
X003647Y020430D01*
X001647Y020430D02*
X001647Y020930D01*
X010197Y021180D02*
X010197Y020380D01*
X010199Y020363D01*
X010203Y020346D01*
X010210Y020330D01*
X010220Y020316D01*
X010233Y020303D01*
X010247Y020293D01*
X010263Y020286D01*
X010280Y020282D01*
X010297Y020280D01*
X012997Y020280D01*
X013014Y020282D01*
X013031Y020286D01*
X013047Y020293D01*
X013061Y020303D01*
X013074Y020316D01*
X013084Y020330D01*
X013091Y020346D01*
X013095Y020363D01*
X013097Y020380D01*
X013097Y021180D01*
X013095Y021197D01*
X013091Y021214D01*
X013084Y021230D01*
X013074Y021244D01*
X013061Y021257D01*
X013047Y021267D01*
X013031Y021274D01*
X013014Y021278D01*
X012997Y021280D01*
X010297Y021280D01*
X010280Y021278D01*
X010263Y021274D01*
X010247Y021267D01*
X010233Y021257D01*
X010220Y021244D01*
X010210Y021230D01*
X010203Y021214D01*
X010199Y021197D01*
X010197Y021180D01*
X011047Y020780D02*
X011517Y020780D01*
X011767Y020780D02*
X012247Y020780D01*
X013447Y007280D02*
X003047Y007280D01*
X003047Y006430D01*
X003077Y006428D01*
X003107Y006423D01*
X003136Y006414D01*
X003163Y006401D01*
X003189Y006386D01*
X003213Y006367D01*
X003234Y006346D01*
X003253Y006322D01*
X003268Y006296D01*
X003281Y006269D01*
X003290Y006240D01*
X003295Y006210D01*
X003297Y006180D01*
X003295Y006150D01*
X003290Y006120D01*
X003281Y006091D01*
X003268Y006064D01*
X003253Y006038D01*
X003234Y006014D01*
X003213Y005993D01*
X003189Y005974D01*
X003163Y005959D01*
X003136Y005946D01*
X003107Y005937D01*
X003077Y005932D01*
X003047Y005930D01*
X003047Y005080D01*
X013447Y005080D01*
X013447Y007280D01*
X009997Y002180D02*
X010247Y001930D01*
X010247Y001430D01*
X009997Y001180D01*
X009497Y001180D01*
X009247Y001430D01*
X008997Y001180D01*
X008497Y001180D01*
X008247Y001430D01*
X007997Y001180D01*
X007497Y001180D01*
X007247Y001430D01*
X006997Y001180D01*
X006497Y001180D01*
X006247Y001430D01*
X005997Y001180D01*
X005497Y001180D01*
X005247Y001430D01*
X004997Y001180D01*
X004497Y001180D01*
X004247Y001430D01*
X004247Y001930D01*
X004497Y002180D01*
X004997Y002180D01*
X005247Y001930D01*
X005497Y002180D01*
X005997Y002180D01*
X006247Y001930D01*
X006247Y001430D01*
X006247Y001930D02*
X006497Y002180D01*
X006997Y002180D01*
X007247Y001930D01*
X007497Y002180D01*
X007997Y002180D01*
X008247Y001930D01*
X008497Y002180D01*
X008997Y002180D01*
X009247Y001930D01*
X009497Y002180D01*
X009997Y002180D01*
X009247Y001930D02*
X009247Y001430D01*
X008247Y001430D02*
X008247Y001930D01*
X007247Y001930D02*
X007247Y001430D01*
X005247Y001430D02*
X005247Y001930D01*
X003147Y001130D02*
X002947Y001130D01*
X003047Y001230D02*
X003047Y001030D01*
X001947Y001680D02*
X001949Y001736D01*
X001955Y001793D01*
X001965Y001848D01*
X001979Y001903D01*
X001996Y001957D01*
X002018Y002009D01*
X002043Y002059D01*
X002071Y002108D01*
X002103Y002155D01*
X002138Y002199D01*
X002176Y002241D01*
X002217Y002280D01*
X002261Y002315D01*
X002307Y002348D01*
X002355Y002377D01*
X002405Y002403D01*
X002457Y002426D01*
X002511Y002444D01*
X002565Y002459D01*
X002620Y002470D01*
X002676Y002477D01*
X002733Y002480D01*
X002789Y002479D01*
X002846Y002474D01*
X002901Y002465D01*
X002956Y002452D01*
X003010Y002435D01*
X003063Y002415D01*
X003114Y002391D01*
X003163Y002363D01*
X003210Y002332D01*
X003255Y002298D01*
X003298Y002260D01*
X003337Y002220D01*
X003374Y002177D01*
X003407Y002132D01*
X003437Y002084D01*
X003464Y002034D01*
X003487Y001983D01*
X003507Y001930D01*
X003523Y001876D01*
X003535Y001820D01*
X003543Y001765D01*
X003547Y001708D01*
X003547Y001652D01*
X003543Y001595D01*
X003535Y001540D01*
X003523Y001484D01*
X003507Y001430D01*
X003487Y001377D01*
X003464Y001326D01*
X003437Y001276D01*
X003407Y001228D01*
X003374Y001183D01*
X003337Y001140D01*
X003298Y001100D01*
X003255Y001062D01*
X003210Y001028D01*
X003163Y000997D01*
X003114Y000969D01*
X003063Y000945D01*
X003010Y000925D01*
X002956Y000908D01*
X002901Y000895D01*
X002846Y000886D01*
X002789Y000881D01*
X002733Y000880D01*
X002676Y000883D01*
X002620Y000890D01*
X002565Y000901D01*
X002511Y000916D01*
X002457Y000934D01*
X002405Y000957D01*
X002355Y000983D01*
X002307Y001012D01*
X002261Y001045D01*
X002217Y001080D01*
X002176Y001119D01*
X002138Y001161D01*
X002103Y001205D01*
X002071Y001252D01*
X002043Y001301D01*
X002018Y001351D01*
X001996Y001403D01*
X001979Y001457D01*
X001965Y001512D01*
X001955Y001567D01*
X001949Y001624D01*
X001947Y001680D01*
X011275Y001350D02*
X011275Y000910D01*
X011275Y001057D02*
X011495Y001057D01*
X011569Y001130D01*
X011569Y001277D01*
X011495Y001350D01*
X011275Y001350D01*
X011422Y001057D02*
X011569Y000910D01*
X011736Y000983D02*
X011736Y001130D01*
X011809Y001204D01*
X011956Y001204D01*
X012029Y001130D01*
X012029Y001057D01*
X011736Y001057D01*
X011736Y000983D02*
X011809Y000910D01*
X011956Y000910D01*
X012196Y001204D02*
X012343Y000910D01*
X012490Y001204D01*
X013117Y001204D02*
X013264Y001350D01*
X013264Y000910D01*
X013410Y000910D02*
X013117Y000910D01*
D13*
X005981Y000800D02*
X005981Y000680D01*
X005921Y000620D01*
X005740Y000620D01*
X005740Y000500D02*
X005740Y000860D01*
X005921Y000860D01*
X005981Y000800D01*
X005861Y000620D02*
X005981Y000500D01*
X005612Y000500D02*
X005372Y000500D01*
X005372Y000860D01*
X005612Y000860D01*
X005492Y000680D02*
X005372Y000680D01*
X005244Y000500D02*
X005244Y000860D01*
X005124Y000620D02*
X005244Y000500D01*
X005124Y000620D02*
X005004Y000500D01*
X005004Y000860D01*
X004876Y000800D02*
X004876Y000560D01*
X004816Y000500D01*
X004696Y000500D01*
X004636Y000560D01*
X004636Y000800D01*
X004696Y000860D01*
X004816Y000860D01*
X004876Y000800D01*
X004507Y000800D02*
X004507Y000680D01*
X004447Y000620D01*
X004267Y000620D01*
X004267Y000500D02*
X004267Y000860D01*
X004447Y000860D01*
X004507Y000800D01*
X010987Y017700D02*
X010867Y017820D01*
X011227Y017820D01*
X011227Y017700D02*
X011227Y017940D01*
X008127Y019692D02*
X008067Y019632D01*
X008007Y019632D01*
X007947Y019692D01*
X007947Y019812D01*
X008007Y019872D01*
X008067Y019872D01*
X008127Y019812D01*
X008127Y019692D01*
X007947Y019692D02*
X007887Y019632D01*
X007827Y019632D01*
X007767Y019692D01*
X007767Y019812D01*
X007827Y019872D01*
X007887Y019872D01*
X007947Y019812D01*
X007127Y019812D02*
X007067Y019872D01*
X006827Y019872D01*
X006767Y019812D01*
X006767Y019692D01*
X006827Y019632D01*
X006887Y019632D01*
X006947Y019692D01*
X006947Y019872D01*
X007127Y019812D02*
X007127Y019692D01*
X007067Y019632D01*
X006127Y019692D02*
X006067Y019632D01*
X005827Y019872D01*
X006067Y019872D01*
X006127Y019812D01*
X006127Y019692D01*
X006067Y019632D02*
X005827Y019632D01*
X005767Y019692D01*
X005767Y019812D01*
X005827Y019872D01*
X006127Y019504D02*
X006127Y019263D01*
X006127Y019383D02*
X005767Y019383D01*
X005887Y019263D01*
X005127Y019263D02*
X005127Y019504D01*
X005127Y019383D02*
X004767Y019383D01*
X004887Y019263D01*
X004887Y019632D02*
X004767Y019752D01*
X005127Y019752D01*
X005127Y019632D02*
X005127Y019872D01*
X004127Y019872D02*
X004127Y019632D01*
X003887Y019872D01*
X003827Y019872D01*
X003767Y019812D01*
X003767Y019692D01*
X003827Y019632D01*
X003767Y019383D02*
X004127Y019383D01*
X004127Y019263D02*
X004127Y019504D01*
X003887Y019263D02*
X003767Y019383D01*
X003127Y019383D02*
X002767Y019383D01*
X002887Y019263D01*
X003127Y019263D02*
X003127Y019504D01*
X003067Y019632D02*
X003127Y019692D01*
X003127Y019812D01*
X003067Y019872D01*
X003007Y019872D01*
X002947Y019812D01*
X002947Y019752D01*
X002947Y019812D02*
X002887Y019872D01*
X002827Y019872D01*
X002767Y019812D01*
X002767Y019692D01*
X002827Y019632D01*
X002127Y019632D02*
X002127Y019812D01*
X002067Y019872D01*
X001827Y019872D01*
X001767Y019812D01*
X001767Y019632D01*
X002127Y019632D01*
X002127Y019504D02*
X001767Y019504D01*
X001767Y019263D02*
X002127Y019504D01*
X002127Y019263D02*
X001767Y019263D01*
X001827Y019135D02*
X001767Y019075D01*
X001767Y018955D01*
X001827Y018895D01*
X002067Y018895D01*
X002127Y018955D01*
X002127Y019075D01*
X002067Y019135D01*
X001947Y019135D01*
X001947Y019015D01*
X001127Y018895D02*
X000767Y018895D01*
X000767Y019075D01*
X000827Y019135D01*
X000947Y019135D01*
X001007Y019075D01*
X001007Y018895D01*
X001007Y019015D02*
X001127Y019135D01*
X001127Y019263D02*
X001127Y019504D01*
X001127Y019632D02*
X000767Y019632D01*
X000767Y019872D01*
X000947Y019752D02*
X000947Y019632D01*
X000767Y019504D02*
X000767Y019263D01*
X001127Y019263D01*
X000947Y019263D02*
X000947Y019383D01*
X000947Y018767D02*
X000947Y018527D01*
X000887Y018527D02*
X000767Y018647D01*
X000887Y018767D01*
X001127Y018767D01*
X001127Y018527D02*
X000887Y018527D01*
D14*
X011517Y020530D02*
X011517Y020780D01*
X011517Y021030D01*
X011767Y021030D02*
X011767Y020780D01*
X011767Y020530D01*
M02*
