%
M48
M72
T01C0.0280
T02C0.0320
T03C0.0400
%
T01
X2397Y1680
X3097Y1680
T02
X3747Y4680
X4747Y4680
X5747Y4680
X6747Y4680
X7747Y4680
X8747Y4680
X9747Y4680
X10747Y4680
X11747Y4680
X12747Y4680
X12747Y7680
X11747Y7680
X10747Y7680
X9747Y7680
X8747Y7680
X7747Y7680
X6747Y7680
X5747Y7680
X4747Y7680
X3747Y7680
X3747Y9680
X4747Y9680
X5747Y9680
X6747Y9680
X7747Y9680
X8747Y9680
X9747Y9680
X9747Y12680
X8747Y12680
X7747Y12680
X6747Y12680
X5747Y12680
X4747Y12680
X3747Y12680
X3747Y14680
X4747Y14680
X5747Y14680
X6747Y14680
X6747Y17680
X5747Y17680
X4747Y17680
X3747Y17680
X10647Y20780
X12647Y20780
T03
X12747Y17180
X12747Y16180
X12747Y15180
X11747Y15180
X11747Y16180
X11747Y17180
X8147Y20680
X7147Y20680
X6147Y20680
X5147Y20680
X4147Y20680
X3147Y20680
X2147Y20680
X1147Y20680
X4747Y1680
X5747Y1680
X6747Y1680
X7747Y1680
X8747Y1680
X9747Y1680
M30
